<svg width="315" height="250" fill="none" xmlns="http://www.w3.org/2000/svg"><g clip-path="url(#a)"><path d="M282.49 219.636 292.111 180l15.084 36.823-4.421-1.279 10.923 21.992-6.242-2.046L315 250h-34l3.05-13.486-2.861 3.835 6.254-23.199-4.953 2.486zM1.269 220.176 10.662 181l14.723 36.395-4.316-1.264 10.662 21.736-6.093-2.021L33 250H0l2.792-13.143L0 240.648l6.104-22.93-4.835 2.458z" fill="#365462"/><path d="M195.825 15.986c.358-2.555-3.306-4.657-6.059-4.876-1.313-.104-2.677.093-3.92-.333-2.696-.924-3.772-4.351-6.402-5.442-1.965-.816-4.229-.09-6.134.854-1.906.944-3.789 2.132-5.918 2.266-1.853.117-3.864-.56-5.485.332-1.207.663-1.839 2.032-2.952 2.84-1.089.79-2.509.957-3.86 1.03-1.351.072-2.75.086-3.979.64-1.23.554-2.248 1.835-1.993 3.142l46.702-.454z" fill="#FCFDFD"/><path d="M280.422 71.886c.522-3.736-4.836-6.81-8.862-7.13-1.92-.151-3.914.137-5.733-.487-3.941-1.351-5.515-6.362-9.36-7.958-2.875-1.194-6.184-.132-8.971 1.249-2.787 1.38-5.542 3.118-8.656 3.314-2.708.17-5.648-.818-8.018.484-1.766.97-2.691 2.973-4.319 4.154-1.592 1.156-3.669 1.401-5.644 1.506-1.976.107-4.021.126-5.82.936-1.799.812-3.287 2.683-2.913 4.596l68.296-.664z" fill="#EEE"/><path d="M88.945 30.423c.454-3.25-4.207-5.924-7.71-6.202-1.67-.133-3.404.119-4.986-.424-3.429-1.176-4.798-5.535-8.143-6.923-2.501-1.038-5.38-.114-7.804 1.086-2.425 1.202-4.82 2.713-7.53 2.883-2.355.149-4.914-.711-6.975.422-1.536.844-2.34 2.586-3.757 3.613-1.385 1.006-3.191 1.218-4.91 1.31-1.719.093-3.498.11-5.063.815-1.564.705-2.86 2.334-2.534 3.997l59.412-.577z" fill="#F8F8F9"/><path d="m274.205 8.258.559 1.005c.21.38.527.69.912.898l1.02.55-1.02.549a2.27 2.27 0 0 0-.912.897l-.559 1.005-.558-1.005a2.277 2.277 0 0 0-.912-.897l-1.021-.55 1.021-.55c.385-.207.701-.518.912-.897l.558-1.005zM189.857 8.304l.342.614c.129.233.322.423.558.55l.625.336-.625.336a1.394 1.394 0 0 0-.558.55l-.342.615-.342-.616a1.4 1.4 0 0 0-.558-.549l-.625-.336.625-.336c.235-.127.429-.317.558-.55l.342-.614zM276.987 193.758h-36.988V98.474h36.988v95.284z" fill="#EEE"/><path d="M276.987 193.758h-18.494V98.474h18.494v95.284z" fill="#E3E3E2"/><path d="M257.284 98.475h-13.062V87.148h13.062v11.327z" fill="#EEE"/><path d="M257.284 98.475h-3.113V87.148h3.113v11.327z" fill="#E3E3E2"/><path d="M278.07 98.475h-41.153v-.661h41.153v.66z" fill="#E3E3E2"/><path d="M250.431 109.911h-3.13v-6.496h3.13v6.496z" fill="#fff"/><path d="M258.493 112.462c0 .068-4.14.124-9.246.124-5.108 0-9.248-.056-9.248-.124 0-.069 4.14-.125 9.248-.125 5.106 0 9.246.056 9.246.125z" fill="#E3E3E2"/><path d="M269.086 109.911h-3.131v-6.496h3.131v6.496z" fill="#F8F8F9"/><path d="M277.148 112.462c0 .068-4.141.124-9.247.124-5.108 0-9.247-.056-9.247-.124 0-.069 4.139-.125 9.247-.125 5.106 0 9.247.056 9.247.125z" fill="#EEE"/><path d="M269.086 122.812h-3.131v-6.498h3.131v6.498z" fill="#F8F8F9"/><path d="M277.148 125.361c0 .069-4.141.124-9.247.124-5.108 0-9.247-.055-9.247-.124 0-.068 4.139-.124 9.247-.124 5.106 0 9.247.056 9.247.124z" fill="#EEE"/><path d="M269.086 136.1h-3.131v-6.497h3.131v6.497z" fill="#F8F8F9"/><path d="M277.148 138.65c0 .069-4.141.124-9.247.124-5.108 0-9.247-.055-9.247-.124s4.139-.124 9.247-.124c5.106 0 9.247.055 9.247.124z" fill="#EEE"/><path d="M269.086 149.389h-3.131v-6.497h3.131v6.497z" fill="#F8F8F9"/><path d="M277.148 151.939c0 .069-4.141.124-9.247.124-5.108 0-9.247-.055-9.247-.124 0-.068 4.139-.124 9.247-.124 5.106 0 9.247.056 9.247.124z" fill="#EEE"/><path d="M269.086 162.298h-3.131v-6.497h3.131v6.497z" fill="#F8F8F9"/><path d="M277.148 164.849c0 .068-4.141.123-9.247.123-5.108 0-9.247-.055-9.247-.123 0-.07 4.139-.125 9.247-.125 5.106 0 9.247.055 9.247.125z" fill="#EEE"/><path d="M269.086 175.259h-3.131v-6.497h3.131v6.497zM269.086 188.39h-3.131v-6.497h3.131v6.497z" fill="#F8F8F9"/><path d="M277.148 177.809c0 .068-4.141.124-9.247.124-5.108 0-9.247-.056-9.247-.124s4.139-.124 9.247-.124c5.106 0 9.247.056 9.247.124z" fill="#EEE"/><path d="M250.431 123.008h-3.13v-6.497h3.13v6.497z" fill="#fff"/><path d="M258.493 125.558c0 .069-4.14.124-9.246.124-5.108 0-9.248-.055-9.248-.124s4.14-.124 9.248-.124c5.106 0 9.246.055 9.246.124z" fill="#E3E3E2"/><path d="M250.431 136.105h-3.13v-6.497h3.13v6.497z" fill="#fff"/><path d="M258.493 138.654c0 .069-4.14.124-9.246.124-5.108 0-9.248-.055-9.248-.124 0-.068 4.14-.124 9.248-.124 5.106 0 9.246.056 9.246.124z" fill="#E3E3E2"/><path d="M250.431 149.201h-3.13v-6.497h3.13v6.497z" fill="#fff"/><path d="M258.493 151.751c0 .069-4.14.124-9.246.124-5.108 0-9.248-.055-9.248-.124 0-.068 4.14-.124 9.248-.124 5.106 0 9.246.056 9.246.124z" fill="#E3E3E2"/><path d="M250.431 162.298h-3.13v-6.497h3.13v6.497z" fill="#fff"/><path d="M258.493 164.849c0 .068-4.14.123-9.246.123-5.108 0-9.248-.055-9.248-.123 0-.07 4.14-.125 9.248-.125 5.106 0 9.246.055 9.246.125z" fill="#E3E3E2"/><path d="M250.431 175.395h-3.13v-6.498h3.13v6.498z" fill="#fff"/><path d="M258.493 177.944c0 .069-4.14.124-9.246.124-5.108 0-9.248-.055-9.248-.124 0-.068 4.14-.124 9.248-.124 5.106 0 9.246.056 9.246.124z" fill="#E3E3E2"/><path d="M250.431 188.491h-3.13v-6.496h3.13v6.496z" fill="#fff"/><path d="M91.587 225.521h-41.98V94.581h41.98v130.94z" fill="#F8F8F9"/><path d="M91.586 225.161h-20.99V94.581h20.99v130.58z" fill="#EEE"/><path d="M69.224 94.581H54.4V81.726h14.824v12.855z" fill="#F8F8F9"/><path d="M69.224 94.581h-3.533V81.726h3.533v12.855z" fill="#EEE"/><path d="M46.108 94.581h46.707v-.75H46.108v.75z" fill="#E3E3E2"/><path d="M61.446 107.562h-3.553v-7.374h3.553v7.374z" fill="#FCFDFD"/><path d="M70.596 110.456c0 .077-4.699.141-10.494.141-5.797 0-10.495-.064-10.495-.141 0-.078 4.698-.141 10.495-.141 5.795 0 10.494.063 10.494.141zM82.619 107.562h-3.553v-7.374h3.553v7.374zM91.768 110.456c0 .077-4.698.141-10.494.141-5.797 0-10.495-.064-10.495-.141 0-.078 4.698-.141 10.495-.141 5.796 0 10.494.063 10.494.141zM82.619 122.202h-3.553v-7.374h3.553v7.374zM91.768 125.097c0 .078-4.698.14-10.494.14-5.797 0-10.495-.062-10.495-.14 0-.078 4.698-.141 10.495-.141 5.796 0 10.494.063 10.494.141zM82.619 137.285h-3.553v-7.374h3.553v7.374zM91.768 140.179c0 .078-4.698.141-10.494.141-5.797 0-10.495-.063-10.495-.141 0-.077 4.698-.141 10.495-.141 5.796 0 10.494.064 10.494.141zM82.619 152.367h-3.553v-7.374h3.553v7.374zM91.768 155.262c0 .078-4.698.14-10.494.14-5.797 0-10.495-.062-10.495-.14 0-.078 4.698-.14 10.495-.14 5.796 0 10.494.062 10.494.14zM82.619 167.019h-3.553v-7.374h3.553v7.374zM91.768 169.913c0 .078-4.698.141-10.494.141-5.797 0-10.495-.063-10.495-.141 0-.078 4.698-.141 10.495-.141 5.796 0 10.494.063 10.494.141zM82.619 181.729h-3.553v-7.374h3.553v7.374zM82.619 196.632h-3.553v-7.374h3.553v7.374zM91.768 184.623c0 .078-4.698.141-10.494.141-5.797 0-10.495-.063-10.495-.141 0-.078 4.698-.14 10.495-.14 5.796 0 10.494.062 10.494.14z" fill="#E3E3E2"/><path d="M61.446 122.426h-3.553v-7.374h3.553v7.374z" fill="#FCFDFD"/><path d="M70.596 125.32c0 .078-4.699.14-10.494.14-5.797 0-10.495-.062-10.495-.14 0-.078 4.698-.14 10.495-.14 5.795 0 10.494.062 10.494.14z" fill="#E3E3E2"/><path d="M61.446 137.29h-3.553v-7.374h3.553v7.374z" fill="#FCFDFD"/><path d="M70.596 140.185c0 .077-4.699.14-10.494.14-5.797 0-10.495-.063-10.495-.14 0-.078 4.698-.142 10.495-.142 5.795 0 10.494.064 10.494.142z" fill="#E3E3E2"/><path d="M61.446 152.155h-3.553v-7.375h3.553v7.375z" fill="#FCFDFD"/><path d="M70.596 155.048c0 .078-4.699.141-10.494.141-5.797 0-10.495-.063-10.495-.141 0-.077 4.698-.14 10.495-.14 5.795 0 10.494.063 10.494.14z" fill="#E3E3E2"/><path d="M61.446 167.019h-3.553v-7.374h3.553v7.374z" fill="#FCFDFD"/><path d="M70.596 169.913c0 .078-4.699.141-10.494.141-5.797 0-10.495-.063-10.495-.141 0-.078 4.698-.141 10.495-.141 5.795 0 10.494.063 10.494.141z" fill="#E3E3E2"/><path d="M61.446 181.883h-3.553v-7.374h3.553v7.374z" fill="#FCFDFD"/><path d="M70.596 184.777c0 .078-4.699.141-10.494.141-5.797 0-10.495-.063-10.495-.141 0-.078 4.698-.14 10.495-.14 5.795 0 10.494.062 10.494.14z" fill="#E3E3E2"/><path d="M61.446 196.747h-3.553v-7.374h3.553v7.374z" fill="#FCFDFD"/><path d="M217.443 249.661h61.99V133.87h-61.99v115.791z" fill="#E3E3E2"/><path d="M250.367 249.661h29.066V133.87h-29.066v115.791z" fill="#EEE"/><path d="M236.015 158.093h-5.574v-13.327h5.574v13.327zM230.441 210.255h5.574v-13.327h-5.574v13.327zM250.367 163.324c0 .115-7.371.208-16.462.208-9.093 0-16.462-.093-16.462-.208 0-.114 7.369-.208 16.462-.208 9.091 0 16.462.094 16.462.208zM230.441 184.372h5.574v-13.327h-5.574v13.327zM250.367 189.603c0 .114-7.371.208-16.462.208-9.093 0-16.462-.094-16.462-.208 0-.114 7.369-.208 16.462-.208 9.091 0 16.462.094 16.462.208z" fill="#F8F8F9"/><path d="M262.113 158.093h-5.573v-13.327h5.573v13.327zM274.206 158.093h-5.574v-13.327h5.574v13.327zM262.113 183.384h-5.573v-13.329h5.573v13.329zM274.206 183.384h-5.574v-13.329h5.574v13.329zM262.113 208.673h-5.573v-13.328h5.573v13.328zM274.206 208.673h-5.574v-13.328h5.574v13.328zM284.093 133.971h-71.31v-2.901h71.31v2.901z" fill="#E3E3E2"/><path d="M279.866 134.245c0 .115-13.855.208-30.943.208-17.094 0-30.946-.093-30.946-.208 0-.115 13.852-.208 30.946-.208 17.088 0 30.943.093 30.943.208zM86.484 249.836h61.286v-79.557H86.484v79.557z" fill="#EEE"/><path d="M119.034 249.836h28.736v-79.557h-28.736v79.557z" fill="#E3E3E2"/><path d="M99.334 194.227h5.511v-13.176h-5.511v13.176zM99.334 245.797h5.511V232.62h-5.511v13.177zM119.034 199.398c0 .149-7.287.269-16.274.269-8.99 0-16.276-.12-16.276-.269 0-.148 7.286-.268 16.276-.268 8.987 0 16.274.12 16.274.268zM99.334 220.207h5.511v-13.176h-5.511v13.176zM119.034 225.379c0 .148-7.287.268-16.274.268-8.99 0-16.276-.12-16.276-.268 0-.148 7.286-.269 16.276-.269 8.987 0 16.274.121 16.274.269zM125.136 194.227h5.511v-13.176h-5.511v13.176zM137.091 194.227h5.51v-13.176h-5.51v13.176zM125.136 219.23h5.511v-13.176h-5.511v13.176zM137.091 219.23h5.51v-13.176h-5.51v13.176zM125.136 244.232h5.511v-13.176h-5.511v13.176zM137.091 244.232h5.51v-13.176h-5.51v13.176z" fill="#F8F8F9"/><path d="M81.877 170.379h70.5v-2.868h-70.5v2.868z" fill="#E3E3E2"/><path d="M148.197 170.65c0 .148-13.697.268-30.591.268-16.899 0-30.594-.12-30.594-.268 0-.149 13.695-.268 30.594-.268 16.894 0 30.591.119 30.591.268zM85.192 249.849H23.417l-.269-96.087h61.775l.269 96.087z" fill="#EEE"/><path d="M84.923 249.849H54.035v-96.087h30.888v96.087z" fill="#E3E3E2"/><path d="M52.016 153.762H30.202v-18.916h21.814v18.916z" fill="#EEE"/><path d="M52.016 153.762h-5.2v-18.916h5.2v18.916z" fill="#E3E3E2"/><path d="M86.73 153.762H18v-1.103h68.73v1.103z" fill="#E3E3E2"/><path d="M40.57 172.864h-5.228v-10.851h5.229v10.851z" fill="#fff"/><path d="M54.035 177.123c0 .114-6.915.207-15.443.207-8.53 0-15.444-.093-15.444-.207 0-.115 6.913-.208 15.444-.208 8.528 0 15.443.093 15.443.208z" fill="#E3E3E2"/><path d="M71.727 172.864h-5.23v-10.851h5.23v10.851z" fill="#F8F8F9"/><path d="M85.191 177.123c0 .114-6.915.207-15.443.207-8.53 0-15.444-.093-15.444-.207 0-.115 6.914-.208 15.444-.208 8.528 0 15.443.093 15.443.208z" fill="#EEE"/><path d="M71.727 194.408h-5.23v-10.851h5.23v10.851z" fill="#F8F8F9"/><path d="M85.191 198.667c0 .114-6.915.207-15.443.207-8.53 0-15.444-.093-15.444-.207 0-.115 6.914-.208 15.444-.208 8.528 0 15.443.093 15.443.208z" fill="#EEE"/><path d="M71.727 216.602h-5.23V205.75h5.23v10.852z" fill="#F8F8F9"/><path d="M85.191 220.861c0 .115-6.915.207-15.443.207-8.53 0-15.444-.092-15.444-.207 0-.114 6.914-.207 15.444-.207 8.528 0 15.443.093 15.443.207z" fill="#EEE"/><path d="M71.727 238.797h-5.23v-10.852h5.23v10.852z" fill="#F8F8F9"/><path d="M85.191 243.055c0 .115-6.915.207-15.443.207-8.53 0-15.444-.092-15.444-.207 0-.114 6.914-.207 15.444-.207 8.528 0 15.443.093 15.443.207z" fill="#EEE"/><path d="M40.57 194.737h-5.228v-10.852h5.229v10.852z" fill="#fff"/><path d="M54.035 198.996c0 .114-6.915.206-15.443.206-8.53 0-15.444-.092-15.444-.206 0-.115 6.913-.207 15.444-.207 8.528 0 15.443.092 15.443.207z" fill="#E3E3E2"/><path d="M40.57 216.61h-5.228v-10.852h5.229v10.852z" fill="#fff"/><path d="M54.035 220.869c0 .114-6.915.207-15.443.207-8.53 0-15.444-.093-15.444-.207 0-.115 6.913-.207 15.444-.207 8.528 0 15.443.092 15.443.207z" fill="#E3E3E2"/><path d="M40.57 238.483h-5.228v-10.851h5.229v10.851z" fill="#fff"/><path d="M54.035 242.742c0 .114-6.915.207-15.443.207-8.53 0-15.444-.093-15.444-.207 0-.114 6.913-.208 15.444-.208 8.528 0 15.443.094 15.443.208z" fill="#E3E3E2"/><path fill-rule="evenodd" clip-rule="evenodd" d="M173.03 83.035 259.075 250H245L165.884 85.812a107.83 107.83 0 0 0 7.146-2.777zM98.117 250h17.225l5.862-155.65 2.031-.388c-3.934.257-7.214.35-9.571.378L98.117 250z" fill="#CFC"/><path d="M245 250H115l6.551-156.33 2.031-.349c11.003-.647 27.144-2.447 42.644-7.321L245 250z" fill="#9F9" fill-opacity=".5"/><path d="m109.788 87.806-.21 6.512s38.368 1.318 68.105-13.436l-2.612-6.424-65.283 13.348z" fill="#23325A"/><path d="M116.815 90.938c0 .588-.484 1.065-1.081 1.065a1.073 1.073 0 0 1-1.082-1.065c0-.588.484-1.064 1.082-1.064.597 0 1.081.476 1.081 1.064zM132.55 89.94c0 .588-.484 1.064-1.082 1.064a1.073 1.073 0 0 1-1.081-1.064c0-.588.484-1.065 1.081-1.065.598 0 1.082.477 1.082 1.065zM124.244 90.595a1.072 1.072 0 0 1-1.027 1.116 1.075 1.075 0 0 1-1.133-1.01 1.07 1.07 0 0 1 1.026-1.116 1.075 1.075 0 0 1 1.134 1.01zM140.946 88.875c0 .588-.484 1.064-1.082 1.064a1.073 1.073 0 0 1-1.081-1.064c0-.588.484-1.064 1.081-1.064.598 0 1.082.476 1.082 1.064zM160.194 84.793c0 .588-.484 1.064-1.081 1.064a1.074 1.074 0 0 1-1.082-1.064c0-.588.485-1.064 1.082-1.064.597 0 1.081.476 1.081 1.064zM169.227 82.088c0 .589-.485 1.065-1.081 1.065a1.074 1.074 0 0 1-1.083-1.065c0-.587.485-1.063 1.083-1.063.596 0 1.081.476 1.081 1.063zM150.381 87.25c0 .588-.484 1.064-1.082 1.064a1.073 1.073 0 0 1-1.081-1.064c0-.588.484-1.065 1.081-1.065.598 0 1.082.477 1.082 1.065z" fill="#fff"/><path d="M47.911 74.246c-.3 2.28 31.428 22.488 99.405 9.753 58.408-10.943 84.104-40.8 84.104-40.8L47.911 74.246z" fill="#F03658"/><path d="M105.118 88.18c-38.743-.002-57.202-12.04-57.21-13.9l.003-.034 88.678-15.003a80.813 80.813 0 0 0 3.869-.655L231.42 43.2s-17.224 20.016-55.529 33.276c-8.477 2.936-17.991 5.54-28.575 7.524-14.052 2.633-26.546 3.857-37.538 4.124a193.38 193.38 0 0 1-4.66.057z" fill="#2E2B44"/><path d="M46.94 73.093c1.12 6.665 43.274 5.347 94.152-2.943 50.878-8.291 91.214-20.415 90.093-27.08-1.122-6.666-43.276-5.348-94.153 2.942-50.878 8.291-91.214 20.416-90.092 27.08z" fill="#23325A"/><path d="M96.275 59.855S88.671 18.93 129.597 8.916c40.925-10.012 49.774 32.892 49.774 32.892s-24.494 23.266-83.096 18.047z" fill="#EEE"/><path d="M113.349 20.72c.16.184-1.151 1.447-3.018 3.657-.465.555-.973 1.16-1.474 1.843-.532.662-1.034 1.414-1.582 2.19a49.07 49.07 0 0 0-3.093 5.334 48.673 48.673 0 0 0-2.309 5.707c-.275.906-.559 1.762-.753 2.582-.23.813-.394 1.582-.545 2.285-.591 2.814-.777 4.61-1.023 4.602-.19-.002-.402-1.83-.08-4.776.084-.734.188-1.54.369-2.393.145-.86.39-1.76.637-2.71a38.151 38.151 0 0 1 2.28-5.972 38.462 38.462 0 0 1 3.321-5.477c.601-.782 1.163-1.531 1.756-2.18a25.976 25.976 0 0 1 1.67-1.776c2.14-2.084 3.725-3.06 3.844-2.916zM224.12 24.865c.008.006-.065.123-.219.337a7.58 7.58 0 0 1-.773.858c-.721.704-1.937 1.538-3.535 2.362a97.695 97.695 0 0 1-12.877 5.587c-5.183 1.826-10.028 3.019-13.563 3.703a80.98 80.98 0 0 1-4.204.716l-1.149.15c-.264.03-.403.042-.404.031-.002-.01.134-.042.394-.093l1.14-.207c.99-.177 2.42-.44 4.179-.813 3.515-.737 8.334-1.96 13.501-3.78a108.58 108.58 0 0 0 12.879-5.489c1.605-.796 2.817-1.587 3.555-2.255.741-.663 1.05-1.126 1.076-1.107z" fill="#fff"/><path d="M131.336 86.616c-.01.019-.227-.08-.611-.277-.387-.19-.924-.512-1.561-.947a18.154 18.154 0 0 1-2.108-1.697 20.315 20.315 0 0 1-2.205-2.465 20.2 20.2 0 0 1-1.732-2.808 17.545 17.545 0 0 1-1.015-2.488c-.232-.728-.382-1.328-.452-1.749-.076-.419-.107-.652-.085-.656.057-.012.238.913.749 2.335.25.712.609 1.54 1.063 2.43.468.882 1.04 1.823 1.727 2.752.695.923 1.437 1.74 2.153 2.443.726.693 1.42 1.277 2.037 1.725 1.226.905 2.069 1.351 2.04 1.402zM127.37 77.529c.02.042-.136.127-.162.357-.014.108.01.248.094.333.077.087.227.11.375.054.146-.06.236-.18.23-.295.001-.12-.081-.236-.167-.304-.181-.147-.354-.102-.37-.145-.032-.026.172-.194.488-.042a.616.616 0 0 1 .34.47c.035.253-.156.513-.403.604-.241.103-.562.048-.716-.158a.607.607 0 0 1-.089-.57c.121-.326.385-.345.38-.304zM130.636 81.967c.02.042-.136.127-.163.357-.013.109.011.248.095.333.078.087.227.11.374.054.147-.06.237-.18.231-.295.001-.12-.081-.236-.167-.305-.182-.146-.353-.1-.37-.144-.032-.026.172-.193.488-.042a.616.616 0 0 1 .34.47c.035.253-.156.513-.403.604-.241.103-.563.048-.716-.157a.61.61 0 0 1-.089-.571c.121-.325.385-.345.38-.304zM47.108 72.666c-.004-.01.158-.083.47-.215l1.374-.56c1.194-.485 2.937-1.15 5.105-1.932 4.334-1.57 10.398-3.545 17.214-5.317 6.82-1.766 13.087-2.99 17.643-3.727 2.279-.37 4.127-.64 5.409-.796l1.476-.179c.337-.037.515-.051.517-.04.001.01-.174.045-.509.103l-1.467.236c-1.275.193-3.117.495-5.388.893a228.067 228.067 0 0 0-17.6 3.811 227.617 227.617 0 0 0-17.22 5.222c-2.175.757-3.928 1.388-5.135 1.84l-1.395.505c-.32.112-.49.167-.494.156zM182.404 43.446c-.011.02-.306-.116-.829-.376l-2.215-1.105c-1.871-.93-4.47-2.185-7.384-3.478a188.427 188.427 0 0 0-7.542-3.138l-2.308-.9c-.545-.214-.843-.341-.836-.361.008-.02.32.069.878.248.558.177 1.361.452 2.346.808 1.971.71 4.669 1.765 7.592 3.06a118.697 118.697 0 0 1 7.357 3.566c.924.49 1.665.9 2.17 1.194.506.293.781.464.771.482zM164.587 37.606c.037.032-.124.2-.078.505.024.146.102.32.249.416.141.1.361.097.55-.011.187-.11.296-.298.276-.468-.013-.173-.13-.325-.248-.415-.249-.189-.476-.132-.487-.179-.029-.026.229-.2.607-.007a.8.8 0 0 1 .418.566c.054.292-.128.616-.406.77-.273.164-.649.164-.882-.025a.798.798 0 0 1-.3-.634c.013-.418.293-.556.301-.518z" fill="#1D2A30"/><path d="M72.132 66.084c.036.032-.125.2-.078.505.023.146.1.32.248.416.141.1.361.097.55-.011.187-.11.297-.298.277-.467a.616.616 0 0 0-.25-.416c-.248-.19-.475-.131-.485-.178-.03-.027.228-.2.606-.008a.8.8 0 0 1 .418.566c.055.293-.128.616-.406.771-.273.164-.648.164-.882-.025a.794.794 0 0 1-.299-.635c.013-.418.292-.556.301-.518zM171.677 41.214c.037.032-.125.2-.078.505.023.146.101.32.248.416.142.1.361.097.55-.011.187-.11.297-.298.277-.468-.014-.173-.131-.324-.249-.415-.249-.189-.476-.131-.486-.178-.03-.027.228-.2.606-.008a.8.8 0 0 1 .418.566c.054.292-.128.616-.406.771-.273.163-.648.164-.882-.026a.79.79 0 0 1-.299-.634c.012-.418.291-.556.301-.518z" fill="#1D2A30"/><path d="M149.163 55.825s.921-4.097 1.994-4.71c1.073-.614 3.06-.81 3.534-.072.389.604.843 3.068.113 2.56-.536-.372-1.206-1.512-1.206-1.512l-1.37.521-.93 2.578-2.135.635z" fill="#365462"/><path d="m152.846 53.736.27.897.564-.192-.32-1.034-.514.33z" fill="#1D2A30"/><path d="M153.892 52.687c0 .603-.497 1.092-1.11 1.092a1.1 1.1 0 0 1-1.109-1.092 1.1 1.1 0 0 1 1.109-1.093c.613 0 1.11.49 1.11 1.093z" fill="#F03658"/><path d="M137.091 19.868c-6.37-1.29-12.41 3.16-12.865 9.545l-.017.277a8.954 8.954 0 0 0 .338 3.033 14.755 14.755 0 0 0 2.625 5.032c3.445 4.286 5.014 4.258 5.612 6.861.598 2.605 1.064 3.12-.17 4.4 0 0-1.869.328-2.821 1.064-.953.735-1.754 1.283-1.502 4.382.253 3.098.345 5.012.345 5.012 5.711-.382 11.194-1.145 16.319-2.508l-1.565-7.712s-.489-1.195-1.769-1.275c-.355-.022-.759-.017-1.163-.012-1.054.014-2.104.029-2.244-.45-.194-.66.064-.917.064-.917s2.387.636 3.789-.208c1.403-.844 2.949-1.932 3.101-3.087.151-1.155.59-5.073.38-5.22-.209-.146 1.982-2.33 1.565-6.714-.417-4.384-4.076-9.888-8.203-11.062a24.192 24.192 0 0 0-1.819-.441z" fill="#365462"/><path d="M130.987 30.63s8.168-3.504 8.05 6.276c0 0-8.92 2.161-8.05-6.276zM142.66 36.278s-4.561-7.965 1.794-7.85c0 0 4.118 5.675-1.794 7.85z" fill="#1D2A30"/><path d="M132.545 32.411c-.265.016-.507.194-.545.453a.58.58 0 0 0 .381.617.588.588 0 0 0 .682-.264.56.56 0 0 0-.16-.701.57.57 0 0 0-.473-.087M133.018 34.434c-.134.007-.257.098-.276.229-.02.131.067.27.194.314a.3.3 0 0 0 .346-.135.286.286 0 0 0-.081-.355.288.288 0 0 0-.24-.044" fill="#365462"/><path d="M127.629 27.657a.525.525 0 0 1-.391-.16c-.221-.243-.131-.687.167-.828l.377-.032c.319.088.485.51.31.786a.544.544 0 0 1-.463.234z" fill="#5D7984"/><path d="M136.617 38.114c.002.016-.139.049-.398.072a5.195 5.195 0 0 1-1.101-.035 6.055 6.055 0 0 1-3.262-1.52c-1.057-.974-1.583-2.207-1.757-3.102a4.942 4.942 0 0 1-.108-1.08c.006-.255.029-.396.046-.395.048 0 .021.566.245 1.433a6.16 6.16 0 0 0 1.755 2.955c1.009.927 2.226 1.372 3.111 1.527.894.163 1.467.097 1.469.145zM138.428 31.627c-.06.062-.915-1.114-2.52-1.766-1.594-.679-3.046-.461-3.044-.546-.005-.028.344-.127.927-.135.58-.01 1.395.1 2.22.441a5.668 5.668 0 0 1 1.869 1.258c.4.418.572.732.548.748zM141.136 32.347c-.034.006-.131-.274-.234-.744-.097-.464-.21-1.143-.056-1.888.159-.75.628-1.327 1.062-1.583.439-.266.775-.238.772-.213.009.045-.297.086-.665.364-.367.269-.765.805-.91 1.486-.143.685-.068 1.339-.018 1.806.055.47.086.764.049.772zM145.552 35.018c.069.011-.196.785-1.015 1.299-.814.524-1.64.442-1.622.376-.006-.078.741-.117 1.478-.595.746-.464 1.09-1.117 1.159-1.08zM140.482 46.663c.005.028-.336.126-.907.133a5.392 5.392 0 0 1-2.164-.46 5.314 5.314 0 0 1-1.793-1.28c-.376-.423-.529-.74-.504-.754.036-.024.243.25.639.625a6.343 6.343 0 0 0 1.766 1.171 6.384 6.384 0 0 0 2.063.513c.549.04.894.01.9.052zM132.174 59.138c-.073.009-.261-1.052-.42-2.368-.159-1.316-.229-2.39-.156-2.398.072-.008.261 1.051.419 2.368.159 1.316.229 2.39.157 2.398zM137.155 56.696c.027.063-.941.463-2.219.54-.62.05-1.258-.002-1.619-.282-.368-.265-.402-.573-.369-.571.038-.017.131.23.47.415.33.202.882.225 1.501.177 1.237-.073 2.213-.352 2.236-.279zM142.275 57.571c-.072.015-.318-.862-.549-1.958-.23-1.096-.359-1.996-.288-2.01.072-.015.317.861.548 1.957.231 1.096.36 1.996.289 2.011z" fill="#1D2A30"/><path d="M141.642 54.388c.07.006-.088.687-.75 1.175-.658.495-1.365.46-1.353.392-.009-.076.61-.156 1.192-.6.592-.432.838-.997.911-.967z" fill="#1D2A30"/><path d="M142.467 18.724c.03.073-.801.35-1.486 1.117-.699.754-.888 1.597-.965 1.576-.032-.005-.031-.225.073-.563.103-.336.328-.783.695-1.188a3.33 3.33 0 0 1 1.122-.809c.33-.139.552-.164.561-.133z" fill="#365462"/><path d="M143.018 18.71c-.328-.126-.746.047-.872.37-.172.443.278 1.051.844.763.394-.202.508-.75.191-1.057-.112-.108-.248-.166-.387-.123M140.038 18.083c.03.074-.801.35-1.486 1.117-.7.755-.888 1.598-.965 1.576-.032-.005-.031-.225.073-.562.103-.336.328-.783.695-1.188a3.324 3.324 0 0 1 1.123-.809c.329-.14.551-.164.56-.134z" fill="#365462"/><path d="M140.589 18.069c-.328-.126-.746.047-.872.37-.172.443.278 1.052.844.763.394-.202.508-.75.191-1.057-.111-.107-.248-.166-.387-.122" fill="#365462"/><path d="M140.984 40.688c-.023.083-.435.048-.923-.079-.487-.126-.864-.295-.842-.379.022-.082.436-.048.923.079.487.127.864.296.842.38z" fill="#1D2A30"/><path d="M170.373 227.865c-.321-.092-.398-.482-.415-.688.104.349.24.593.415.688z" fill="#FEF0F5"/><path d="m241.359 223.019 8.554-35.27 13.41 32.767-3.931-1.138 9.71 19.568-5.548-1.819L270.5 250h-30.056l2.302-11.963-2.543 3.413 5.559-20.644-4.403 2.213zM81.027 234.202l6.208-25.599 9.734 23.783-2.853-.826 7.048 14.204-4.027-1.321 4.866 5.557H80.187l1.847-4.897-1.847 2.478 4.036-14.984-3.196 1.605zM19.301 223.149l8.555-35.269 13.409 32.767-3.93-1.138 9.71 19.568-5.549-1.819L48.201 250H18.145l2.543-11.832-2.543 3.413 5.56-20.644-4.404 2.212z" fill="#fff"/><path d="m58.204 223.019 8.555-35.27 13.41 32.767-3.931-1.138 9.71 19.568-5.549-1.819L87.235 250H57.048l2.543-11.963-2.543 3.413 5.56-20.644-4.404 2.213z" fill="#fff"/><path d="m95.707 239.287 3.414-14.072 5.35 13.073-1.569-.454 3.875 7.809-2.214-.727L107.5 250H95.246l1.015-4.721-1.015 1.362 2.219-8.236-1.758.882zM45.464 229.084l6.664-27.473 10.445 25.524-3.062-.887 7.565 15.244-4.323-1.418L67.976 250H44.564l1.98-9.217-1.98 2.658 4.33-16.08-3.43 1.723z" fill="#365462"/><path d="m262.975 213.42 11.612-47.878 18.203 44.48-5.335-1.544 13.181 26.564-7.532-2.471L302.205 250h-40.931l3.583-16.193-3.452 4.633 7.547-28.023-5.977 3.003z" fill="#fff"/><path d="M257.096 227.444 264.17 198l11.091 27.354-3.251-.95 8.032 16.337-4.59-1.52L281 250h-25l2.243-10.018-2.104 2.849 4.598-17.234-3.641 1.847z" fill="#365462"/><path d="M226.963 9.139c0-3.477 1.264-6.662 3.363-9.139-3.19 2.619-5.221 6.559-5.221 10.966 0 7.885 6.495 14.276 14.506 14.276 4.479 0 8.482-1.998 11.142-5.137a14.58 14.58 0 0 1-9.286 3.31c-8.01 0-14.504-6.392-14.504-14.276z" fill="#F6F6DE"/><path d="m94.403 86.057.223.4c.084.152.211.277.365.359l.407.22-.407.219a.903.903 0 0 0-.365.358l-.223.401-.223-.4a.905.905 0 0 0-.363-.359l-.408-.22.408-.219a.906.906 0 0 0 .363-.358l.223-.401zM216.983 112.312l.222.4c.084.152.21.276.364.359l.408.22-.408.219a.909.909 0 0 0-.364.358l-.222.401-.224-.401a.913.913 0 0 0-.363-.358l-.408-.219.408-.22a.909.909 0 0 0 .363-.359l.224-.4zM289.508 45.239l.223.401c.084.151.21.276.364.359l.408.219-.408.22a.904.904 0 0 0-.364.357l-.223.402-.223-.402a.908.908 0 0 0-.363-.357l-.408-.22.408-.22a.91.91 0 0 0 .363-.358l.223-.401zM40.284 42.44l.559 1.006c.21.378.526.69.912.897l1.02.55-1.02.55a2.273 2.273 0 0 0-.913.897l-.558 1.005-.558-1.005c-.21-.38-.527-.69-.912-.898l-1.021-.55 1.02-.549a2.28 2.28 0 0 0 .913-.898l.558-1.004zM252.858 28.113l.559 1.005c.21.379.527.69.912.897l1.021.55-1.021.55a2.271 2.271 0 0 0-.912.897l-.559 1.005-.558-1.005a2.277 2.277 0 0 0-.912-.898l-1.021-.55 1.021-.549c.385-.207.701-.518.912-.897l.558-1.005z" fill="#365462"/><g clip-path="url(#b)"><path d="M150.992 77.325c.027.15-.032.238-.176.264-.048.008-.115-.02-.202-.082a.716.716 0 0 1-.213-.323c-.058-.151-.171-.586-.337-1.303-.165-.72-.277-1.075-.335-1.064-.056.01-.176.375-.36 1.095-.181.72-.291 1.12-.327 1.201-.073.157-.167.246-.283.266-.117.021-.219-.02-.309-.122a4.684 4.684 0 0 1-.388-.573c-.57-.941-.898-1.404-.982-1.39-.049.01-.057.421-.021 1.236.037.813.055 1.229.054 1.249-.022.263-.086.405-.192.423-.138.025-.22-.038-.247-.189a13.677 13.677 0 0 1-.056-.504c-.026-.29-.053-.529-.08-.716-.026-.19-.059-.439-.098-.746-.037-.31-.104-.74-.201-1.288a.723.723 0 0 1 .016-.38.367.367 0 0 1 .295-.252c.145-.025.3.044.467.21.169.162.464.519.886 1.071.424.55.649.822.675.817.028-.004.142-.314.342-.928.202-.617.34-1.01.412-1.18.149-.35.307-.54.472-.568.205-.037.353.025.443.183.09.157.201.611.334 1.363l.201 1.265c.042.237.085.445.129.622.045.176.072.29.081.343zM152.197 75.203l.037.21c.042.24.11.458.202.651.175.367.404.6.686.698.166.06.338.074.515.043l.1-.018a.85.85 0 0 0 .441-.215c.367-.338.482-.903.344-1.696l-.037-.21c-.083-.47-.246-.837-.488-1.102a.987.987 0 0 0-.387-.262.81.81 0 0 0-.438-.048l-.149.027a.877.877 0 0 0-.447.223c-.13.12-.226.249-.288.388-.062.14-.104.327-.128.56-.023.231-.011.481.037.75zm3.003-.676.038.216c.058.328.072.647.043.956a1.892 1.892 0 0 1-.23.774 1.827 1.827 0 0 1-.504.544 1.6 1.6 0 0 1-.677.297l-.217.039a1.705 1.705 0 0 1-.698-.03c-.484-.123-.858-.457-1.121-1.005a3.339 3.339 0 0 1-.259-.861l-.009-.07a3.633 3.633 0 0 1-.037-.944c.06-.642.308-1.112.744-1.41.2-.135.427-.226.679-.27l.142-.025c.224-.04.46-.031.708.025.472.111.843.417 1.112.917.135.251.231.534.286.847zM158.8 75.81c.246-.043.385.025.416.205l.011.06c.017.098-.016.168-.099.211-.084.043-.242.085-.475.127l-.665.117-.075.01c-.726.129-1.145.169-1.255.12-.111-.047-.203-.275-.275-.681l-.088-.502-.01-.074-.058-.363-.102-.581-.022-.144-.063-.352-.04-.21-.037-.21-.04-.208-.037-.207-.08-.415c-.031-.173-.035-.285-.013-.335.025-.052.094-.088.208-.109a.523.523 0 0 1 .271.008c.067.023.12.085.16.185.042.1.153.663.335 1.69.182 1.027.324 1.61.426 1.75.056.075.156.112.3.113.147 0 .377-.027.692-.083l.21-.04c.047-.01.093-.02.138-.028l.135-.03.132-.024zM163.253 75.285l.011.057c.014.082-.044.136-.176.159a.445.445 0 0 1-.364-.1 1.918 1.918 0 0 1-.369-.449c-.135-.21-.229-.332-.282-.366-.117-.075-.332-.085-.645-.03-.478.085-.778.181-.898.29-.073.065-.142.233-.205.504-.063.272-.1.421-.11.45-.062.15-.159.237-.291.26l-.055.01c-.101.018-.16-.023-.178-.122-.014-.079.012-.353.078-.823.24-1.722.385-2.697.436-2.924.053-.228.117-.408.191-.542a.46.46 0 0 1 .34-.243.506.506 0 0 1 .419.106c.124.096.302.325.535.688.444.688.844 1.444 1.201 2.268.037.085.104.225.201.42.096.194.15.323.161.387z" fill="#fff"/><path d="m161.831 73.946.004.022c.012.07-.043.116-.166.138l-.103.024-.051.01-.026.007-.139.025-.282.047-.029.008-.139.024c-.198.035-.303.023-.313-.036l-.004-.02c-.042-.241.048-.812.272-1.711.046-.18.075-.272.088-.275.015-.002.076.072.183.224.107.15.216.359.328.628a71.177 71.177 0 0 0 .3.695c.049.114.075.177.077.19z" fill="#A578E1"/><path d="M140.448 79.618c-.025.088-.11.145-.257.17-.147.026-.241.012-.281-.042a.667.667 0 0 1-.095-.269 11.112 11.112 0 0 1-.076-.564 15.169 15.169 0 0 0-.151-1.004l-.087-.568a4.717 4.717 0 0 0-.033-.224l-.031-.178c-.081-.454-.18-.734-.299-.84-.074-.066-.303-.065-.687.003-.192.034-.327.038-.405.013-.076-.028-.123-.093-.141-.195l-.01-.054c-.019-.108.073-.196.277-.263.398-.129.968-.26 1.71-.39l.644-.114c.251-.045.416-.058.497-.04.084.019.135.081.154.187.018.104-.026.19-.132.256-.05.031-.203.084-.459.16s-.413.157-.471.244c-.101.156-.102.518-.001 1.087l.025.163.011.08.076.485c.007.054.015.108.025.163l.131.945.019.148.036.22c.034.193.037.334.011.421zM145.868 78.44l.011.058c.014.082-.044.135-.176.158a.444.444 0 0 1-.364-.1 1.919 1.919 0 0 1-.369-.448c-.135-.21-.229-.332-.282-.366-.117-.076-.333-.086-.645-.03-.478.084-.778.18-.899.29-.073.065-.141.233-.204.504s-.1.42-.11.449c-.063.15-.159.237-.291.26l-.055.01c-.101.018-.16-.022-.178-.122-.014-.078.012-.353.078-.823.24-1.722.385-2.696.436-2.924a2.13 2.13 0 0 1 .191-.541.46.46 0 0 1 .34-.244.506.506 0 0 1 .419.106c.123.096.302.326.535.689.444.688.844 1.444 1.201 2.267.037.085.104.225.201.42.096.195.15.324.161.387zM138.298 79.89l.01.057c.015.083-.044.136-.175.159a.445.445 0 0 1-.365-.1 1.919 1.919 0 0 1-.369-.448c-.135-.21-.229-.332-.281-.367-.118-.075-.333-.085-.646-.03-.478.085-.777.181-.898.29-.073.066-.141.234-.204.505-.063.27-.1.42-.111.448-.062.151-.159.238-.29.261l-.055.01c-.102.018-.161-.023-.179-.122-.013-.079.012-.353.078-.823.24-1.722.385-2.697.436-2.924.053-.228.117-.408.191-.541a.462.462 0 0 1 .34-.244.505.505 0 0 1 .419.106c.124.096.302.326.535.688.444.689.844 1.444 1.201 2.268.037.085.104.225.201.42.097.194.151.323.162.387z" fill="#fff"/><path d="m136.823 78.368.004.022c.012.07-.043.116-.166.138l-.102.024-.052.01-.025.007-.14.025-.282.047-.028.008-.14.025c-.198.035-.303.022-.313-.037l-.003-.019c-.043-.242.047-.813.271-1.712.046-.18.075-.272.088-.275.015-.002.076.072.183.224.107.15.216.359.328.628a67.253 67.253 0 0 0 .3.695c.049.114.075.177.077.19z" fill="#69C480"/><path d="m144.413 77.026.004.022c.012.07-.043.116-.166.138l-.103.024-.052.01-.025.007-.139.025-.282.047-.029.008-.139.025c-.198.035-.303.023-.313-.037l-.004-.019c-.043-.242.048-.813.272-1.712.045-.18.075-.272.088-.275.015-.002.076.072.183.224.106.15.216.359.328.628a67.253 67.253 0 0 0 .3.695c.049.114.074.177.077.19z" fill="#F4BF4A"/><path d="m133.071 78.82-.047-.268a2.209 2.209 0 0 0-.216-.636 1.431 1.431 0 0 0-.344-.465c-.27-.228-.617-.305-1.041-.23l-.048.008c-.312.056-.481.14-.508.251-.018.076.021.382.116.92l.263 1.488.02.095.017.096.04.187.043.186c.021.119.059.198.116.239.058.038.175.041.353.01l.185-.033c.434-.077.737-.275.908-.594a1.59 1.59 0 0 0 .163-.555c.029-.226.023-.46-.02-.7zm-1.917-2.064.214-.038c.675-.12 1.215-.023 1.62.289.407.309.672.81.795 1.502l.013.077c.056.316.067.636.032.957-.062.58-.329 1.025-.802 1.332-.251.165-.54.276-.864.333l-.425.075c-.353.063-.611.07-.776.02-.085-.027-.146-.14-.181-.34l-.06-.417-.061-.344-.028-.14-.061-.344-.027-.136-.062-.347-.027-.137a6.877 6.877 0 0 1-.025-.14l-.16-.81-.035-.197-.069-.333-.015-.067-.024-.134-.008-.064c-.03-.172.011-.287.124-.344.182-.093.486-.178.912-.253z" fill="#fff"/></g></g><defs><clipPath id="a"><path fill="#fff" d="M0 0h315v250H0z"/></clipPath><clipPath id="b"><path fill="#fff" transform="rotate(-10.028 502.367 -702.48)" d="M0 0h33v5H0z"/></clipPath></defs></svg>