<svg width="75" height="158" fill="none" xmlns="http://www.w3.org/2000/svg"><g clip-path="url(#a)"><path d="M7.033 103.566h5.74V89.844h-5.74v13.722z" fill="#F8F8F9"/><path d="M34.661 68.125c.11.338.23.736.348 1.213.102.41.128.834.084 1.253-.052.509-.15 1.182-.32 1.533-.21.436.227.896.619.688.391-.208 1-1.394 1.018-2.947.02-1.552 1.562.362 2.137 1.049.576.686 2.456 2.731 2.811 2.724.52-.01.606-.56.015-1.233-.597-.681-2.218-2.815-1.833-3.096.376-.277 3.256 3.26 3.256 3.26s.49.855.945.544c.819-.56-2.523-4.1-2.85-4.428-.226-.229.179-.55.41-.29.237.265 2.788 3.594 3.627 3.03.645-.43-2.721-2.936-2.86-3.915-.076-.525.605.13 1.345.784.643.568 1.33 1.136 1.608.933.223-.163.366-.315-1.33-1.911-.825-.775-3.977-3.107-3.977-3.107l-8.77-27.714-7.652 3.978 11.37 27.652z" fill="#FFC19D"/><path d="m13.41 65.661 11.9-1.33-5.388-8.083-3.042.074c-2.048.05-3.891 1.232-4.766 3.055a5.258 5.258 0 0 0-.451 3.109l1.747 3.175z" fill="#F03658"/><path d="m13.41 65.661-.416-.756c.209.281.348.44.348.44s-2.609-4.837.178-6.456c.409-.238.82-.348 1.232-.348 2.137 0 4.304 2.953 6.425 6.252l-7.767.868z" fill="#CACACA"/><path d="M63.825 80.282c.11.338.23.738.349 1.215.101.41.127.833.084 1.252-.052.509-.15 1.181-.32 1.533-.21.435.227.896.619.688.39-.208 1-1.395 1.018-2.947.019-1.551 1.562.36 2.137 1.048.575.688 2.456 2.731 2.81 2.725.52-.01.606-.56.016-1.234-.598-.68-2.218-2.813-1.834-3.095.377-.278 3.257 3.26 3.257 3.26s.49.855.945.544c.819-.56-2.523-4.099-2.85-4.428-.226-.229.179-.55.409-.291.237.266 2.789 3.594 3.628 3.032.644-.432-2.722-2.936-2.861-3.916-.075-.525.606.13 1.346.784.643.568 1.33 1.136 1.608.933.223-.163.365-.314-1.331-1.91-.824-.776-3.977-3.109-3.977-3.109L60.11 48.654l-7.652 3.977 11.368 27.65z" fill="#FFC19D"/><path d="m37.182 120.062 10.925 5.126-6.41 13.411c-1.264-.681-.561-8.829-.561-8.829l-7.138-3.002 3.184-6.706z" fill="#F03658"/><path d="M42.93 126.272a.512.512 0 0 1-.359-.126c-.215-.209-.245-.66-.002-.839v.001a.626.626 0 0 1 .775-.043c.237.184.284.566.093.795-.113.135-.315.212-.507.212z" fill="#F9A8BF"/><path d="M41.697 138.599c-.335-.095-.415-.501-.433-.716.109.364.25.617.433.716z" fill="#FEF0F5"/><path d="M41.697 138.599c-.183-.099-.324-.352-.433-.716-.007-.081-.006-.134-.006-.134l5.728-13.035 1.121.474-6.41 13.411z" fill="#F9A8BF"/><path d="M40.962 129.955c.068.029.255-.285.622-.507.363-.233.73-.266.732-.338.017-.067-.428-.153-.869.124-.442.274-.553.708-.485.721zM40.882 131.636c.056.044.305-.187.693-.279.385-.103.716-.018.744-.085.04-.056-.328-.283-.808-.158-.48.119-.693.491-.63.522zM42.21 133.226c.043-.053-.246-.298-.691-.298-.445-.004-.737.238-.694.291.036.063.327-.045.692-.039.366-.003.655.108.693.046zM39.413 129.093c.074.001.126-.342.328-.7.196-.363.459-.592.418-.652-.03-.061-.41.106-.643.531-.235.424-.17.829-.103.821zM37.95 128.026c.026.013.191-.227.317-.674a3.43 3.43 0 0 0 .093-1.286c-.011-.081-.017-.172-.064-.277-.035-.105-.191-.228-.34-.194a.404.404 0 0 0-.289.217.935.935 0 0 0-.085.268 2.573 2.573 0 0 0 .063 1.295c.144.447.342.668.366.652.035-.02-.1-.268-.19-.696a2.764 2.764 0 0 1 .007-1.199c.029-.16.086-.281.167-.288l.07.05c.025.049.035.124.046.204a3.896 3.896 0 0 1-.02 1.216c-.076.435-.179.696-.142.712z" fill="#1D2A30"/><path d="M38.085 127.984c.022-.018-.155-.258-.574-.482a2.477 2.477 0 0 0-1.288-.275c-.172.016-.398.028-.55.268-.067.131-.015.29.057.369.071.087.147.133.217.185a1.757 1.757 0 0 0 1.302.253c.478-.099.688-.335.669-.351-.023-.038-.26.131-.696.175a1.778 1.778 0 0 1-.742-.084 1.618 1.618 0 0 1-.39-.195c-.134-.088-.225-.196-.185-.243.03-.067.194-.13.336-.131a2.587 2.587 0 0 1 1.193.19c.408.167.624.352.651.321z" fill="#1D2A30"/><path d="m27.992 138.473 4.259 9.612 1.142 8.559a1.09 1.09 0 0 0 1.298.913c.347-.069.636-.295.78-.614.915-2.027 4.241-9.497 3.89-10.184-.408-.794-3.81-10.433-3.81-10.433l-7.56 2.147z" fill="#F03658"/><path d="M34.69 157.557c.348-.069.637-.295.781-.614.845-1.872 3.747-8.387 3.908-9.913a1.57 1.57 0 0 1-.077.601c-.326.977-1.283 3.653-3.8 9.3a1.089 1.089 0 0 1-.811.626zm4.614-10.918a15.93 15.93 0 0 1-.216-.535l.17.411c.018.041.033.082.046.124z" fill="#FEF0F5"/><path d="m34.69 157.557 4.398-11.453c.09.231.163.413.216.535.041.127.067.259.075.391-.161 1.526-3.063 8.041-3.908 9.913a1.082 1.082 0 0 1-.78.614zM36.268 144.746a.606.606 0 0 1-.346-.104.646.646 0 0 1-.19-.8c.077-.207.331-.321.574-.321.11 0 .215.022.303.07.284.155.355.638.173.902a.624.624 0 0 1-.514.253z" fill="#F9A8BF"/><path d="M35.182 152.408c-.045.05-.479-.369-1.179-.406-.7-.057-1.186.298-1.224.244-.019-.021.074-.147.292-.272.215-.125.562-.227.948-.201.387.026.715.174.911.328.197.153.273.29.252.307zM35.02 153.991c-.03.062-.478-.127-1.047-.066-.572.05-.973.32-1.015.266-.048-.038.34-.435.992-.495.65-.066 1.11.248 1.07.295zM35.797 150.217c-.027.064-.714-.228-1.609-.209-.896.005-1.574.317-1.602.253-.038-.045.638-.475 1.598-.484.96-.018 1.648.393 1.613.44zM34.75 147.188c-.002.069-.64.064-1.36.325-.723.25-1.211.654-1.258.602-.046-.037.403-.548 1.18-.819.773-.278 1.45-.165 1.437-.108zM33.572 144.335c-.007.068-.69-.034-1.424.301-.743.319-1.117.89-1.174.85-.024-.014.033-.179.206-.401a2.35 2.35 0 0 1 .871-.659 2.378 2.378 0 0 1 1.08-.204c.283.018.447.086.44.113zM31.94 144.087c-.012.005-.09-.117-.166-.362a2.71 2.71 0 0 1-.103-1.081c.031-.223.046-.5.268-.738a.445.445 0 0 1 .495-.096.711.711 0 0 1 .338.376c.246.62-.044 1.432-.71 1.804a1.812 1.812 0 0 1-1.983-.198c-.119-.112-.23-.264-.223-.459.007-.196.18-.343.331-.375.311-.076.564.016.788.071.452.131.78.329.986.482.208.155.3.265.291.275-.024.039-.447-.377-1.321-.601-.215-.045-.469-.11-.688-.045-.106.031-.179.107-.182.204-.004.093.067.207.165.293.417.34 1.155.466 1.72.152.565-.308.82-1.022.626-1.523a.511.511 0 0 0-.224-.272.24.24 0 0 0-.274.049c-.16.153-.204.409-.239.621-.119.88.152 1.415.105 1.423z" fill="#1D2A30"/><path d="m17.923 94.606 1.691-6.397a485.197 485.197 0 0 0-1.23 12.449 12.562 12.562 0 0 1-.46-6.052zm26.133 26.844-12.286-8.753 5.555-40.083-11.675-7.246-10.806-2.85S9.97 71.68 7.74 77.574C3 90.112-.179 94.555.193 103.772c.117 2.916 10.782 10.561 17.536 14.836.062.931.155 1.746.282 2.421 1.993 10.56 8.7 24.74 8.7 24.74l11.102-4.633-3.115-12.004 3.6 2.231 5.758-9.912z" fill="#1D2A30"/><path d="M26.711 145.768a1.112 1.112 0 0 1-.079-.172c-.05-.126-.12-.297-.209-.515l-.776-1.991a504.498 504.498 0 0 1-2.765-7.353c-1.138-3.115-2.492-6.825-3.84-10.999a77.456 77.456 0 0 1-.968-3.227c-.132-.561-.304-1.115-.383-1.707-.023-.146-.051-.293-.071-.439l-.037-.44-.07-.888a84.635 84.635 0 0 1-.22-5.491c-.001-.622-.008-1.258.05-1.888.36-5.048.958-9.824 1.464-14.173.52-4.344.99-8.257 1.386-11.547.385-3.288.667-5.95.838-7.793.091-.922.148-1.638.188-2.124l.049-.551c.012-.125.021-.188.025-.188s.004.064-.001.189l-.027.553a62.073 62.073 0 0 1-.143 2.127c-.144 1.847-.4 4.514-.765 7.805l-1.336 11.553c-.494 4.349-1.086 9.13-1.444 14.162-.058.628-.051 1.249-.05 1.874a84.594 84.594 0 0 0 .284 6.361l.035.44c.02.143.047.285.07.427.074.57.244 1.128.374 1.682.3 1.104.625 2.177.958 3.221 1.335 4.17 2.673 7.886 3.79 11.007l2.694 7.377.736 2.004.187.523c.04.119.06.179.056.181zM20.821 72.905c-.01.013-.107-.072-.279-.238a2.954 2.954 0 0 1-.502-.86c-.312-.784-.443-1.947-.426-3.208.021-1.266.156-2.4.268-3.218.115-.817.204-1.32.235-1.316.033.004.002.514-.07 1.334-.071.82-.178 1.952-.199 3.203-.017 1.247.087 2.383.348 3.152.13.383.288.672.418.857.142.176.218.283.207.294zM16.45 63.174c.024-.004.123.426.055 1.129a5.189 5.189 0 0 1-.991 2.545 5.303 5.303 0 0 1-2.168 1.697c-.66.276-1.106.313-1.109.29-.01-.039.418-.133 1.04-.437a5.702 5.702 0 0 0 2.048-1.686 5.584 5.584 0 0 0 1.016-2.43c.107-.675.07-1.106.109-1.108zM35.18 87.215a.444.444 0 0 1-.006.123l-.043.357-.188 1.368-.733 5.028c-.64 4.257-1.52 10.109-2.49 16.574a29.867 29.867 0 0 0 .301 9.152 31.28 31.28 0 0 0 1.006 3.887l1.063 3.348 1.523 4.854.402 1.323.1.346c.02.078.029.118.026.12a.5.5 0 0 1-.05-.114c-.03-.088-.071-.2-.12-.339l-.445-1.309-1.595-4.831-1.09-3.34a31.025 31.025 0 0 1-1.032-3.905 29.718 29.718 0 0 1-.323-9.219c.962-6.483 1.896-12.329 2.56-16.57l.807-5.017.231-1.362c.028-.145.05-.262.066-.354a.52.52 0 0 1 .03-.12z" fill="#365462"/><path d="M13.037 65.623c.01.006-.03.11-.114.302l-.384.837c-.34.723-.825 1.773-1.403 3.08-1.164 2.609-2.69 6.248-4.295 10.3-1.61 4.053-3.012 7.742-4.036 10.409L1.58 93.707l-.347.853c-.083.193-.132.293-.142.29-.011-.004.017-.112.08-.313l.289-.874 1.125-3.19a352.995 352.995 0 0 1 3.948-10.449c1.606-4.055 3.17-7.687 4.39-10.276a68.831 68.831 0 0 1 1.5-3.041l.44-.81c.104-.184.163-.279.173-.274zM21.832 74.658c.024.002.02.213-.004.594-.022.38-.073.93-.146 1.607-.148 1.354-.422 3.218-.77 5.266a376.92 376.92 0 0 0-.863 5.243c-.208 1.344-.334 2.176-.382 2.171-.022-.002-.02-.213.004-.594.022-.38.073-.93.147-1.607.148-1.354.421-3.218.77-5.266.347-2.048.656-3.9.863-5.243.207-1.343.334-2.176.381-2.17z" fill="#fff"/><path d="m14.846 62.44 2.098-4.786 4.177 6.608-5.819-1.64" fill="#FFC19D"/><path d="M61.414 49.405 56.59 37.703c-.56-1.874-1.72-2.202-2.666-3.31L41.088 26.69c-9.404-4.165-15.044 8.555-15.044 8.555L16.7 54.413c-10.31 2.985-3.358 10.932-3.358 10.932s-2.609-4.837.178-6.456c2.917-1.697 5.92 3.13 8.805 7.717 3.408 5.415 14.957 9.246 14.957 9.246 1.415-1.374 1.205-6.34 2.365-8.963.369-.83 9.087-18.98 9.087-18.98l2.873 7.574s4.176-4.497 6.148-5.169c1.97-.671 3.66-.91 3.66-.91z" fill="#fff"/><path d="m22.258 43.839 2.68-5.006 13.301-12.924-5.121-.434c-2.821-.19-5.53 1.119-7.104 3.432l-.55.809a12.88 12.88 0 0 0-2.132 5.628l-1.074 8.495z" fill="#fff"/><path d="M28.35 31.107c.008.003-.029.087-.107.242-.09.178-.206.401-.347.675l-1.287 2.48c-1.078 2.095-2.513 5.017-4.071 8.259-1.559 3.242-2.976 6.176-4.043 8.28-.533 1.051-.972 1.899-1.287 2.48l-.366.665c-.085.152-.134.229-.142.226-.007-.003.028-.089.1-.247l.327-.685 1.219-2.511 3.98-8.307c1.559-3.242 3.02-6.156 4.137-8.235a78.034 78.034 0 0 1 1.352-2.447l.387-.655c.09-.148.142-.224.149-.22zM52.865 35.843c.021.04-.489.28-1.192.83-.354.27-.74.636-1.13 1.073-.379.447-.756.97-1.079 1.563a9.2 9.2 0 0 0-.701 1.76 8.227 8.227 0 0 0-.263 1.524c-.063.882.023 1.43-.023 1.436-.016.002-.046-.133-.085-.381a2.986 2.986 0 0 1-.048-.456c-.007-.179-.027-.383-.01-.608.007-.451.081-.987.22-1.57.153-.577.38-1.2.703-1.813a8.711 8.711 0 0 1 1.124-1.594 7.566 7.566 0 0 1 1.192-1.064c.179-.142.362-.24.515-.335.152-.098.292-.167.41-.219.23-.108.36-.16.367-.146zM34.53 66.894c.002.007-.069.033-.204.078-.135.047-.34.099-.606.16a7.606 7.606 0 0 1-2.3.115 7.71 7.71 0 0 1-3.236-1.06c-1.113-.664-2.119-1.695-2.967-2.893-.859-1.196-1.533-2.42-2.208-3.487-.67-1.07-1.348-1.987-2.003-2.683-.657-.694-1.279-1.165-1.736-1.446-.455-.284-.733-.399-.723-.419 0 0 .29.087.763.354.474.264 1.119.726 1.797 1.417.677.692 1.375 1.61 2.056 2.682.688 1.069 1.365 2.286 2.215 3.47.84 1.185 1.822 2.197 2.901 2.853a7.721 7.721 0 0 0 3.157 1.076c.956.11 1.74.035 2.27-.053.531-.093.818-.182.824-.164zM44.455 37.412c.004.005-.07.065-.215.172-.14.11-.366.249-.623.47-.539.412-1.265 1.074-2.086 1.963-.823.889-1.724 2.014-2.759 3.24-1.04 1.217-2.233 2.553-3.775 3.623-1.536 1.074-3.2 1.777-4.744 2.265-1.547.492-2.983.773-4.188.986a59.96 59.96 0 0 1-3.652.512c-.18.018-.274.025-.275.018-.001-.007.092-.026.27-.057l.777-.126c.675-.107 1.654-.258 2.855-.482 1.198-.23 2.625-.525 4.156-1.022 1.53-.493 3.172-1.194 4.686-2.253 1.52-1.053 2.707-2.372 3.75-3.58 1.041-1.216 1.956-2.336 2.796-3.217.838-.881 1.586-1.533 2.142-1.93.266-.213.5-.343.648-.444.151-.095.233-.143.237-.138z" fill="#1D2A30"/><path d="M39.05 26.029c-.003.01-.101.007-.288-.009a19.925 19.925 0 0 1-.816-.093c-.707-.087-1.724-.255-2.986-.36a13.7 13.7 0 0 0-2.06-.024c-.733.058-1.522.187-2.32.405-1.597.424-3.261 1.323-4.468 2.79-1.214 1.457-1.893 3.183-2.282 4.768-.357 1.605-.542 3.09-.71 4.33l-.358 2.943c-.082.696-.13 1.08-.153 1.08-.011-.002-.015-.099-.012-.283.004-.185.015-.458.036-.808.044-.7.122-1.712.255-2.96.14-1.246.3-2.73.646-4.368.382-1.623 1.065-3.394 2.325-4.908 1.251-1.525 2.997-2.454 4.64-2.872a12.545 12.545 0 0 1 2.383-.385 13.28 13.28 0 0 1 2.1.063c1.273.137 2.284.34 2.984.464.7.13 1.086.204 1.083.227z" fill="#fff"/><path d="M53.51 36.038c.046.091-1.284.62-2.417 1.883-1.153 1.246-1.543 2.604-1.64 2.57-.081 0 .18-1.47 1.394-2.787 1.2-1.33 2.656-1.746 2.663-1.666z" fill="#CACACA"/><path d="M29.74 49.117c-.035-.068-.05-.104-.043-.109h.003c.014 0 .042.033.09.095l-.05.014z" fill="#CECDCC"/><path d="M25.041 50.175c.313-.054.646-.113.999-.179.874-.168 1.871-.37 2.942-.66l.046-.013c.234-.064.472-.132.713-.206l.048-.014c.135-.042.27-.084.407-.129a19.255 19.255 0 0 0 3.394-1.447 14.501 14.501 0 0 0 1.7-1.1c1.328-.999 2.394-2.188 3.342-3.285.225-.262.443-.52.656-.771a.26.26 0 0 1 0 .05c-.01.09-.068.167-.122.242-3.23 4.462-8.76 7.034-14.124 7.513z" fill="#182124"/><path d="M51.667 54.864a30.752 30.752 0 0 1-3.191-11.648l.003-.225.042.197.053-1.237c.045-.277.108-.573.189-.882.054-.19.116-.385.186-.582l.01.004c.073.035.11.115.142.19l4.387 10.522c.135.322.271.66.241 1.006-.1 1.139-1.812 1.54-2.062 2.655z" fill="#E5E5E5"/><path d="m48.476 43.216-.022-.35.026.125c-.002.079-.004.154-.004.225zm.098-1.265c.016-.347.03-.694.045-1.042.008-.186.112-.434.269-.434.02 0 .04.003.061.012-.07.197-.132.392-.186.582-.08.309-.144.605-.189.882z" fill="#182124"/><path d="M16.7 54.414c.015.058-.717.178-1.766.684-1.028.496-2.43 1.453-3.182 3.03-.747 1.584-.54 3.266-.149 4.32.394 1.08.91 1.618.857 1.656-.014.012-.154-.108-.365-.365a4.93 4.93 0 0 1-.71-1.21c-.461-1.073-.727-2.847.067-4.537.805-1.683 2.303-2.645 3.384-3.102a6.771 6.771 0 0 1 1.348-.424c.328-.062.512-.072.516-.052z" fill="#fff"/><path d="m55.762 17.46-8.06 13.684c-1.317 2.233-4.164 3.086-6.521 1.952-2.595-1.25-3.577-4.398-2.14-6.865.76-1.306 1.39-2.372 1.39-2.372s-3.221-2.211-1.56-5.663c1.483-3.078 6.835-11.73 7.971-13.56l6.29 3.027c3.523 1.954 4.712 6.385 2.63 9.797z" fill="#FFC19D"/><path d="M40.45 23.807s2.116 1.238 5.176.917c0 0-2.3 1.952-5.625-.032l.449-.885z" fill="#F6865E"/><path d="M44.073 13.086c-.138.254-.032.58.234.725.267.146.595.06.733-.194a.542.542 0 0 0-.233-.726c-.268-.146-.596-.059-.734.195zM43.602 11.766c.03.094.544 0 1.078.26.539.251.797.712.888.675.042-.014.037-.16-.073-.365a1.508 1.508 0 0 0-.671-.62 1.483 1.483 0 0 0-.898-.127c-.227.045-.34.134-.324.177zM49.4 15.642a.54.54 0 0 0 .234.725c.267.147.595.06.732-.194.138-.254.033-.579-.233-.726a.535.535 0 0 0-.734.195zM48.93 14.249c.031.093.545 0 1.08.26.538.25.796.711.886.675.043-.015.038-.16-.073-.366a1.513 1.513 0 0 0-.67-.62 1.486 1.486 0 0 0-.898-.127c-.227.046-.34.135-.324.178zM44.644 17.909c.017-.029-.288-.246-.794-.574-.13-.08-.246-.168-.223-.271.016-.113.145-.23.29-.355l.914-.83c1.287-1.19 2.29-2.194 2.24-2.245-.05-.05-1.131.873-2.419 2.062l-.9.844c-.128.129-.303.26-.333.494-.013.12.05.24.126.306.075.068.152.107.217.143.53.29.864.455.882.426z" fill="#2D1B14"/><path d="M53.307 19.47c.071.002 2.741.455 1.5 2.763-1.242 2.309-3.34.606-3.31.538.032-.069 1.81-3.302 1.81-3.302z" fill="#FFC19D"/><path d="M52.684 22.27c.015-.003.026.049.079.116a.462.462 0 0 0 .301.165c.297.04.714-.239.948-.649a1.49 1.49 0 0 0 .196-.636c.02-.206-.028-.381-.141-.469a.238.238 0 0 0-.301-.015c-.066.048-.076.102-.09.1-.01.002-.03-.065.04-.15a.3.3 0 0 1 .17-.097.353.353 0 0 1 .258.058c.174.107.249.356.234.58-.005.232-.07.486-.204.718-.265.458-.741.767-1.133.687a.496.496 0 0 1-.34-.256c-.043-.095-.027-.153-.017-.153zM43.312 20.076c.148.159.367.254.578.198.212-.058.38-.22.49-.407.121-.203.181-.446.14-.677a.738.738 0 0 0-.41-.544c-.218-.097-.498-.057-.66.115 0 0-.83.565-.138 1.315z" fill="#F6865E"/><path d="M43.444 18.691c-.024-.008.169-.213.557-.142a.793.793 0 0 1 .52.393c.13.217.155.522.046.787-.203.557-.867.771-1.208.554-.35-.197-.333-.491-.308-.476.028-.013.07.226.368.352.28.143.794-.045.964-.5.193-.451-.116-.904-.417-.977-.31-.093-.512.04-.523.01zM59.969 18.544c.073-1.165.64-2.236 1.007-3.347.366-1.11.503-2.423-.2-3.365l-.026-.005c-.605-.883-1.626-1.57-2.699-1.458.676-1.339.252-3.039-.748-4.164-1-1.126-3.08-2.24-4.566-2.555-1.148-.244-2.524-.094-4.324.275a14.4 14.4 0 0 0-2.228.643l-3.271 2.51-.255 2.29c-.024.15-.047.303-.058.462l.007-.008-1.202 4.279c.72-.935 2.54-4.533 3.259-5.468 1.563.949 3.353 1.262 5.137.83.94-.227 1.87-.68 2.83-.55 1.237.167 2.116 1.232 2.864 2.218l-.017-.065c.35.57.586 1.208.692 1.866a16.142 16.142 0 0 0-3.322 6.078c-.098.336-.237 1.069-.035 1.356.398.564.914.121 1.435.05.384-.052.757.157 1.143.416.633-.437 1.55-1.273 2.344-2.01.259.314.587.572.962.738l.192-.936c.077.173.157.351.299.479.142.127.362.19.529.097.216-.12.235-.412.25-.655z" fill="#2D1B14"/><path d="M56.679 10.03c-.013.005.084.19.133.55.049.359.008.9-.25 1.501a5.22 5.22 0 0 1-.513.934c-.217.318-.476.64-.747.982-.27.342-.556.703-.803 1.111-.124.204-.237.42-.332.648-.09.226-.185.474-.15.742a.628.628 0 0 0 .38.493.962.962 0 0 0 .615.05c.403-.11.685-.4.94-.651l-.08-.04c-.059.34-.112.678-.07 1.004.037.326.191.628.428.819a.82.82 0 0 0 .404.178.713.713 0 0 0 .408-.074.723.723 0 0 0 .285-.256.511.511 0 0 0 .072-.342l-.06.007a2.654 2.654 0 0 0 .541 1.3.456.456 0 0 0 .07.076.535.535 0 0 0-.057-.085c-.037-.056-.093-.138-.157-.25a2.734 2.734 0 0 1-.337-1.047l-.06.008c.033.2-.108.421-.329.527a.642.642 0 0 1-.366.062.74.74 0 0 1-.363-.166 1.155 1.155 0 0 1-.393-.767c-.037-.31.016-.64.077-.98l.025-.143-.105.104c-.255.251-.531.526-.897.622a.866.866 0 0 1-.55-.044.53.53 0 0 1-.324-.418c-.03-.234.055-.471.145-.693.091-.222.202-.434.323-.635.242-.403.524-.762.792-1.105.269-.343.527-.668.743-.992.219-.323.386-.647.51-.953.253-.614.284-1.169.223-1.532-.062-.366-.171-.544-.171-.544zM43.553 6.165a.156.156 0 0 0 .012.042l.044.121c.019.054.045.119.084.192.037.075.077.162.137.252.22.369.637.867 1.314 1.264.67.394 1.6.686 2.64.64 1.039-.028 2.153-.348 3.229-.848.541-.247 1.043-.536 1.543-.778.499-.243 1-.441 1.503-.527.5-.09.995-.07 1.422.07.215.067.404.176.573.295.166.124.306.267.423.416a2.389 2.389 0 0 1 .48 1.685c-.06.423-.19.632-.175.637.002 0 .009-.012.022-.038l.056-.117c.047-.103.098-.264.135-.477a2.33 2.33 0 0 0-.032-.783 2.413 2.413 0 0 0-.43-.948 2.305 2.305 0 0 0-.433-.435 2.148 2.148 0 0 0-.593-.311c-.441-.15-.952-.171-1.464-.082-.514.085-1.027.286-1.53.53-.505.243-1.005.53-1.542.775-1.067.496-2.168.814-3.19.847a4.82 4.82 0 0 1-2.601-.61 3.778 3.778 0 0 1-1.317-1.224c-.229-.362-.297-.594-.31-.588z" fill="#fff"/><path d="M46.75 4.367c-.56.196-1.26.252-1.72-.121-.136-.11-.424-.494-.424-.494-.242-.009-.592.6-.58.837.012.238.118.618.118.618-.786-.07-1.212-.563-1.681-1.187a3.526 3.526 0 0 0 .197 3.56c.225.332.557.648.962.651.356.003.663-.235.928-.47.975-.86 1.84-1.84 2.572-2.91l-.371-.484z" fill="#2D1B14"/></g><defs><clipPath id="a"><path fill="#fff" d="M0 0h75v157.686H0z"/></clipPath></defs></svg>