<svg width="1110" height="500" fill="none" xmlns="http://www.w3.org/2000/svg"><g clip-path="url(#a)"><path fill-rule="evenodd" clip-rule="evenodd" d="M1003.39 25.856C970.798 3.968 926.355-2.181 884.637.642c-41.718 2.822-81.939 13.683-122.434 22.509-40.493 8.823-82.681 15.693-124.041 10.344-44.449-5.751-85.309-25.3-130.043-29.223C453.441-.522 396.542 20.45 364.015 57.385c-36.16 41.062-46.14 101.138-99.919 125.342-32.244 14.513-71.794 11.418-106.418 21.428-52.451 15.165-87.497 60.947-89.568 107.176-2.071 46.229 25.383 91.305 66.168 122.693 40.782 31.387 93.721 50.153 147.896 60.265l-12.764-1.32c109.861 20.221 230.22-3.857 317.087-63.433 31.075-21.311 59.791-47.665 98.637-56.427 46.166-10.417 94.35 6.669 142.149 8.049 40.306 1.164 80.966-9.344 113.406-29.309 22.275-13.708 41.645-33.801 41.909-56.873.342-29.718-30.67-55.674-27.375-85.265 4.218-37.857 59.337-56.268 79.247-90.473 18.27-31.378 1.5-71.496-31.08-93.382z" fill="#F3F2F1"/><path d="M621.379 174.155c-21.448 0-46.198 2.973-71.993 9.208-34.946 8.447-66.537 21.568-88.953 36.945-22.212 15.235-32.71 30.798-29.561 43.821 6.564 27.15 70.412 35.1 142.327 17.719 34.946-8.446 66.536-21.566 88.953-36.943 22.212-15.237 32.71-30.8 29.561-43.821-4.211-17.413-31.988-26.929-70.334-26.929zM501.692 292.501c-39.338 0-67.93-9.926-72.302-28.015-3.31-13.68 7.41-29.817 30.18-45.436 22.565-15.48 54.335-28.679 89.457-37.169 72.73-17.579 137.404-9.124 144.169 18.844 3.308 13.68-7.411 29.817-30.181 45.438-22.564 15.479-54.335 28.679-89.458 37.167-25.69 6.21-50.382 9.171-71.865 9.171z" fill="#DADBD8"/><path d="M625.124 152.153c-24.256 0-50.829 2.406-78.369 7.494-49.028 9.057-93.704 25.18-125.796 45.396-31.891 20.092-47.495 41.762-43.936 61.022 3.559 19.261 25.878 33.926 62.845 41.295 37.198 7.42 84.687 6.515 133.715-2.545 100.986-18.656 177.128-66.395 169.733-106.418-5.381-29.109-53.504-46.244-118.192-46.244zM495.229 313.857c-20.097 0-38.911-1.662-55.66-4.999-37.62-7.501-60.365-22.6-64.045-42.515-3.681-19.916 12.167-42.144 44.622-62.59 32.253-20.317 77.119-36.514 126.333-45.605 101.813-18.812 190.786-.88 198.334 39.972 7.551 40.849-69.141 89.385-170.953 108.194-27.166 5.02-53.871 7.543-78.631 7.543z" fill="#DADBD8"/><path d="M655.89 125.479c-35.377 0-75.05 4.261-116.232 13.242-63.375 13.824-120.798 36.654-161.693 64.285-40.697 27.499-60.107 56.402-54.657 81.387 11.313 51.837 126.772 70.832 257.373 42.345 130.606-28.487 227.659-93.836 216.351-145.671-7.745-35.492-64.316-55.588-141.142-55.588zM464.893 341.444c-77.796 0-135.177-20.535-143.073-56.726-5.594-25.636 14.042-55.103 55.291-82.974 41.052-27.739 98.663-50.648 162.222-64.511 131.429-28.67 247.7-9.148 259.188 43.509s-86.089 118.819-217.515 147.486c-41.095 8.964-80.722 13.216-116.113 13.216z" fill="#DADBD8"/><path d="M684.851 105.052c-44.519 0-94.748 5.41-146.999 16.806-161.246 35.17-281.423 114.231-267.893 176.238 13.528 62.007 155.721 83.838 316.967 48.67 161.246-35.17 281.424-114.23 267.895-176.238-9.147-41.914-77.101-65.476-169.97-65.476zM440.407 365.029c-93.871 0-162.64-23.993-171.938-66.608-6.669-30.567 17.739-65.929 68.729-99.573 50.786-33.509 121.93-61.38 200.33-78.48 78.401-17.099 154.693-21.386 214.821-12.07 60.371 9.354 97.293 31.34 103.962 61.905 6.669 30.565-17.739 65.929-68.731 99.572-50.784 33.508-121.929 61.38-200.329 78.481-52.139 11.373-102.321 16.773-146.844 16.773z" fill="#DADBD8"/><path d="M719.502 79.547c-55.844 0-119.233 6.845-185.25 21.243-96.587 21.068-184.3 54.998-246.983 95.539-62.469 40.406-92.549 82.479-84.696 118.463 16.267 74.56 191.53 99.879 390.687 56.441 199.156-43.438 347.948-139.439 331.68-214.001-10.876-49.846-92.814-77.685-205.438-77.685zM408.157 394.062c-28.264 0-54.951-1.766-79.456-5.332-74.299-10.82-119.621-36.963-127.62-73.613-7.995-36.651 22.319-79.292 85.36-120.067 62.832-40.639 150.724-74.644 247.486-95.748 96.761-21.107 190.832-26.79 264.884-16.007 74.299 10.82 119.621 36.962 127.618 73.612 7.997 36.652-22.319 79.292-85.358 120.068-62.833 40.639-150.723 74.643-247.487 95.747-64.74 14.122-128.287 21.34-185.427 21.34z" fill="#DADBD8"/><path d="M745.543 45.282c-67.192 0-141.778 8.464-217.771 25.04-236.003 51.475-412.164 165.96-392.692 255.206 9.405 43.1 62.687 73.996 150.033 86.993 87.589 13.032 198.853 6.465 313.29-18.494 114.436-24.96 218.325-65.32 292.529-113.644 73.994-48.19 109.568-98.464 100.164-141.564-9.404-43.1-62.688-73.995-150.033-86.992-29.425-4.379-61.529-6.545-95.52-6.545zM380.626 420.59c-34.075 0-66.236-2.172-95.739-6.561-88.016-13.098-141.748-44.413-151.296-88.177-9.549-43.762 26.257-94.606 100.821-143.165C308.767 134.264 412.835 93.83 527.447 68.83c114.612-24.998 226.069-31.573 313.84-18.51 88.018 13.097 141.749 44.41 151.297 88.174 9.546 43.763-26.256 94.608-100.82 143.166-74.356 48.423-178.425 88.858-293.037 113.857-76.088 16.595-150.8 25.071-218.101 25.073z" fill="#DADBD8"/><path d="M768.247 21.409c-75.168 0-158.427 9.435-243.231 27.931-128.855 28.105-245.789 73.76-329.264 128.552-83.267 54.658-123.224 111.801-112.51 160.905 10.714 49.105 70.845 84.42 169.315 99.437 98.715 15.052 224.041 7.866 352.897-20.236 128.855-28.106 245.789-73.759 329.264-128.552 83.262-54.658 123.222-111.802 112.512-160.907-10.72-49.105-70.847-84.418-169.316-99.437-33.747-5.146-70.623-7.694-109.667-7.694zM362.218 447.452c-39.132 0-76.066-2.553-109.891-7.711-99.138-15.119-159.717-50.853-170.574-100.62-10.859-49.763 29.329-107.476 113.162-162.505 83.626-54.892 200.742-100.622 329.776-128.766 129.032-28.146 254.557-35.336 353.452-20.255 99.138 15.12 159.717 50.853 170.577 100.618 10.86 49.765-29.33 107.478-113.165 162.505-83.627 54.894-200.744 100.623-329.777 128.767-84.898 18.518-168.285 27.967-243.56 27.967z" fill="#DADBD8"/><path d="M781.563 1.505c-80.695 0-169.572 9.91-259.988 29.386C230.72 93.547 14.468 236.757 39.515 350.129c25.048 113.37 282.052 154.636 572.911 91.98 141.004-30.374 268.818-80.374 359.899-140.786 90.885-60.281 134.265-123.656 122.165-178.45-12.11-54.793-78.28-94.569-186.332-111.996-38.85-6.266-81.446-9.371-126.595-9.371zM352.433 473c-45.243.002-87.9-3.109-126.836-9.389-108.709-17.534-175.324-57.723-187.572-113.162-12.248-55.439 31.363-119.371 122.8-180.021C252.062 109.911 380.063 59.834 521.25 29.421 662.44-.995 799.93-8.107 908.404 9.39 1017.11 26.923 1083.73 67.112 1095.98 122.55c12.24 55.439-31.37 119.373-122.804 180.021-91.237 60.517-219.238 110.594-360.425 141.007-90.509 19.497-179.519 29.42-260.318 29.421z" fill="#DADBD8"/><path fill-rule="evenodd" clip-rule="evenodd" d="M574.709 215.43c0 1.706 1.269 3.089 2.835 3.089 1.563 0 2.832-1.383 2.832-3.089 0-1.705-1.269-3.088-2.832-3.088-1.566 0-2.835 1.383-2.835 3.088zM727.745 65.46c0 1.706 1.267 3.088 2.832 3.088 1.566 0 2.835-1.382 2.835-3.088 0-1.706-1.269-3.089-2.835-3.089-1.565 0-2.832 1.383-2.832 3.09zM689.807 197.31c0 1.705 1.268 3.086 2.833 3.086 1.566 0 2.835-1.381 2.835-3.086 0-1.706-1.269-3.089-2.835-3.089-1.565 0-2.833 1.383-2.833 3.089zM606.981 215.429c0 1.207.897 2.184 2.004 2.184 1.106 0 2.003-.977 2.003-2.184 0-1.206-.897-2.183-2.003-2.183-1.107 0-2.004.977-2.004 2.183zM657.6 251.24c0 .886.658 1.604 1.471 1.604.813 0 1.473-.718 1.473-1.604 0-.888-.66-1.606-1.473-1.606-.813 0-1.471.718-1.471 1.606zM657.6 214.493c0 .885.658 1.603 1.471 1.603.813 0 1.473-.718 1.473-1.603 0-.887-.66-1.605-1.473-1.605-.813 0-1.471.718-1.471 1.605zM630.189 120.339c0 .886.659 1.604 1.472 1.604s1.473-.718 1.473-1.604c0-.888-.66-1.606-1.473-1.606-.813 0-1.472.718-1.472 1.606zM549.342 185.069c0 .886.66 1.604 1.473 1.604.813 0 1.472-.718 1.472-1.604 0-.886-.659-1.604-1.472-1.604s-1.473.718-1.473 1.604zM706.904 310.089c0 .568.423 1.03.944 1.03.522 0 .944-.462.944-1.03 0-.569-.422-1.029-.944-1.029-.521 0-.944.46-.944 1.029zM622.412 247.582c0 .284.211.516.471.516.261 0 .473-.232.473-.516 0-.283-.212-.515-.473-.515-.26 0-.471.232-.471.515zM689.334 254.482c0 .285.212.515.473.515.262 0 .474-.23.474-.515 0-.284-.212-.514-.474-.514-.261 0-.473.23-.473.514zM706.431 252.783c0 .285.212.516.472.516.261 0 .473-.231.473-.516 0-.284-.212-.515-.473-.515-.26 0-.472.231-.472.515zM622.883 264.736c0 .285.212.515.473.515.26 0 .471-.23.471-.515 0-.284-.211-.514-.471-.514-.261 0-.473.23-.473.514zM628.3 201.426c0 .569.422 1.03.945 1.03.522 0 .944-.461.944-1.03 0-.568-.422-1.03-.944-1.03-.523 0-.945.462-.945 1.03zM633.134 200.396c0 .57.422 1.031.944 1.031.521 0 .944-.461.944-1.031 0-.567-.423-1.028-.944-1.028-.522 0-.944.461-.944 1.028zM648.774 140.6c0 .567.421 1.029.944 1.029.522 0 .944-.462.944-1.029 0-.569-.422-1.031-.944-1.031-.523 0-.944.462-.944 1.031zM684.851 141.627c0 .571.422 1.031.944 1.031.521 0 .944-.46.944-1.031 0-.567-.423-1.028-.944-1.028-.522 0-.944.461-.944 1.028zM567.49 83.579c0 .568.423 1.029.944 1.029.522 0 .944-.46.944-1.03 0-.567-.422-1.029-.944-1.029-.521 0-.944.462-.944 1.03zM660.545 209.128c0 .569.422 1.029.944 1.029.52 0 .944-.46.944-1.029s-.424-1.029-.944-1.029c-.522 0-.944.46-.944 1.029zM685.795 138.54c0 .569.424 1.029.944 1.029.523 0 .945-.46.945-1.029 0-.568-.422-1.03-.945-1.03-.52 0-.944.462-.944 1.03zM634.078 138.54c0 .569.423 1.029.944 1.029.522 0 .944-.46.944-1.029 0-.568-.422-1.03-.944-1.03-.521 0-.944.462-.944 1.03zM550.398 97.149c0 .569.423 1.03.944 1.03.522 0 .944-.461.944-1.03s-.422-1.03-.944-1.03c-.521 0-.944.461-.944 1.03zM618.377 125.078c0 .57.422 1.031.944 1.031s.945-.461.945-1.031c0-.568-.423-1.028-.945-1.028s-.944.46-.944 1.028zM708.792 105.777c0 .569.424 1.031.944 1.031.523 0 .947-.462.947-1.031 0-.568-.424-1.029-.947-1.029-.52 0-.944.461-.944 1.029zM620.522 71.957c0 .569.424 1.03.946 1.03.52 0 .944-.461.944-1.03s-.424-1.03-.944-1.03c-.522 0-.946.461-.946 1.03zM657.6 102.861c0 .886.658 1.604 1.471 1.604.813 0 1.473-.718 1.473-1.604 0-.888-.66-1.606-1.473-1.606-.813 0-1.471.718-1.471 1.606zM676.183 70.928c0 .569.424 1.03.947 1.03.52 0 .944-.461.944-1.03s-.424-1.03-.944-1.03c-.523 0-.947.461-.947 1.03zM594.9 13.908c0 .569.423 1.03.944 1.03.522 0 .944-.461.944-1.03s-.422-1.03-.944-1.03c-.521 0-.944.461-.944 1.03zM661.489 68.87c0 .568.423 1.029.944 1.029.522 0 .944-.46.944-1.03 0-.569-.422-1.03-.944-1.03-.521 0-.944.462-.944 1.03zM645.786 55.409c0 .567.423 1.028.946 1.028.521 0 .944-.46.944-1.028 0-.569-.423-1.031-.944-1.031-.523 0-.946.462-.946 1.03zM610.402 236.667c-.782-.852-2.051-.852-2.835 0-.781.854-.781 2.238 0 3.09.784.853 2.053.853 2.835 0 .781-.852.781-2.236 0-3.09zM616.599 326.438c0 1.775 1.32 3.212 2.949 3.212 1.627 0 2.948-1.437 2.948-3.212 0-1.775-1.321-3.214-2.948-3.214-1.629 0-2.949 1.439-2.949 3.214zM1035.34 235.788c0 1.775 1.32 3.214 2.95 3.214 1.63 0 2.95-1.439 2.95-3.214s-1.32-3.214-2.95-3.214c-1.63 0-2.95 1.439-2.95 3.214zM845.868 239.314c0 1.775 1.321 3.212 2.95 3.212 1.627 0 2.947-1.437 2.947-3.212 0-1.775-1.32-3.214-2.947-3.214-1.629 0-2.95 1.439-2.95 3.214zM619.548 269.748c0 1.775 1.319 3.214 2.948 3.214 1.628 0 2.949-1.439 2.949-3.214s-1.321-3.213-2.949-3.213c-1.629 0-2.948 1.438-2.948 3.213zM650.181 326.437c0 1.254.933 2.273 2.084 2.273 1.152 0 2.085-1.019 2.085-2.273 0-1.255-.933-2.272-2.085-2.272-1.151 0-2.084 1.017-2.084 2.272zM566.117 315.115c0 .922.685 1.67 1.531 1.67.845 0 1.531-.748 1.531-1.67 0-.923-.686-1.67-1.531-1.67-.846 0-1.531.747-1.531 1.67zM702.854 363.699c0 .923.685 1.67 1.532 1.67.844 0 1.532-.747 1.532-1.67 0-.922-.688-1.669-1.532-1.669-.847 0-1.532.747-1.532 1.669zM702.854 325.46c0 .923.685 1.67 1.532 1.67.844 0 1.532-.747 1.532-1.67 0-.921-.688-1.668-1.532-1.668-.847 0-1.532.747-1.532 1.668zM674.331 227.483c0 .923.686 1.67 1.533 1.67.845 0 1.531-.747 1.531-1.67 0-.923-.686-1.67-1.531-1.67-.847 0-1.533.747-1.533 1.67zM754.16 424.94c0 .59.441 1.072.984 1.072.541 0 .982-.482.982-1.072 0-.592-.441-1.072-.982-1.072-.543 0-.984.48-.984 1.072zM653.859 441.442c0 .296.22.535.491.535.272 0 .492-.239.492-.535 0-.296-.22-.535-.492-.535-.271 0-.491.239-.491.535zM554.761 367.449c0 .296.221.535.492.535.272 0 .491-.239.491-.535 0-.296-.219-.535-.491-.535-.271 0-.492.239-.492.535zM666.237 359.894c0 .297.22.537.49.537.273 0 .492-.24.492-.537 0-.296-.219-.535-.492-.535-.27 0-.49.239-.49.535zM567.156 364.235c0 .296.221.536.493.536.27 0 .491-.24.491-.536 0-.295-.221-.536-.491-.536-.272 0-.493.241-.493.536zM735.879 367.074c0 .297.22.537.491.537s.493-.24.493-.537c0-.296-.222-.535-.493-.535s-.491.239-.491.535zM753.669 365.307c0 .297.221.537.491.537.271 0 .493-.24.493-.537 0-.296-.222-.536-.493-.536-.27 0-.491.24-.491.536zM666.728 377.744c0 .297.221.537.492.537.272 0 .493-.24.493-.537 0-.296-.221-.534-.493-.534-.271 0-.492.238-.492.534zM672.367 311.864c0 .592.439 1.072.981 1.072.544 0 .983-.48.983-1.072 0-.592-.439-1.072-.983-1.072-.542 0-.981.48-.981 1.072zM677.395 310.792c0 .592.439 1.072.983 1.072.542 0 .981-.48.981-1.072 0-.59-.439-1.07-.981-1.07-.544 0-.983.48-.983 1.07zM693.67 248.567c0 .59.439 1.071.984 1.071.541 0 .982-.481.982-1.071 0-.592-.441-1.072-.982-1.072-.545 0-.984.48-.984 1.072zM731.211 249.637c0 .592.442 1.072.984 1.072.543 0 .983-.48.983-1.072 0-.591-.44-1.07-.983-1.07-.542 0-.984.479-.984 1.07zM609.085 189.232c0 .591.439 1.07.984 1.07.541 0 .982-.479.982-1.07 0-.592-.441-1.071-.982-1.071-.545 0-.984.479-.984 1.071zM705.919 319.878c0 .592.439 1.071.982 1.071.543 0 .984-.479.984-1.071s-.441-1.072-.984-1.072c-.543 0-.982.48-.982 1.072zM732.195 246.424c0 .593.441 1.072.984 1.072.541 0 .982-.479.982-1.072 0-.592-.441-1.071-.982-1.071-.543 0-.984.479-.984 1.071zM678.379 246.424c0 .593.439 1.072.98 1.072.545 0 .986-.479.986-1.072 0-.592-.441-1.071-.986-1.071-.541 0-.98.479-.98 1.071zM591.298 203.352c0 .592.441 1.072.983 1.072.543 0 .983-.48.983-1.072 0-.591-.44-1.07-.983-1.07-.542 0-.983.479-.983 1.07zM662.038 232.415c0 .592.441 1.073.984 1.073.543 0 .982-.481.982-1.073 0-.591-.439-1.07-.982-1.07-.543 0-.984.479-.984 1.07zM756.125 212.331c0 .592.439 1.073.984 1.073.541 0 .982-.481.982-1.073 0-.591-.441-1.072-.982-1.072-.545 0-.984.481-.984 1.072zM664.272 177.137c0 .592.44 1.072.983 1.072.542 0 .983-.48.983-1.072 0-.592-.441-1.072-.983-1.072-.543 0-.983.48-.983 1.072zM653.74 348.537c-.816-.888-2.135-.888-2.95 0-.814.887-.814 2.327 0 3.215.815.887 2.134.887 2.95 0 .814-.888.814-2.328 0-3.215zM723.35 342.612c1.007 1.307 2.794 1.475 3.991.377 1.199-1.096 1.354-3.045.348-4.35-1.008-1.305-2.796-1.475-3.993-.377s-1.354 3.045-.346 4.35zM664.905 143.573c1.006 1.307 2.794 1.476 3.992.378 1.197-1.098 1.353-3.045.346-4.351-1.006-1.306-2.793-1.475-3.992-.377-1.199 1.098-1.353 3.045-.346 4.35zM699.77 148.704c1.006 1.305 2.794 1.474 3.992.377 1.199-1.098 1.353-3.045.346-4.351-1.006-1.306-2.793-1.476-3.991-.378-1.197 1.098-1.354 3.045-.347 4.352zM847.211 152.853c1.006 1.305 2.793 1.476 3.99.378 1.199-1.098 1.355-3.047.348-4.352-1.008-1.305-2.794-1.474-3.994-.376-1.197 1.097-1.351 3.044-.344 4.35zM879.748 266.401c1.006 1.305 2.793 1.476 3.992.378 1.197-1.098 1.353-3.045.346-4.35-1.008-1.307-2.794-1.476-3.994-.378-1.197 1.096-1.351 3.045-.344 4.35zM691.036 295.905c1.005 1.305 2.794 1.473 3.991.376s1.352-3.045.344-4.351c-1.006-1.305-2.794-1.475-3.991-.377s-1.351 3.045-.344 4.352zM817.222 109.161c1.006 1.305 2.794 1.474 3.991.378 1.197-1.098 1.353-3.046.346-4.352-1.008-1.305-2.794-1.474-3.992-.376-1.198 1.096-1.353 3.045-.345 4.35zM871.915 130.224c.712.922 1.975 1.043 2.823.267.846-.777.956-2.154.244-3.078-.712-.923-1.975-1.043-2.823-.267-.846.776-.956 2.155-.244 3.078zM917.27 191.708c.712.924 1.976 1.043 2.822.267.848-.777.958-2.155.246-3.078-.712-.924-1.976-1.043-2.824-.267-.845.777-.955 2.154-.244 3.078zM810.129 183.534c.524.678 1.454.765 2.076.195.622-.571.703-1.582.178-2.262-.523-.677-1.45-.765-2.072-.195-.624.57-.703 1.583-.182 2.262zM794.764 211.19c.523.678 1.451.765 2.074.196.623-.572.702-1.583.18-2.261-.523-.679-1.452-.767-2.075-.197-.622.57-.703 1.583-.179 2.262zM854.481 17.606c.523.678 1.453.765 2.076.196.622-.571.703-1.584.18-2.261-.525-.679-1.452-.767-2.075-.197-.623.57-.703 1.583-.181 2.262zM713.563 335.701c.337.434.933.491 1.331.126a1.093 1.093 0 0 0 .114-1.45.89.89 0 0 0-1.33-.127 1.096 1.096 0 0 0-.115 1.451zM875.07 195.597c.337.436.933.493 1.331.127.4-.366.451-1.016.116-1.45-.336-.435-.932-.491-1.33-.127-.4.366-.451 1.016-.117 1.45zM888.603 214.752c.337.434.934.491 1.332.125.399-.366.45-1.015.116-1.451-.336-.436-.932-.491-1.33-.126-.401.366-.452 1.015-.118 1.452zM875.688 218.514c.336.435.932.492 1.331.126a1.095 1.095 0 0 0 .115-1.451c-.336-.436-.93-.492-1.33-.125-.4.365-.451 1.014-.116 1.45zM772.437 299.525a.893.893 0 0 0 1.331.125c.398-.368.45-1.016.114-1.451a.891.891 0 0 0-1.331-.126c-.399.366-.45 1.015-.114 1.452zM667.926 290.71c.335.436.931.492 1.33.125a1.096 1.096 0 0 0 .117-1.45c-.336-.435-.932-.491-1.331-.125-.4.364-.45 1.014-.116 1.45zM863.307 208.392a.445.445 0 0 0 .664.062.548.548 0 0 0 .058-.726.444.444 0 0 0-.664-.062.545.545 0 0 0-.058.726zM900.12 305.709a.565.565 0 0 0 .839.081.692.692 0 0 0 .072-.915.56.56 0 0 0-.837-.078.688.688 0 0 0-.074.912zM824.982 224.694a.444.444 0 0 0 .665.063.549.549 0 0 0 .058-.725.447.447 0 0 0-.665-.064.548.548 0 0 0-.058.726zM991.477 12.176a.447.447 0 0 0 .667.063.55.55 0 0 0 .058-.726.446.446 0 0 0-.665-.063.548.548 0 0 0-.06.726zM778.791 256.847a.444.444 0 0 0 .665.062.545.545 0 0 0 .058-.724.445.445 0 0 0-.665-.063.548.548 0 0 0-.058.725zM832.278 213.978a.446.446 0 0 0 .665.063.549.549 0 0 0 .057-.726.444.444 0 0 0-.664-.063.548.548 0 0 0-.058.726zM873.689 209.849a.446.446 0 0 0 .665.063.548.548 0 0 0 .058-.726.447.447 0 0 0-.666-.063.549.549 0 0 0-.057.726zM817.239 242.755a.445.445 0 0 0 .665.062.544.544 0 0 0 .057-.724.444.444 0 0 0-.664-.062.544.544 0 0 0-.058.724zM1001.96 24.976a.45.45 0 0 0 .67.065c.2-.183.23-.508.06-.726a.45.45 0 0 0-.67-.063.555.555 0 0 0-.06.724zM861.095 199.588c.336.436.932.492 1.33.126.4-.366.452-1.016.118-1.45-.337-.436-.934-.493-1.332-.127-.399.366-.451 1.016-.116 1.451zM768.437 263.642a.89.89 0 0 0 1.331.127c.398-.366.45-1.016.114-1.45-.335-.436-.93-.493-1.329-.127-.402.366-.452 1.016-.116 1.45zM879.969 104.553c.336.436.932.491 1.33.127.4-.366.452-1.016.118-1.452-.337-.435-.934-.491-1.332-.125-.399.366-.451 1.014-.116 1.45zM681.921 182.134c.336.436.932.491 1.33.125.4-.366.451-1.016.116-1.45a.892.892 0 0 0-1.331-.125c-.398.364-.452 1.014-.115 1.45zM812.851 268.31c.336.434.932.491 1.331.125a1.094 1.094 0 0 0 .115-1.451c-.336-.434-.93-.491-1.33-.125-.399.365-.451 1.015-.116 1.451zM883.062 100.377c.336.434.932.491 1.331.125a1.094 1.094 0 0 0 .115-1.45c-.336-.437-.93-.493-1.33-.127s-.451 1.016-.116 1.452zM859.737 43.63c.335.436.932.493 1.331.125.4-.364.452-1.015.115-1.45-.336-.435-.931-.491-1.33-.125a1.093 1.093 0 0 0-.116 1.45zM887.963 19.12a.894.894 0 0 0 1.332.127c.398-.366.45-1.016.114-1.45-.335-.435-.932-.493-1.33-.127a1.095 1.095 0 0 0-.116 1.45zM763.851 56.976a.891.891 0 0 0 1.331.127c.4-.366.45-1.016.114-1.45-.335-.437-.93-.493-1.329-.127-.401.366-.452 1.016-.116 1.45zM886.863 16.093c.336.436.931.493 1.33.127.4-.366.452-1.016.116-1.45-.337-.435-.93-.492-1.33-.127-.401.366-.451 1.015-.116 1.45zM847.271 52.36a.893.893 0 0 0 1.331.126c.4-.367.45-1.016.114-1.452a.894.894 0 0 0-1.331-.126 1.096 1.096 0 0 0-.114 1.451zM758.778 79.35a.89.89 0 0 0 1.329.126c.398-.365.452-1.014.116-1.45-.337-.435-.93-.492-1.331-.126-.4.366-.45 1.016-.114 1.45zM749.172 217.636a.893.893 0 0 0 1.332.125 1.094 1.094 0 0 0 .114-1.451c-.335-.435-.93-.492-1.33-.126-.399.366-.451 1.016-.116 1.452zM827.304 53.064c.336.436.932.492 1.33.127.401-.367.451-1.016.116-1.45a.89.89 0 0 0-1.33-.127 1.095 1.095 0 0 0-.116 1.45zM734.125 169.59a.892.892 0 0 0 1.33.125c.4-.366.451-1.016.116-1.451-.336-.434-.932-.491-1.331-.126-.4.366-.45 1.016-.115 1.452zM708.948 246.722c.336.436.931.493 1.33.127.4-.366.452-1.016.116-1.45a.89.89 0 0 0-1.331-.127c-.4.366-.45 1.016-.115 1.45zM623.028 229.749c-.52-.049-.979.37-1.024.936-.044.567.341 1.066.861 1.115.518.049.976-.369 1.023-.937.044-.567-.34-1.066-.86-1.114zM887.071 144.085c-1.102-.106-2.074.785-2.17 1.987-.096 1.201.72 2.26 1.823 2.363 1.104.106 2.074-.785 2.17-1.987.094-1.201-.722-2.26-1.823-2.363zM815.914 405.926c1.047 1.359 2.908 1.536 4.154.394s1.409-3.169.36-4.529c-1.046-1.358-2.907-1.534-4.153-.392-1.247 1.141-1.409 3.169-.361 4.527zM755.098 198.805c1.047 1.359 2.906 1.534 4.152.392 1.248-1.142 1.409-3.168.362-4.527-1.048-1.358-2.909-1.535-4.155-.393-1.246 1.142-1.407 3.17-.359 4.528zM944.804 208.462c1.049 1.358 2.908 1.534 4.155.392 1.246-1.142 1.406-3.169.36-4.527-1.049-1.36-2.908-1.536-4.156-.394-1.245 1.142-1.407 3.169-.359 4.529zM1025.36 110.039c1.05 1.359 2.91 1.534 4.16.392 1.24-1.142 1.41-3.168.36-4.527-1.05-1.358-2.91-1.535-4.15-.393-1.25 1.142-1.41 3.17-.37 4.528zM782.289 357.322c1.046 1.358 2.907 1.533 4.153.393 1.247-1.142 1.407-3.17.361-4.529-1.048-1.36-2.908-1.535-4.154-.393-1.248 1.142-1.409 3.169-.36 4.529zM1002.37 31.153c1.05 1.359 2.91 1.534 4.15.394 1.25-1.143 1.41-3.17.36-4.529-1.04-1.358-2.9-1.535-4.15-.392-1.25 1.142-1.41 3.169-.36 4.527zM794.297 442.97c.739.962 2.054 1.086 2.935.277.883-.806.998-2.24.255-3.201-.74-.96-2.054-1.085-2.936-.279-.883.808-.997 2.242-.254 3.203zM970.512 184.913c.742.961 2.056 1.086 2.938.278.881-.808.997-2.24.254-3.203-.739-.96-2.054-1.085-2.937-.277-.881.808-.996 2.242-.255 3.202zM1069.87 235.34c.74.961 2.05 1.086 2.94.278.88-.809.99-2.241.25-3.203-.74-.961-2.06-1.084-2.94-.277-.88.808-.99 2.241-.25 3.202zM839.082 357.472c.741.96 2.056 1.085 2.938.276.882-.806.995-2.241.255-3.201-.743-.96-2.057-1.084-2.939-.277-.881.807-.995 2.242-.254 3.202zM684.016 330.882c.741.963 2.056 1.086 2.938.279.881-.809.994-2.241.254-3.202-.741-.962-2.057-1.086-2.937-.279-.881.808-.996 2.242-.255 3.202zM835.389 326.026c.545.705 1.512.796 2.16.203.648-.593.73-1.647.186-2.353-.543-.706-1.51-.798-2.158-.203-.648.592-.732 1.647-.188 2.353zM899.472 235.194c.546.706 1.513.797 2.158.204.648-.595.734-1.648.188-2.353-.543-.708-1.51-.798-2.158-.204-.647.593-.731 1.645-.188 2.353zM1081.29 111.665c.54.706 1.51.797 2.16.204.65-.593.73-1.647.19-2.353-.55-.705-1.51-.798-2.16-.203-.65.593-.73 1.645-.19 2.352zM1099.03 15.389c.55.706 1.51.797 2.16.204.65-.593.73-1.647.19-2.353-.55-.706-1.51-.798-2.16-.204-.65.593-.73 1.645-.19 2.353zM805.732 398.734a.926.926 0 0 0 1.384.131c.415-.38.469-1.055.119-1.508-.349-.453-.968-.513-1.383-.132-.418.38-.471 1.056-.12 1.509zM843.471 352.054c.348.452.968.512 1.383.131a1.14 1.14 0 0 0 .121-1.51c-.35-.453-.97-.511-1.385-.13-.416.38-.47 1.056-.119 1.509zM857.553 371.983c.35.453.97.511 1.384.132.417-.382.47-1.057.121-1.51-.349-.453-.969-.511-1.385-.131-.415.381-.468 1.056-.12 1.509zM844.113 375.899c.35.453.969.511 1.385.131.415-.381.468-1.057.121-1.509-.351-.453-.97-.511-1.385-.132a1.14 1.14 0 0 0-.121 1.51zM866.995 361.088c.348.451.969.512 1.385.131.415-.38.468-1.057.119-1.511a.928.928 0 0 0-1.385-.13c-.416.38-.469 1.057-.119 1.51zM1108.26 187.409c.35.453.97.511 1.39.13.41-.38.46-1.055.11-1.508a.922.922 0 0 0-1.38-.131c-.42.381-.47 1.057-.12 1.509zM758.24 351.916c.351.453.97.511 1.385.132.416-.382.47-1.057.12-1.51-.349-.453-.968-.511-1.384-.131-.415.381-.469 1.057-.121 1.509zM831.227 365.365a.466.466 0 0 0 .695.065.573.573 0 0 0 .06-.755.468.468 0 0 0-.694-.065.57.57 0 0 0-.061.755zM1041.22 270.376a.46.46 0 0 0 .69.065c.21-.19.23-.527.06-.754-.18-.226-.49-.257-.69-.066a.562.562 0 0 0-.06.755zM921.674 283.22a.465.465 0 0 0 .693.066.571.571 0 0 0 .059-.755.464.464 0 0 0-.692-.066.57.57 0 0 0-.06.755zM873.606 316.679a.466.466 0 0 0 .694.066.572.572 0 0 0 .061-.756.464.464 0 0 0-.692-.065.57.57 0 0 0-.063.755zM929.267 272.068a.464.464 0 0 0 .692.066.574.574 0 0 0 .06-.755.466.466 0 0 0-.693-.066.568.568 0 0 0-.059.755zM1060.11 155.93a.46.46 0 0 0 .69.065c.21-.19.23-.527.06-.755a.461.461 0 0 0-.69-.065.561.561 0 0 0-.06.755zM1072.68 142.102c.18.225.49.256.7.065.2-.19.23-.527.06-.755a.472.472 0 0 0-.7-.065c-.2.19-.23.529-.06.755zM842.031 366.882a.464.464 0 0 0 .693.065.57.57 0 0 0 .062-.755.468.468 0 0 0-.694-.065.573.573 0 0 0-.061.755zM913.616 302.013a.463.463 0 0 0 .692.065.567.567 0 0 0 .06-.754.463.463 0 0 0-.691-.065.568.568 0 0 0-.061.754zM828.928 356.204c.348.453.967.512 1.383.131.417-.38.47-1.055.121-1.508-.349-.455-.97-.513-1.385-.131-.416.379-.47 1.057-.119 1.508zM862.833 323.75c.349.453.97.512 1.384.131.417-.381.47-1.056.119-1.508a.926.926 0 0 0-1.384-.133 1.14 1.14 0 0 0-.119 1.51zM1067.67 26.36c.34.452.96.51 1.38.129.41-.38.47-1.057.12-1.51-.35-.451-.97-.51-1.38-.131-.42.381-.47 1.057-.12 1.511zM772.803 238.931c.35.453.97.511 1.385.131.416-.381.47-1.057.12-1.51-.349-.453-.969-.511-1.384-.131-.415.381-.47 1.057-.121 1.51zM759.821 159.469c.349.452.968.51 1.383.131a1.14 1.14 0 0 0 .122-1.51c-.349-.453-.97-.513-1.387-.131-.414.379-.468 1.057-.118 1.51zM909.051 328.606a.929.929 0 0 0 1.385.131c.414-.381.468-1.058.118-1.51-.349-.453-.968-.511-1.383-.131-.416.381-.469 1.057-.12 1.51zM1070.88 22.012c.35.453.97.511 1.39.13.41-.38.47-1.055.12-1.508a.933.933 0 0 0-1.39-.132 1.145 1.145 0 0 0-.12 1.51zM858.061 108.691c.349.453.968.513 1.383.131.418-.381.471-1.056.12-1.508a.926.926 0 0 0-1.384-.131c-.415.38-.468 1.057-.119 1.508zM778.673 144.999a.93.93 0 0 0 1.385.131c.414-.382.468-1.057.12-1.51-.351-.453-.97-.511-1.385-.131-.416.381-.469 1.057-.12 1.51zM1098.08 8.967c.35.452.97.51 1.39.13.41-.38.47-1.056.12-1.51a.933.933 0 0 0-1.39-.13 1.145 1.145 0 0 0-.12 1.51zM852.779 131.974c.351.453.97.511 1.385.131.416-.381.47-1.057.122-1.51-.351-.452-.97-.51-1.386-.131-.415.382-.468 1.057-.121 1.51zM842.788 275.874a.928.928 0 0 0 1.385.131c.414-.381.468-1.057.118-1.51-.349-.453-.968-.511-1.383-.131a1.137 1.137 0 0 0-.12 1.51zM1044.59 9.095c.35.453.96.512 1.38.13.42-.38.47-1.056.12-1.509-.35-.453-.97-.51-1.38-.131-.42.381-.47 1.057-.12 1.51zM827.127 225.877c.349.453.97.511 1.385.132a1.14 1.14 0 0 0 .12-1.51c-.349-.453-.968-.513-1.385-.131-.416.381-.469 1.057-.12 1.509zM1045.73 54.285c-1.55-.233-2.98.947-3.2 2.637-.21 1.689.87 3.249 2.42 3.48 1.55.234 2.98-.946 3.19-2.636.22-1.69-.86-3.248-2.41-3.48zM527.877 164.764c-.805-.121-1.548.492-1.659 1.371-.111.876.452 1.688 1.257 1.808.806.122 1.548-.491 1.66-1.369.11-.879-.452-1.688-1.258-1.81zM702.664 17.002c-.259-.038-.497.157-.534.44-.035.281.147.54.404.58.26.038.498-.159.533-.44.036-.281-.145-.542-.403-.58zM701.87 35.692c-.259-.04-.497.157-.532.44-.037.282.143.54.402.58.258.039.496-.158.533-.44.035-.28-.145-.541-.403-.58zM365.136 11.48c-.519-.077-.995.316-1.066.88-.072.563.289 1.083.806 1.16.517.077.995-.316 1.065-.879.071-.563-.29-1.083-.805-1.16zM365.408 16.84c-.517-.078-.993.316-1.064.878-.07.563.289 1.083.806 1.16.517.079.993-.313 1.065-.878.072-.562-.29-1.084-.807-1.16zM506.92 182.057c-.517-.077-.993.316-1.064.88-.072.563.289 1.083.806 1.161.517.078.995-.316 1.065-.88.072-.563-.29-1.083-.807-1.161zM510.802 166.473c-.517-.078-.993.316-1.064.878-.072.565.289 1.083.806 1.162.517.078.995-.317 1.065-.88.071-.562-.29-1.082-.807-1.16zM525.185 151.361c-.517-.078-.993.316-1.065.878-.07.565.29 1.083.807 1.163.517.077.993-.316 1.064-.88.072-.563-.289-1.083-.806-1.161zM579.968 62.334c0 .886.657 1.604 1.471 1.604.813 0 1.472-.718 1.472-1.604 0-.886-.659-1.606-1.472-1.606-.814 0-1.471.72-1.471 1.606zM519.429 19.487c0 .569.424 1.03.945 1.03.522 0 .944-.461.944-1.03s-.422-1.03-.944-1.03c-.521 0-.945.461-.945 1.03zM593.675 101.357c1.006 1.307 2.795 1.475 3.992.378s1.353-3.046.346-4.351c-1.006-1.305-2.793-1.475-3.992-.377-1.197 1.098-1.353 3.045-.346 4.35zM558.501 42.029c-.805-.122-1.548.49-1.659 1.37-.111.877.452 1.687 1.257 1.81.807.12 1.549-.493 1.661-1.372.109-.877-.452-1.688-1.259-1.808zM537.545 59.322c-.517-.077-.993.316-1.065.88-.07.563.29 1.083.807 1.16.517.079.994-.316 1.065-.879.071-.563-.29-1.083-.807-1.16zM541.427 43.738c-.517-.078-.994.316-1.066.879-.07.562.29 1.082.807 1.162.517.076.994-.318 1.066-.88.07-.563-.29-1.083-.807-1.16zM555.809 28.626c-.517-.078-.993.316-1.065.879-.07.562.29 1.082.807 1.16.517.078.993-.315 1.064-.878.072-.564-.289-1.083-.806-1.16zM639.319 37.441c-1.613-.242-3.101.987-3.324 2.743-.223 1.758.904 3.38 2.516 3.623 1.615.242 3.102-.985 3.326-2.743.221-1.758-.906-3.38-2.518-3.623zM577.947 130.113c-1.613-.243-3.102.986-3.323 2.744-.224 1.757.903 3.379 2.516 3.621 1.614.244 3.101-.985 3.325-2.743.223-1.758-.904-3.38-2.518-3.622zM707.447 22.49c-.537-.081-1.033.33-1.107.916-.075.585.3 1.127.838 1.208.537.079 1.034-.328 1.107-.915.075-.588-.3-1.127-.838-1.208zM677.687 22.59c-.539-.081-1.034.328-1.109.915-.075.587.302 1.127.84 1.208.538.082 1.034-.33 1.109-.915.073-.586-.304-1.127-.84-1.208zM680.472 24.092c-.538-.083-1.034.328-1.108.913-.074.587.303 1.127.838 1.208.539.08 1.036-.328 1.111-.915.073-.586-.302-1.125-.841-1.206zM711.486 6.274c-.538-.081-1.034.327-1.108.913-.075.587.302 1.127.838 1.208.539.08 1.036-.328 1.109-.915.075-.586-.302-1.126-.839-1.206zM742.4 29.044c-.537-.08-1.032.328-1.105.915-.075.586.3 1.127.838 1.208.537.08 1.033-.33 1.108-.915.074-.585-.301-1.127-.841-1.208zM800.929 306.142c.349.453.968.512 1.383.131.416-.381.47-1.055.122-1.51-.351-.453-.97-.511-1.386-.129-.415.379-.468 1.057-.119 1.508zM667.506 253.742c-.54-.05-1.018.386-1.065.976-.046.589.352 1.109.895 1.159.54.052 1.018-.384 1.063-.975.048-.59-.352-1.108-.893-1.16zM711.518 288.479c-.54-.052-1.017.386-1.064.974-.046.591.355 1.111.895 1.161.541.052 1.016-.386 1.063-.974.049-.589-.352-1.109-.894-1.161zM764.458 412.44c-.269-.025-.507.192-.53.488-.025.294.177.553.447.581.27.024.509-.194.53-.49.025-.294-.175-.553-.447-.579zM710.744 326.37c-.541-.05-1.017.386-1.064.976-.048.588.353 1.108.893 1.158.543.053 1.017-.383 1.065-.973.047-.59-.353-1.11-.894-1.161z" fill="#DADBD8"/><path fill-rule="evenodd" clip-rule="evenodd" d="M677.16 310.584c-1.149-.11-2.158.818-2.257 2.068-.101 1.249.75 2.352 1.897 2.46 1.147.11 2.158-.817 2.255-2.068.101-1.25-.749-2.351-1.895-2.46zM677.591 298.949c-.27-.026-.508.194-.53.488-.025.295.175.554.446.58.27.024.508-.192.531-.487.025-.295-.177-.555-.447-.581zM668.968 306.204c-.27-.026-.508.191-.533.487-.023.294.179.555.447.581.272.024.51-.192.534-.488.023-.295-.177-.555-.448-.58zM685.162 303.655c-.54-.054-1.017.384-1.065.973-.045.59.354 1.11.896 1.16.539.05 1.017-.386 1.062-.974.048-.589-.352-1.109-.893-1.159zM986.283 199.337c-1.147-.11-2.156.816-2.255 2.068-.101 1.249.748 2.351 1.895 2.46 1.149.108 2.158-.818 2.257-2.068.101-1.251-.749-2.352-1.897-2.46zM771.179 389.864c-.54-.052-1.017.386-1.064.975-.046.588.355 1.108.895 1.159.541.051 1.017-.385 1.063-.975.049-.589-.352-1.109-.894-1.159zM869.029 361.342c.405.769 1.307 1.03 2.01.587.704-.442.947-1.422.54-2.191-.406-.767-1.307-1.031-2.012-.589-.703.444-.945 1.426-.538 2.193zM938.719 385.458c.26.491.838.662 1.29.376.451-.283.607-.915.346-1.406-.261-.492-.839-.66-1.29-.378-.453.285-.607.915-.346 1.408zM836.874 377.343c.131.246.419.331.643.188a.542.542 0 0 0 .176-.703c-.132-.246-.421-.331-.647-.188a.54.54 0 0 0-.172.703zM898.004 346.863c.13.247.42.331.644.189a.54.54 0 0 0 .175-.703c-.131-.247-.421-.331-.645-.189a.54.54 0 0 0-.174.703zM912.033 336.079c.131.247.419.331.645.189a.54.54 0 0 0 .172-.703.453.453 0 0 0-.645-.189.539.539 0 0 0-.172.703zM845.149 391.943a.45.45 0 0 0 .645.189c.227-.142.302-.458.172-.703a.45.45 0 0 0-.644-.189.54.54 0 0 0-.173.703zM867.999 448.808c.813 1.539 2.617 2.065 4.026 1.177 1.411-.887 1.896-2.851 1.08-4.389-.813-1.536-2.616-2.063-4.026-1.176-1.411.886-1.894 2.851-1.08 4.388zM963.09 251.242c.814 1.535 2.617 2.063 4.027 1.177 1.411-.888 1.895-2.853 1.082-4.39-.815-1.538-2.619-2.064-4.029-1.177-1.411.886-1.894 2.851-1.08 4.39zM844.556 398.101c.815 1.537 2.617 2.065 4.028 1.177 1.411-.887 1.892-2.853 1.08-4.388-.815-1.539-2.617-2.066-4.026-1.179-1.411.888-1.896 2.852-1.082 4.39zM897.085 430.516c.576 1.087 1.851 1.461 2.847.832.997-.627 1.34-2.017.764-3.103-.575-1.087-1.85-1.46-2.847-.833-.998.627-1.339 2.016-.764 3.104zM819.081 466.5c.422.8 1.359 1.073 2.092.613.732-.461.984-1.483.561-2.28-.423-.801-1.36-1.074-2.092-.614-.733.462-.985 1.483-.561 2.281zM959.795 434.097c.422.801 1.36 1.075 2.092.613.734-.46.985-1.482.561-2.281-.422-.799-1.358-1.072-2.092-.612-.732.461-.984 1.483-.561 2.28zM942.26 400.978c.422.798 1.36 1.072 2.092.612.733-.463.985-1.483.561-2.282-.422-.797-1.359-1.072-2.092-.611-.732.46-.984 1.482-.561 2.281zM1032.32 459.193c.27.513.87.689 1.34.392.47-.296.63-.95.36-1.464-.27-.512-.87-.688-1.34-.392-.47.296-.64.95-.36 1.464zM727.926 429.647c.136.256.436.344.673.196a.56.56 0 0 0 .178-.73c-.136-.256-.434-.345-.671-.197a.561.561 0 0 0-.18.731zM700.27 405.019c.136.256.438.344.673.195a.562.562 0 0 0 .18-.731c-.136-.256-.436-.344-.671-.196-.237.146-.316.475-.182.732zM926.334 450.748c.136.256.437.344.671.196.235-.146.316-.474.18-.73-.135-.258-.436-.345-.671-.197a.563.563 0 0 0-.18.731zM709.535 395.483c.134.256.436.345.671.197a.563.563 0 0 0 .18-.732c-.137-.256-.436-.345-.671-.197a.562.562 0 0 0-.18.732zM989.947 419.033a.468.468 0 0 0 .671.194.561.561 0 0 0 .18-.731c-.136-.256-.436-.344-.671-.197a.565.565 0 0 0-.18.734zM1004.54 407.809c.14.256.44.345.68.197.23-.148.31-.474.18-.731-.14-.256-.44-.344-.68-.196-.23.146-.31.474-.18.73zM689.327 421.989a.469.469 0 0 0 .671.197.563.563 0 0 0 .18-.732c-.136-.256-.436-.343-.671-.195-.237.146-.316.474-.18.73zM934.945 465.942c.135.256.436.344.672.196a.563.563 0 0 0 .18-.732c-.135-.256-.436-.344-.672-.195-.235.146-.316.475-.18.731zM909.618 405.809c.27.512.871.689 1.342.393.47-.297.631-.953.36-1.464-.271-.512-.872-.689-1.343-.392-.47.294-.632.95-.359 1.463zM913.483 402.14c.272.514.873.689 1.344.394.468-.296.63-.952.358-1.464-.271-.513-.872-.688-1.342-.392-.47.295-.631.95-.36 1.462zM899.046 339.378c.271.513.872.688 1.342.392.471-.294.631-.95.359-1.462-.269-.513-.872-.688-1.343-.394-.468.298-.631.952-.358 1.464zM932.055 319.857c.27.512.871.688 1.342.392.469-.296.631-.952.36-1.464-.272-.511-.873-.688-1.344-.392-.47.296-.631.951-.358 1.464zM942.355 394.474c.27.512.872.687 1.342.392.469-.295.631-.951.36-1.463-.272-.514-.873-.688-1.342-.393-.472.295-.632.951-.36 1.464zM931.431 316.538c.271.512.872.687 1.342.393.471-.297.631-.952.361-1.464-.271-.512-.874-.688-1.343-.392-.47.294-.63.95-.36 1.463zM884.817 345.852c.272.513.873.69 1.344.394.47-.296.631-.952.358-1.464-.27-.513-.871-.688-1.342-.392-.469.296-.631.95-.36 1.462zM910.302 447.719c-1.114-.325-2.256.395-2.555 1.607-.297 1.213.362 2.459 1.475 2.783 1.112.325 2.254-.393 2.554-1.607.298-1.212-.363-2.457-1.474-2.783zM967.878 404.67c1.471.581 3.095-.246 3.631-1.848.533-1.603-.226-3.375-1.696-3.957-1.47-.584-3.096.244-3.63 1.846-.535 1.604.224 3.376 1.695 3.959zM918.47 381.815c1.47.583 3.097-.245 3.63-1.848.535-1.602-.223-3.374-1.695-3.956-1.47-.583-3.095.245-3.631 1.848-.534 1.602.226 3.374 1.696 3.956zM965.807 352.211c1.042.411 2.19-.174 2.568-1.307.379-1.133-.158-2.387-1.198-2.799-1.04-.413-2.19.173-2.568 1.306-.377 1.136.16 2.388 1.198 2.8zM948.879 327.969c.764.302 1.609-.128 1.886-.961.278-.833-.117-1.754-.881-2.057-.764-.302-1.609.126-1.885.96-.279.833.116 1.754.88 2.058zM956.232 404.014c.49.194 1.033-.082 1.21-.616.178-.535-.075-1.126-.565-1.321-.491-.193-1.032.083-1.21.618-.179.534.074 1.125.565 1.319zM967.073 345.403c.49.195 1.031-.081 1.209-.616.18-.533-.073-1.124-.564-1.318-.491-.195-1.031.081-1.211.615-.178.535.075 1.127.566 1.319zM987.579 354.62c.49.193 1.033-.081 1.209-.616.179-.534-.074-1.124-.564-1.319-.491-.194-1.032.082-1.211.616-.176.535.077 1.124.566 1.319zM978.118 364.915c.49.194 1.031-.081 1.209-.616.179-.535-.074-1.124-.564-1.319-.491-.194-1.032.082-1.211.616-.178.535.075 1.125.566 1.319zM990.635 340.609c.491.194 1.032-.082 1.211-.616.178-.535-.075-1.126-.564-1.321-.493-.193-1.034.083-1.211.618-.18.534.073 1.124.564 1.319zM896.074 389.904c.489.194 1.03-.082 1.209-.616.178-.535-.075-1.126-.564-1.319-.491-.194-1.033.08-1.211.616-.177.534.074 1.125.566 1.319zM962.751 362.891c.245.098.515-.039.605-.308.088-.267-.037-.561-.282-.66-.247-.096-.517.043-.606.31-.09.266.037.562.283.658zM976.569 300.183c.246.098.517-.041.607-.308.089-.268-.038-.563-.283-.66-.246-.096-.517.041-.604.309-.09.266.036.562.28.659zM972.412 358.499c.244.097.514-.041.604-.308.09-.267-.036-.563-.284-.659-.244-.098-.513.041-.603.308-.09.267.036.563.283.659zM1003.41 267.033c.24.1.52-.039.6-.308.09-.267-.03-.561-.28-.658-.24-.098-.51.041-.6.306-.09.268.03.564.28.66zM956.798 356.472c.491.194 1.033-.08 1.211-.616.177-.535-.076-1.125-.566-1.319-.489-.194-1.032.081-1.209.616-.178.536.075 1.124.564 1.319zM970.717 311.71c.49.194 1.033-.082 1.211-.616.178-.534-.075-1.125-.566-1.321-.489-.193-1.032.083-1.209.618-.179.534.075 1.125.564 1.319zM1011.33 291.558c.49.193 1.03-.083 1.21-.616.18-.536-.08-1.126-.57-1.32-.49-.193-1.03.081-1.21.617-.18.533.08 1.124.57 1.319zM911.434 329.458c.489.194 1.032-.08 1.209-.616.178-.533-.075-1.124-.564-1.319-.49-.193-1.033.083-1.211.616-.177.536.076 1.127.566 1.319zM1025.67 385.304c1.53.607 3.22-.255 3.78-1.923.55-1.668-.23-3.511-1.76-4.117-1.53-.606-3.23.255-3.78 1.922-.56 1.668.23 3.513 1.76 4.118zM1075.35 452.948c1.08.428 2.28-.18 2.67-1.361.39-1.178-.17-2.484-1.25-2.911-1.08-.428-2.28.18-2.67 1.36-.39 1.179.17 2.482 1.25 2.912zM1074.93 354.496c1.09.43 2.28-.18 2.67-1.359.4-1.18-.16-2.482-1.24-2.911-1.08-.43-2.28.18-2.67 1.359-.4 1.18.16 2.483 1.24 2.911zM928.431 415.934c1.081.43 2.277-.18 2.67-1.358.394-1.181-.164-2.483-1.247-2.912-1.083-.43-2.279.18-2.672 1.359-.392 1.181.166 2.483 1.249 2.911zM1057.31 329.269c.8.316 1.68-.131 1.97-.999.29-.866-.12-1.823-.92-2.139-.79-.314-1.67.133-1.96.999-.29.866.12 1.825.91 2.139zM1064.97 408.404c.51.203 1.07-.086 1.26-.641.18-.556-.08-1.171-.59-1.372-.51-.203-1.08.084-1.26.64-.19.557.08 1.171.59 1.373zM1076.25 347.414c.51.203 1.07-.086 1.26-.641.18-.556-.08-1.171-.59-1.372-.51-.203-1.07.084-1.26.639-.18.558.08 1.171.59 1.374zM1097.59 357.004c.51.203 1.07-.085 1.26-.64.18-.557-.08-1.171-.59-1.373-.51-.202-1.08.084-1.26.639-.19.559.08 1.173.59 1.374zM1087.74 367.717c.51.203 1.07-.084 1.26-.64.18-.557-.08-1.171-.59-1.373-.51-.203-1.07.086-1.26.641-.18.556.08 1.17.59 1.372zM1002.36 393.72c.52.203 1.08-.085 1.26-.64.19-.555-.07-1.171-.58-1.373-.51-.201-1.08.084-1.26.642-.19.556.07 1.17.58 1.371zM1071.75 365.612c.25.102.54-.042.63-.321.09-.277-.04-.584-.29-.686-.26-.101-.54.043-.63.32-.1.279.03.586.29.687zM1081.8 361.04c.26.103.54-.042.63-.32a.546.546 0 0 0-.29-.686c-.26-.101-.54.043-.63.32-.09.279.04.586.29.686zM1065.56 358.932c.51.201 1.07-.086 1.26-.641.18-.558-.08-1.171-.59-1.374-.51-.203-1.08.086-1.26.641-.19.556.08 1.172.59 1.374zM1080.04 312.352c.51.203 1.07-.085 1.26-.64.19-.557-.08-1.173-.59-1.375-.51-.201-1.07.086-1.26.641-.18.558.08 1.171.59 1.374zM1040.72 281.804c.51.201 1.08-.086 1.26-.641.19-.558-.07-1.171-.58-1.374-.51-.203-1.08.086-1.26.641-.19.556.07 1.171.58 1.374zM1018.35 330.822c.51.202 1.07-.086 1.26-.641.18-.557-.08-1.171-.59-1.373-.51-.202-1.07.084-1.26.641-.18.557.08 1.17.59 1.373zM878.755 358.114c-.491.25-.703.888-.474 1.425.228.536.814.768 1.305.518.494-.25.705-.888.476-1.426-.23-.535-.815-.767-1.307-.517zM932.808 364.225c-.492.25-.704.889-.476 1.426.231.534.815.767 1.307.517.491-.25.705-.887.474-1.424-.228-.537-.814-.769-1.305-.519zM1035.5 442.756a.555.555 0 0 0-.23.712c.11.269.4.385.65.26.24-.125.35-.444.24-.712-.12-.269-.41-.385-.66-.26zM949.512 397.468c-.491.25-.705.888-.476 1.424.23.536.816.767 1.307.517.491-.251.705-.889.474-1.424-.228-.537-.814-.767-1.305-.517z" fill="#DADBD8"/><path fill-rule="evenodd" clip-rule="evenodd" d="M913.185 402.088c-1.045.532-1.495 1.884-1.009 3.021.488 1.137 1.728 1.628 2.771 1.098 1.044-.531 1.495-1.884 1.008-3.021-.486-1.137-1.727-1.629-2.77-1.098zM908.223 391.776c-.245.125-.352.444-.238.711.116.268.408.384.653.259.246-.125.354-.444.238-.712-.114-.267-.407-.383-.653-.258zM904.08 402.758c-.245.125-.352.443-.236.712.114.267.405.383.651.257a.555.555 0 0 0 .239-.71c-.117-.27-.408-.385-.654-.259zM916.937 391.726c-.493.251-.705.889-.476 1.424.23.537.815.769 1.306.519.494-.251.704-.888.475-1.425-.228-.535-.814-.768-1.305-.518zM1030.97 419.542c-.49.25-.7.887-.47 1.423.23.536.81.768 1.3.518.5-.25.71-.888.48-1.424-.23-.536-.82-.769-1.31-.517zM554.457 246.812c0-1.695-1.261-3.07-2.818-3.07-1.556 0-2.817 1.375-2.817 3.07 0 1.697 1.261 3.073 2.817 3.073 1.557 0 2.818-1.376 2.818-3.073zM429.273 361.362c0-1.694-1.262-3.069-2.817-3.069-1.557 0-2.818 1.375-2.818 3.069 0 1.699 1.261 3.073 2.818 3.073 1.555 0 2.817-1.374 2.817-3.073zM440.001 264.835c0-1.699-1.261-3.072-2.817-3.072-1.555 0-2.818 1.373-2.818 3.072 0 1.696 1.263 3.069 2.818 3.069 1.556 0 2.817-1.373 2.817-3.069zM551.639 300.987c0-1.697-1.261-3.071-2.816-3.071-1.556 0-2.817 1.374-2.817 3.071 0 1.695 1.261 3.071 2.817 3.071 1.555 0 2.816-1.376 2.816-3.071zM522.366 246.812c0-1.198-.892-2.171-1.993-2.171-1.1 0-1.992.973-1.992 2.171 0 1.2.892 2.173 1.992 2.173 1.101 0 1.993-.973 1.993-2.173zM472.031 211.203c0-.881-.656-1.595-1.464-1.595-.808 0-1.465.714-1.465 1.595 0 .882.657 1.597 1.465 1.597s1.464-.715 1.464-1.597zM472.031 247.745c0-.88-.656-1.595-1.464-1.595-.808 0-1.465.715-1.465 1.595 0 .882.657 1.597 1.465 1.597s1.464-.715 1.464-1.597zM499.287 341.376c0-.882-.655-1.597-1.464-1.597-.808 0-1.464.715-1.464 1.597 0 .881.656 1.595 1.464 1.595.809 0 1.464-.714 1.464-1.595zM423.002 152.682c0-.565-.421-1.024-.94-1.024-.518 0-.939.459-.939 1.024 0 .566.421 1.025.939 1.025.519 0 .94-.459.94-1.025zM507.023 214.841c0-.283-.21-.512-.47-.512-.259 0-.471.229-.471.512 0 .283.212.511.471.511.26 0 .47-.228.47-.511zM440.471 207.98c0-.284-.211-.513-.47-.513s-.47.229-.47.513c0 .282.211.511.47.511s.47-.229.47-.511zM423.472 209.669c0-.283-.211-.512-.47-.512s-.47.229-.47.512c0 .282.211.511.47.511s.47-.229.47-.511zM506.553 197.783c0-.283-.211-.513-.472-.513-.259 0-.468.23-.468.513 0 .283.209.512.468.512.261 0 .472-.229.472-.512zM501.165 260.739c0-.565-.419-1.024-.939-1.024-.519 0-.938.459-.938 1.024s.419 1.024.938 1.024c.52 0 .939-.459.939-1.024zM496.36 261.762c0-.564-.421-1.023-.939-1.023-.519 0-.94.459-.94 1.023 0 .566.421 1.025.94 1.025.518 0 .939-.459.939-1.025zM480.806 321.228c0-.566-.419-1.025-.939-1.025-.517 0-.938.459-.938 1.025 0 .564.421 1.023.938 1.023.52 0 .939-.459.939-1.023zM444.932 320.203c0-.566-.421-1.023-.94-1.023-.518 0-.939.457-.939 1.023 0 .566.421 1.025.939 1.025.519 0 .94-.459.94-1.025zM561.639 377.93c0-.567-.421-1.025-.941-1.025-.517 0-.938.458-.938 1.025 0 .564.421 1.022.938 1.022.52 0 .941-.458.941-1.022zM469.102 253.08c0-.565-.419-1.023-.938-1.023-.518 0-.939.458-.939 1.023 0 .566.421 1.025.939 1.025.519 0 .938-.459.938-1.025zM443.992 323.274c0-.564-.421-1.024-.939-1.024-.519 0-.94.46-.94 1.024 0 .566.421 1.025.94 1.025.518 0 .939-.459.939-1.025zM495.421 323.274c0-.564-.421-1.024-.94-1.024-.518 0-.939.46-.939 1.024 0 .566.421 1.025.939 1.025.519 0 .94-.459.94-1.025zM578.634 364.434c0-.566-.422-1.023-.941-1.023-.517 0-.939.457-.939 1.023 0 .566.422 1.024.939 1.024.519 0 .941-.458.941-1.024zM511.035 336.661c0-.566-.421-1.025-.939-1.025-.519 0-.94.459-.94 1.025 0 .564.421 1.023.94 1.023.518 0 .939-.459.939-1.023zM421.123 355.853c0-.564-.421-1.023-.939-1.023-.519 0-.94.459-.94 1.023 0 .566.421 1.025.94 1.025.518 0 .939-.459.939-1.025zM508.9 389.486c0-.566-.42-1.023-.94-1.023-.517 0-.938.457-.938 1.023 0 .566.421 1.023.938 1.023.52 0 .94-.457.94-1.023zM518.965 225.693c.778.848 2.039.848 2.817 0 .779-.848.779-2.224 0-3.071-.778-.848-2.039-.848-2.817 0-.778.847-.778 2.223 0 3.071zM512.803 136.427c0-1.766-1.313-3.196-2.933-3.196-1.619 0-2.932 1.43-2.932 3.196 0 1.764 1.313 3.194 2.932 3.194 1.62 0 2.933-1.43 2.933-3.194zM382.534 255.628c0-1.765-1.313-3.195-2.931-3.195-1.62 0-2.933 1.43-2.933 3.195s1.313 3.195 2.933 3.195c1.618 0 2.931-1.43 2.931-3.195zM393.7 155.178c0-1.764-1.313-3.196-2.932-3.196-1.62 0-2.933 1.432-2.933 3.196 0 1.766 1.313 3.196 2.933 3.196 1.619 0 2.932-1.43 2.932-3.196zM509.87 192.8c0-1.766-1.313-3.196-2.933-3.196-1.618 0-2.931 1.43-2.931 3.196 0 1.764 1.313 3.194 2.931 3.194 1.62 0 2.933-1.43 2.933-3.194zM479.408 136.426c0-1.249-.927-2.262-2.072-2.262-1.146 0-2.074 1.013-2.074 2.262 0 1.247.928 2.259 2.074 2.259 1.145 0 2.072-1.012 2.072-2.259zM563.005 147.685c0-.917-.683-1.661-1.525-1.661-.842 0-1.522.744-1.522 1.661s.68 1.661 1.522 1.661 1.525-.744 1.525-1.661zM427.03 99.37c0-.916-.683-1.66-1.524-1.66s-1.525.744-1.525 1.66c0 .918.684 1.661 1.525 1.661.841 0 1.524-.743 1.524-1.66zM427.03 137.396c0-.917-.683-1.661-1.524-1.661s-1.525.744-1.525 1.661c0 .918.684 1.661 1.525 1.661.841 0 1.524-.743 1.524-1.661zM455.392 234.828c0-.917-.682-1.661-1.523-1.661-.841 0-1.522.744-1.522 1.661 0 .918.681 1.66 1.522 1.66s1.523-.742 1.523-1.66zM376.009 38.473c0-.588-.438-1.066-.978-1.066s-.977.478-.977 1.066c0 .589.437 1.065.977 1.065s.978-.476.978-1.065zM475.751 22.063c0-.295-.22-.533-.49-.533-.269 0-.488.238-.488.532 0 .295.219.533.488.533.27 0 .49-.238.49-.532zM574.294 95.643c0-.295-.218-.533-.488-.533s-.49.238-.49.533c0 .294.22.532.49.532s.488-.238.488-.532zM463.44 103.155c0-.295-.218-.533-.488-.533s-.489.238-.489.533c0 .294.219.533.489.533s.488-.239.488-.533zM561.97 98.838c0-.294-.22-.532-.49-.532s-.488.238-.488.532c0 .295.218.533.488.533s.49-.238.49-.533zM394.188 96.015c0-.293-.219-.533-.488-.533-.271 0-.489.24-.489.533 0 .294.218.533.489.533.269 0 .488-.24.488-.533zM376.497 97.772c0-.294-.219-.532-.488-.532-.27 0-.488.238-.488.532 0 .295.218.534.488.534.269 0 .488-.24.488-.534zM462.953 85.404c0-.293-.219-.532-.489-.532s-.488.239-.488.532c0 .294.218.534.488.534s.489-.24.489-.534zM457.347 150.918c0-.589-.438-1.066-.978-1.066s-.977.477-.977 1.066c0 .588.437 1.064.977 1.064s.978-.476.978-1.064zM452.347 151.982c0-.587-.44-1.065-.979-1.065-.54 0-.976.478-.976 1.065 0 .589.436 1.066.976 1.066.539 0 .979-.477.979-1.066zM436.161 213.861c0-.587-.438-1.065-.977-1.065-.54 0-.978.478-.978 1.065 0 .588.438 1.066.978 1.066.539 0 .977-.478.977-1.066zM398.829 212.797c0-.589-.438-1.066-.977-1.066-.54 0-.978.477-.978 1.066 0 .588.438 1.066.978 1.066.539 0 .977-.478.977-1.066zM520.274 272.866c0-.589-.438-1.066-.976-1.066-.542 0-.978.477-.978 1.066 0 .588.436 1.066.978 1.066.538 0 .976-.478.976-1.066zM423.981 142.948c0-.589-.436-1.066-.978-1.066-.538 0-.976.477-.976 1.066 0 .588.438 1.066.976 1.066.542 0 .978-.478.978-1.066zM397.852 215.992c0-.588-.438-1.066-.978-1.066s-.978.478-.978 1.066c0 .589.438 1.065.978 1.065s.978-.476.978-1.065zM451.368 215.992c0-.588-.437-1.066-.976-1.066-.54 0-.978.478-.978 1.066 0 .589.438 1.065.978 1.065.539 0 .976-.476.976-1.065zM537.961 258.823c0-.588-.438-1.065-.978-1.065-.539 0-.977.477-.977 1.065s.438 1.067.977 1.067c.54 0 .978-.479.978-1.067zM467.617 229.923c0-.589-.438-1.066-.978-1.066s-.976.477-.976 1.066c0 .587.436 1.064.976 1.064s.978-.477.978-1.064zM374.054 249.894c0-.587-.438-1.065-.978-1.065-.538 0-.977.478-.977 1.065 0 .588.439 1.066.977 1.066.54 0 .978-.478.978-1.066zM465.396 284.893c0-.59-.438-1.066-.978-1.066s-.978.476-.978 1.066c0 .588.438 1.064.978 1.064s.978-.476.978-1.064zM475.868 114.449c.81.881 2.123.881 2.933 0 .809-.883.809-2.314 0-3.197-.81-.883-2.123-.883-2.933 0-.808.883-.808 2.314 0 3.197zM406.648 120.34c-1.001-1.299-2.779-1.465-3.97-.375-1.191 1.092-1.346 3.028-.344 4.328 1 1.297 2.778 1.466 3.969.375 1.191-1.092 1.347-3.029.345-4.328zM464.767 318.27c-1.002-1.299-2.781-1.467-3.97-.377-1.193 1.092-1.347 3.03-.345 4.327 1.001 1.3 2.779 1.466 3.97.376 1.191-1.091 1.345-3.029.345-4.326zM430.095 313.168c-1-1.299-2.778-1.467-3.97-.375-1.191 1.092-1.346 3.028-.344 4.327 1 1.298 2.778 1.467 3.969.375 1.191-1.091 1.346-3.029.345-4.327zM283.478 309.042c-1.002-1.299-2.778-1.467-3.969-.375-1.191 1.092-1.345 3.028-.345 4.327 1.002 1.296 2.779 1.465 3.971.374 1.19-1.09 1.344-3.028.343-4.326zM255.262 484.518c-1.002-1.299-2.78-1.465-3.971-.376-1.191 1.092-1.345 3.029-.344 4.328 1.001 1.297 2.778 1.467 3.97.375 1.191-1.092 1.345-3.029.345-4.327zM206.494 403.095c-1.001-1.298-2.779-1.465-3.97-.375-1.191 1.091-1.345 3.029-.343 4.327 1 1.299 2.777 1.467 3.97.375 1.189-1.092 1.343-3.028.343-4.327zM438.781 166.789c-1-1.299-2.779-1.467-3.97-.375-1.191 1.09-1.345 3.028-.344 4.326 1.002 1.299 2.778 1.466 3.969.375 1.193-1.091 1.347-3.028.345-4.326zM313.299 352.49c-1.002-1.299-2.778-1.467-3.969-.375-1.191 1.091-1.347 3.028-.345 4.327 1 1.298 2.779 1.467 3.97.375 1.191-1.092 1.345-3.028.344-4.327zM596.183 271.8c-1-1.299-2.778-1.465-3.969-.375-1.191 1.092-1.345 3.028-.345 4.327 1.004 1.298 2.78 1.467 3.971.375 1.191-1.092 1.345-3.028.343-4.327zM258.91 331.544c-.707-.918-1.964-1.037-2.806-.266-.842.772-.951 2.141-.244 3.061.709.916 1.964 1.035 2.808.265.842-.771.951-2.142.242-3.06zM384.507 166.644c-.707-.919-1.964-1.036-2.806-.266-.843.772-.951 2.143-.244 3.061.708.918 1.965 1.037 2.808.265.842-.771.952-2.142.242-3.06zM388.036 196.695c-.52-.674-1.444-.761-2.063-.195-.619.567-.698 1.574-.178 2.249.52.674 1.444.763 2.061.195.62-.567.7-1.573.18-2.249zM326.797 283.496c-.519-.674-1.443-.763-2.062-.195-.619.567-.699 1.573-.179 2.249.52.674 1.443.762 2.062.195.619-.569.7-1.575.179-2.249zM199.357 339.579c-.52-.674-1.445-.762-2.064-.195s-.698 1.574-.178 2.249 1.444.763 2.063.196c.619-.568.699-1.574.179-2.25zM220.926 367.554c-.52-.676-1.444-.761-2.061-.194-.62.566-.7 1.572-.18 2.248.521.674 1.444.762 2.063.194.619-.568.698-1.573.178-2.248zM297.061 420.12c-.518-.676-1.442-.763-2.062-.196-.619.568-.698 1.574-.178 2.248.52.676 1.443.763 2.062.195.619-.565.7-1.572.178-2.247zM416.378 127.214c-.334-.433-.925-.49-1.323-.127-.397.365-.447 1.01-.115 1.444.334.432.928.488 1.324.124.397-.363.448-1.008.114-1.441zM380.316 171.822a.889.889 0 0 0-1.324-.125c-.397.364-.448 1.009-.114 1.442.333.433.925.49 1.323.125.397-.362.447-1.009.115-1.442zM366.857 152.776a.888.888 0 0 0-1.324-.125 1.089 1.089 0 0 0-.114 1.443c.332.433.925.49 1.322.125.398-.363.448-1.01.116-1.443zM379.7 149.034c-.334-.433-.927-.488-1.323-.125a1.09 1.09 0 0 0-.115 1.443.888.888 0 0 0 1.324.125c.397-.364.448-1.01.114-1.443zM357.834 163.19a.886.886 0 0 0-1.323-.126 1.089 1.089 0 0 0-.114 1.442c.332.433.926.49 1.322.125.398-.363.449-1.009.115-1.441zM127.277 329.159a.886.886 0 0 0-1.323-.125c-.397.363-.448 1.008-.115 1.441.334.435.926.49 1.324.125.397-.363.448-1.009.114-1.441zM461.76 171.955c-.332-.433-.925-.49-1.322-.125-.396.363-.448 1.008-.114 1.441a.885.885 0 0 0 1.322.125c.396-.363.448-1.01.114-1.441zM392.014 159.101a.444.444 0 0 0-.662-.062.546.546 0 0 0-.058.721.444.444 0 0 0 .662.062.545.545 0 0 0 .058-.721zM230.864 157.036a.561.561 0 0 0-.835-.077.685.685 0 0 0-.073.907c.212.275.584.31.834.079a.689.689 0 0 0 .074-.909zM305.581 237.6a.442.442 0 0 0-.66-.061.542.542 0 0 0-.058.72.442.442 0 0 0 .662.062.543.543 0 0 0 .056-.721zM228.29 317.827a.441.441 0 0 0-.66-.062.545.545 0 0 0-.059.721.445.445 0 0 0 .663.063.545.545 0 0 0 .056-.722zM351.514 205.627a.443.443 0 0 0-.661-.062.543.543 0 0 0-.057.721.443.443 0 0 0 .661.063.543.543 0 0 0 .057-.722zM298.327 248.258a.443.443 0 0 0-.661-.063.543.543 0 0 0-.058.721.443.443 0 0 0 .661.063.543.543 0 0 0 .058-.721zM173.292 359.241a.444.444 0 0 0-.662-.062.543.543 0 0 0-.056.721.444.444 0 0 0 .662.063.547.547 0 0 0 .056-.722zM161.276 372.456a.443.443 0 0 0-.662-.062.542.542 0 0 0-.058.719.443.443 0 0 0 .662.063.544.544 0 0 0 .058-.72zM381.689 157.651a.446.446 0 0 0-.662-.063.547.547 0 0 0-.058.722.443.443 0 0 0 .662.062.546.546 0 0 0 .058-.721zM313.282 219.641a.442.442 0 0 0-.661-.062.543.543 0 0 0-.058.721.443.443 0 0 0 .661.063.545.545 0 0 0 .058-.722zM217.863 305.097a.444.444 0 0 0-.662-.062.543.543 0 0 0-.058.721.443.443 0 0 0 .662.063.547.547 0 0 0 .058-.722zM394.212 167.855c-.333-.434-.926-.49-1.323-.126a1.09 1.09 0 0 0-.114 1.443c.332.433.926.49 1.322.125.398-.363.45-1.009.115-1.442zM361.812 198.869c-.334-.433-.928-.489-1.324-.125-.397.363-.448 1.01-.114 1.443.334.432.925.488 1.323.125a1.09 1.09 0 0 0 .115-1.443zM250.901 357.071a.886.886 0 0 0-1.322-.125c-.398.363-.449 1.01-.116 1.443.334.431.927.488 1.323.125.397-.365.45-1.01.115-1.443zM447.845 279.924a.887.887 0 0 0-1.324-.125c-.396.362-.448 1.009-.114 1.442.334.433.925.49 1.324.125a1.089 1.089 0 0 0 .114-1.442zM317.644 194.23c-.334-.433-.925-.49-1.322-.125a1.084 1.084 0 0 0-.114 1.442.886.886 0 0 0 1.322.125c.398-.364.448-1.009.114-1.442zM247.826 361.225c-.334-.433-.925-.49-1.322-.125a1.09 1.09 0 0 0-.116 1.444c.334.431.926.488 1.324.123a1.089 1.089 0 0 0 .114-1.442zM271.021 417.654c-.334-.433-.927-.489-1.324-.125-.398.363-.448 1.01-.114 1.443.334.433.926.489 1.324.125a1.091 1.091 0 0 0 .114-1.443zM242.952 442.029c-.334-.435-.925-.491-1.323-.125-.397.363-.449 1.008-.115 1.441a.888.888 0 0 0 1.324.125c.396-.363.448-1.01.114-1.441zM366.372 404.383c-.334-.433-.925-.49-1.323-.125a1.086 1.086 0 0 0-.115 1.441c.334.434.927.491 1.324.125.396-.363.448-1.01.114-1.441zM221.833 373.691a.886.886 0 0 0-1.322-.125c-.398.363-.448 1.01-.116 1.443.334.433.928.489 1.324.126a1.09 1.09 0 0 0 .114-1.444zM244.045 445.037c-.334-.433-.925-.489-1.322-.125-.398.363-.448 1.01-.116 1.441a.887.887 0 0 0 1.324.127 1.09 1.09 0 0 0 .114-1.443zM283.417 408.974a.889.889 0 0 0-1.324-.125c-.397.364-.447 1.009-.115 1.442a.887.887 0 0 0 1.324.125c.397-.363.449-1.009.115-1.442zM371.418 382.133c-.334-.433-.927-.489-1.324-.125a1.09 1.09 0 0 0-.114 1.443.888.888 0 0 0 1.324.125c.396-.364.447-1.009.114-1.443zM380.968 244.621c-.334-.433-.927-.49-1.324-.127a1.093 1.093 0 0 0-.114 1.445c.334.431.926.488 1.324.125a1.09 1.09 0 0 0 .114-1.443zM303.273 408.274c-.334-.433-.926-.49-1.324-.125-.397.363-.448 1.008-.114 1.441.334.433.925.488 1.322.125.398-.363.45-1.01.116-1.441zM245.771 486.013c-.334-.431-.928-.488-1.324-.123-.397.363-.448 1.008-.114 1.441a.884.884 0 0 0 1.322.127c.398-.365.448-1.012.116-1.445zM395.932 292.399c-.333-.433-.926-.489-1.322-.125-.398.363-.449 1.008-.115 1.441a.886.886 0 0 0 1.322.125 1.086 1.086 0 0 0 .115-1.441zM420.968 215.695c-.334-.433-.926-.488-1.322-.125a1.087 1.087 0 0 0-.115 1.442c.333.434.926.49 1.323.126.398-.363.448-1.01.114-1.443zM506.409 232.574c.517.049.972-.367 1.018-.932.044-.562-.339-1.058-.856-1.107-.517-.05-.971.368-1.016.931-.045.564.337 1.059.854 1.108zM243.839 317.762c1.097.102 2.062-.782 2.158-1.976.095-1.196-.717-2.25-1.813-2.352-1.097-.105-2.062.779-2.158 1.976-.095 1.195.717 2.247 1.813 2.352zM314.599 57.38c-1.042-1.35-2.892-1.526-4.132-.39-1.239 1.134-1.4 3.152-.356 4.503 1.041 1.35 2.889 1.524 4.129.39 1.24-1.136 1.4-3.152.359-4.503zM375.077 263.345c-1.042-1.351-2.892-1.526-4.13-.39-1.24 1.134-1.401 3.152-.36 4.503 1.042 1.35 2.892 1.524 4.131.39 1.24-1.136 1.4-3.15.359-4.503zM338.998 258.038c-1.042-1.351-2.891-1.527-4.131-.391-1.24 1.136-1.4 3.152-.357 4.503 1.042 1.351 2.891 1.526 4.131.39 1.239-1.134 1.4-3.152.357-4.502zM348.038 105.714c-1.041-1.35-2.891-1.525-4.131-.391-1.24 1.136-1.4 3.152-.358 4.503 1.041 1.351 2.891 1.526 4.131.39 1.24-1.134 1.4-3.15.358-4.502zM217.46 298.957c-1.042-1.352-2.892-1.526-4.13-.392-1.24 1.136-1.402 3.152-.36 4.503 1.043 1.351 2.893 1.526 4.131.39 1.24-1.134 1.4-3.151.359-4.501zM336.097 20.542c-.737-.955-2.045-1.079-2.92-.276-.877.803-.992 2.23-.254 3.184.735.956 2.044 1.08 2.921.276.875-.802.99-2.228.253-3.184zM260.316 263.947c-.737-.955-2.045-1.078-2.921-.276-.877.802-.991 2.228-.253 3.184.737.956 2.044 1.08 2.921.278.875-.806.989-2.23.253-3.186zM62.063 227.013c-.737-.953-2.044-1.078-2.92-.275-.878.803-.992 2.229-.254 3.185.736.954 2.044 1.078 2.92.276.878-.804.99-2.23.255-3.186zM291.561 105.563c-.737-.954-2.044-1.078-2.922-.276-.876.804-.989 2.228-.253 3.185.738.956 2.045 1.079 2.921.276.877-.803.99-2.228.254-3.185zM445.761 132.004c-.736-.956-2.045-1.08-2.92-.276-.877.804-.99 2.228-.253 3.184.736.956 2.043 1.08 2.92.276.877-.803.99-2.229.253-3.184zM295.231 136.835c-.542-.702-1.502-.793-2.146-.203-.643.59-.727 1.638-.186 2.341.541.701 1.502.793 2.146.203.643-.59.727-1.638.186-2.341zM223.377 208.449c-.54-.703-1.502-.793-2.146-.204-.645.591-.727 1.639-.186 2.341.541.703 1.502.793 2.146.202.645-.59.727-1.637.186-2.339zM97.367 316.469c-.541-.702-1.503-.793-2.146-.203-.645.59-.728 1.638-.187 2.339.542.702 1.503.793 2.147.203.644-.59.727-1.636.186-2.339zM23.325 349.934c-.542-.703-1.503-.793-2.147-.205-.644.592-.727 1.64-.186 2.341.54.702 1.502.793 2.146.203.644-.59.727-1.638.187-2.339zM200.564 369.332c-.541-.702-1.502-.794-2.147-.203-.643.59-.727 1.638-.186 2.339.541.703 1.504.795 2.146.204.645-.591.729-1.637.187-2.34zM324.727 64.531c-.348-.45-.964-.51-1.377-.13-.414.379-.467 1.051-.121 1.501.348.45.964.51 1.377.13.414-.378.467-1.05.121-1.5zM287.197 110.952c-.347-.451-.964-.509-1.377-.131-.413.38-.466 1.051-.119 1.502a.923.923 0 0 0 1.377.13c.414-.378.467-1.051.119-1.501zM273.191 91.133a.922.922 0 0 0-1.377-.13c-.413.38-.466 1.05-.119 1.501.348.45.964.508 1.377.13.414-.378.467-1.05.119-1.5zM286.558 87.24c-.348-.45-.965-.51-1.378-.13-.414.378-.467 1.049-.119 1.5a.923.923 0 0 0 1.377.13c.413-.378.466-1.05.12-1.5zM263.804 101.969c-.348-.45-.964-.51-1.377-.13-.414.378-.467 1.051-.119 1.501.346.449.963.509 1.377.131.413-.38.466-1.051.119-1.502zM23.884 274.679c-.347-.452-.964-.51-1.377-.13-.413.378-.467 1.049-.12 1.499.348.451.965.509 1.378.131.413-.378.466-1.051.119-1.5zM371.95 111.09c-.348-.452-.964-.51-1.377-.132-.413.379-.467 1.051-.119 1.503.348.449.964.507 1.377.129.414-.378.467-1.051.119-1.5zM299.372 97.715a.462.462 0 0 0-.689-.066.566.566 0 0 0-.06.75.46.46 0 0 0 .688.066.568.568 0 0 0 .061-.75zM90.554 192.173a.462.462 0 0 0-.688-.064.564.564 0 0 0-.06.75.46.46 0 0 0 .688.066.566.566 0 0 0 .06-.752zM209.429 179.402a.46.46 0 0 0-.688-.066.57.57 0 0 0-.059.752.462.462 0 0 0 .688.064.565.565 0 0 0 .059-.75zM257.228 146.13a.463.463 0 0 0-.69-.066.567.567 0 0 0-.059.751.462.462 0 0 0 .689.065.567.567 0 0 0 .06-.75zM201.88 190.491a.462.462 0 0 0-.689-.065.567.567 0 0 0-.06.751.462.462 0 0 0 .689.066.569.569 0 0 0 .06-.752zM71.768 305.982a.461.461 0 0 0-.688-.066.564.564 0 0 0-.06.75.46.46 0 0 0 .689.066.566.566 0 0 0 .059-.75zM59.262 319.733a.461.461 0 0 0-.688-.065.566.566 0 0 0-.06.75.463.463 0 0 0 .688.066.568.568 0 0 0 .06-.751zM288.626 96.205a.462.462 0 0 0-.688-.064.568.568 0 0 0-.061.75.463.463 0 0 0 .69.066.568.568 0 0 0 .059-.752zM217.441 160.713a.46.46 0 0 0-.687-.066.564.564 0 0 0-.06.75.46.46 0 0 0 .688.066.563.563 0 0 0 .059-.75zM301.659 106.823c-.347-.45-.963-.508-1.377-.129-.413.378-.466 1.05-.12 1.5.348.452.964.51 1.377.131.413-.379.467-1.05.12-1.502zM267.942 139.098a.922.922 0 0 0-1.377-.132c-.413.38-.466 1.051-.119 1.503.348.449.964.507 1.377.129.414-.378.467-1.051.119-1.5zM152.527 303.725a.922.922 0 0 0-1.376-.131c-.413.378-.466 1.051-.12 1.5.348.452.965.51 1.378.132.413-.38.466-1.053.118-1.501zM357.469 223.444a.921.921 0 0 0-1.377-.131c-.414.379-.467 1.05-.119 1.502.347.45.964.508 1.377.129.413-.378.466-1.05.119-1.5zM370.379 302.462a.923.923 0 0 0-1.377-.131 1.137 1.137 0 0 0-.119 1.502c.348.452.964.51 1.377.132.414-.379.467-1.053.119-1.503zM221.982 134.269a.922.922 0 0 0-1.376-.13c-.413.378-.468 1.051-.12 1.501.347.451.964.509 1.377.131.413-.38.466-1.051.119-1.502zM149.328 308.046c-.347-.45-.964-.508-1.377-.129-.414.378-.466 1.05-.119 1.5a.921.921 0 0 0 1.376.131c.414-.379.467-1.052.12-1.502zM173.465 366.767c-.348-.451-.964-.509-1.377-.131-.414.378-.467 1.052-.119 1.502.348.45.964.509 1.377.13.413-.378.467-1.051.119-1.501zM144.256 392.13c-.347-.452-.964-.51-1.377-.131a1.13 1.13 0 0 0-.119 1.5c.347.452.963.51 1.376.131.414-.378.467-1.05.12-1.5zM272.688 352.956c-.347-.45-.963-.508-1.377-.13-.413.379-.466 1.05-.119 1.501.347.45.963.508 1.376.13.413-.379.467-1.051.12-1.501zM351.633 316.851a.924.924 0 0 0-1.377-.129c-.414.378-.467 1.049-.119 1.5.347.45.964.508 1.377.13.412-.378.467-1.049.119-1.501zM122.281 321.019c-.348-.45-.964-.51-1.376-.13-.414.378-.467 1.051-.121 1.501.348.451.965.509 1.378.131.412-.379.466-1.053.119-1.502zM186.365 357.733c-.347-.45-.964-.508-1.377-.13-.413.378-.467 1.051-.119 1.502.348.45.962.51 1.376.13.413-.378.468-1.051.12-1.502zM277.939 329.804c-.348-.451-.964-.509-1.377-.131-.414.378-.467 1.052-.121 1.501.348.451.964.509 1.377.129.414-.378.467-1.049.121-1.499zM287.876 186.707c-.348-.45-.964-.51-1.377-.13-.413.378-.467 1.049-.119 1.501.348.449.964.509 1.377.129.413-.378.467-1.051.119-1.5zM207.025 357.004a.923.923 0 0 0-1.377-.129c-.413.378-.466 1.05-.119 1.5.348.45.964.51 1.377.13.414-.378.467-1.049.119-1.501zM147.188 437.903c-.347-.45-.964-.508-1.376-.13-.414.379-.467 1.05-.12 1.501.347.45.964.508 1.377.13a1.132 1.132 0 0 0 .119-1.501zM303.448 236.424c-.347-.45-.963-.508-1.376-.13a1.132 1.132 0 0 0-.12 1.501.923.923 0 0 0 1.377.131c.413-.38.466-1.051.119-1.502zM237.774 400.644c-.347-.45-.963-.508-1.377-.13-.413.379-.466 1.05-.119 1.501.348.45.964.509 1.377.13.414-.379.467-1.05.119-1.501zM329.501 156.606c-.347-.45-.964-.508-1.377-.129-.413.378-.467 1.05-.12 1.5.347.452.963.51 1.377.131.413-.379.466-1.05.12-1.502zM462.181 208.715c.537.05 1.011-.383 1.058-.97.046-.586-.352-1.102-.889-1.154-.538-.051-1.012.384-1.058.97-.047.585.351 1.102.889 1.154zM418.411 174.172c.539.05 1.013-.383 1.059-.97.047-.586-.351-1.103-.89-1.153-.538-.052-1.011.383-1.058.968-.046.587.352 1.104.889 1.155zM365.768 50.903c.269.025.505-.192.528-.484.024-.293-.175-.553-.444-.577-.268-.026-.506.19-.529.483-.023.295.175.552.445.578zM419.183 136.492c.537.05 1.011-.383 1.057-.97.047-.585-.351-1.102-.889-1.153-.537-.05-1.011.383-1.057.969-.047.587.351 1.104.889 1.154z" fill="#DADBD8"/><path fill-rule="evenodd" clip-rule="evenodd" d="M452.58 152.191c1.141.107 2.146-.813 2.245-2.057.099-1.243-.746-2.34-1.887-2.447-1.14-.108-2.145.812-2.245 2.056-.099 1.243.746 2.34 1.887 2.448zM452.149 163.759c.269.026.507-.19.529-.483.023-.294-.175-.552-.445-.578-.268-.024-.505.192-.529.485-.023.294.177.552.445.576zM460.725 156.546c.27.026.506-.191.529-.485.024-.293-.175-.551-.444-.577-.268-.024-.506.192-.529.485-.023.295.175.552.444.577zM444.622 159.081c.539.052 1.011-.383 1.059-.968.045-.587-.351-1.103-.889-1.153-.539-.052-1.013.383-1.059.968-.047.586.353 1.103.889 1.153zM359.084 73.354c.538.05 1.011-.384 1.058-.97.048-.586-.35-1.103-.889-1.153-.536-.052-1.011.383-1.058.969-.046.587.352 1.102.889 1.154zM261.782 101.715c-.404-.762-1.299-1.025-1.999-.585-.7.44-.941 1.418-.537 2.18.404.764 1.299 1.025 1.999.584.702-.44.941-1.415.537-2.179zM192.48 77.734c-.261-.49-.835-.657-1.284-.373-.449.282-.603.907-.344 1.398.26.488.833.657 1.283.375.45-.284.604-.91.345-1.4zM293.757 85.805c-.13-.246-.416-.33-.642-.188a.539.539 0 0 0-.171.7c.13.244.416.328.641.188a.54.54 0 0 0 .172-.7zM232.968 116.114c-.13-.246-.416-.33-.642-.188a.54.54 0 0 0-.172.7.45.45 0 0 0 .642.186.536.536 0 0 0 .172-.698zM219.017 126.837c-.13-.244-.417-.329-.641-.187a.537.537 0 0 0-.172.7c.129.244.416.328.64.186.226-.14.302-.455.173-.699zM285.527 71.286c-.129-.246-.416-.33-.64-.188a.536.536 0 0 0-.173.699c.13.245.417.328.641.187a.535.535 0 0 0 .172-.698zM262.805 14.738c-.809-1.53-2.602-2.054-4.004-1.171-1.403.881-1.883 2.836-1.075 4.364.81 1.529 2.602 2.053 4.005 1.172 1.403-.883 1.883-2.837 1.074-4.365zM168.244 95.858c-.809-1.528-2.603-2.053-4.006-1.172-1.401.883-1.883 2.838-1.073 4.366.809 1.529 2.603 2.054 4.004 1.171 1.403-.881 1.884-2.836 1.075-4.365zM286.116 65.163c-.81-1.53-2.601-2.054-4.004-1.171-1.403.881-1.884 2.836-1.074 4.364.808 1.529 2.602 2.053 4.005 1.17 1.401-.88 1.883-2.835 1.073-4.363zM233.882 32.928c-.572-1.082-1.839-1.452-2.832-.829-.991.624-1.332 2.007-.76 3.089.572 1.08 1.841 1.45 2.832.826.993-.624 1.332-2.005.76-3.087zM141.851 21.167c-.42-.794-1.351-1.067-2.08-.608-.729.459-.978 1.473-.558 2.267.42.795 1.352 1.066 2.081.609.728-.458.979-1.473.557-2.268zM188.958 62.3c-.42-.794-1.352-1.067-2.081-.608-.729.459-.979 1.475-.558 2.27.421.792 1.351 1.065 2.08.608.729-.46.979-1.475.559-2.27zM402.096 33.79a.467.467 0 0 0-.667-.194.562.562 0 0 0-.18.727c.136.255.435.343.668.195a.558.558 0 0 0 .179-.727zM429.598 58.283c-.136-.255-.435-.342-.668-.195-.235.146-.314.473-.18.727.135.255.434.343.668.196a.561.561 0 0 0 .18-.728zM204.795 12.809c-.134-.255-.433-.343-.666-.195a.56.56 0 0 0-.18.727c.135.255.434.342.668.195a.56.56 0 0 0 .178-.727zM420.386 67.766c-.135-.255-.434-.344-.668-.196a.561.561 0 0 0-.18.728c.136.254.435.341.668.195a.56.56 0 0 0 .18-.727zM141.537 44.349c-.134-.257-.433-.344-.667-.196-.235.147-.314.473-.179.728.135.254.433.341.668.195a.56.56 0 0 0 .178-.727zM127.02 55.508c-.134-.256-.434-.343-.667-.197a.56.56 0 0 0-.179.73c.135.254.433.34.667.194a.56.56 0 0 0 .179-.727zM440.481 41.406c-.135-.254-.434-.342-.667-.194a.56.56 0 0 0-.18.727c.136.254.435.342.668.194a.56.56 0 0 0 .179-.727zM221.419 57.496c-.27-.51-.868-.685-1.336-.39-.466.294-.627.945-.358 1.454.27.511.868.687 1.336.392.468-.294.628-.945.358-1.456zM217.574 61.143c-.269-.51-.868-.683-1.335-.39-.468.294-.628.947-.358 1.456.27.51.868.683 1.335.389.468-.293.629-.944.358-1.455zM231.931 123.556c-.269-.51-.866-.683-1.335-.389-.466.293-.626.945-.356 1.455.268.509.866.683 1.334.39.468-.294.628-.947.357-1.456zM199.108 142.969c-.27-.51-.868-.683-1.336-.389-.466.293-.627.945-.357 1.455.27.509.867.683 1.335.389.468-.293.628-.944.358-1.455zM188.864 68.769c-.27-.51-.868-.684-1.334-.39-.469.293-.629.946-.359 1.456.27.509.868.683 1.335.389.468-.293.628-.946.358-1.455zM199.727 146.27c-.27-.509-.868-.685-1.334-.39-.468.294-.628.945-.359 1.455.27.51.868.684 1.335.39.466-.294.627-.945.358-1.455zM246.08 117.118c-.27-.51-.868-.684-1.335-.39-.468.294-.628.945-.358 1.455.27.509.868.685 1.334.39.469-.294.629-.945.359-1.455zM220.738 15.82c1.106.324 2.242-.392 2.539-1.598.296-1.205-.359-2.444-1.465-2.768-1.106-.323-2.243.392-2.539 1.597-.298 1.206.358 2.446 1.465 2.77zM163.483 58.63c-1.461-.579-3.077.245-3.609 1.838-.533 1.593.222 3.356 1.685 3.935 1.462.578 3.079-.244 3.611-1.838.531-1.594-.223-3.355-1.687-3.934zM212.614 81.357c-1.462-.58-3.077.243-3.609 1.838-.531 1.594.224 3.354 1.686 3.935 1.463.58 3.079-.244 3.61-1.837.531-1.595-.224-3.356-1.687-3.936zM165.54 110.795c-1.034-.409-2.177.174-2.553 1.301-.375 1.127.157 2.373 1.193 2.783 1.034.408 2.176-.173 2.553-1.301.375-1.127-.159-2.373-1.193-2.783zM182.377 134.903c-.759-.301-1.599.126-1.876.954-.276.828.116 1.745.876 2.045.761.301 1.6-.126 1.876-.954.276-.828-.116-1.743-.876-2.045zM175.065 59.282c-.488-.192-1.027.08-1.204.613-.177.53.075 1.117.561 1.311.488.194 1.027-.08 1.204-.613.178-.53-.073-1.118-.561-1.311zM164.282 117.565c-.486-.193-1.025.081-1.203.613-.177.531.075 1.118.563 1.312.486.192 1.026-.081 1.203-.613.177-.533-.075-1.118-.563-1.312zM143.893 108.4c-.488-.192-1.027.081-1.204.613-.178.53.074 1.118.562 1.311.487.194 1.025-.082 1.203-.613.177-.53-.075-1.119-.561-1.311zM153.301 98.162c-.487-.193-1.026.081-1.203.612-.177.532.074 1.12.562 1.313.487.192 1.026-.082 1.203-.613.177-.532-.074-1.12-.562-1.312zM140.853 122.333c-.487-.194-1.026.081-1.203.613-.178.531.074 1.118.561 1.311.488.194 1.027-.08 1.204-.611.177-.532-.074-1.119-.562-1.313zM234.888 73.312c-.487-.192-1.027.081-1.203.613-.177.532.074 1.12.561 1.312.488.193 1.026-.081 1.205-.612.176-.532-.075-1.12-.563-1.313zM168.583 100.174c-.244-.096-.514.041-.602.307-.089.265.036.559.28.655.244.096.514-.041.603-.306.088-.266-.039-.56-.281-.656zM154.84 162.533c-.244-.096-.514.041-.603.307-.088.265.037.559.281.655.244.097.514-.041.602-.306.089-.265-.036-.56-.28-.656zM158.975 104.542c-.244-.096-.513.042-.602.307-.088.265.037.56.281.656.244.097.514-.04.602-.307.089-.265-.037-.558-.281-.656zM128.15 195.498c-.243-.097-.513.04-.601.305-.088.267.037.56.281.656.243.096.513-.04.601-.307.089-.265-.037-.558-.281-.654zM174.502 106.558c-.488-.192-1.028.082-1.205.613-.177.531.075 1.119.563 1.311.488.194 1.026-.081 1.203-.611.177-.532-.075-1.12-.561-1.313zM160.659 151.07c-.486-.192-1.026.082-1.203.613-.177.531.075 1.119.563 1.313.486.192 1.025-.082 1.203-.613.177-.532-.075-1.119-.563-1.313zM120.277 171.11c-.488-.192-1.027.082-1.204.613-.177.532.075 1.119.562 1.313.488.192 1.027-.083 1.203-.613.178-.531-.073-1.12-.561-1.313zM219.613 133.421c-.488-.194-1.026.081-1.203.613-.179.531.074 1.118.561 1.311.488.193 1.026-.08 1.203-.613.179-.532-.073-1.117-.561-1.311zM58.47 63.28c-1.52-.604-3.203.253-3.756 1.912-.553 1.659.233 3.492 1.755 4.094 1.521.604 3.204-.253 3.757-1.912.553-1.66-.232-3.492-1.755-4.094zM106.012 77.887c-1.522-.603-3.204.253-3.757 1.913-.552 1.658.233 3.492 1.754 4.094 1.522.603 3.204-.253 3.758-1.912.553-1.659-.232-3.491-1.755-4.095zM56.614 10.62c-1.076-.425-2.265.18-2.657 1.353-.39 1.173.164 2.469 1.24 2.896 1.077.425 2.266-.178 2.657-1.353.392-1.172-.163-2.469-1.24-2.896zM74.665 123.029c-1.076-.425-2.266.18-2.657 1.353s.165 2.471 1.24 2.896c1.076.427 2.267-.178 2.657-1.353.391-1.172-.165-2.469-1.24-2.896zM202.711 47.426c-1.077-.425-2.266.178-2.657 1.353-.392 1.172.164 2.469 1.24 2.894 1.077.427 2.266-.178 2.657-1.351.392-1.173-.165-2.469-1.24-2.896zM63.069 161.966c-.79-.315-1.665.131-1.952.994-.287.862.121 1.815.912 2.127.79.313 1.665-.132 1.951-.994.288-.862-.12-1.815-.911-2.127zM66.936 54.916c-.507-.201-1.068.086-1.252.638-.184.553.078 1.163.585 1.365.507.2 1.068-.084 1.252-.638.184-.552-.077-1.163-.585-1.365zM18.64 144.736c-.508-.201-1.069.084-1.253.638-.184.552.077 1.163.585 1.364.507.2 1.068-.085 1.253-.637.184-.554-.079-1.165-.585-1.365zM2.288 109.729c-.507-.201-1.067.084-1.251.638-.185.552.077 1.163.584 1.365.508.199 1.068-.086 1.253-.638.184-.553-.078-1.165-.586-1.365zM1.311 41.204c-.507-.201-1.067.084-1.252.638-.184.552.078 1.163.585 1.364.507.202 1.067-.085 1.253-.637.183-.554-.078-1.164-.586-1.365zM129.189 69.517c-.507-.201-1.068.084-1.252.638-.185.552.078 1.165.584 1.364.507.202 1.068-.083 1.253-.637.184-.554-.078-1.164-.585-1.365zM27.982 101.168c-.254-.101-.535.043-.626.319-.093.277.038.582.292.683.253.101.533-.043.626-.319.092-.276-.039-.582-.292-.683zM17.985 105.715c-.254-.101-.535.043-.628.319-.09.276.04.582.293.683.254.099.535-.043.626-.319.093-.277-.038-.582-.291-.683zM34.14 107.813c-.508-.202-1.069.084-1.253.637-.184.554.077 1.164.585 1.365.507.201 1.068-.084 1.252-.637.185-.554-.077-1.164-.584-1.365zM11.102 195.125c-.507-.2-1.067.085-1.252.637-.184.554.077 1.165.585 1.367.508.201 1.068-.086 1.252-.639.185-.553-.077-1.164-.585-1.365zM91.043 180.81c-.507-.201-1.068.084-1.253.638-.184.553.079 1.163.586 1.364.506.202 1.067-.083 1.252-.637.184-.552-.078-1.164-.585-1.365zM113.293 132.065c-.507-.201-1.067.084-1.251.638-.185.553.077 1.165.584 1.365.508.201 1.068-.084 1.253-.638.183-.552-.078-1.163-.586-1.365zM252.108 104.925c.49-.25.7-.883.472-1.416-.228-.534-.81-.763-1.3-.514-.488.248-.7.883-.471 1.415.229.534.81.764 1.299.515zM198.358 98.848c.489-.249.701-.883.473-1.417-.229-.532-.81-.763-1.3-.514-.489.249-.7.883-.471 1.415.229.534.81.764 1.298.516zM96.234 20.755c.245-.124.35-.441.236-.708-.114-.267-.405-.381-.65-.256-.243.123-.349.44-.235.707.114.267.405.382.65.256zM181.747 65.791c.489-.249.701-.883.472-1.415-.228-.534-.809-.764-1.299-.516-.489.25-.7.883-.471 1.417.227.532.808.763 1.298.514z" fill="#DADBD8"/><path fill-rule="evenodd" clip-rule="evenodd" d="M217.873 61.195c1.037-.527 1.485-1.872 1.001-3.002-.485-1.132-1.719-1.62-2.756-1.092-1.037.527-1.486 1.872-1.001 3.004.484 1.13 1.718 1.62 2.756 1.09zM222.805 71.453c.246-.126.351-.443.237-.71-.115-.266-.404-.38-.65-.257-.244.125-.349.442-.236.709.114.265.405.381.649.258zM226.926 60.532a.554.554 0 0 0 .236-.707c-.114-.267-.405-.383-.649-.258s-.351.44-.237.707c.115.267.406.382.65.258zM214.14 71.5c.489-.249.701-.883.473-1.416-.229-.533-.81-.764-1.3-.515-.488.25-.7.883-.471 1.417.227.533.81.764 1.298.514zM100.741 43.84c.489-.248.7-.882.473-1.416-.229-.532-.811-.762-1.3-.514-.49.249-.7.883-.472 1.417.228.532.81.762 1.299.514zM453.992 439.824c.915 1.188 2.54 1.341 3.629.343 1.089-.997 1.231-2.769.314-3.957-.915-1.187-2.539-1.341-3.629-.342-1.089.998-1.229 2.77-.314 3.956zM398.843 439.714c.474.617 1.319.697 1.885.177.567-.518.639-1.438.163-2.054-.476-.619-1.319-.697-1.885-.18-.567.519-.639 1.44-.163 2.057zM603.025 449.65a.812.812 0 0 0 1.211.114.996.996 0 0 0 .104-1.319.811.811 0 0 0-1.209-.116.998.998 0 0 0-.106 1.321zM381.631 474.752a.409.409 0 0 0 .606.056.497.497 0 0 0 .052-.66.404.404 0 0 0-.604-.057.5.5 0 0 0-.054.661zM388.267 465.005a.406.406 0 0 0 .605.058.5.5 0 0 0 .052-.66.408.408 0 0 0-.606-.058.497.497 0 0 0-.051.66zM491.143 420.765a.405.405 0 0 0 .606.056.495.495 0 0 0 .051-.658.401.401 0 0 0-.603-.057.497.497 0 0 0-.054.659zM520.194 471.65a.403.403 0 0 0 .605.057.492.492 0 0 0 .052-.657.403.403 0 0 0-.604-.059.498.498 0 0 0-.053.659zM487.154 444.002a.814.814 0 0 0 1.211.114.998.998 0 0 0 .105-1.32c-.307-.395-.848-.446-1.211-.115a1 1 0 0 0-.105 1.321zM503.157 466.35c-1.004-.097-1.887.714-1.972 1.806-.089 1.093.654 2.055 1.656 2.149 1.004.095 1.887-.713 1.972-1.806.088-1.094-.654-2.056-1.656-2.149zM378.4 418.527c.953 1.235 2.644 1.395 3.778.356 1.133-1.039 1.279-2.883.327-4.116-.953-1.237-2.644-1.395-3.777-.359-1.133 1.039-1.281 2.882-.328 4.119zM622.191 429.113c.953 1.235 2.644 1.395 3.779.357 1.133-1.037 1.28-2.881.326-4.117-.951-1.235-2.644-1.395-3.777-.357s-1.281 2.882-.328 4.117zM572.315 497.197c.673.873 1.87.987 2.67.252.801-.734.906-2.037.232-2.911-.672-.874-1.869-.987-2.672-.253-.8.733-.904 2.039-.23 2.912zM449.366 484.297c.496.642 1.374.725 1.964.184.589-.538.665-1.496.169-2.138-.494-.642-1.372-.726-1.962-.186-.589.538-.665 1.498-.171 2.14zM628.982 489.551c.496.64 1.376.724 1.963.186.59-.54.666-1.499.172-2.141-.496-.642-1.376-.724-1.963-.185-.59.54-.666 1.498-.172 2.14zM608.457 462.932c.496.64 1.374.724 1.963.186.589-.54.665-1.499.171-2.141-.496-.642-1.376-.725-1.963-.185-.588.54-.666 1.498-.171 2.14zM697.569 499.466a.843.843 0 0 0 1.258.119c.378-.346.427-.961.11-1.372a.846.846 0 0 0-1.26-.119c-.378.346-.427.96-.108 1.372zM653.783 470.842a.423.423 0 0 0 .63.06.519.519 0 0 0 .055-.687.423.423 0 0 0-.63-.059.518.518 0 0 0-.055.686zM665.219 458.269a.42.42 0 0 0 .628.058.515.515 0 0 0 .055-.685.42.42 0 0 0-.63-.059.517.517 0 0 0-.053.686zM579.936 472.908a.844.844 0 0 0 1.26.117c.376-.346.427-.959.109-1.372a.846.846 0 0 0-1.261-.119c-.376.346-.425.961-.108 1.374zM582.862 468.954a.843.843 0 0 0 1.258.119c.378-.346.428-.96.111-1.374a.848.848 0 0 0-1.261-.118c-.377.347-.425.96-.108 1.373zM607.595 457.092a.843.843 0 0 0 1.258.119c.378-.346.427-.961.108-1.372-.317-.412-.88-.466-1.258-.119-.378.346-.426.96-.108 1.372zM514.374 450.88c.319.412.883.465 1.259.119.379-.346.427-.961.11-1.372a.841.841 0 0 0-1.259-.119c-.377.344-.427.96-.11 1.372zM367.223 489.664a.848.848 0 0 0 1.26.119c.376-.348.427-.961.108-1.373a.844.844 0 0 0-1.258-.12c-.378.347-.427.96-.11 1.374zM383.583 475.827c.317.41.88.463 1.258.119a1.04 1.04 0 0 0 .11-1.375.844.844 0 0 0-1.258-.118c-.38.347-.427.96-.11 1.374zM476.312 478.404c.319.413.883.464 1.259.118.379-.346.427-.961.11-1.372-.318-.412-.881-.466-1.259-.119-.379.346-.427.961-.11 1.373zM544.487 425.701c.247.465.794.626 1.221.356.427-.268.574-.864.327-1.329-.246-.467-.793-.627-1.22-.357-.427.267-.575.864-.328 1.33zM589.801 415.324c.694.277 1.462-.114 1.714-.872.253-.758-.105-1.595-.799-1.87-.697-.276-1.464.115-1.716.873-.253.756.105 1.595.801 1.869zM614.98 390.061c.223.087.469-.038.551-.281.081-.242-.034-.512-.258-.6-.221-.087-.47.038-.549.28-.081.243.034.511.256.601zM639.385 359.918c.223.089.469-.036.549-.28.083-.243-.033-.513-.256-.6-.224-.088-.469.037-.549.28-.082.244.032.51.256.6zM609.658 400.542c.445.177.939-.074 1.101-.561.163-.485-.069-1.022-.514-1.2-.447-.175-.938.075-1.101.56-.162.488.067 1.023.514 1.201zM520.126 73.394c-.915-1.186-2.541-1.34-3.63-.343-1.089.997-1.23 2.77-.315 3.957.916 1.187 2.542 1.34 3.631.344 1.088-1 1.23-2.77.314-3.958zM575.275 73.504c-.476-.616-1.319-.695-1.887-.177-.565.517-.639 1.439-.163 2.056.476.616 1.321.697 1.887.178.565-.518.639-1.44.163-2.057zM371.091 63.57a.81.81 0 0 0-1.21-.114.993.993 0 0 0-.103 1.32.81.81 0 0 0 1.209.112.993.993 0 0 0 .104-1.317zM592.487 38.469a.407.407 0 0 0-.606-.057.497.497 0 0 0-.053.66.405.405 0 0 0 .605.055.498.498 0 0 0 .054-.658zM585.851 48.214a.405.405 0 0 0-.604-.057.495.495 0 0 0-.053.659.405.405 0 0 0 .605.056.496.496 0 0 0 .052-.658zM482.975 92.454a.406.406 0 0 0-.606-.058.5.5 0 0 0-.053.66.407.407 0 0 0 .605.059.5.5 0 0 0 .054-.66zM453.922 41.569a.405.405 0 0 0-.604-.058.498.498 0 0 0-.052.66.404.404 0 0 0 .604.056.498.498 0 0 0 .052-.658zM486.963 69.219c-.305-.397-.846-.449-1.209-.115a.996.996 0 0 0-.106 1.32.812.812 0 0 0 1.21.114.994.994 0 0 0 .105-1.32zM811.325 14.683a.813.813 0 0 0-1.211-.115.995.995 0 0 0-.105 1.32.81.81 0 0 0 1.21.114.995.995 0 0 0 .106-1.32zM470.96 46.87c1.002.095 1.885-.715 1.972-1.807.087-1.093-.654-2.055-1.657-2.15-1.002-.094-1.885.714-1.972 1.807-.087 1.094.656 2.056 1.657 2.15zM595.718 94.694c-.953-1.236-2.644-1.395-3.777-.357-1.133 1.039-1.281 2.882-.328 4.117.952 1.235 2.644 1.395 3.777.357s1.281-2.882.328-4.117zM351.925 84.106c-.951-1.235-2.642-1.395-3.777-.356-1.133 1.038-1.28 2.881-.326 4.116.953 1.235 2.642 1.395 3.777.357 1.133-1.038 1.28-2.882.326-4.117zM401.802 16.02c-.674-.871-1.869-.984-2.67-.25-.802.733-.906 2.037-.233 2.91.674.876 1.869.987 2.671.254.803-.735.905-2.04.232-2.913zM524.75 28.922c-.495-.642-1.374-.724-1.963-.186-.588.54-.664 1.497-.169 2.141.494.642 1.373.725 1.963.185.589-.54.665-1.498.169-2.14zM345.134 23.668c-.494-.642-1.374-.725-1.962-.185-.589.54-.665 1.496-.171 2.138.495.644 1.374.726 1.964.186.589-.54.665-1.496.169-2.14zM365.66 50.287c-.496-.642-1.374-.724-1.963-.185-.59.539-.665 1.498-.17 2.139.495.642 1.374.725 1.962.185.589-.538.667-1.497.171-2.14zM276.548 13.753a.843.843 0 0 0-1.258-.12c-.379.347-.427.961-.11 1.373.318.412.882.465 1.259.12.378-.347.427-.962.109-1.373zM320.334 42.377a.423.423 0 0 0-.63-.06.517.517 0 0 0-.054.687.42.42 0 0 0 .629.059.518.518 0 0 0 .055-.686zM308.899 54.951a.42.42 0 0 0-.629-.06.517.517 0 0 0-.056.687.422.422 0 0 0 .63.058.517.517 0 0 0 .055-.685zM394.181 40.312a.843.843 0 0 0-1.258-.119c-.379.346-.427.961-.11 1.373.319.411.881.465 1.259.119.379-.346.426-.961.109-1.373zM391.255 44.264a.845.845 0 0 0-1.259-.119c-.379.346-.427.961-.109 1.373a.843.843 0 0 0 1.258.119c.379-.346.427-.96.11-1.373zM366.523 56.127c-.318-.412-.882-.465-1.259-.12-.378.347-.427.962-.109 1.373a.843.843 0 0 0 1.258.12c.378-.347.427-.961.11-1.373zM459.743 62.339a.843.843 0 0 0-1.258-.12c-.38.347-.427.962-.11 1.373a.843.843 0 0 0 1.258.12c.378-.347.427-.96.11-1.373zM606.895 23.557a.845.845 0 0 0-1.26-.12 1.04 1.04 0 0 0-.11 1.373.846.846 0 0 0 1.26.12c.378-.347.427-.963.11-1.373zM590.534 37.394c-.319-.414-.882-.465-1.26-.12-.378.347-.425.96-.108 1.373a.841.841 0 0 0 1.258.118c.378-.345.427-.96.11-1.371zM497.804 34.816a.843.843 0 0 0-1.258-.12c-.379.347-.427.961-.11 1.373a.843.843 0 0 0 1.258.12c.378-.347.428-.962.11-1.373zM429.631 87.519c-.247-.466-.793-.626-1.222-.357-.427.27-.574.864-.327 1.331.247.465.793.625 1.221.357.427-.27.574-.865.328-1.331zM384.317 97.894c-.694-.276-1.463.116-1.716.874-.252.756.107 1.594.802 1.87.694.274 1.463-.116 1.716-.874.251-.758-.107-1.594-.802-1.87zM359.135 123.16c-.222-.089-.468.036-.549.28-.08.243.034.511.257.6.224.088.469-.038.55-.281.081-.242-.033-.511-.258-.599zM334.733 153.302c-.223-.088-.47.037-.551.279-.081.244.035.513.258.6.222.088.468-.037.55-.28.081-.242-.033-.512-.257-.599zM364.458 112.678c-.445-.177-.938.073-1.1.56-.161.486.068 1.023.514 1.199.446.177.938-.074 1.101-.56.162-.487-.068-1.023-.515-1.199zM597.734 486.567c-.319-.412-.881-.465-1.26-.121a1.038 1.038 0 0 0-.108 1.374.843.843 0 0 0 1.258.119c.378-.346.427-.96.11-1.372zM875.53 455.451a.843.843 0 0 0-1.258-.119 1.035 1.035 0 0 0-.108 1.373.843.843 0 0 0 1.258.119c.378-.346.427-.961.108-1.373zM719.127 441.823c-.916-1.188-2.54-1.341-3.629-.344-1.091.999-1.231 2.771-.316 3.958.915 1.186 2.541 1.34 3.631.343 1.087-.999 1.229-2.769.314-3.957zM840.479 488.037c-.917-1.187-2.541-1.342-3.63-.343-1.09.998-1.23 2.77-.315 3.958.916 1.188 2.54 1.341 3.631.343 1.088-.997 1.229-2.77.314-3.958zM790.747 468.886c-.648-.841-1.798-.949-2.568-.243s-.87 1.958-.223 2.799c.647.839 1.797.948 2.567.242.77-.706.869-1.958.224-2.798zM736.29 476.233c-.476-.616-1.321-.697-1.888-.178-.566.519-.639 1.438-.162 2.057.474.616 1.319.697 1.885.177.566-.519.639-1.44.165-2.056zM762.746 456.342a.405.405 0 0 0-.604-.057.5.5 0 0 0-.052.661.404.404 0 0 0 .604.056.496.496 0 0 0 .052-.66zM657.826 493.197a.404.404 0 0 0-.604-.057.496.496 0 0 0-.052.66.405.405 0 0 0 .604.057.498.498 0 0 0 .052-.66zM712.456 494.212a.407.407 0 0 0-.605-.058.499.499 0 0 0-.053.661.406.406 0 0 0 .605.057.499.499 0 0 0 .053-.66zM783.422 492.226c-.305-.393-.848-.446-1.209-.112a.993.993 0 0 0-.107 1.317.813.813 0 0 0 1.211.116c.363-.332.41-.924.105-1.321zM780.61 496.026a.814.814 0 0 0-1.211-.116 1 1 0 0 0-.104 1.321.81.81 0 0 0 1.209.114.996.996 0 0 0 .106-1.319zM664.713 488.913c-.494-.642-1.372-.724-1.963-.184-.588.538-.665 1.496-.169 2.14.494.641 1.373.722 1.963.184.587-.54.663-1.498.169-2.14zM803.343 488.465a.845.845 0 0 0-1.26-.119 1.037 1.037 0 0 0-.108 1.372.846.846 0 0 0 1.26.12c.376-.347.425-.961.108-1.373zM724.41 492.833a.845.845 0 0 0-1.26-.118 1.036 1.036 0 0 0-.11 1.372c.318.413.882.467 1.26.119.377-.344.427-.96.11-1.373zM808.145 467.294a.845.845 0 0 0-1.26-.119 1.036 1.036 0 0 0-.109 1.373.844.844 0 0 0 1.259.118c.377-.344.427-.96.11-1.372zM743.302 492.167c-.318-.412-.882-.465-1.259-.119a1.034 1.034 0 0 0-.108 1.373.843.843 0 0 0 1.258.119c.378-.346.426-.961.109-1.373z" fill="#DADBD8"/></g><defs><clipPath id="a"><path fill="#fff" d="M0 0h1110v500H0z"/></clipPath></defs></svg>