<svg width="112" height="120" fill="none" xmlns="http://www.w3.org/2000/svg"><path d="m44.782 22.378 2.006 33.676c.34 5.727 2.012 14.07 11.041 13.118 7.773-1.417 9.317-8.982 8.993-14.327-.154-2.534-.276-4.649-.275-4.91 0 0 8.525-1.317 8.639-9.839.054-4.118-.523-12.61-1.135-20.286-.656-8.244-7.543-14.597-15.813-14.605h-.822c-8.867.508-13.388 8.323-12.634 17.173z" fill="#FFC19D"/><path d="M66.547 49.935s-5.372.31-11.093-3.291c0 0 2.7 6.227 11.205 5.468l-.112-2.177z" fill="#FF9C6A"/><path d="M59.82 24.324c-.155.183-1.19-.534-2.612-.47-1.42.044-2.43.837-2.593.665-.08-.076.073-.402.512-.76.433-.356 1.181-.717 2.067-.75.886-.032 1.646.27 2.09.594.452.325.614.638.537.72zM58.756 28.45c.021.607-.477 1.126-1.111 1.16-.633.033-1.165-.431-1.186-1.039-.02-.608.477-1.128 1.11-1.161.635-.034 1.166.432 1.187 1.04zM64.087 33.94c-.007-.075.808-.215 2.127-.382.334-.035.651-.1.708-.329.079-.241-.061-.602-.223-.991l-.986-2.548c-1.37-3.627-2.361-6.61-2.214-6.663.146-.054 1.375 2.842 2.745 6.47l.945 2.562c.126.38.343.812.172 1.313-.09.25-.336.43-.55.488-.215.065-.403.069-.568.078-1.328.07-2.151.075-2.156.001z" fill="#2D1B14"/><path d="M45.472 28.689c-.146-.063-5.854-1.738-5.674 4.088.18 5.827 5.993 4.444 5.998 4.276.005-.167-.324-8.364-.324-8.364z" fill="#FFC19D"/><path d="M43.948 34.901c-.026-.018-.1.075-.268.158a1.013 1.013 0 0 1-.759.04c-.622-.207-1.17-1.168-1.232-2.218a3.363 3.363 0 0 1 .24-1.462c.164-.431.43-.738.739-.803a.517.517 0 0 1 .607.26c.084.16.05.278.081.287.017.014.123-.101.068-.34a.646.646 0 0 0-.24-.358.77.77 0 0 0-.566-.132c-.449.045-.84.471-1.033.937a3.445 3.445 0 0 0-.301 1.635c.073 1.172.709 2.252 1.558 2.47.413.094.751-.04.924-.183.176-.15.202-.281.182-.29z" fill="#FF9C6A"/><path d="M37.07 19.84c1.063-2.136 1.169-4.6 1.666-6.935.496-2.334 1.6-4.794 3.784-5.754l.052.018c1.954-.954 4.435-1.144 6.188.134.192-3.049 2.667-5.63 5.558-6.616 2.892-.986 7.652-.865 10.56.07 2.248.721 4.49 2.371 7.25 4.833A28.612 28.612 0 0 1 75.35 8.97l3.133 7.729-1.897 4.308c-.11.291-.226.583-.37.875l-.004-.02-1.35 8.889c-.297-2.376-.72-10.684-1.017-13.06-3.692.106-7.128-1.14-9.794-3.696-1.406-1.348-2.56-3.082-4.365-3.819-2.326-.95-4.945.052-7.253 1.045l.094-.098a10.654 10.654 0 0 0-3.11 2.605 33.14 33.14 0 0 1-.424 14.096c-.174.692-.68 2.129-1.325 2.433-1.268.598-1.715-.705-2.55-1.354-.616-.478-1.479-.483-2.416-.413-.655-1.409-1.398-3.81-2.029-5.913a5.31 5.31 0 0 1-2.427.338l.621-1.85c-.31.23-.633.464-1.01.548-.376.083-.824-.028-1.02-.36-.253-.43.01-.965.233-1.412z" fill="#2D1B14"/><path d="M51.496 8.084c.019.02-.338.25-.794.838-.45.586-.931 1.584-1.097 2.907a10.7 10.7 0 0 0-.062 2.169c.053.78.176 1.611.299 2.487.12.877.25 1.803.264 2.774a9.79 9.79 0 0 1-.086 1.48c-.072.49-.16 1.024-.495 1.465a1.28 1.28 0 0 1-1.167.488 1.907 1.907 0 0 1-1.12-.53c-.59-.597-.785-1.394-.971-2.096l.179.009c-.244.66-.497 1.313-.903 1.849-.398.539-.976.917-1.583 1.016-.303.05-.614.023-.885-.09a1.413 1.413 0 0 1-.636-.542 1.46 1.46 0 0 1-.234-.738 1.057 1.057 0 0 1 .225-.678l.096.073a5.476 5.476 0 0 1-1.722 1.497c-.233.128-.42.208-.548.26a.927.927 0 0 1-.2.064 1.084 1.084 0 0 1 .186-.095c.123-.06.304-.15.53-.285a5.646 5.646 0 0 0 1.656-1.512l.096.073c-.263.323-.242.855.035 1.263.138.202.33.386.573.48.242.097.525.12.802.071.557-.096 1.096-.451 1.468-.963.382-.512.627-1.148.867-1.809l.103-.28.077.29c.187.7.387 1.464.926 2.002.267.257.626.436 1.002.474.376.045.759-.106.992-.414.292-.382.386-.887.456-1.37.068-.486.091-.972.086-1.449-.01-.956-.135-1.876-.25-2.752-.119-.876-.236-1.711-.282-2.502-.05-.79-.01-1.532.087-2.2.186-1.34.698-2.352 1.175-2.933.483-.585.855-.791.855-.791zM78.302 14.44a.311.311 0 0 1-.064.062l-.2.17c-.089.076-.2.165-.343.256-.14.095-.3.208-.496.308-.76.43-1.996.893-3.58.914-1.569.025-3.485-.394-5.25-1.52-1.78-1.095-3.394-2.781-4.757-4.747-.69-.981-1.268-1.997-1.892-2.928-.62-.933-1.292-1.787-2.079-2.443-.778-.66-1.66-1.127-2.548-1.306a4.158 4.158 0 0 0-1.298-.056 4.575 4.575 0 0 0-1.163.311 4.915 4.915 0 0 0-2.556 2.5c-.33.807-.315 1.308-.346 1.303a.287.287 0 0 1 0-.09l.022-.262c.025-.23.099-.566.252-.98.171-.406.436-.886.856-1.354.42-.465.987-.93 1.718-1.246a4.672 4.672 0 0 1 1.198-.334c.43-.046.89-.051 1.35.046.92.18 1.833.655 2.633 1.327.809.668 1.496 1.538 2.123 2.475.63.938 1.209 1.951 1.893 2.924 1.352 1.95 2.944 3.618 4.691 4.705 1.734 1.117 3.605 1.54 5.152 1.535 1.56-.003 2.781-.437 3.544-.841.768-.411 1.122-.752 1.14-.73z" fill="#fff"/><path d="M72.796 23.927c-.156.183-1.19-.534-2.612-.47-1.422.043-2.432.837-2.594.666-.08-.077.073-.403.513-.76.432-.357 1.18-.717 2.067-.751.885-.032 1.645.27 2.089.594.452.325.614.639.537.72zM70.83 28.18c.021.607-.476 1.126-1.111 1.16-.633.033-1.164-.432-1.185-1.04-.021-.607.476-1.127 1.11-1.16.634-.034 1.166.431 1.186 1.04zM74.57 8.045c.778.91 1.94 1.712 3.12 1.514.35-.058 1.243-.446 1.243-.446.43.226.418 1.654.155 2.063-.263.409-.837.975-.837.975 1.44.667 2.687.222 4.14-.41-.111 2.546-1.696 4.974-3.981 6.102-.73.36-1.63.585-2.339.184-.623-.353-.914-1.083-1.137-1.764a32.004 32.004 0 0 1-1.505-7.735l1.14-.483z" fill="#2D1B14"/><path d="m71.07 54.678-4.882-1.804-18.679-.552-4.335 1.18.568 10.562 9.803 6.251 9.507-.189 5.979-5.446 1.326-5.399.713-4.603z" fill="#FFC19D"/><path d="M15.668 70.859c1.393-2.867 2.725-5.17 3.91-6.988 2.335-3.583 5.9-6.181 10.063-7.079l15.673-4.248s1.065 10.569 11.843 10.569 10.996-9.788 10.996-9.788l19.733 7.214c.623.241 4.83 1.696 9.723 12.191 4.661 9.996 6.701 15.11 6.701 15.11l-18.614 5.002-1.237 17.195.397 9.594-56.704-.125.317-10.97-.259-18.14-1.19 2.24-17.703-7.101s1.762-5.226 6.351-14.676z" fill="#fff"/><path d="M27.941 81.012c-.083.002-.032 6.078.114 13.57.145 7.494.33 13.566.413 13.564.084-.001.033-6.076-.113-13.57-.145-7.492-.331-13.565-.414-13.564zM86.46 74.877c.008 0 .013.09.016.258v.738c-.002.64-.018 1.568-.046 2.714a305.42 305.42 0 0 1-.372 8.946c-.194 3.492-.419 6.65-.601 8.934l-.233 2.704c-.03.3-.056.543-.076.733-.02.168-.033.256-.04.255-.008 0-.009-.089-.003-.258l.035-.737.164-2.708.538-8.935c.194-3.49.339-6.65.434-8.94l.117-2.71.04-.737c.01-.168.02-.257.027-.257z" fill="#1A2E35"/><path d="m102.694 88.306 7.598 15.253a11.115 11.115 0 0 1-9.949 16.072l-21.79-1.262-.952-9.941 16.58-3.997-6.424-12.143 14.937-3.982z" fill="#FFC19D"/><path d="M94.181 104.431c.011.068.754-.057 1.957-.049 1.198.019 2.863.212 4.595.811 1.737.581 3.177 1.445 4.116 2.185.942.744 1.386 1.355 1.44 1.314.021-.015-.076-.176-.274-.458a7.52 7.52 0 0 0-.995-1.06c-.92-.814-2.383-1.742-4.166-2.337-1.776-.615-3.498-.772-4.72-.721-.613.039-1.106.088-1.44.169-.336.07-.518.12-.513.146z" fill="#FF9C6A"/><path d="M9.614 85.682S5.521 97.12.383 109.849a5.146 5.146 0 0 0-.246.793c-.776 3.439 1.843 9.228 5.368 9.228l29.504-.289v-9.656l-17.011-3.73 6.564-14.517-14.948-5.996z" fill="#FFC19D"/><path d="M4.768 108.837c.041.05.622-.409 1.65-.999a15.755 15.755 0 0 1 4.282-1.671c1.76-.395 3.408-.43 4.587-.337 1.18.09 1.903.254 1.918.192.006-.025-.169-.089-.492-.181-.323-.098-.802-.195-1.4-.275-1.193-.164-2.889-.172-4.696.234-1.804.411-3.33 1.149-4.338 1.811a9.357 9.357 0 0 0-1.144.85c-.252.224-.383.356-.367.376z" fill="#FF9C6A"/><path d="M35.516 119.895h48.961a2.599 2.599 0 0 0 2.597-2.486l1.469-33.7a2.599 2.599 0 0 0-2.596-2.712H34.143a2.6 2.6 0 0 0-2.597 2.705l1.373 33.7a2.6 2.6 0 0 0 2.597 2.493z" fill="#E1E1E1"/><path d="M35.516 119.895s-.04.002-.12 0a2.2 2.2 0 0 1-.356-.033 2.559 2.559 0 0 1-1.255-.599 2.66 2.66 0 0 1-.908-2.033l-.138-3.1-.842-19.758a53794.573 53794.573 0 0 0-.42-10.03c-.008-.298-.035-.586-.024-.9.02-.31.09-.617.213-.904.24-.579.7-1.066 1.27-1.35.283-.144.594-.238.914-.274.326-.026.628-.013.942-.017l1.887-.001 3.864-.003 8.066-.005 35.914-.01h1.193c.393-.01.828.03 1.21.186a2.72 2.72 0 0 1 1.622 1.753c.128.39.127.825.1 1.206l-.051 1.172-.103 2.333-.401 9.155-.761 17.307-.091 2.055-.045 1.017c-.012.331-.026.693-.135 1.027a2.709 2.709 0 0 1-2.259 1.889c-.347.035-.667.016-.996.021l-7.608-.006-13.657-.014-19.775-.038-5.376-.022-1.398-.012c-.315-.004-.476-.012-.476-.012s.16-.009.476-.012l1.398-.012 5.376-.022 19.775-.038 13.657-.014 7.608-.006c.325-.005.662.012.97-.02a2.496 2.496 0 0 0 2.08-1.745c.1-.309.114-.63.126-.973l.043-1.018.089-2.055.748-17.307.397-9.155.102-2.333.05-1.172c.028-.4.027-.764-.09-1.128a2.484 2.484 0 0 0-1.481-1.6c-.357-.142-.725-.179-1.124-.17h-1.193l-35.914-.009-8.066-.005-3.864-.003c-.634 0-1.263 0-1.887-.002-.31.004-.63-.01-.92.015-.297.032-.585.12-.849.251a2.487 2.487 0 0 0-1.18 1.252c-.114.266-.18.55-.199.838-.01.283.014.59.022.883l.139 3.483.26 6.547.767 19.762.115 3.1a2.613 2.613 0 0 0 .87 2c.458.407.924.552 1.227.611.308.06.472.045.472.057z" fill="#1A2E35"/><path d="M64.578 38.675c.01.048-.313.187-.874.184-.553 0-1.35-.184-2.038-.721a3.428 3.428 0 0 1-1.193-1.804c-.139-.544-.082-.89-.033-.892.063-.005.114.324.31.8a3.881 3.881 0 0 0 1.17 1.57c.608.474 1.301.684 1.807.755.509.076.84.046.85.108z" fill="#2D1B14"/></svg>