<svg width="26" height="32" fill="none" xmlns="http://www.w3.org/2000/svg"><path fill-rule="evenodd" clip-rule="evenodd" d="M3 0h14v3H3v26h20V8h3v24H0V0h3z" fill="#000"/><path d="m17 0 4.5 4L26 8h-9V0zM10.347 18.899c.19 0 .358-.036.505-.108a.852.852 0 0 0 .343-.311.911.911 0 0 0 .135-.478h1.455a1.936 1.936 0 0 1-.328 1.09 2.254 2.254 0 0 1-.864.747 2.7 2.7 0 0 1-1.214.268c-.451 0-.845-.075-1.182-.225a2.306 2.306 0 0 1-.832-.623 2.73 2.73 0 0 1-.5-.935 3.862 3.862 0 0 1-.166-1.15v-.155c0-.412.055-.795.166-1.15.111-.357.278-.669.5-.934.222-.269.5-.478.832-.628.333-.15.724-.226 1.171-.226.476 0 .894.091 1.252.274.361.183.644.444.848.784.208.337.314.736.317 1.198H11.33a1.214 1.214 0 0 0-.124-.527.929.929 0 0 0-.865-.52c-.225 0-.41.048-.553.145a.926.926 0 0 0-.333.386 1.926 1.926 0 0 0-.166.554 4.64 4.64 0 0 0-.043.644v.156c0 .225.014.442.043.65.028.207.082.392.16.553a.972.972 0 0 0 .34.381c.142.093.329.14.558.14zm5.312-.027 1.289-4.684h1.616L16.604 20h-.977l.032-1.128zm-.886-4.684 1.294 4.69.027 1.122h-.983l-1.96-5.812h1.622z" fill="#000"/></svg>