<svg width="1110" height="298" fill="none" xmlns="http://www.w3.org/2000/svg"><path d="M956.265 100.616c-1.019-.287-1.343-.321-2.355-.18-.072.01-.603.123-.257.038a7.128 7.128 0 0 0-1.274.452c-.483.218.196-.164-.24.135-.693.476-1.129.807-1.537 1.433-.399.615-.58 1.113-.712 1.912a6.427 6.427 0 0 0-.069.551c.031-.364.008.347.012.421.01.185.029.369.054.552.011.078.12.553.035.232.109.411.257.82.455 1.198-.163-.311.094.134.133.194.133.203.285.388.432.582.226.297-.138-.098.163.179.135.123.266.248.407.364.187.155.383.303.586.436-.286-.187.204.106.217.114.189.099.383.189.581.27.071.03.644.209.306.12.416.11.834.182 1.264.22 1.032.089 1.709 1.257 1.533 2.19-.204 1.076-1.203 1.601-2.237 1.511-3.779-.328-6.867-3.239-7.613-6.826-.773-3.722 1.261-7.478 4.644-9.186 1.861-.94 4.168-1.18 6.176-.613.994.28 1.736 1.12 1.533 2.19-.175.924-1.238 1.794-2.237 1.511z" fill="#17282F"/><path d="m965.899 239.181-15.994 18.513-1.576 17.596c-.659 3.536-3.972 6.071-7.609 5.668-.35-.039-.639-.101-.838-.187-.783-.339-2.402-2.527-2.604-3.343-2.268-9.151-5.677-21.234-3.502-24.347 1.24-1.775 13.715-23.702 13.715-23.702l18.408 9.802z" fill="#DADBD8"/><path d="M947.053 245.731c-.01-.009-.106.077-.28.252-.173.173-.425.434-.742.776-.631.686-1.548 1.68-2.56 3.01-1.004 1.327-2.13 3.006-2.864 5.104a12.278 12.278 0 0 0-.662 3.399c-.063 1.202.026 2.439.126 3.692.272 2.499.09 4.887.331 7.087.227 2.188 1.028 4.149 2.276 5.331 1.25 1.192 2.723 1.511 3.664 1.465.48-.018.841-.117 1.077-.198.233-.09.349-.152.343-.163-.011-.044-.494.209-1.422.209-.905-.001-2.302-.355-3.461-1.508-1.162-1.151-1.908-3.036-2.112-5.175-.216-2.141-.025-4.567-.297-7.08-.101-1.252-.191-2.471-.134-3.642.049-1.17.28-2.282.62-3.305.695-2.048 1.776-3.718 2.743-5.053.974-1.339 1.856-2.358 2.449-3.074.598-.712.928-1.108.905-1.127z" fill="#17282F"/><path d="M943.026 256.035c-.001.119 1.629.165 3.566.611 1.942.434 3.425 1.094 3.477.988.052-.085-1.389-.922-3.385-1.369-1.993-.458-3.665-.328-3.658-.23zM943.677 261.702c.02.116 1.415-.09 3.125.054 1.711.13 3.052.554 3.092.443.044-.089-1.281-.697-3.058-.833-1.776-.148-3.187.241-3.159.336zM942.556 267.282c.04.111 1.382-.33 3.097-.473 1.713-.158 3.111.043 3.131-.072.028-.096-1.385-.481-3.166-.319-1.781.151-3.106.775-3.062.864zM946.069 279.081c-.011-.042-.443.149-1.255.128-.8-.013-1.993-.318-3.103-1.228-1.12-.895-1.996-2.412-2.631-4.191a69.19 69.19 0 0 1-1.781-5.933 73.703 73.703 0 0 1-1.901-11.088c-.141-1.435-.205-2.6-.26-3.406-.042-.806-.078-1.251-.106-1.251-.028 0-.044.448-.049 1.257.006.808.029 1.98.134 3.423.195 2.886.707 6.87 1.794 11.16a62.409 62.409 0 0 0 1.823 5.963c.664 1.8 1.597 3.368 2.799 4.282 1.187.924 2.449 1.199 3.28 1.165.421-.006.739-.091.949-.148.207-.075.312-.12.307-.133z" fill="#17282F"/><path d="M935.437 254.552c.054.024.4-.615.972-1.635a69.402 69.402 0 0 1 2.354-3.915 69.674 69.674 0 0 1 2.628-3.743c.702-.939 1.147-1.516 1.102-1.553-.039-.032-.56.482-1.325 1.383a37.363 37.363 0 0 0-2.742 3.704 37.289 37.289 0 0 0-2.269 3.998c-.511 1.059-.766 1.74-.72 1.761z" fill="#17282F"/><path d="m905.996 207.534-3.199 24.147-12.273 13.063c-2.234 2.874-1.912 6.997.857 9.361.267.228.51.396.711.482.786.339 3.543.032 4.298-.375 8.473-4.553 19.943-10.265 20.83-13.952.505-2.102 8.677-26.008 8.677-26.008l-19.901-6.718z" fill="#DADBD8"/><path d="M913.797 225.645c-.013-.001-.041.125-.081.366l-.16 1.056c-.141.915-.315 2.245-.67 3.859-.358 1.606-.892 3.523-1.974 5.414a12.39 12.39 0 0 1-2.085 2.689c-.849.834-1.833 1.595-2.851 2.371-2.09 1.504-3.8 3.286-5.569 4.579-1.76 1.302-3.695 2.038-5.354 1.973-1.661-.059-2.875-.833-3.488-1.489-.629-.674-.764-1.196-.806-1.174-.012.003.021.129.11.359.099.226.268.555.579.916.602.714 1.842 1.566 3.593 1.666 1.742.103 3.77-.643 5.582-1.96 1.831-1.316 3.519-3.066 5.597-4.561 1.018-.777 2.016-1.55 2.884-2.409a12.621 12.621 0 0 0 2.129-2.784c1.094-1.953 1.604-3.908 1.929-5.535.322-1.635.455-2.974.548-3.897.044-.462.072-.82.085-1.065.015-.243.016-.372.002-.374z" fill="#17282F"/><path d="M908.713 235.549c.08-.06-.955-1.362-2.652-2.498-1.691-1.146-3.302-1.625-3.33-1.53-.046.109 1.46.738 3.103 1.854 1.652 1.103 2.791 2.255 2.879 2.174zM903.977 238.915c.091-.044-.571-1.331-1.886-2.519-1.307-1.197-2.665-1.747-2.703-1.655-.057.103 1.173.788 2.431 1.943 1.268 1.143 2.058 2.295 2.158 2.231zM900.506 243.509c.097-.028-.328-1.413-1.42-2.807-1.084-1.402-2.333-2.167-2.386-2.082-.074.093 1.026.971 2.068 2.321 1.053 1.341 1.627 2.613 1.738 2.568zM889.181 248.953c-.013.005.025.112.108.312.099.192.25.48.53.789.538.626 1.602 1.355 3.106 1.591 1.507.253 3.327-.133 5.141-.87a66.158 66.158 0 0 0 5.756-2.716 67.522 67.522 0 0 0 9.675-6.258 54.762 54.762 0 0 0 2.687-2.222c.609-.552.937-.866.919-.887-.018-.02-.381.256-1.02.771-.648.506-1.575 1.249-2.758 2.119a77.433 77.433 0 0 1-9.693 6.132 73.133 73.133 0 0 1-5.704 2.727c-1.78.744-3.523 1.136-4.961.929-1.441-.19-2.481-.848-3.033-1.419-.565-.576-.713-1.02-.753-.998z" fill="#17282F"/><path d="M914.979 240.05c.048.02.39-.627.847-1.715a37.2 37.2 0 0 0 1.494-4.355c.477-1.735.785-3.335.95-4.499.165-1.164.202-1.892.151-1.898-.058-.007-.194.706-.429 1.852a69.177 69.177 0 0 1-1.058 4.444 68.134 68.134 0 0 1-1.373 4.359c-.386 1.107-.635 1.79-.582 1.812zM1013.88 128.292c3.33.788 5.93 3.144 7.27 6.208 1.49 3.398 1.24 7.449.01 10.888-1.22 3.369-3.95 5.686-7.62 6.048-3.69.365-7.48-.865-11.04-1.651l-13.807-3.054c-2.395-.529-1.709-4.234.705-3.701l10.45 2.311c3.272.722 6.532 1.57 9.842 2.133 2.48.423 5.39.574 7.02-1.679 1.57-2.169 1.89-5.392 1.47-7.938-.43-2.631-2.27-5.215-5.01-5.864-2.38-.564-1.7-4.27.71-3.701z" fill="#17282F"/><path d="M1027.11 54.999c3.29.364 5.53 3.31 5.92 6.375.44 3.381-1.18 6.53-2.81 9.394-.5.887-1.58 1.35-2.55.897-.89-.413-1.42-1.612-.91-2.505 1.18-2.082 2.58-4.464 2.51-6.773-.02-.602-.09-1.044-.26-1.522-.04-.105-.3-.673-.19-.464-.12-.223-.28-.423-.42-.63-.05-.068-.19-.225-.05-.078a5.647 5.647 0 0 0-.65-.56c-.13-.095-.07-.064-.02-.033.05.03.08.06-.05-.013-.11-.062-.22-.12-.33-.171-.03-.014-.36-.148-.21-.095.15.052-.18-.043-.22-.05a4.534 4.534 0 0 0-.47-.071c-1.03-.114-1.71-1.24-1.53-2.19.2-1.058 1.2-1.625 2.24-1.511z" fill="#33535F"/><path d="m969.668 126.817 46.952 11.483c5.89 1.441 11.87-2.082 13.36-7.868l12.58-48.907c1.48-5.787-2.08-11.645-7.97-13.085l-46.956-11.483c-5.89-1.44-11.871 2.082-13.359 7.867l-12.578 48.908c-1.488 5.786 2.08 11.644 7.971 13.085z" fill="#F2575D"/><path d="M1020.24 138.581c4.55-.392 8.56-3.558 9.74-8.149l12.58-48.907c.3-1.198.4-2.399.3-3.564-.39-4.46-3.6-8.38-8.27-9.521l-9.61-2.35c5.86 1.458 9.41 7.302 7.93 13.074l-12.58 48.908c-1.18 4.591-5.19 7.757-9.74 8.149-.35.029-.7.043-1.05.04-.02.095-.05.192-.07.29l7.15 1.749c1.22.297 2.44.383 3.62.281z" fill="#CC4341"/><path d="m960.017 124.457 46.953 11.483c5.89 1.44 11.87-2.082 13.36-7.868l12.58-48.908c1.48-5.786-2.09-11.644-7.98-13.084l-46.947-11.483c-5.89-1.441-11.872 2.08-13.36 7.867l-12.578 48.908c-1.488 5.785 2.082 11.644 7.972 13.085z" fill="#F2575D"/><path d="M1026.74 75.096s7.42 4.981 9.65 10.749c2.22 5.768 9.26 23.696 9.26 23.696s3.74 6.046 5.16 9.395c1.01 2.374 8.41 15.408 7.38 19.844-.09.415 3.72 7.313 3.72 7.313l-14.62 6.23-3.78-7.446-1.34-.631a6.137 6.137 0 0 1-2.92-2.877l-10.07-20.808-7.99-16.925 5.55-28.54z" fill="#DADBD8"/><path d="M1029.7 77.434c-.02-.017-.31.297-.81.881-.25.29-.55.651-.87 1.096-.32.441-.71.93-1.07 1.514-.77 1.138-1.58 2.566-2.36 4.203a36.847 36.847 0 0 0-2.02 5.533 36.431 36.431 0 0 0-1.01 5.79c-.14 1.8-.16 3.43-.05 4.791.02.682.11 1.294.17 1.832.05.539.13.998.21 1.372.14.748.24 1.159.26 1.153.03-.005-.01-.424-.1-1.177-.06-.375-.12-.834-.15-1.372-.04-.537-.11-1.145-.11-1.823-.07-1.351-.03-2.964.13-4.746.19-1.778.51-3.722 1.04-5.722a37.937 37.937 0 0 1 1.97-5.483c.75-1.629 1.52-3.056 2.26-4.203.34-.59.71-1.085 1.01-1.535.3-.453.58-.827.81-1.129.47-.61.71-.957.69-.975z" fill="#17282F"/><path d="M1034.81 82.708c-.02-.02-.31.223-.81.678-.51.45-1.21 1.145-2.03 2.04-.83.891-1.75 2.013-2.7 3.307a42.54 42.54 0 0 0-2.77 4.417 41.885 41.885 0 0 0-2.15 4.739c-.55 1.5-.98 2.876-1.26 4.049-.29 1.17-.48 2.127-.57 2.795-.09.666-.13 1.035-.11 1.039.03.004.12-.357.27-1.012.13-.657.36-1.6.68-2.753.32-1.156.77-2.513 1.33-3.992.59-1.473 1.3-3.066 2.16-4.683.87-1.61 1.81-3.087 2.72-4.392.93-1.295 1.81-2.424 2.61-3.332a43.41 43.41 0 0 1 1.93-2.114c.47-.486.72-.766.7-.786z" fill="#17282F"/><path d="M1047.38 112.428c-4.69 4.907-11.29 8.461-18.13 8.276l-1.35-2.761c6.89.354 13.65-2.912 17.87-8.273l1.61 2.758z" fill="#F2575D"/><path d="M1027.18 116.336c.01.027.29.037.8.03.51.006 1.26-.059 2.17-.183 1.81-.263 4.3-.947 6.78-2.25 2.49-1.292 4.5-2.848 5.86-4.045a27.83 27.83 0 0 0 1.58-1.468c.35-.362.54-.571.52-.591-.05-.045-.87.711-2.28 1.849-1.4 1.135-3.42 2.637-5.87 3.909-2.44 1.282-4.86 1.993-6.64 2.323-1.79.324-2.92.35-2.92.426zM1030.8 123.009c0 .027.28.036.79.031.51.005 1.26-.059 2.17-.184 1.81-.263 4.3-.947 6.78-2.249 2.49-1.293 4.5-2.849 5.86-4.046.69-.597 1.22-1.104 1.58-1.467.35-.363.54-.572.52-.591-.04-.045-.87.71-2.28 1.848-1.4 1.135-3.41 2.638-5.86 3.909-2.45 1.283-4.87 1.993-6.65 2.323-1.78.325-2.92.35-2.91.426z" fill="#17282F"/><path d="M1034.92 92.408c.46-.542.94-1.098 1.58-1.418.64-.32 1.49-.34 2.01.142.3.272.45.661.59 1.036l2.79 7.415c.15.413.31.839.29 1.278-.03.634-.45 1.212-.99 1.559-1.15.736-2.75.464-3.84-.346-1.1-.81-1.77-2.052-2.27-3.303-.83-2.08-1.47-4.77-.16-6.363z" fill="#F2575D"/><path d="M1045.52 146.83c.01.022.25-.057.66-.221.48-.202 1.06-.445 1.74-.728 1.47-.634 3.51-1.538 5.82-2.583l.18-.081-.08-.176c-.22-.464-.45-.949-.68-1.443-.09-.191-.18-.379-.26-.555l-.08-.17-.18.071c-2.56 1.052-4.86 2.01-6.5 2.719-.83.354-1.49.646-1.94.855l-.52.249-.1.088-.07.022.03-.015c.08.026.11-.014.17-.024l.55-.184c.47-.167 1.15-.42 1.98-.742 1.67-.644 3.98-1.561 6.56-2.606l-.26-.098c.08.176.17.364.26.554.23.494.46.979.68 1.442l.1-.257a318.02 318.02 0 0 0-5.77 2.702c-.66.324-1.22.602-1.69.834-.4.203-.61.324-.6.347zM1059.93 142.428c-.05-.098-3.27 1.276-7.21 3.068-3.93 1.793-7.08 3.325-7.04 3.423.05.098 3.27-1.275 7.21-3.068 3.93-1.792 7.08-3.325 7.04-3.423zM1061.92 147.732l-12.96 5.905c-.51.232-1.11.015-1.34-.482a.989.989 0 0 1 .49-1.321l12.96-5.906a1.027 1.027 0 0 1 1.35.483.994.994 0 0 1-.5 1.321z" fill="#17282F"/><path d="M1048.64 153.157s-2.09 5.043-1.94 8.224c.15 3.183.37 5.542 1.89 6.429 1.52.887 2.91.548 2.91-1.045.01-1.593-.66-2.521.03-4.465.69-1.944 1.28-2.26 1.28-2.26s2.9 4.938 2.41 6.527c-.5 1.588-3.67 5.432-1.31 6.28 2.37.848 4.5-1.614 4.5-1.614s2.36 1.881 4.54-.873c0 0 3.64-.84 4.11-4.828 0 0 2.96-.689 2.53-3.293-.43-2.602-2.16-7.496-3.6-9.738-1.43-2.243-2.34-3.085-2.39-3.225-.05-.141-1.66-2.278-1.66-2.278l-13.3 6.159z" fill="#17282F"/><path d="M1060.28 162.772c-.13.016.36 1.968-.19 4.31-.52 2.352-1.82 3.916-1.71 3.984.04.029.41-.317.86-.993.46-.673.96-1.696 1.24-2.906a9.13 9.13 0 0 0 .15-3.141c-.12-.799-.31-1.266-.35-1.254zM1063.8 159.967c-.13.031.84 2.282.59 5.193-.22 2.914-1.54 4.993-1.42 5.044.04.023.42-.455.85-1.338.42-.88.84-2.187.97-3.677.11-1.49-.1-2.844-.37-3.776-.28-.935-.58-1.464-.62-1.446zM1065.72 158.165c-.11.041.47 1.668.81 3.751.36 2.081.35 3.805.47 3.809.1.01.29-1.744-.07-3.874-.36-2.131-1.12-3.728-1.21-3.686zM1066.81 154.624c-.05-.045-.79.798-2.3 1.89-1.49 1.109-3.81 2.353-6.58 3.534l.26.094c-.41-.88-.89-1.786-1.44-2.684a27.728 27.728 0 0 0-1.95-2.772l-.08.288a49.886 49.886 0 0 0 6.38-3.562c.76-.501 1.35-.922 1.74-1.221.4-.299.6-.474.59-.492-.02-.019-.25.121-.67.386-.48.3-1.07.675-1.79 1.124a61.371 61.371 0 0 1-6.41 3.423l-.22.101.15.188c.66.827 1.31 1.75 1.91 2.74.55.885 1.02 1.777 1.43 2.642l.09.169.17-.075c2.77-1.205 5.1-2.51 6.57-3.689.75-.579 1.29-1.097 1.64-1.472.35-.377.53-.599.51-.612zM1051.29 165.891c.03-.035-.12-.248-.48-.438s-.95-.328-1.58-.155c-.63.175-1.06.6-1.27.945-.21.35-.22.607-.17.619.05.02.16-.19.4-.458.24-.266.63-.586 1.15-.729a2.475 2.475 0 0 1 1.36.034c.35.104.55.227.59.182zM1056.57 172.625c.04.01.17-.256.18-.721.03-.459-.09-1.122-.48-1.732a3.13 3.13 0 0 0-1.38-1.176c-.44-.183-.73-.189-.75-.142-.04.104 1.09.425 1.79 1.527.71 1.1.52 2.241.64 2.244zM1048.33 153.805c.02.05.82-.303 2.11-.885 1.4-.638 3.11-1.421 5.01-2.288 1.89-.882 3.61-1.679 5-2.329 1.27-.608 2.05-1.005 2.03-1.055-.03-.049-.84.259-2.15.803-1.3.545-3.09 1.327-5.05 2.226-1.95.899-3.71 1.748-4.97 2.395-1.25.646-2.01 1.087-1.98 1.133z" fill="#33535F"/><path d="M1021.58 106.386c-.14.273-11.32 26.826-11.32 26.826s-4.01 17.818-7.41 23.341l-55.31-26.534 7.911-19.004 11.955-51.819 7.879.795s38.495 9.935 43.585 11.338c5.1 1.403 7.87 3.767 7.87 3.767s.07 21.377-5.16 31.29z" fill="#DADBD8"/><path d="M998.527 125.573c2.103-.181 3.973-1.617 4.573-3.732l5.95-21.051a4.993 4.993 0 0 0-.39-3.693c.07.35.1.708.09 1.064 0 .568-.12 1.148-.28 1.667l-.45 1.575c-.29 1.045-.59 2.082-.88 3.11-1.16 4.112-2.29 8.078-3.36 11.856-.27.945-.54 1.877-.8 2.798l-.39 1.371c-.15.463-.32.921-.58 1.327-.9 1.459-2.493 2.391-4.115 2.531a4.958 4.958 0 0 1-.656.013c-.934-.013-1.766-.345-2.588-.544l-2.428-.66-4.562-1.241-13.764-3.77-3.737-1.044-.97-.281c-.217-.065-.326-.108-.326-.108s-.476-.064-1.263-.485a4.992 4.992 0 0 1-1.544-1.312 5.126 5.126 0 0 0 3.484 3.134l27.16 7.312a5.255 5.255 0 0 0 1.826.163z" fill="#000"/><path d="M1022.92 72.854c-9.03 3.57-13.04 13.16-16.47 21.366-.94 2.244-4.4.634-3.46-1.607 3.86-9.228 8.53-19.303 18.6-23.286 2.3-.908 3.61 2.622 1.33 3.527z" fill="#33535F"/><path d="m968.864 116.761 27.16 7.311c2.764.744 5.626-.854 6.396-3.569l5.95-21.051c.77-2.714-.85-5.518-3.61-6.263l-27.166-7.311c-2.764-.744-5.627.854-6.394 3.569l-5.951 21.05c-.767 2.715.851 5.519 3.615 6.264z" fill="#FAFAF9"/><path d="M968.864 116.761c.011-.03-.46-.116-1.222-.554a5.014 5.014 0 0 1-2.286-2.913 4.866 4.866 0 0 1-.037-2.677l.906-3.16 2.209-7.706 2.666-9.343c.243-.845.438-1.696.978-2.404a5.036 5.036 0 0 1 2.049-1.684 5.101 5.101 0 0 1 2.712-.404c.462.051.922.193 1.402.321.475.13.952.258 1.433.388l25.026 6.753c1.06.3 2.03.92 2.67 1.793.65.86 1.01 1.926.98 2.986 0 .536-.1 1.04-.26 1.568l-.45 1.575c-.29 1.047-.59 2.084-.88 3.112-1.15 4.114-2.27 8.082-3.34 11.863-.26.944-.52 1.878-.78 2.799-.28.923-.45 1.855-.93 2.614-.94 1.549-2.739 2.474-4.461 2.396-.856-.003-1.678-.322-2.512-.522l-2.431-.649-4.57-1.216-13.798-3.65-3.757-.973-.979-.244c-.222-.052-.338-.069-.338-.069s.109.043.326.108l.97.281 3.737 1.044 13.764 3.77 4.562 1.241 2.428.66c.822.199 1.654.531 2.588.544 1.834.089 3.751-.888 4.771-2.544.26-.406.43-.864.58-1.327l.39-1.371c.26-.921.53-1.853.8-2.798 1.07-3.778 2.2-7.744 3.36-11.856.29-1.028.59-2.065.88-3.11l.45-1.575c.16-.52.28-1.1.28-1.667.03-1.145-.36-2.296-1.06-3.224-.69-.942-1.74-1.616-2.88-1.938-8.884-2.383-17.342-4.655-25.038-6.722l-1.433-.384c-.47-.124-.948-.271-1.454-.327a5.462 5.462 0 0 0-2.904.441 5.385 5.385 0 0 0-2.184 1.808c-.573.757-.784 1.685-1.016 2.507l-2.62 9.356-2.152 7.722-.874 3.171c-.257 1-.185 1.967.071 2.767a5.054 5.054 0 0 0 2.395 2.938c.787.421 1.263.485 1.263.485z" fill="#17282F"/><path d="m987.78 108.68 11.378 3.064c.829.223 1.692-.257 1.922-1.072a1.524 1.524 0 0 0-1.088-1.879l-11.379-3.064a1.568 1.568 0 0 0-1.918 1.072 1.52 1.52 0 0 0 1.085 1.879zM997.393 114.622a1.266 1.266 0 0 0 .904 1.566 1.306 1.306 0 0 0 1.599-.892 1.265 1.265 0 0 0-.904-1.566 1.306 1.306 0 0 0-1.599.892zM993.112 113.47c-.192.678.213 1.38.904 1.566a1.307 1.307 0 0 0 1.599-.892 1.268 1.268 0 0 0-.904-1.567 1.307 1.307 0 0 0-1.599.893zM988.975 112.356a1.268 1.268 0 0 0 .904 1.567 1.307 1.307 0 0 0 1.599-.893 1.267 1.267 0 0 0-.904-1.566 1.306 1.306 0 0 0-1.599.892zM984.838 111.243c-.191.679.213 1.38.905 1.566a1.306 1.306 0 0 0 1.598-.892 1.267 1.267 0 0 0-.903-1.567 1.307 1.307 0 0 0-1.6.893zM990.619 98.916l11.381 3.062c.83.224 1.69-.255 1.92-1.07a1.524 1.524 0 0 0-1.09-1.88l-11.376-3.063c-.83-.223-1.689.256-1.919 1.071a1.52 1.52 0 0 0 1.084 1.88z" fill="#DADBD8"/><path d="M1000.23 104.857c-.19.679.22 1.381.91 1.567.69.185 1.4-.214 1.6-.893.19-.679-.22-1.38-.91-1.566a1.31 1.31 0 0 0-1.6.892z" fill="#33535F"/><path d="M995.952 103.705c-.192.679.213 1.38.905 1.566a1.305 1.305 0 0 0 1.598-.892 1.267 1.267 0 0 0-.903-1.567 1.307 1.307 0 0 0-1.6.893z" fill="#F2575D"/><path d="M991.815 102.591a1.27 1.27 0 0 0 .905 1.567 1.308 1.308 0 0 0 1.599-.893 1.269 1.269 0 0 0-.904-1.567 1.308 1.308 0 0 0-1.6.893z" fill="#33535F"/><path d="M987.679 101.477c-.193.68.213 1.381.904 1.567a1.306 1.306 0 0 0 1.599-.893 1.267 1.267 0 0 0-.904-1.566 1.307 1.307 0 0 0-1.599.892zM1009.59 135.694s-17.11-.864-33.982-7.263c-16.872-6.4-22.366-12.11-22.366-12.11l-2.48 5.958s17.231 15.173 57.518 19.493c0 0 1.88-4.43 1.31-6.078z" fill="#F2575D"/><path d="M986.281 88.216c-.014-.003-.074.165-.177.487l-.431 1.418-1.514 5.232-4.847 17.301-.424 1.534-.052.19.193.05c6.515 1.683 12.346 3.19 16.603 4.288l4.988 1.246 1.36.319c.31.068.47.099.48.086 0-.013-.16-.067-.46-.159-.34-.1-.79-.229-1.34-.388l-4.957-1.363-16.571-4.407.14.239.425-1.534 4.735-17.33 1.391-5.264.359-1.437c.078-.33.112-.504.099-.508z" fill="#17282F"/><path d="M1001.89 121.368c.16-.322.28-.667.39-1.024a6.886 6.886 0 0 1-.3-.063l-1.36-.319-4.988-1.246c-4.222-1.089-9.992-2.581-16.443-4.247l.349.739 22.352 6.16z" fill="#A4A6A5"/><path d="m1002.15 121.442.31-1.075-.01.002a.925.925 0 0 1-.17-.025c-.11.357-.23.702-.39 1.024l.26.074z" fill="#0F191D"/><path d="m1002.45 120.369.01-.002-23.38-6.129.109.231c6.451 1.666 12.221 3.158 16.443 4.247l4.988 1.246 1.36.319c.12.027.22.049.3.063.09.018.15.027.17.025z" fill="#0F191D"/><path d="m972.915 99.23 6.458 1.738a1.28 1.28 0 0 0 1.567-.875l1.793-6.343a1.243 1.243 0 0 0-.886-1.536l-6.457-1.738a1.282 1.282 0 0 0-1.568.876l-1.793 6.342a1.243 1.243 0 0 0 .886 1.536zM971.034 103.185l7.325 1.791a1.194 1.194 0 0 0 1.443-.849 1.16 1.16 0 0 0-.861-1.414l-7.326-1.792a1.194 1.194 0 0 0-1.443.85 1.161 1.161 0 0 0 .862 1.414zM966.578 106.713c-.028.105 2.993.986 6.748 1.968 3.756.982 6.823 1.694 6.852 1.589.029-.104-2.992-.986-6.748-1.968-3.755-.982-6.823-1.693-6.852-1.589z" fill="#17282F"/><path d="M973.878 113.56c.174.66.861 1.055 1.535.882a1.238 1.238 0 0 0 .904-1.508 1.257 1.257 0 0 0-1.534-.883 1.238 1.238 0 0 0-.905 1.509z" fill="#F2575D"/><path d="M969.336 112.515c.174.66.861 1.055 1.534.882a1.236 1.236 0 0 0 .904-1.508 1.255 1.255 0 0 0-1.533-.883 1.238 1.238 0 0 0-.905 1.509z" fill="#33535F"/><path d="m1002.54 134.857-1.82 6.614-4.169-.739 1.827-7.375 4.162 1.5zM962.509 121.993l-3.722 5.803-3.758-1.908 3.952-6.53 3.528 2.635z" fill="#DADBD8"/><path d="M954.665 113.539c-.008.012.159.133.483.354l1.431.952c.62.414 1.387.911 2.298 1.454.908.547 1.93 1.193 3.1 1.838a95.535 95.535 0 0 0 3.834 2.1c1.382.75 2.899 1.475 4.488 2.253a138.001 138.001 0 0 0 10.613 4.474 139.1 139.1 0 0 0 10.992 3.498c1.719.442 3.347.878 4.892 1.208 1.536.365 2.979.648 4.294.9 1.32.272 2.52.447 3.57.623 1.05.181 1.96.303 2.71.394l1.72.209c.39.043.6.06.6.047 0-.014-.2-.057-.59-.125l-1.71-.283a68.98 68.98 0 0 1-2.69-.458c-1.04-.197-2.24-.389-3.55-.679a108.786 108.786 0 0 1-4.277-.944c-1.537-.343-3.159-.789-4.869-1.24a148.402 148.402 0 0 1-10.951-3.517 147.676 147.676 0 0 1-10.594-4.432c-1.589-.767-3.107-1.479-4.492-2.215a106.525 106.525 0 0 1-3.849-2.054c-1.177-.628-2.206-1.256-3.124-1.784a69.98 69.98 0 0 1-2.332-1.395l-1.469-.889c-.338-.2-.52-.3-.528-.289z" fill="#17282F"/><path d="M1005.24 132.702c.1.045 3.67-7.226 7.97-16.24 4.3-9.016 7.71-16.361 7.61-16.406-.1-.045-3.67 7.225-7.97 16.241-4.31 9.014-7.71 16.36-7.61 16.405zM964 82.635c-.027-.002-.094.472-.191 1.33l-.418 3.632c-.362 3.065-.936 7.29-1.759 11.927a213.397 213.397 0 0 1-2.465 11.811l-.863 3.557c-.205.84-.305 1.308-.279 1.315.027.007.178-.448.43-1.276.254-.828.592-2.033.986-3.531a153.389 153.389 0 0 0 4.231-23.775c.147-1.538.245-2.785.292-3.647.049-.863.064-1.34.036-1.343zM984.988 138.182l5.557 1.157 1.368-6.235-5.557-1.157-1.368 6.235z" fill="#17282F"/><path d="M978.838 50.804c3.891 14.772 18.749 21.682 33.812 17.814 15.07-3.868 24.63-17.05 20.74-31.823-3.89-14.77-19.25-23.61-34.319-19.741-15.065 3.868-24.123 18.979-20.233 33.75z" fill="#DADBD8"/><path d="M978.838 50.804s-.017-.15-.071-.437l-.245-1.272-.186-.935c-.06-.345-.077-.73-.123-1.143-.073-.828-.211-1.78-.164-2.861.007-.54-.004-1.11.017-1.708l.196-1.873c.04-.658.203-1.326.345-2.024.142-.699.274-1.428.532-2.153a27.226 27.226 0 0 1 4.743-9.239c2.389-3.053 5.695-5.913 9.822-7.957 2.095-.938 4.328-1.813 6.746-2.255 2.4-.553 4.95-.664 7.52-.548l1.95.183c.65.067 1.29.233 1.94.346l.98.188.96.279c.64.2 1.3.352 1.93.594 2.55.907 4.98 2.239 7.25 3.87.55.43 1.1.863 1.65 1.298.51.483 1.02.97 1.54 1.457.53.466.95 1.046 1.43 1.574l.7.81c.22.283.41.583.62.874.4.598.87 1.15 1.21 1.789.35.628.71 1.259 1.06 1.89.59 1.326 1.23 2.645 1.62 4.063 1.85 5.584 1.55 11.624-.53 16.759-2.16 5.123-5.96 9.28-10.32 12.02-2.15 1.449-4.5 2.422-6.79 3.284l-1.75.53-.86.259-.88.188c-.58.125-1.16.249-1.74.371-.57.098-1.15.154-1.72.232-2.29.322-4.53.267-6.66.134l-1.578-.217c-.518-.077-1.037-.12-1.532-.257-.992-.249-1.989-.409-2.904-.76-3.732-1.186-6.804-3.061-9.112-5.1-2.307-2.045-3.946-4.184-4.976-6.083-.258-.475-.562-.893-.74-1.34l-.551-1.225c-.165-.381-.34-.726-.462-1.055l-.299-.906-.414-1.228c-.095-.277-.154-.416-.154-.416s.033.146.115.427l.376 1.242.282.915c.117.333.286.68.447 1.066l.536 1.24c.174.45.474.875.729 1.355 1.015 1.921 2.647 4.091 4.961 6.171 2.315 2.073 5.409 3.985 9.174 5.2.923.359 1.928.526 2.931.781.499.14 1.024.186 1.547.267l1.594.224c2.15.142 4.41.205 6.72-.113.58-.077 1.17-.132 1.75-.229.58-.122 1.17-.246 1.75-.37l.89-.187.88-.258c.58-.177 1.17-.354 1.77-.532 2.31-.866 4.69-1.846 6.87-3.306 4.42-2.766 8.28-6.976 10.48-12.181 2.12-5.215 2.43-11.36.55-17.02-.4-1.437-1.04-2.775-1.64-4.118-.36-.642-.72-1.28-1.08-1.918-.34-.648-.82-1.21-1.22-1.814-.21-.296-.41-.599-.64-.886l-.71-.822c-.48-.535-.91-1.122-1.45-1.595-.52-.494-1.04-.987-1.56-1.477-.56-.44-1.12-.879-1.68-1.315-2.3-1.652-4.77-2.998-7.35-3.914-.64-.244-1.31-.398-1.95-.6l-.98-.28-.99-.19c-.66-.112-1.31-.28-1.97-.346l-1.97-.182c-2.61-.113-5.2.005-7.62.57-2.447.455-4.706 1.345-6.823 2.302-4.17 2.08-7.501 4.985-9.899 8.08a27.298 27.298 0 0 0-4.734 9.348c-.254.733-.382 1.468-.52 2.174-.138.704-.297 1.377-.33 2.04a756.14 756.14 0 0 0-.181 1.887c-.016.602.001 1.175.001 1.718-.036 1.087.115 2.043.201 2.872.052.414.076.8.143 1.145l.205.936.285 1.265c.066.285.11.428.11.428z" fill="#17282F"/><path d="M1001.32 62.076c4.98-.429 9.59-2.093 13.17-3.795a20.082 20.082 0 0 0 9.74-10.063c2.2-30.937-23.56-30.328-28.286-29.958-.765.296-1.511.615-2.24.942-4.127 2.044-7.433 4.904-9.822 7.957a27.226 27.226 0 0 0-4.743 9.239c-.258.725-.39 1.454-.532 2.153-.142.698-.305 1.366-.345 2.024l-.188 1.794c-.007.148-.013.294-.017.44-.009.468-.002.916-.008 1.347l-.005.137c.01.653.041 1.278.085 1.868.029.299.06.584.084.856.02.182.035.36.05.53.03.247.061.487.093.716l.166.832.245 1.272c.052.274.07.424.071.437.006.013.063.152.154.416l.365 1.085.269.466c6.655 7.996 14.551 9.921 21.694 9.305z" fill="#8F9192"/><path d="M979.183 52.001a26.742 26.742 0 0 1-.213-.715l-.017-.055a8.01 8.01 0 0 1-.115-.427s-.012-.038-.032-.115c.181.782.323 1.219.323 1.219l.054.093z" fill="#A7A9A8"/><path d="m979.191 52.014-.221-.728c.068.24.139.479.213.715l.008.013z" fill="#8F9192"/><path d="m979.357 52.305-.365-1.085a7.004 7.004 0 0 0-.154-.416 6.104 6.104 0 0 0-.071-.437l-.245-1.272-.166-.832c.142.992.308 1.814.45 2.426.02.077.032.115.032.115s.033.146.115.427l.017.055.221.728.166.291zm-1.094-4.757c-.015-.171-.03-.349-.05-.531-.024-.272-.055-.557-.084-.856.036.486.082.95.134 1.387zm-.219-3.255.005-.137c.006-.43-.001-.88.008-1.347-.017.51-.02 1.004-.013 1.484zm.03-1.924.188-1.794c.04-.658.203-1.326.345-2.024.142-.699.274-1.428.532-2.153a27.226 27.226 0 0 1 4.743-9.239c2.389-3.053 5.695-5.913 9.822-7.957a46.482 46.482 0 0 1 2.24-.942l-.179.015c-.363.031-.561.057-.561.057-13.507 6.337-16.779 16.54-17.13 24.037z" fill="#0F191D"/><path d="M992.641 61.401s-7.008-1.618-8.36-4.447c-.763-1.595-1.047-3.637-.312-6.12 1.068-3.602 3.879-10.845 6.501-17.371 2.817-7.014 10.65-10.744 17.99-8.575l.73.216c7.72 2.775 9.61 10.774 6.55 18.287l-6.96 17.07s-5.14 1.754-8.62 1.691c-3.473-.062-7.519-.75-7.519-.75z" fill="#FFC19D"/><path d="M990.218 41.184c-.194.554.124 1.17.709 1.378.585.207 1.216-.074 1.409-.628.194-.554-.123-1.17-.708-1.378-.585-.207-1.216.074-1.41.628zM991.06 37.218c.092.178 1.094-.175 2.255.172 1.165.329 1.836 1.168 2.005 1.065.081-.043.022-.333-.267-.709-.284-.372-.827-.813-1.552-1.024-.725-.21-1.415-.128-1.848.037-.44.164-.639.377-.593.46zM1000.57 44.667c-.19.554.12 1.17.71 1.378.58.207 1.21-.073 1.41-.628.19-.554-.13-1.171-.71-1.378-.59-.208-1.22.074-1.41.628zM1002.37 40.848c.09.178 1.09-.174 2.25.171 1.17.33 1.84 1.17 2.01 1.067.08-.044.02-.333-.27-.709-.28-.373-.83-.814-1.55-1.025-.73-.21-1.42-.128-1.85.037-.44.163-.64.378-.59.459zM995.482 48.388c.025-.063-.659-.4-1.784-.892-.287-.118-.55-.259-.538-.473-.005-.23.217-.508.466-.805l1.565-1.96c2.198-2.8 3.885-5.138 3.77-5.224-.116-.085-1.991 2.115-4.189 4.915-.534.693-1.045 1.352-1.532 1.985-.215.298-.524.617-.508 1.098.012.242.18.464.355.57.173.114.339.166.483.218 1.158.41 1.887.631 1.912.568z" fill="#2D1B14"/><path d="M1013.42 48.708c.14-.016 5.66.026 3.92 5.055-1.74 5.03-6.86 2.102-6.82 1.955.04-.147 2.9-7.01 2.9-7.01z" fill="#FFC19D"/><path d="M1013.08 54.523c.03-.01.07.09.2.208.12.115.36.244.66.234.61-.017 1.36-.71 1.69-1.609.18-.453.23-.921.19-1.336-.03-.42-.18-.757-.44-.894a.487.487 0 0 0-.61.066c-.12.118-.12.23-.15.229-.02.008-.08-.12.03-.315a.634.634 0 0 1 .31-.248.728.728 0 0 1 .54.035c.39.156.62.63.66 1.087.07.464.02.994-.17 1.504-.39 1.002-1.24 1.776-2.05 1.742-.4-.026-.66-.232-.77-.402-.12-.177-.11-.298-.09-.301z" fill="#F57F62"/><path d="M1007.1 74.54c2.25-.193 4.46-.753 6.43-1.826l-9.14-2.906c-.97-.007-1.93-.054-2.86-.116l-1.594-.224c-.523-.08-1.048-.127-1.547-.267-1.003-.254-2.008-.422-2.931-.78a25.968 25.968 0 0 1-7.51-3.844l-7.725-2.457c.278 1.36.768 2.686 1.514 3.864 1.362 2.15 3.522 3.725 5.858 4.802 2.334 1.077 4.858 1.698 7.369 2.288 3.082.724 6.196 1.415 9.366 1.53.92.034 1.85.016 2.77-.064z" fill="#8F9192"/><path d="m1003.35 69.477-14.67-4.668a25.94 25.94 0 0 0 6.866 3.348c.915.351 1.912.511 2.904.76.495.137 1.014.18 1.532.257l1.578.217c.59.036 1.19.068 1.79.086z" fill="#8F9192"/><path d="m1004.39 69.808-1.04-.331c-.6-.018-1.2-.05-1.79-.086l-1.578-.217c-.518-.077-1.037-.12-1.532-.257-.992-.249-1.989-.409-2.904-.76a25.94 25.94 0 0 1-6.866-3.347l-.732-.233a25.968 25.968 0 0 0 7.51 3.843c.923.359 1.928.526 2.931.781.499.14 1.024.186 1.547.267l1.594.224c.93.062 1.89.109 2.86.116z" fill="#0F191D"/><path d="m1017.15 69.241.37-1.109-.9-.833s-5.78 2.406-18.138-.16c-12.983-2.695-15.75-8.241-15.75-8.241l-1.409-.284-1.034 3.017s3.291 8.234 18.646 10.79c7.475 1.243 11.845.964 14.355.35a5.403 5.403 0 0 0 3.86-3.53z" fill="#DADBD8"/><path d="M1017.15 69.241c-.02-.007-.11.274-.37.76a5.399 5.399 0 0 1-3.14 2.575c-.61.18-1.31.302-2.06.4-1.5.188-3.23.23-5.14.14-1.9-.088-3.99-.318-6.21-.655-2.22-.345-4.571-.83-6.973-1.586-2.398-.753-4.849-1.807-7.11-3.324a20.906 20.906 0 0 1-3.201-2.61c-.972-.99-1.876-2.128-2.47-3.382l.003.133.213-.623.819-2.393-.228.13 1.408.283-.138-.105c.574.97 1.329 1.724 2.128 2.421.811.676 1.651 1.302 2.542 1.817 1.761 1.065 3.607 1.853 5.42 2.495 3.647 1.254 7.169 1.923 10.327 2.338 6.33.815 11.27.227 13.68-.7l-.07-.01c.41.368.67.61.9.82l-.01-.047c-.11.361-.19.637-.25.845-.06.185-.08.276-.07.278.01.002.04-.084.11-.264.07-.206.17-.477.3-.831l.01-.026-.02-.02c-.23-.215-.49-.466-.88-.846l-.03-.026-.04.014c-2.39.842-7.3 1.367-13.59.51-3.136-.435-6.637-1.122-10.241-2.376-1.792-.643-3.614-1.427-5.342-2.478-.875-.508-1.695-1.123-2.485-1.784-.772-.668-1.521-1.44-2.031-2.303l-.052-.087-.087-.017-1.408-.284-.174-.035-.056.165-.82 2.392-.214.624-.025.075.029.059c1.322 2.683 3.547 4.62 5.824 6.165 2.303 1.538 4.789 2.597 7.215 3.348 2.428.755 4.807 1.232 7.037 1.564 2.23.325 4.33.54 6.25.61 1.92.075 3.67.012 5.18-.199.76-.11 1.46-.241 2.09-.439a5.49 5.49 0 0 0 1.59-.835 5.251 5.251 0 0 0 1.56-1.88c.24-.505.3-.796.3-.796z" fill="#17282F"/><path d="M995.204 18.332s-.97.405-2.695 1.34l-1.422.813-1.641 1.08c-.575.41-1.177.874-1.819 1.366-.6.542-1.291 1.06-1.916 1.718a25.201 25.201 0 0 0-6.704 10.94c-.724 2.378-1.138 5.005-1.172 7.774-.024 2.767.267 5.678 1.123 8.6l.004.014.01.018c.152.265.323.565.496.864l.007.014.011.011c2.858 3.463 6.766 6.561 11.556 8.234 4.808 1.588 10.298 1.628 15.518.253 2.43-.617 4.77-1.46 7-2.455 2.25-.95 4.32-2.27 6.05-3.88a20.234 20.234 0 0 0 4.18-5.48c.14-.25.27-.5.38-.756l.18-.381.04-.095.01-.024.02-.088v-.052l.01-.206c.02-.552.03-1.101.05-1.647.06-1.091.01-2.17-.03-3.236 0-1.068-.16-2.113-.24-3.15-.12-1.032-.32-2.04-.49-3.037-.12-.49-.25-.979-.37-1.463l-.18-.723-.23-.702c-.16-.466-.31-.929-.47-1.387-.19-.445-.38-.886-.57-1.324-.09-.217-.18-.438-.28-.651l-.34-.622c-.22-.41-.43-.83-.67-1.22-.51-.77-.98-1.54-1.56-2.216-.53-.718-1.17-1.32-1.75-1.944-.64-.563-1.24-1.146-1.91-1.615-.64-.513-1.33-.917-1.99-1.34-.68-.367-1.33-.762-2.01-1.049-1.33-.64-2.67-1.07-3.91-1.436-2.52-.683-4.76-.97-6.59-1.064a32.662 32.662 0 0 0-4.225.029c-.481.037-.847.079-1.092.11a4.327 4.327 0 0 0-.369.065s.126-.004.373-.024l1.094-.073c.961-.045 2.383-.079 4.209.044 1.82.118 4.04.427 6.53 1.124 1.24.372 2.55.81 3.87 1.45.67.288 1.31.682 1.99 1.05.64.42 1.32.824 1.94 1.334.66.466 1.25 1.045 1.88 1.602.57.618 1.2 1.214 1.71 1.923.57.67 1.04 1.432 1.53 2.191.24.386.44.801.66 1.205l.33.615c.1.21.19.428.28.644.19.432.37.869.56 1.308.15.454.3.911.45 1.372l.23.695.18.715c.12.48.23.962.35 1.448.17.986.37 1.986.48 3.009.08 1.028.24 2.063.24 3.123.03 1.058.08 2.128.01 3.213-.01.541-.03 1.087-.05 1.635l-.01.206v.051l.01-.038-.01.023-.04.094-.17.373c-.12.252-.25.497-.37.742a20.012 20.012 0 0 1-4.12 5.371c-1.7 1.58-3.72 2.864-5.95 3.804-2.2.987-4.52 1.82-6.93 2.43-5.16 1.36-10.563 1.318-15.291-.236-4.707-1.638-8.563-4.677-11.402-8.096l.017.025-.498-.864.014.032c-.843-2.853-1.148-5.755-1.132-8.487.023-2.74.422-5.339 1.127-7.694a25.12 25.12 0 0 1 6.568-10.872c.614-.658 1.296-1.179 1.886-1.724.634-.494 1.227-.962 1.794-1.377l1.619-1.096 1.404-.833c.832-.513 1.52-.81 1.961-1.063l.508-.271a.912.912 0 0 0 .169-.103z" fill="#17282F"/><path d="M1021.77 48.016c-.49 2.328.77 4.548 2.81 4.96 2.05.411 4.11-1.142 4.6-3.47.5-2.328-.76-4.548-2.81-4.96-2.04-.411-4.1 1.142-4.6 3.47z" fill="#DADBD8"/><path d="M1021.77 48.016c.04.009.11-.341.38-.914.27-.557.78-1.376 1.75-1.955.48-.281 1.07-.485 1.72-.502.65-.003 1.35.18 1.93.611 1.19.841 1.81 2.57 1.44 4.21-.33 1.648-1.6 3-3.03 3.312-.71.171-1.43.07-2.02-.182a3.606 3.606 0 0 1-1.39-1.128c-.65-.907-.78-1.852-.8-2.468-.01-.629.06-.978.02-.984-.01-.003-.04.081-.08.247-.04.164-.08.413-.1.737-.02.635.06 1.632.73 2.627.34.486.83.955 1.48 1.264.64.293 1.44.419 2.24.24 1.6-.332 2.98-1.808 3.34-3.586.4-1.77-.27-3.659-1.61-4.58a3.57 3.57 0 0 0-2.16-.646c-.72.035-1.36.276-1.86.593a4.48 4.48 0 0 0-1.74 2.131c-.12.303-.18.547-.21.714-.03.168-.04.256-.03.26z" fill="#17282F"/><path d="M983.086 33.68c1.424-6.167 6.268-11.651 12.508-13.23.406-.104.715-.125 1.095.047s.781.669.742 1.141c-.093 2.266-5.591 2.976-7.528 5.475-1.936 2.499-3.152 5.23-4.538 8.059-.212.432-.473.906-.94 1.047-.566.17-1.173-.273-1.373-.82-.2-.546-.096-1.152.034-1.72z" fill="#fff"/><path d="M981.305 58.845c-.012.006.046.13.168.363.125.23.32.565.601.978a14.85 14.85 0 0 0 2.861 3.122c.695.574 1.54 1.112 2.475 1.606.931.504 1.957.989 3.056 1.449a40.865 40.865 0 0 0 7.406 2.303c2.698.563 5.318.851 7.698 1.03 2.38.186 4.55.222 6.35.04 1.81-.169 3.24-.564 4.19-.921.46-.19.82-.346 1.06-.477.23-.124.35-.194.35-.206-.02-.035-.52.218-1.47.54-.95.31-2.36.657-4.15.787-1.79.146-3.93.081-6.3-.122-2.37-.199-4.97-.496-7.643-1.054a42.29 42.29 0 0 1-7.347-2.253 35.576 35.576 0 0 1-3.042-1.402c-.936-.48-1.759-.985-2.454-1.536a16.065 16.065 0 0 1-2.913-2.994c-.595-.792-.865-1.271-.896-1.253z" fill="#17282F"/><path d="M994.535 51.139a1.124 1.124 0 0 1 1.216-.109c.379.205.612.636.587 1.06a1.253 1.253 0 0 1-.687 1.016c-.444.22-1.038.15-1.367-.215-.329-.363-.306-1.266.251-1.752z" fill="#F57F62"/><path d="M994.223 52.807c-.04.021.083.33.548.558.225.103.566.189.925.032.332-.165.587-.465.732-.827.131-.372.193-.714.076-1.09-.152-.335-.354-.54-.609-.672a1.056 1.056 0 0 0-.596-.072c-.134.02-.204.051-.203.077-.013.072.326.043.663.238.143.094.321.328.397.546.058.204.01.556-.099.83a1.32 1.32 0 0 1-.525.647c-.206.11-.461.09-.658.033-.406-.123-.605-.34-.651-.3z" fill="#2D1B14"/><path d="M975.285 59.99c-.286-.19-10.427-2.488-17.844 1.292-4.651 2.373-14.702 9.06-21.373 16.684-6.67 7.625-17.963 23.139-18.174 25.055-.211 1.915.575 3.397.575 3.397l-3.207 7.049 10.973 7.293 4.469-5.25s2.692-.266 5.867-4.049c3.174-3.781 9.381-16.374 13.544-19.772 4.163-3.4 18.19-10.383 19.442-10.783 1.253-.4 5.728-20.915 5.728-20.915z" fill="#DADBD8"/><path d="M929.71 116.678c.028-.04-.701-.579-1.93-1.437a308.908 308.908 0 0 0-4.928-3.355l.052.268.86-1.238.33-.478-.27.057a352.287 352.287 0 0 0 5.677 3.376c.727.419 1.316.753 1.727.976.205.111.367.195.477.248.062.018.083.061.159.046l.021.018-.058-.031-.08-.099-.44-.307c-.387-.262-.953-.63-1.661-1.081-1.415-.9-3.391-2.128-5.611-3.479l-.162-.098-.108.155-.33.476-.857 1.242-.111.162.163.107a318.103 318.103 0 0 0 5.003 3.247c1.268.802 2.049 1.266 2.077 1.225zM916.597 110.196c-.063.09 2.538 1.925 5.807 4.098 3.271 2.174 5.971 3.863 6.034 3.774.061-.09-2.539-1.925-5.809-4.099-3.27-2.173-5.971-3.862-6.032-3.773zM939.573 74.273c-.04.04.543.654 1.484 1.644.94.99 2.232 2.362 3.609 3.92a142.117 142.117 0 0 1 2.631 3.065l.093.111.122-.07a92.139 92.139 0 0 0 2.207-1.307c.526-.323.816-.523.799-.553-.018-.03-.341.112-.895.387-.553.276-1.338.684-2.277 1.186l.216.04a65.824 65.824 0 0 0-6.303-6.974c-.995-.943-1.649-1.487-1.686-1.449zM943.252 71.255c-.041.04.408.56 1.132 1.4.724.838 1.714 2.004 2.757 3.331a93.984 93.984 0 0 1 2.58 3.466c.642.9 1.04 1.46 1.089 1.43.045-.026-.268-.638-.852-1.583a40.739 40.739 0 0 0-2.501-3.553 40.814 40.814 0 0 0-2.862-3.277c-.782-.796-1.305-1.25-1.343-1.214z" fill="#17282F"/><path d="M944.077 70.126c-.02.019.17.262.531.687.363.422.881 1.038 1.51 1.808a64.445 64.445 0 0 1 4.531 6.28 64.228 64.228 0 0 1 3.708 6.786c.421.895.752 1.625.974 2.133.227.506.364.782.39.773.026-.01-.062-.304-.245-.829a33.427 33.427 0 0 0-.861-2.19 50.263 50.263 0 0 0-3.626-6.88 50.491 50.491 0 0 0-4.654-6.25 33.384 33.384 0 0 0-1.612-1.734c-.397-.394-.626-.603-.646-.584zM948.08 68.636c-.046.046.806.893 2.083 2.344a51.48 51.48 0 0 1 4.539 6.004 51.082 51.082 0 0 1 3.569 6.61c.786 1.756 1.198 2.875 1.26 2.854.026-.009-.051-.297-.213-.813a28.043 28.043 0 0 0-.787-2.15c-.721-1.794-1.89-4.215-3.491-6.71-1.606-2.493-3.327-4.57-4.667-5.98a28.398 28.398 0 0 0-1.638-1.621c-.404-.366-.636-.558-.655-.538z" fill="#17282F"/><path d="M951.155 65.075c1.943-1.307 3.717-2.392 5.155-3.19-.547.298-1.2.664-1.941 1.104a48.053 48.053 0 0 0-3.214 2.086z" fill="#A7A9A8"/><path d="M957.17 75.495c.215-.018.432-.129.626-.237l4.099-2.28c.334-.187.682-.386.885-.706.287-.453.215-1.033.117-1.556-.687-3.644-2.469-6.812-4.712-9.788 0 0-.687.314-1.875.958-1.438.797-3.212 1.882-5.155 3.19a27.34 27.34 0 0 0-.625.452c2.164 3.632 3.691 5.768 5.856 9.4.13.219.281.454.525.538.085.03.172.037.259.03z" fill="#8F9192"/><path d="m914.34 115.118 11.101 7.379a.965.965 0 0 0 1.324-.252.923.923 0 0 0-.251-1.299l-11.1-7.378a.966.966 0 0 0-1.325.251.924.924 0 0 0 .251 1.299z" fill="#17282F"/><path d="M925.617 122.143s.648 4.667-.172 7.311c-.82 2.645-1.523 4.582-2.994 5.016-1.47.435-2.563-.135-2.221-1.476.344-1.34 1.107-1.983.954-3.758-.153-1.775-.578-2.161-.578-2.161s-3.523 3.554-3.454 4.991c.068 1.438 1.898 5.32-.279 5.546-2.175.228-3.427-2.278-3.427-2.278s-2.397 1.096-3.623-1.664c0 0-2.874-1.453-2.401-4.902 0 0-2.335-1.187-1.404-3.287.932-2.1 3.459-5.857 5.155-7.448 1.696-1.592 2.642-2.113 2.717-2.221.073-.108.781-1.206.781-1.206l10.946 7.537z" fill="#17282F"/><path d="M913.728 127.838c-.071-.069-1.102 1.467-1.154 3.653-.079 2.188.859 3.773.933 3.708.119-.042-.612-1.622-.535-3.697.047-2.076.872-3.616.756-3.664zM911.383 124.759c-.037-.028-.41.351-.852 1.08-.443.726-.918 1.822-1.146 3.102-.224 1.282-.151 2.469.018 3.297.168.83.39 1.309.433 1.295.128-.023-.515-2.04-.057-4.526.419-2.492 1.716-4.186 1.604-4.248zM910.16 122.849c-.08-.063-1.079 1.119-1.843 2.841-.775 1.719-.982 3.238-.88 3.253.115.025.491-1.423 1.245-3.097.743-1.677 1.575-2.931 1.478-2.997zM910.021 119.649c-.02.01.073.233.283.623.212.39.556.938 1.052 1.58.978 1.297 2.647 2.875 4.716 4.459l.149.114.122-.145a25.106 25.106 0 0 1 3.984-3.835l.192-.147-.188-.149a52.858 52.858 0 0 1-4.641-4.182c-1.092-1.106-1.711-1.796-1.75-1.764-.018.015.115.206.38.54.265.334.665.81 1.19 1.389a41.833 41.833 0 0 0 4.576 4.31l.004-.296a23.615 23.615 0 0 0-2.248 1.932 23.633 23.633 0 0 0-1.801 1.962l.271-.03c-2.071-1.56-3.743-3.076-4.76-4.311-1.032-1.223-1.477-2.081-1.531-2.05zM920.605 132.304c.03.102.852-.218 1.673.241.819.464.952 1.32 1.057 1.293.049-.002.101-.221.004-.563a1.849 1.849 0 0 0-.861-1.07 1.915 1.915 0 0 0-1.378-.189c-.351.09-.519.245-.495.288zM914.694 136.882c.113.02.214-.968 1.042-1.737.824-.774 1.833-.824 1.818-.936.001-.049-.25-.112-.659-.051a2.754 2.754 0 0 0-1.433.704 2.665 2.665 0 0 0-.787 1.371c-.082.398-.031.647.019.649zM913.993 115.006c-.061.091 2.506 1.847 5.733 3.924s5.892 3.687 5.953 3.595c.06-.089-2.506-1.846-5.734-3.923-3.227-2.076-5.892-3.686-5.952-3.596z" fill="#33535F"/><path d="M946.004 96.844c-6.581-1.811-12.813-5.923-15.771-11.966l1.884-2.453c2.825 6.163 8.868 10.543 15.649 11.743l-1.762 2.676z" fill="#F2575D"/><path d="M933.243 81.055c-.024.013.096.264.336.708.23.45.627 1.066 1.155 1.801 1.067 1.461 2.822 3.31 5.135 4.872 2.306 1.57 4.632 2.6 6.338 3.236.854.321 1.556.552 2.047.692.491.142.766.208.774.182.02-.06-1.042-.432-2.714-1.13-1.668-.7-3.947-1.756-6.217-3.302-2.277-1.538-4.026-3.318-5.137-4.717-1.109-1.404-1.65-2.38-1.717-2.342zM928.855 87.29c-.025.013.096.264.335.709.23.45.627 1.066 1.156 1.802 1.067 1.46 2.821 3.31 5.134 4.87 2.306 1.57 4.632 2.6 6.338 3.237.855.321 1.556.552 2.048.691.49.142.765.208.774.183.02-.06-1.043-.432-2.714-1.131-1.669-.699-3.947-1.755-6.217-3.302-2.277-1.537-4.027-3.317-5.137-4.716-1.109-1.405-1.65-2.38-1.717-2.342zM972.824 59.534c-.028 0-.058.405-.091 1.135-.02.73-.102 1.785-.25 3.08a34.91 34.91 0 0 1-.831 4.499 34.713 34.713 0 0 1-1.839 5.293 34.17 34.17 0 0 1-2.755 4.899 33.698 33.698 0 0 1-2.858 3.616c-.888.97-1.64 1.73-2.187 2.226-.538.506-.828.796-.811.816.018.022.342-.23.916-.704.58-.463 1.368-1.197 2.291-2.152a30.742 30.742 0 0 0 2.954-3.6 32.291 32.291 0 0 0 2.815-4.944 32.708 32.708 0 0 0 1.831-5.365c.41-1.695.637-3.248.755-4.557.113-1.308.152-2.372.125-3.105-.016-.733-.037-1.138-.065-1.137z" fill="#17282F"/><path d="M966.193 59.161c-.027.004-.011.38.041 1.058.061.675.111 1.657.133 2.869.031 1.211-.017 2.654-.136 4.251a47.874 47.874 0 0 1-.736 5.157 47.977 47.977 0 0 1-1.351 5.038c-.519 1.519-1.043 2.87-1.549 3.978a42.534 42.534 0 0 1-1.252 2.6c-.314.605-.478.948-.454.96.024.014.233-.302.59-.888.365-.582.84-1.455 1.373-2.558.542-1.101 1.098-2.453 1.641-3.979a43.504 43.504 0 0 0 1.394-5.076c.367-1.83.588-3.596.711-5.206.099-1.612.118-3.068.051-4.287-.058-1.219-.152-2.202-.26-2.875-.1-.675-.168-1.045-.196-1.042z" fill="#17282F"/><path d="M943.263 134.518s-3.999-1.776-6.155-.383c-2.156 1.394-11.24 9.006-10.701 10.181.541 1.174 1.463 3.857 1.463 3.857l15.393-13.655z" fill="#33535F"/><path d="M949.826 219.073c.08-.377 8.175-12.762 8.175-12.762l6.001-16.344 2.884-11.077s-2.34-2.172.985-4.647l.741-6.007 39.498-26.419s1.95 15.036-3.93 21.88c-1.78 2.06-3.45 15.976-7.184 24.131-3.731 8.156-12.865 22.297-13.963 24.958-1.098 2.66-11.356 17.693-15.583 22.536-5.007 5.737-13.971 17.934-13.971 17.934l-15.703-9.95s11.97-23.856 12.05-24.233zM942.09 135.072c-.821.098-21.952 17.981-25.506 23.422-3.555 5.441-6.96 20.866-7.446 23.78-.485 2.915-5.601 39.866-5.686 40.896-.086 1.031 8.941 8.622 17.852 6.223l5.479-12.879s6.172-13.864 7.307-17.957l1.135-4.094 4.701-13.986 5.886-7.232c1.23-.629 1.937-1.489 2.104-2.586l3.735-4.588 8.478-2.878s3.177-6.172.47-16.671c-2.708-10.498-12.614-17.573-12.614-17.573l-5.895 6.123z" fill="#DADBD8"/><path d="M989.792 201.215c.022-.019-.233-.334-.78-.816-.547-.483-1.386-1.13-2.496-1.822-2.212-1.393-5.539-2.895-9.387-3.998-.969-.254-1.901-.535-2.835-.717a25.772 25.772 0 0 0-2.701-.412 32.173 32.173 0 0 0-4.617-.096c-1.314.065-2.37.193-3.095.307-.726.115-1.121.216-1.115.242.004.027.406-.023 1.134-.09a42.866 42.866 0 0 1 3.085-.182 35.409 35.409 0 0 1 4.568.178c1.715.166 3.549.604 5.463 1.146 3.818 1.095 7.124 2.539 9.352 3.858a24.18 24.18 0 0 1 2.543 1.702c.573.442.861.717.881.7z" fill="#17282F"/><path d="M987.874 204.41s-5.598-4.749-13.05-6.569c-7.453-1.82-13.131-1.584-13.131-1.584l-.783 2.131s8.964.944 12.708 1.953c4.658 1.254 13.015 6.161 13.015 6.161l1.241-2.092z" fill="#F2575D"/><path d="M948.068 170.728c.027-.006-.062-.447-.247-1.244-.086-.4-.207-.886-.396-1.436-.184-.551-.36-1.192-.654-1.865a22.417 22.417 0 0 0-.97-2.193c-.358-.787-.838-1.577-1.324-2.418a33.532 33.532 0 0 0-3.837-5.031 34.07 34.07 0 0 0-4.795-4.165c-.816-.544-1.579-1.079-2.349-1.493-.745-.453-1.476-.809-2.147-1.128-.658-.342-1.295-.566-1.84-.791a12.814 12.814 0 0 0-1.425-.505c-.793-.246-1.234-.368-1.243-.343-.008.026.417.198 1.19.487.389.138.862.315 1.393.563.532.242 1.155.482 1.799.837.657.332 1.373.699 2.103 1.159.754.422 1.501.961 2.302 1.506a35.674 35.674 0 0 1 4.719 4.139 35.181 35.181 0 0 1 3.816 4.954c.489.827.975 1.602 1.341 2.374.408.752.722 1.482 1.005 2.152.308.659.501 1.288.703 1.829.209.539.351 1.016.459 1.407.229.781.37 1.211.397 1.205z" fill="#17282F"/><path d="M945.564 173.336c.027-.006-.063-.448-.247-1.244-.086-.4-.207-.886-.397-1.436-.183-.551-.359-1.192-.653-1.865-.269-.682-.571-1.426-.97-2.192-.358-.787-.838-1.577-1.324-2.419a33.532 33.532 0 0 0-3.837-5.031 34.03 34.03 0 0 0-4.796-4.166c-.815-.543-1.578-1.078-2.348-1.491a23.043 23.043 0 0 0-2.147-1.129c-.658-.343-1.295-.566-1.84-.791a12.682 12.682 0 0 0-1.425-.505c-.793-.246-1.235-.369-1.243-.343-.008.026.417.198 1.19.486.389.139.862.316 1.392.565.532.242 1.156.481 1.8.837.656.331 1.372.698 2.103 1.158.754.422 1.501.96 2.302 1.505a35.689 35.689 0 0 1 4.718 4.14 35.243 35.243 0 0 1 3.817 4.953c.488.828.974 1.603 1.341 2.375.408.753.722 1.483 1.004 2.152.309.659.502 1.288.704 1.829.209.539.351 1.016.459 1.408.229.78.37 1.21.397 1.204z" fill="#17282F"/><path d="m1002.77 156.023 2.41-6.073-35.732-14.026-20.07-7.332-1.838 1.427 12.589 33.174 6.045 2.227 1.998 3.476 35.098-11.831" fill="#DADBD8"/><path d="M945.847 131.82c-.016.028.417.275 1.178.746a29.16 29.16 0 0 1 3.079 2.199c2.475 1.988 5.536 5.291 7.555 9.688 2.022 4.398 2.52 8.843 2.402 11.985a28.387 28.387 0 0 1-.356 3.727c-.144.875-.241 1.357-.209 1.364.013.004.053-.114.116-.34.058-.227.162-.559.246-.997.194-.87.398-2.149.485-3.744.193-3.171-.267-7.69-2.32-12.157-2.051-4.465-5.195-7.789-7.74-9.742-1.274-.988-2.385-1.682-3.177-2.113-.39-.227-.712-.37-.923-.477-.215-.104-.329-.151-.336-.139zM967.07 166.945c.01.009.115-.062.308-.206l.827-.646c.351-.288.787-.633 1.322-.998.53-.369 1.109-.822 1.809-1.24.684-.44 1.435-.916 2.283-1.363.824-.486 1.755-.912 2.722-1.382a43.83 43.83 0 0 1 6.594-2.345 43.854 43.854 0 0 1 6.91-1.16c1.077-.06 2.1-.142 3.06-.119.96-.022 1.853.029 2.667.079.817.024 1.548.137 2.193.202.647.057 1.198.147 1.648.227l1.037.16c.24.033.37.044.37.03.01-.013-.11-.049-.35-.107l-1.028-.233a15.439 15.439 0 0 0-1.646-.294c-.646-.086-1.379-.219-2.201-.261a28.706 28.706 0 0 0-2.688-.128c-.968-.037-2 .033-3.089.084-2.17.172-4.547.522-6.984 1.141a41.899 41.899 0 0 0-6.649 2.397c-.972.483-1.906.924-2.731 1.427a28.11 28.11 0 0 0-2.275 1.416c-.695.435-1.267.907-1.788 1.295-.525.384-.949.748-1.286 1.056l-.781.703c-.175.164-.262.255-.254.265zM999.168 181.06c.019-.019-.308-.354-.918-.945-.3-.302-.679-.658-1.156-1.03-.472-.378-.987-.839-1.626-1.257l-.983-.684c-.345-.235-.728-.442-1.111-.676-.76-.483-1.63-.895-2.535-1.351a34.3 34.3 0 0 0-6.225-2.165 34.599 34.599 0 0 0-6.556-.829c-1.018.006-1.986-.012-2.888.082-.45.038-.888.053-1.304.11l-1.195.174c-.765.09-1.438.272-2.034.399-.599.12-1.103.27-1.51.406-.819.257-1.266.41-1.258.436.01.025.472-.079 1.299-.29.412-.112.918-.239 1.517-.338.596-.106 1.267-.268 2.027-.339l1.186-.148c.413-.048.847-.054 1.293-.086.893-.079 1.85-.048 2.855-.044 2.01.083 4.212.333 6.475.848a35.687 35.687 0 0 1 6.16 2.111c.899.442 1.765.838 2.524 1.304.382.226.766.424 1.111.649l.988.657c.644.4 1.166.842 1.648 1.2.487.354.879.691 1.193.973.639.554 1.003.853 1.023.833zM997.601 186.609c.019-.019-.309-.335-.921-.891l-.512-.461-.647-.501c-.468-.355-.99-.779-1.623-1.168l-.977-.637c-.347-.209-.719-.407-1.1-.623-.751-.448-1.611-.821-2.498-1.249a38.236 38.236 0 0 0-6.076-2.035c-2.22-.522-4.381-.801-6.351-.944-.987-.041-1.925-.1-2.804-.068-.88-.005-1.696.047-2.442.106-.746.037-1.414.142-2.003.216-.589.067-1.092.156-1.5.244-.818.163-1.267.266-1.261.292.005.027.463-.025 1.286-.141.41-.065.914-.132 1.501-.178.588-.052 1.253-.138 1.996-.156.74-.041 1.551-.077 2.422-.057.872-.019 1.8.052 2.778.102 1.95.161 4.086.449 6.283.965a40.367 40.367 0 0 1 6.021 1.984c.88.415 1.737.772 2.487 1.204.381.207.753.397 1.101.597l.981.609c.637.371 1.165.775 1.643 1.111l.663.473.531.431c.639.517 1.003.795 1.022.775z" fill="#17282F"/><path d="M993.123 193.915c.044-.034-.489-.802-1.388-2.018a265.392 265.392 0 0 0-3.575-4.702l-2.857-3.626.022.159c.408-1.049.737-1.922.956-2.537.219-.614.328-.969.296-.981-.032-.013-.202.318-.475.912-.271.593-.645 1.45-1.086 2.486l-.036.084.059.076 2.803 3.666a263.098 263.098 0 0 0 3.668 4.631c.956 1.173 1.57 1.882 1.613 1.85zM974.444 226.554c.025-.011-.112-.346-.384-.945a9.067 9.067 0 0 0-.542-1.068c-.235-.405-.477-.881-.821-1.361a17.124 17.124 0 0 0-1.133-1.564c-.415-.56-.93-1.099-1.458-1.677a26.041 26.041 0 0 0-3.912-3.276 26.316 26.316 0 0 0-4.534-2.385c-.742-.272-1.441-.547-2.123-.723a17.704 17.704 0 0 0-1.898-.468c-.582-.141-1.123-.189-1.592-.256a9.698 9.698 0 0 0-1.212-.109c-.669-.03-1.037-.033-1.038-.007-.007.084 1.475.121 3.78.642.576.134 1.204.285 1.861.508.669.187 1.354.47 2.081.747a27.737 27.737 0 0 1 4.449 2.376 27.405 27.405 0 0 1 3.872 3.201c.527.564 1.045 1.086 1.464 1.629.451.519.822 1.039 1.158 1.516 1.332 1.917 1.904 3.257 1.982 3.22zM971.673 230.002c.025-.012-.115-.328-.388-.892a10.078 10.078 0 0 0-.539-1.007c-.229-.382-.47-.831-.799-1.287-.615-.942-1.447-1.999-2.456-3.099a28.13 28.13 0 0 0-3.633-3.227 28.334 28.334 0 0 0-4.186-2.505c-1.36-.638-2.63-1.122-3.725-1.433-.54-.18-1.047-.28-1.486-.387a10.564 10.564 0 0 0-1.137-.223c-.629-.097-.978-.138-.983-.111-.015.076 1.378.287 3.519.985 1.072.341 2.314.846 3.648 1.492a30.302 30.302 0 0 1 4.111 2.496 30.204 30.204 0 0 1 3.603 3.159c1.009 1.071 1.854 2.097 2.491 3.009 1.288 1.816 1.888 3.066 1.96 3.03zM909.051 184.445c.002.027.399.039 1.114.039.357-.005.794-.005 1.301.023.506.023 1.084.024 1.719.089 1.273.082 2.779.275 4.434.581a41.42 41.42 0 0 1 5.278 1.41 41.136 41.136 0 0 1 5.008 2.156c1.481.781 2.777 1.559 3.817 2.279.535.34.985.696 1.393.989.411.291.75.56 1.025.784.555.44.871.675.89.655.019-.021-.263-.293-.789-.771a13.35 13.35 0 0 0-.988-.84c-.397-.312-.837-.685-1.366-1.043-1.029-.755-2.32-1.565-3.807-2.372a38.237 38.237 0 0 0-5.05-2.207 38.419 38.419 0 0 0-5.341-1.394c-1.676-.29-3.201-.456-4.486-.504-.641-.047-1.224-.029-1.734-.031-.51-.007-.949.016-1.308.044-.717.046-1.111.085-1.11.113zM908.463 188.467c-.001.026.393.07 1.103.127a47.11 47.11 0 0 1 2.998.325c1.261.166 2.75.442 4.383.823 1.63.402 3.401.921 5.214 1.591a48.405 48.405 0 0 1 4.97 2.218 45.237 45.237 0 0 1 3.827 2.248 46.221 46.221 0 0 1 2.455 1.713c.567.421.889.646.908.625.018-.021-.272-.284-.811-.745-.534-.466-1.35-1.093-2.392-1.822-1.038-.733-2.331-1.531-3.812-2.338a44.184 44.184 0 0 0-5.002-2.265 44.243 44.243 0 0 0-5.27-1.576c-1.653-.365-3.16-.615-4.434-.746-1.273-.138-2.309-.203-3.025-.204-.716-.009-1.112-.001-1.112.026z" fill="#17282F"/><path d="M914.501 162.75c5.501-1.993 12.075-.522 16.643 3.059 4.569 3.582 7.466 8.891 9.104 14.405l2.008-2.599c-1.639-5.514-4.931-11.234-9.501-14.816-4.568-3.581-11.34-5.156-16.841-3.162-.521.868-.984 1.935-1.413 3.113z" fill="#F2575D"/><path d="M995.278 186.269c.513-.044.974-.195 1.264-.464-.153-.126-.318-.259-.494-.402l-.663-.473c-.478-.336-1.006-.74-1.643-1.111l-.981-.609c-.348-.2-.72-.39-1.101-.597-.75-.432-1.607-.789-2.487-1.204a40.75 40.75 0 0 0-2.631-.997c-.048.167-.137.432-.261.779l-.069.19a14.51 14.51 0 0 1 3.036 1.195c1.061.564 2.532 2.463 3.839 3.243.592.353 1.445.514 2.191.45zm-9.269-4.941.093-.206c.153-.333.274-.585.356-.738a39.282 39.282 0 0 0-3.306-.959c-2.197-.516-4.333-.804-6.283-.965-.978-.05-1.906-.121-2.778-.102-.871-.02-1.682.016-2.422.057a14.97 14.97 0 0 0-.941.055c-.376.032-.728.072-1.055.101l-.157.013-.053.005a.778.778 0 0 0-.243.137c-.166.144-.235.418-.085.577.11.117.298.092.452.138 6.498 1.966 11.455.619 16.422 1.887z" fill="#8F9192"/><path d="M996.542 185.805a1.07 1.07 0 0 0 .067-.068c-6.958-5.285-15.676-8.303-24.269-7.563a29.16 29.16 0 0 0-2.506.326 1.988 1.988 0 0 0-.371.089l.053-.005.157-.013c.327-.029.679-.069 1.055-.101.298-.026.612-.047.941-.055.74-.041 1.551-.077 2.422-.057.872-.019 1.8.052 2.778.102 1.95.161 4.086.449 6.283.965 1.15.279 2.255.604 3.306.959.061-.113.1-.173.116-.175l.003.001c.014.005.001.075-.035.202.922.313 1.802.65 2.631.997.88.415 1.737.772 2.487 1.204.381.207.753.397 1.101.597l.981.609c.637.371 1.165.775 1.643 1.111l.663.473c.176.143.341.276.494.402z" fill="#0F191D"/><path d="m986.212 181.381.069-.19c.124-.347.213-.612.261-.779.036-.127.049-.197.035-.202l-.003-.001c-.016.002-.055.062-.116.175a15.21 15.21 0 0 0-.449.944l.203.053z" fill="#0F191D"/><path d="m945.127 172.945.208-.253c-.049-.16-.105-.346-.168-.56-.108-.392-.25-.869-.459-1.408-.202-.541-.395-1.17-.704-1.829a23.868 23.868 0 0 0-1.004-2.152c-.367-.772-.853-1.547-1.341-2.375a35.243 35.243 0 0 0-3.817-4.953 35.689 35.689 0 0 0-4.718-4.14c-.801-.545-1.548-1.083-2.302-1.505a24.982 24.982 0 0 0-2.103-1.158c-.644-.356-1.268-.595-1.8-.837l-.068-.032c2.714 3.486 7.51 4.765 10.678 7.864 3.693 3.611 4.65 9.116 7.598 13.338zm.301-.366.109-.132c-.898-3.55-2.499-6.908-4.645-9.893.387.548.747 1.091 1.081 1.626.486.842.966 1.632 1.324 2.419.399.766.701 1.51.97 2.192.294.673.47 1.314.653 1.865.19.55.311 1.036.397 1.436l.111.487z" fill="#8F9192"/><path d="m945.335 172.692.093-.113a63.49 63.49 0 0 0-.111-.487c-.086-.4-.207-.886-.397-1.436-.183-.551-.359-1.192-.653-1.865-.269-.682-.571-1.426-.97-2.192-.358-.787-.838-1.577-1.324-2.419a34.402 34.402 0 0 0-1.081-1.626c-3.483-4.846-8.399-8.711-14.053-10.827l.012.016.068.032c.532.242 1.156.481 1.8.837.656.331 1.372.698 2.103 1.158.754.422 1.501.96 2.302 1.505a35.689 35.689 0 0 1 4.718 4.14 35.243 35.243 0 0 1 3.817 4.953c.488.828.974 1.603 1.341 2.375.408.753.722 1.483 1.004 2.152.309.659.502 1.288.704 1.829.209.539.351 1.016.459 1.408.063.214.119.4.168.56z" fill="#0F191D"/><path d="M921.576 231.683c-7.56 1.313-15.432-1.7-20.301-7.436-.662-.779-.335-2.068.464-2.622.905-.628 2.007-.335 2.671.446 4.044 4.764 10.662 6.938 16.844 5.864 1.021-.178 1.989.76 2.071 1.709.093 1.088-.725 1.861-1.749 2.039zM950.578 124.364c-.009.012.16.135.488.358l1.446.96c.627.418 1.402.918 2.325 1.463.92.549 1.953 1.2 3.14 1.843a88.824 88.824 0 0 0 3.889 2.097c1.401.747 2.943 1.463 4.556 2.232a129.177 129.177 0 0 0 10.792 4.358 129.903 129.903 0 0 0 11.185 3.287c1.748.4 3.405.798 4.975 1.084 1.562.324 3.029.564 4.369.776 1.336.234 2.557.368 3.627.51 1.07.148 1.99.239 2.75.302l1.74.148c.4.03.61.039.61.025 0-.013-.21-.049-.6-.104-.44-.055-1.01-.128-1.73-.221a61.04 61.04 0 0 1-2.74-.367c-1.06-.162-2.28-.314-3.61-.566-1.333-.23-2.793-.484-4.349-.821-1.562-.299-3.212-.708-4.952-1.116a138.364 138.364 0 0 1-11.141-3.306 136.689 136.689 0 0 1-10.769-4.317c-1.613-.758-3.156-1.459-4.56-2.193a97.308 97.308 0 0 1-3.902-2.048c-1.193-.627-2.234-1.26-3.163-1.79a62.426 62.426 0 0 1-2.359-1.405l-1.484-.898c-.342-.201-.526-.302-.533-.291zM961.901 133.523c-.014.024.29.223.853.562a47.47 47.47 0 0 0 2.432 1.359c2.079 1.101 5.033 2.487 8.411 3.738a72.01 72.01 0 0 0 8.841 2.633c1.152.261 2.09.447 2.743.552.652.11 1.015.157 1.02.13.005-.026-.347-.124-.988-.279-.641-.151-1.567-.378-2.706-.671a92.235 92.235 0 0 1-8.768-2.732 91.786 91.786 0 0 1-8.423-3.617 141.386 141.386 0 0 1-2.485-1.245c-.585-.299-.916-.453-.93-.43zM952.531 255.171a209.821 209.821 0 0 0-15.77-9.864c-.894-.506-1.376-1.534-.906-2.505.419-.862 1.656-1.406 2.556-.897a220.751 220.751 0 0 1 16.592 10.383c.847.583.856 1.919.228 2.65-.716.835-1.852.817-2.7.233z" fill="#17282F"/><path d="M908.491 192.426s-5.39 3.464-5.739 5.68c-.349 2.216-1.017 18.595-1.017 18.595l2.211 2.709 4.545-26.984z" fill="#DADBD8"/><path d="M904.066 219.14c.11.014 1.086-6.443 2.182-14.422 1.095-7.979 1.894-14.458 1.785-14.472-.109-.015-1.085 6.441-2.181 14.422-1.095 7.977-1.895 14.458-1.786 14.472z" fill="#17282F"/><path d="M969.419 237.485a2.335 2.335 0 0 0 .143-2.732c-1.506-2.342-4.573-6.563-5.992-5.905-1.513.7-7.499 10.14-9.892 13.982a2.31 2.31 0 0 0 .38 2.909l3.404 3.215c.841.794 2.199.7 2.924-.204l9.033-11.265z" fill="#DADBD8"/><path d="M969.419 237.485c-.012-.008-.141.132-.378.408l-1.023 1.215-3.702 4.516-2.54 3.131c-.457.563-.929 1.146-1.413 1.746a1.854 1.854 0 0 1-1.921.769c-.372-.081-.685-.27-.971-.563l-.917-.87-1.893-1.795c-.324-.317-.669-.584-.858-.944a2.096 2.096 0 0 1-.27-1.19c.024-.427.187-.8.446-1.185l.742-1.184c2.001-3.173 3.94-6.178 5.811-8.834.944-1.307 1.845-2.609 2.875-3.547.488-.499 1.196-.025 1.689.343.519.403.965.865 1.375 1.316.815.909 1.48 1.798 2.049 2.585l.774 1.112c.244.345.425.657.501.985a2.331 2.331 0 0 1-.121 1.502c-.147.325-.272.473-.255.484 0 0 .153-.126.328-.451.161-.32.353-.873.199-1.57-.064-.346-.263-.71-.492-1.051a40.347 40.347 0 0 0-.75-1.135 29.188 29.188 0 0 0-2.02-2.643c-.409-.465-.856-.942-1.396-1.372-.272-.211-.565-.419-.927-.552a1.271 1.271 0 0 0-.599-.08c-.232.02-.393.159-.557.269-1.13 1.011-2.005 2.283-2.974 3.599-1.896 2.656-3.846 5.658-5.85 8.835l-.742 1.186c-.26.379-.484.874-.502 1.362-.034.49.078.986.321 1.406.122.21.269.405.444.571l.487.46 1.9 1.787.922.866c.295.305.713.566 1.151.651.884.207 1.832-.233 2.276-.91l1.397-1.758 2.503-3.16 3.602-4.593.964-1.261c.217-.291.326-.447.315-.456zM915.494 163.343c-.001.031.444.066 1.243.149.799.081 1.951.237 3.35.541 2.791.593 6.588 1.93 10.129 4.446 3.544 2.516 6.023 5.638 7.467 8.052a29.196 29.196 0 0 1 1.568 2.953c.329.719.502 1.122.531 1.111.013-.005-.014-.111-.079-.31-.068-.197-.156-.493-.309-.861a22.837 22.837 0 0 0-1.467-3.033c-1.394-2.474-3.876-5.675-7.476-8.229-3.597-2.557-7.471-3.871-10.305-4.401a24 24 0 0 0-3.396-.421c-.403-.028-.718-.018-.931-.021-.213.003-.324.01-.325.024z" fill="#17282F"/><path d="M913.258 167.104c-.003.027.417.108 1.177.229.381.057.845.131 1.38.245.535.11 1.148.21 1.813.382 1.341.297 2.914.745 4.628 1.328a48.032 48.032 0 0 1 5.412 2.297 47.368 47.368 0 0 1 5.042 3c1.476 1.032 2.758 2.031 3.781 2.93.527.432.965.865 1.365 1.229.404.362.734.69 1.001.961.54.537.85.826.871.809.021-.019-.25-.342-.758-.914a16.363 16.363 0 0 0-.956-1.011c-.388-.381-.814-.832-1.334-1.28-1.005-.931-2.278-1.961-3.757-3.019a43.884 43.884 0 0 0-5.071-3.054 44.373 44.373 0 0 0-5.475-2.288c-1.735-.57-3.329-.994-4.686-1.259-.674-.156-1.296-.237-1.837-.327a16.544 16.544 0 0 0-1.397-.179c-.77-.077-1.196-.106-1.199-.079zM985.151 209.343c.021-.018-.226-.308-.693-.82a11.16 11.16 0 0 0-.884-.898c-.361-.334-.757-.734-1.247-1.117-.943-.807-2.153-1.67-3.562-2.524a31.387 31.387 0 0 0-4.848-2.302 31.508 31.508 0 0 0-5.206-1.368c-1.638-.258-3.13-.381-4.384-.377-.627-.025-1.193.025-1.69.045-.497.015-.923.062-1.27.111-.695.087-1.076.149-1.073.175.008.082 1.544-.131 4.026-.053 1.241.03 2.713.18 4.326.454 1.608.302 3.355.743 5.13 1.381a33.254 33.254 0 0 1 4.799 2.245c1.402.826 2.614 1.655 3.571 2.428 1.927 1.532 2.945 2.676 3.005 2.62zM959.732 201.205c-.007.027.337.153.965.36l2.655.882c2.236.758 5.299 1.879 8.601 3.306 3.3 1.431 6.207 2.896 8.283 4.007l2.454 1.329c.578.316.905.48.92.457.014-.023-.285-.231-.84-.588a53.029 53.029 0 0 0-2.394-1.439 84.593 84.593 0 0 0-8.262-4.124 85.124 85.124 0 0 0-8.673-3.21 54.563 54.563 0 0 0-2.699-.767c-.643-.161-1.002-.238-1.01-.213z" fill="#17282F"/><path d="M1025.58 46.21c-.06-2.335.89-4.567 1.44-6.845.54-2.277.59-4.917-.98-6.673l-.05-.006c-1.36-1.655-3.52-2.85-5.65-2.441 1.12-2.786-.02-6.101-2.21-8.172-2.19-2.071-6.54-3.933-9.57-4.306-2.33-.29-5.06.248-8.596 1.292-1.491.441-2.948.994-4.345 1.667l-6.111 5.565-.116 4.61a9.471 9.471 0 0 0-.037.93l.011-.016-1.668 8.735c1.278-1.986 4.301-9.473 5.578-11.46 3.288 1.622 6.924 1.937 10.414.77 1.84-.615 3.62-1.677 5.56-1.584 2.51.119 4.45 2.092 6.11 3.927l-.04-.125a10.491 10.491 0 0 1 1.7 3.599 32.304 32.304 0 0 0-5.6 12.688c-.14.687-.29 2.172.16 2.709.89 1.056 1.85.083 2.88-.147.76-.17 1.54.182 2.36.632 1.19-.98 2.88-2.804 4.34-4.41a5.267 5.267 0 0 0 2.05 1.304c.07-.633.15-1.266.22-1.9.19.333.38.675.68.905.31.229.76.316 1.08.102.41-.277.4-.861.39-1.35z" fill="#2D1B14"/><path d="M1017.54 29.807c-.03.01.2.361.36 1.072.16.707.17 1.792-.24 3.035-.21.62-.49 1.282-.87 1.95-.38.672-.84 1.359-1.33 2.086-.48.728-.99 1.496-1.41 2.353-.21.428-.4.878-.55 1.349-.15.465-.29.975-.18 1.505.09.429.44.79.85.916.41.138.85.124 1.24-.008.78-.285 1.3-.912 1.76-1.458l-.16-.066c-.06.687-.11 1.371.03 2.015.13.643.49 1.218 1 1.557.25.169.54.274.83.286.3.016.58-.081.81-.218.23-.144.41-.336.52-.558.11-.223.14-.475.09-.696l-.12.026a5.326 5.326 0 0 0 1.3 2.498c.1.096.15.143.16.14 0-.004-.04-.059-.13-.161-.08-.105-.21-.26-.36-.473a5.517 5.517 0 0 1-.85-2.027l-.12.025c.1.396-.14.859-.57 1.107-.21.122-.46.206-.72.188-.26-.013-.52-.11-.75-.268-.46-.316-.8-.854-.92-1.462-.13-.613-.08-1.278-.01-1.964l.02-.292-.19.225c-.47.545-.97 1.14-1.69 1.395-.35.118-.75.128-1.1.006a1.06 1.06 0 0 1-.72-.777c-.11-.46.02-.948.17-1.405.14-.46.33-.9.53-1.322.42-.844.92-1.61 1.4-2.34.48-.728.94-1.421 1.31-2.104.39-.681.66-1.356.86-1.988.4-1.268.37-2.378.18-3.092-.18-.718-.43-1.055-.43-1.055zM990.63 24.362a.382.382 0 0 0 .031.082l.11.233c.046.104.109.23.2.37.087.141.182.308.317.478.503.697 1.423 1.618 2.845 2.292 1.407.67 3.314 1.092 5.386.822 2.071-.236 4.251-1.065 6.311-2.246 1.04-.586 1.99-1.249 2.95-1.817.96-.572 1.93-1.053 2.92-1.31.98-.264 1.98-.313 2.85-.105.45.097.84.28 1.2.488.35.218.66.48.92.757.51.56.83 1.187 1.02 1.756.18.574.23 1.097.23 1.52-.05.853-.28 1.292-.25 1.3.01.001.02-.026.04-.08.03-.065.06-.144.09-.241.08-.215.16-.544.19-.975.02-.43-.02-.966-.2-1.556a4.75 4.75 0 0 0-1.02-1.816 4.387 4.387 0 0 0-.94-.792 4.28 4.28 0 0 0-1.24-.518c-.9-.222-1.93-.176-2.94.09-1.01.258-2 .745-2.97 1.318-.96.572-1.92 1.232-2.95 1.813-2.05 1.172-4.19 1.994-6.232 2.236-2.04.275-3.909-.124-5.304-.768-1.408-.648-2.327-1.538-2.844-2.213-.519-.682-.694-1.132-.72-1.118z" fill="#fff"/><path d="M996.716 20.228c-1.09.486-2.479.718-3.462.054-.29-.197-.933-.91-.933-.91-.484.023-1.079 1.296-1.015 1.767.064.472.342 1.212.342 1.212-1.583-.004-2.521-.915-3.566-2.077-.98 2.306-.579 5.117 1.006 7.064.506.622 1.223 1.194 2.033 1.13.714-.055 1.286-.582 1.777-1.095a31.56 31.56 0 0 0 4.643-6.244l-.825-.9z" fill="#2D1B14"/><path d="M104.216 185.102c-2.529-3.335-4.181-9.744-3.395-13.814.785-4.07 2.333-8.002 2.732-12.124.164-1.694-.075-3.752-1.638-4.521-1.275-.628-2.91-.014-3.814 1.061-.906 1.075-1.238 2.492-1.462 3.863-.223 1.372-.373 2.785-1 4.034-.023-1.019-1.287-1.709-2.296-1.428-1.007.282-1.677 1.259-1.879 2.259-.2.999-.572 1.688-.559 2.865.033 3.045 1.05 7.806 2.353 10.894 1.303 3.087 5.105 7.161 8.882 8.24" fill="#F2575D"/><path d="M93.072 177.664c.042.036.365-.302.967-.745a8.616 8.616 0 0 1 2.602-1.293 8.802 8.802 0 0 1 2.901-.346c.754.04 1.218.144 1.232.091.011-.033-.437-.218-1.21-.318-.771-.103-1.874-.075-3.02.264-1.145.343-2.075.92-2.653 1.425-.584.504-.847.901-.819.922zM91.043 169.201c.035.047.522-.314 1.395-.726a9.948 9.948 0 0 1 3.638-.912 9.8 9.8 0 0 1 3.715.531c.912.324 1.432.638 1.463.589.013-.02-.107-.111-.338-.263-.227-.157-.582-.344-1.04-.538-.91-.39-2.285-.72-3.818-.642-1.532.084-2.863.555-3.727 1.032-.434.238-.769.458-.978.636-.214.173-.325.276-.31.293zM96.437 160.739c.015.102 1.6-.289 3.498.151 1.904.411 3.156 1.433 3.216 1.347.025-.028-.249-.322-.792-.682a7.235 7.235 0 0 0-2.349-.98 7.302 7.302 0 0 0-2.554-.115c-.65.093-1.03.242-1.019.279z" fill="#17282F"/><path d="M149.162 205.038c.524.319 4.599 4.752 10.503 4.093 5.904-.659 9.031-3.097 11.514-2.56 2.483.537 13.217 8.936 12.81 11.968-.408 3.032-1.8 2.361-1.8 2.361s-2.242 1.915-4.043.463c0 0-.288 1.153-2.138-.505-1.85-1.659-1.23-3.787-1.84-4.944-.609-1.157-5.331-3.389-5.331-3.389s-6.771 6.312-13.985 6.173c-7.214-.139-9.966-4.671-9.966-4.671l4.276-8.989zM103.101 207.672c-.226.133-1.759 4.562-4.255 6.367-2.495 1.806-3.953 2.548-3.134 4.201.82 1.653 9.436 10.864 9.919 12.91.483 2.046-1.175 5.585 2.089 5.944 0 0 .95 2.207 2.653 1.412 0 0 .99 1.282 1.839.509s2.621-2.001 1.729-5.056c-.893-3.055-8.356-10.656-7.895-12.343.461-1.688 6.182-6.213 6.182-6.213l-9.127-7.731z" fill="#F2575D"/><path d="m109.871 217.377 2.357-1.974s-1.09.862-2.357 1.974zm-8.609-6.163a26.135 26.135 0 0 0 1.343-2.558l-1.344 2.557.001.001z" fill="#9FA1A1"/><path d="M109.871 217.377c1.267-1.112 2.357-1.974 2.357-1.974l-9.623-6.747a26.135 26.135 0 0 1-1.343 2.558l8.609 6.163z" fill="#CC4341"/><path d="m145.513 210.088-1.673 10.51.902 1.021s8.092 1.377 10.552 3.272c2.46 1.896 11.095 10.236 7.605 13.577 0 0-3.821 4.513-6.385 1.419 0 0-2.791.743-3.008-1.774-.216-2.517.825-3.97.825-3.97l-3.42-4.369s-20.891-1.096-21.944-3.427c-1.052-2.331-1.008-11.745-1.008-11.745l-1.114-9.524s4.029-2.117 10.526-1.241c6.497.877 8.142 6.251 8.142 6.251zM107.945 201.219c-.332.195-6.392 7.038-10.961 7.932-4.57.894-17.274-3.366-20.034-2.264-2.76 1.102-5.57 4.355-7.218 6.734-1.109 1.602-1.668 3.062-4.066 2.494 0 0-1.974 2.795-4.1.225 0 0-2.164-1.024-1.404-3.06.76-2.037 8.524-9.755 12.831-11.616 4.308-1.861 4.473.813 7.257-.137 2.785-.951 5.952-8.811 9.722-10.708 0 0 4.157-.424 9.246 1.115 5.088 1.538 8.727 9.285 8.727 9.285z" fill="#F2575D"/><path d="M149.945 217.798a12.485 12.485 0 0 1-1.128-.491c.632.335 1.032.462 1.128.491zm4.757-9.266c-1.377-.533-2.696-1.28-3.969-2.2.958.731 2.309 1.61 3.969 2.2z" fill="#9FA1A1"/><path d="M149.967 217.804c3.607-2.768 4.729-9.24 4.735-9.272-1.66-.59-3.011-1.469-3.969-2.2l-4.845 8.897c1.204 1.059 2.215 1.7 2.929 2.078a12.208 12.208 0 0 0 1.15.497z" fill="#CC4341"/><path d="M153.15 198.16c.016.541.651 14.232-8.664 18.382-8.252 3.677-25.9.631-25.9.631s-5.806-.664-9.73-3.178c-6.135-3.93-7.853-7.62-7.853-7.62l-11.705-15.046s6.35-7.185 13.787-7.531c7.436-.346 7.917 5.975 13.547 7.011 5.631 1.036 11.07 3.64 13.846.19l2.778-3.45 19.894 10.611z" fill="#F2575D"/><path d="M147.664 222.206s-6.316 3.786-6.094 6.854l-2.731-.291s.926-4.802 5.904-7.15l2.921.587zM161.618 208.835s-2.416 2.714-3.219 6.011c-.667 2.74-.605 3.575-.605 3.575-.927.229-1.911.313-2.942.277 0 0-.141-5.114 3.274-9.506l3.492-.357zM124.901 192.622s-4.539 12.311 1.799 25.341l-2.751-.201s-7.939-13.766-1.393-25.574l2.345.434z" fill="#DADBD8"/><path d="M97.291 209.065c.007.02.19-.014.513-.11.322-.095.78-.264 1.324-.519 1.091-.502 2.495-1.413 3.827-2.647 1.334-1.234 2.371-2.499 3.099-3.422.725-.927 1.143-1.521 1.108-1.547-.037-.029-.521.517-1.292 1.405-.772.883-1.831 2.114-3.144 3.329-1.311 1.216-2.662 2.135-3.706 2.68-1.041.553-1.747.78-1.728.831z" fill="#17282F"/><path d="M101.367 207.012c-.019.012.124.248.4.666.133.212.31.463.534.74.219.281.463.607.77.936.583.687 1.361 1.431 2.264 2.214.921.762 1.987 1.54 3.174 2.258a27.732 27.732 0 0 0 3.5 1.747c1.122.442 2.153.789 3.04 1.006.439.126.846.201 1.2.275.355.078.663.128.917.157.506.068.786.095.79.073.01-.06-1.107-.22-2.842-.725-.871-.241-1.883-.609-2.985-1.06a30.495 30.495 0 0 1-3.446-1.747 29.049 29.049 0 0 1-3.149-2.211c-.902-.76-1.688-1.478-2.286-2.138-1.217-1.302-1.827-2.227-1.881-2.191zM137.771 204.319c.005.031.285-.034.787.003.498.032 1.224.209 1.973.686 1.547.933 2.702 3.262 3.26 5.866.534 2.641.464 5.109.337 6.868-.065.882-.157 1.593-.215 2.086-.066.491-.096.766-.073.77.022.004.095-.262.201-.75a23.93 23.93 0 0 0 .322-2.086c.187-1.767.298-4.26-.246-6.952-.288-1.341-.737-2.582-1.311-3.634s-1.34-1.892-2.149-2.36c-.803-.477-1.575-.626-2.094-.619-.26 0-.461.029-.594.057-.133.033-.2.054-.198.065zM128.245 220.865c.047-.004.017-.736-.042-1.915-.055-1.179-.142-2.808-.052-4.599.089-1.791.402-3.39.767-4.508.357-1.12.696-1.775.643-1.801-.021-.011-.121.145-.285.437a9.01 9.01 0 0 0-.581 1.292c-.218.559-.405 1.247-.569 2.02a19.492 19.492 0 0 0-.308 2.544c-.09 1.815.035 3.454.151 4.632.119 1.178.232 1.902.276 1.898zM145.818 216.119c.013.018.202-.095.533-.318.334-.216.789-.572 1.318-1.045a15.236 15.236 0 0 0 1.707-1.814 17.093 17.093 0 0 0 1.657-2.544c.492-.958.86-1.916 1.129-2.805a14.66 14.66 0 0 0 .493-2.409c.078-.695.104-1.261.085-1.651-.012-.39-.029-.605-.052-.605-.062 0-.052.862-.266 2.226a16.883 16.883 0 0 1-.554 2.355c-.28.868-.65 1.804-1.132 2.743a18.612 18.612 0 0 1-1.604 2.511 17.577 17.577 0 0 1-1.626 1.829c-1.004.976-1.725 1.479-1.688 1.527zM94.72 186.788c.037.043.675-.481 1.863-1.077 1.18-.587 2.91-1.305 4.92-1.55 2.02-.202 3.878.023 5.15.389 1.28.363 1.983.816 2.014.763.01-.016-.153-.147-.478-.336a7.749 7.749 0 0 0-1.465-.645c-1.288-.431-3.185-.7-5.259-.491-2.08.254-3.822 1.022-4.995 1.67a9.612 9.612 0 0 0-1.328.877c-.292.235-.434.385-.422.4zM81.063 201.653c-.08-.024-.418 1.072-.259 2.453.148 1.381.72 2.382.792 2.342.092-.038-.321-1.056-.46-2.377-.155-1.32.025-2.4-.073-2.418zM77.345 201.79c-.078-.031-.506 1.042-.47 2.439.027 1.397.503 2.451.58 2.417.095-.029-.223-1.087-.246-2.424-.037-1.337.233-2.407.136-2.432zM101.929 223.055c.064.075.842-.635 2.075-.868 1.229-.258 2.232.096 2.26.003.016-.036-.213-.18-.634-.289a3.919 3.919 0 0 0-1.693-.03 3.846 3.846 0 0 0-1.542.676c-.342.261-.495.48-.466.508zM96.352 215.712c-.026.031.425.454 1.223 1.058a25.57 25.57 0 0 0 3.309 2.101 25.887 25.887 0 0 0 3.603 1.583c.954.33 1.563.472 1.576.433.016-.046-.566-.264-1.49-.645a40.405 40.405 0 0 1-3.529-1.654 39.956 39.956 0 0 1-3.33-2.002c-.827-.552-1.33-.912-1.362-.874zM151.839 230.844c.085.037.728-1.311 1.997-2.649 1.246-1.349 2.466-2.252 2.402-2.332-.042-.065-1.37.732-2.651 2.117-1.304 1.377-1.838 2.843-1.748 2.864zM149.878 229.678c.106.013.25-1.523.989-3.246.729-1.729 1.743-2.916 1.658-2.98-.051-.056-1.209 1.068-1.966 2.856-.763 1.785-.758 3.376-.681 3.37zM171.354 206.619c-.055-.053-1.11 1.063-1.847 2.769-.737 1.707-.818 3.218-.741 3.221.105.017.332-1.443 1.047-3.096.713-1.654 1.628-2.834 1.541-2.894zM167.116 207.536c-.073-.036-.596 1.221-.468 2.852.113 1.632.815 2.804.882 2.758.095-.038-.444-1.222-.55-2.781-.124-1.558.236-2.804.136-2.829zM87.303 193.579c-.009.007.056.09.188.243.133.154.327.38.615.638.558.529 1.452 1.228 2.699 1.856 1.243.631 2.84 1.165 4.666 1.471a22.81 22.81 0 0 0 6.005.162c2.125-.229 4.125-.809 5.739-1.717 1.626-.895 2.822-2.103 3.586-3.247.767-1.151 1.107-2.229 1.245-2.975.062-.376.096-.67.095-.87.005-.2.003-.305-.009-.305-.034-.002-.046.418-.213 1.149a8.551 8.551 0 0 1-1.314 2.875c-.77 1.1-1.952 2.258-3.541 3.114-1.581.871-3.535 1.429-5.625 1.655-2.092.223-4.117.14-5.917-.134-1.8-.286-3.377-.788-4.612-1.382-2.491-1.195-3.55-2.605-3.607-2.533z" fill="#17282F"/><path d="M104.611 203.572c-.016.016.24.269.718.713.236.225.533.492.899.778.364.289.764.636 1.249.966.475.344.999.715 1.591 1.072.576.381 1.23.728 1.911 1.104a32.739 32.739 0 0 0 4.669 1.975 33.05 33.05 0 0 0 4.95 1.169c.778.1 1.514.208 2.21.243.694.064 1.343.075 1.935.08.592.023 1.127-.019 1.597-.035.469-.013.872-.052 1.201-.093.657-.073 1.018-.123 1.015-.146-.003-.022-.368-.013-1.026.021-.328.021-.73.042-1.197.037-.467 0-.998.025-1.585-.013a24.174 24.174 0 0 1-1.916-.119c-.689-.045-1.417-.162-2.185-.269a35.14 35.14 0 0 1-4.893-1.181 34.922 34.922 0 0 1-4.631-1.931c-.677-.366-1.33-.7-1.907-1.069-.594-.342-1.121-.7-1.601-1.029-.49-.316-.898-.648-1.27-.922-.375-.27-.682-.523-.93-.733-.502-.413-.789-.634-.804-.618z" fill="#17282F"/><path d="M126.248 180.282c3.355 12.921 17.66 21.063 31.952 18.185 14.292-2.878 23.158-15.686 19.803-28.607-3.356-12.921-17.661-21.063-31.952-18.185-14.292 2.878-23.158 15.686-19.803 28.607z" fill="#DADBD8"/><path d="M126.248 180.282s-.016-.137-.063-.4l-.218-1.165-.165-.856-.084-1.049-.1-1.223c-.016-.436.018-.902.026-1.395-.023-.99.171-2.073.331-3.262.27-1.169.544-2.45 1.079-3.752.995-2.62 2.659-5.44 5.16-7.994l.463-.49c.164-.155.34-.3.512-.452l1.046-.913c.339-.325.753-.569 1.135-.857l1.184-.844c1.681-1.009 3.485-1.997 5.504-2.673.502-.172 1.004-.362 1.519-.523l1.588-.395.803-.2c.27-.062.548-.089.823-.136l1.67-.255c2.255-.211 4.609-.299 6.982.049 1.198.094 2.37.415 3.572.651l1.767.533c.599.16 1.173.398 1.749.637l.871.352.436.177.42.215 1.689.865c1.073.672 2.191 1.31 3.184 2.133 4.13 3.086 7.299 7.648 8.709 12.836 1.289 5.205.719 10.726-1.673 15.235-1.165 2.254-2.631 4.328-4.401 6.054-.415.457-.914.827-1.363 1.241l-.688.604-.74.534c-.499.346-.969.726-1.483 1.038l-1.55.903c-2.103 1.1-4.272 1.998-6.485 2.501-2.189.6-4.401.791-6.526.897-4.27.062-8.226-.81-11.561-2.177-3.347-1.368-6.073-3.236-8.154-5.165-2.086-1.931-3.581-3.898-4.545-5.631-.243-.433-.504-.827-.693-1.223l-.506-1.124-.435-.963-.273-.83-.377-1.126c-.086-.254-.139-.382-.139-.382s.031.134.107.39l.345 1.138.259.838.421.973.495 1.134c.185.401.443.798.684 1.236.951 1.752 2.44 3.743 4.528 5.701 2.084 1.955 4.822 3.851 8.191 5.245a29.662 29.662 0 0 0 11.658 2.234c2.146-.101 4.38-.289 6.594-.89 2.237-.504 4.432-1.407 6.562-2.516l1.569-.912c.521-.314.998-.698 1.503-1.048l.75-.54.697-.609c.455-.419.961-.793 1.381-1.255 1.796-1.747 3.284-3.846 4.467-6.13 2.429-4.569 3.013-10.175 1.703-15.455-1.428-5.261-4.646-9.883-8.83-13.004-1.005-.832-2.136-1.477-3.223-2.156l-1.71-.873-.425-.216-.441-.179-.881-.356c-.584-.24-1.165-.48-1.771-.641l-1.787-.536c-1.215-.238-2.401-.559-3.611-.653-2.4-.347-4.779-.255-7.057-.036l-1.686.261c-.278.048-.559.076-.831.14l-.811.204-1.603.403c-.52.163-1.026.357-1.533.532-2.037.689-3.856 1.692-5.55 2.717l-1.193.855c-.385.293-.801.541-1.142.87l-1.054.927c-.172.153-.349.301-.515.457l-.464.496c-2.515 2.589-4.178 5.443-5.164 8.09-.531 1.315-.798 2.608-1.061 3.787-.153 1.198-.337 2.29-.304 3.286-.003.496-.032.964-.011 1.403l.115 1.227.101 1.051.181.857.25 1.161c.059.261.097.392.097.392z" fill="#17282F"/><path d="m134.114 189.291 6.502 5.118s9.263 3 9.496 2.628c.233-.372 3.966-5.968 6.566-5.88 4.57.154 4.75.518 8.048.041 5.583-.809 6.881-6.826 6.764-7.812-.116-.987-4.664-2.187-6.612-2.931-1.949-.744-2.754-.978-5.562-6.336-2.594-4.95-7.838-5.092-8.345-5.036 0 0-5.212-14.596-7.593-12.641-2.382 1.956-2.46 14.821-2.46 14.821l-2.65 2.269s-.631 1.389-1.972 2.343c-1.342.955-3.159 1.324-2.379 1.816.781.493 2.356 1.295 2.356 1.295l-2.343.443 1.53 2.317-2.058-.153 1.417 2.61-2.79 3.256 2.085 1.832z" fill="#BA6258"/><path d="M155.829 200.692c-8.096.562-16.315-1.882-22.549-6.988-1.761-1.442-3.376-3.031-4.763-4.817-.801-1.033-.853-2.626.275-3.487 1.029-.784 2.734-.835 3.591.267a27.058 27.058 0 0 0 2.625 2.926c.162.155.325.309.491.46.071.065.143.128.214.194.262.244-.325-.273-.05-.043 1.384 1.157 2.836 2.212 4.408 3.118.364.211.732.413 1.105.607.086.044.173.088.258.133.26.135-.143-.068-.152-.077.144.145.511.244.702.332a29.96 29.96 0 0 0 5.701 1.942c.101.023.794.163.427.096-.352-.065.241.043.336.059a28.571 28.571 0 0 0 6.016.443l.39-.015c.375-.015-.642.041 0-.004 1.323-.092 2.769.524 2.988 1.954.182 1.192-.592 2.802-2.013 2.9z" fill="#17282F"/><path d="M162.404 159.289c.995 1.133 2.637 4.591 1.593 9.168-1.044 4.578-4.805 9.122-4.805 9.122l-7.219-5.596 10.431-12.694z" fill="#BA6258"/><path d="M169.064 181.742s4.18.425 2.845 3.148l-1.246 1.981s-2.241-1.587-2.357-3.508c-.102-1.695.758-1.621.758-1.621zM150.971 169.083c-.007.065 1.014.055 2.538.56.76.248 1.634.638 2.524 1.19.879.565 1.777 1.305 2.46 2.28.687.977 1.172 2.022 1.683 2.942.511.923 1.029 1.724 1.548 2.345.518.621 1.044 1.038 1.446 1.258.402.222.655.275.659.26.03-.044-.963-.387-1.92-1.659-.48-.62-.973-1.424-1.462-2.342-.492-.917-.97-1.975-1.68-2.987-.714-1.019-1.655-1.781-2.569-2.347a11.149 11.149 0 0 0-2.616-1.158c-.787-.227-1.446-.326-1.902-.351-.456-.03-.709-.008-.709.009z" fill="#17282F"/><path d="M143.97 159.924a17.736 17.736 0 0 1 3.094 9.652 3.992 3.992 0 0 0-1.407-1.844l-.508 2.63a2.848 2.848 0 0 0-1.202-1.863 6.036 6.036 0 0 0-1.072 1.932 18.343 18.343 0 0 1 1.221-10.314" fill="#6F3530"/><path d="M155.272 177.306c.679.194.976 1.361.672 1.981-.304.621-1.188.883-1.809.553-.622-.33-.878-1.168-.566-1.785.313-.617 1.127-.935 1.801-.724M152.421 175.525c.194.411.844.531 1.504.592.663.036 1.325.012 1.58-.365.113-.191.054-.465-.204-.725-.254-.258-.711-.48-1.25-.52-.538-.039-1.026.114-1.316.332-.295.218-.396.481-.314.686zM157.515 184.491c-.011 0-.019.065-.022.189.001.123-.02.308.022.542.046.469.23 1.156.702 1.878.46.726 1.198 1.467 2.133 2.116.467.328.977.638 1.522.935a6.812 6.812 0 0 0 1.837.648c1.307.267 2.636.23 3.734-.209 1.104-.479 1.748-1.356 2.199-2.061.449-.724.723-1.35.903-1.785.176-.436.253-.684.233-.692-.061-.028-.426.958-1.335 2.355-.464.675-1.111 1.491-2.118 1.908-1.018.393-2.295.425-3.546.168-1.268-.229-2.319-.898-3.25-1.508-.922-.622-1.649-1.319-2.115-1.999a4.59 4.59 0 0 1-.771-1.774c-.091-.45-.094-.712-.128-.711z" fill="#17282F"/><path d="M132.477 163.712c2.529-5.393 10.668-10.411 15.162-9.454 2.272.353 2.291 2.323 1.662 3.495-.629 1.172-1.944 1.852-3.259 2.197-1.313.345-2.69.428-4 .784-2.199.597-4.159 1.985-5.416 3.833-.476.7-.865 1.474-1.507 2.034-.641.561-1.647.85-2.373.397-1.041-.65-.782-2.191-.269-3.286zM131.005 169.893c.643.292.981 1.097.732 1.742-.249.646-1.049 1.037-1.731.848-.683-.19-1.149-.932-1.008-1.608.14-.676.865-1.185 1.57-1.103" fill="#fff"/></svg>