<svg width="552" height="582" fill="none" xmlns="http://www.w3.org/2000/svg"><g clip-path="url(#a)"><path d="M281.056 423.187c10.243 10.242 26.852 10.242 37.096 0 10.244-10.244 10.244-26.854 0-37.098-10.244-10.242-26.853-10.242-37.096 0-10.244 10.244-10.244 26.854 0 37.098z" fill="#E7E8E5"/><path d="M309.147 389.076c.092 1.225-.287 2.489-.97 3.561-.681 1.083-1.706 1.947-2.852 2.518-1.173.561-2.605.76-3.852.328a5.414 5.414 0 0 1-2.934-2.255c.99.7 2.062 1.204 3.146 1.388.543.088 1.086.1 1.61.001.532-.061 1.038-.266 1.529-.49.244-.123.495-.256.733-.396.228-.158.468-.3.682-.478.46-.318.838-.729 1.218-1.144a8.978 8.978 0 0 0 1.69-3.033zM299.717 390.584c-.138-.844.087-1.743.546-2.507a4.701 4.701 0 0 1 1.974-1.794c.828-.41 1.866-.522 2.736-.199.872.303 1.576.917 1.966 1.675-.731-.424-1.464-.716-2.178-.806-.714-.101-1.385.064-2.022.358-1.319.636-2.356 1.724-3.022 3.273zM299.599 416.967c.337.762.334 1.669.068 2.498a4.361 4.361 0 0 1-1.516 2.123c-.715.561-1.695.84-2.584.697a3.527 3.527 0 0 1-2.199-1.206c.787.236 1.543.358 2.241.314.702-.046 1.307-.309 1.847-.714a5.365 5.365 0 0 0 1.392-1.566 6.53 6.53 0 0 0 .751-2.146zM294.169 419.943c-.306-.514-.34-1.158-.18-1.758a2.954 2.954 0 0 1 1.055-1.534c.515-.404 1.241-.603 1.876-.475.632.125 1.171.468 1.489.968-.574-.095-1.085-.133-1.532-.067-.445.062-.8.231-1.138.484-.714.546-1.228 1.268-1.57 2.382zM290.148 393.369c.46.408.727 1.022.748 1.684a2.566 2.566 0 0 1-.743 1.854c-.501.537-1.285.741-1.92.658a2.743 2.743 0 0 1-1.649-.789c.604-.007 1.149-.011 1.629-.112.482-.095.851-.272 1.127-.563.299-.301.533-.689.664-1.138.139-.459.169-.99.144-1.594zM286.899 395.917c-.384-.246-.611-.677-.652-1.162a1.79 1.79 0 0 1 .517-1.375c.377-.405.977-.548 1.435-.463.466.082.862.312 1.125.68-.44.076-.807.123-1.105.22-.304.095-.488.211-.64.37a2.01 2.01 0 0 0-.44.661c-.12.279-.187.625-.24 1.069zM308.375 421.017c-.284.546-.812.954-1.451 1.136a2.559 2.559 0 0 1-1.979-.266c-.644-.356-1.033-1.067-1.106-1.702a2.738 2.738 0 0 1 .361-1.793c.155.585.291 1.115.507 1.555.209.442.47.757.82.953.368.217.8.349 1.268.365.477.024 1-.076 1.58-.248zM305.111 418.488c.145-.431.506-.757.966-.916a1.79 1.79 0 0 1 1.46.167c.486.266.771.814.8 1.278.035.471-.093.911-.385 1.258-.181-.41-.316-.752-.484-1.02-.165-.271-.323-.422-.512-.53a2.044 2.044 0 0 0-.751-.264c-.298-.049-.653-.03-1.094.027zM317.36 402.561c.073.61-.135 1.246-.56 1.755a2.557 2.557 0 0 1-1.787.892c-.73.069-1.452-.3-1.872-.784a2.735 2.735 0 0 1-.708-1.685c.456.397.866.757 1.292 1 .423.248.816.361 1.216.328a2.676 2.676 0 0 0 1.252-.412c.408-.248.784-.627 1.167-1.094zM313.239 402.307c-.122-.44-.007-.914.284-1.302.3-.39.781-.652 1.301-.684.551-.053 1.095.24 1.38.607.295.371.436.805.388 1.257-.379-.236-.684-.445-.972-.572-.288-.13-.504-.166-.723-.149a2.04 2.04 0 0 0-.769.203c-.275.128-.556.344-.889.64zM282.617 408.501c.072.611-.137 1.247-.56 1.755a2.56 2.56 0 0 1-1.786.892c-.732.069-1.455-.299-1.872-.784a2.73 2.73 0 0 1-.71-1.685c.456.398.867.757 1.292 1 .423.248.816.361 1.215.328a2.677 2.677 0 0 0 1.255-.412c.406-.248.782-.626 1.166-1.094zM278.495 408.247c-.122-.439-.007-.912.285-1.302.299-.39.781-.652 1.3-.684.551-.052 1.096.24 1.379.607.296.372.438.807.389 1.257-.379-.236-.683-.445-.972-.572-.288-.13-.504-.166-.723-.149a2.05 2.05 0 0 0-.768.203c-.274.128-.557.344-.89.64z" fill="#BEBFBD"/><path d="M60.778 380.717a57.95 57.95 0 0 1-4.41-.166c-6.054-.416-12.012-1.951-17.448-4.351a47.7 47.7 0 0 1-7.702-4.311 50.28 50.28 0 0 1-6.729-5.414c-8.258-7.934-13.527-17.85-16.817-28.002-3.285-10.201-4.652-20.772-4.837-31.286-.039-2.819.356-5.503.829-8.123.457-2.627 1.076-5.18 1.67-7.723 1.206-5.08 2.5-10.085 3.568-15.121a196.062 196.062 0 0 0 2.709-15.123c.696-5.052 1.08-10.128 1.307-15.173.355-10.108-.3-20.148-1.92-29.937-.379-2.448-.858-4.88-1.335-7.298-.527-2.468-1.052-4.648-1.62-7.521-1.109-5.46-1.98-11.035-2.485-16.716-1.05-11.351-.715-23.165 1.605-34.963 2.304-11.773 6.63-23.493 12.967-34.136 6.33-10.645 21.973-26.268 23.672-28.31C45.5 85 64.5 69.282 90.614 60.18a129.452 129.452 0 0 1 8.65-2.657l7.119-1.916c8.851-2.515 17.336-5.48 25.482-9.364 8.215-3.768 16.114-8.512 24.619-13.937 8.473-5.4 17.633-11.554 27.785-16.962 5.059-2.697 10.308-5.224 15.69-7.402a172.946 172.946 0 0 1 8.136-3.062l4.113-1.362c1.56-.47 3.127-.92 4.721-1.314C222.493.821 228.32.004 234.26.004c.857 0 1.717.017 2.579.052 6.821.23 13.757 1.599 20.308 4.232 6.537 2.644 12.646 6.613 17.649 11.66 5.028 5.016 8.904 11.09 11.303 17.501 2.445 6.406 3.442 13.082 3.372 19.46-.042 6.391-1.138 12.512-2.88 18.227-3.602 11.428-9.372 21.285-16.067 30.1a105.822 105.822 0 0 1-5.72 6.959l-.168.12-6.387-1.56-1.672-7.315-1.673 7.315-7.313 1.79 7.345 1.358 1.021 4.82a250.565 250.565 0 0 0-8.504 6.833c-3.044-1.12-7.085-2.407-11.91-3.544a106.559 106.559 0 0 0 3.916-3.151c7.532-6.296 13.94-13.721 18.858-21.949 4.895-8.261 8.47-17.256 9.504-26.024.522-4.367.466-8.636-.242-12.567-.735-3.928-2.094-7.504-4.016-10.481-3.81-6.004-9.592-9.621-16.1-10.919-2.002-.42-4.08-.613-6.2-.613a39.21 39.21 0 0 0-4.01.213c-3.51.408-7.09 1.286-10.64 2.61-.886.332-1.769.706-2.65 1.085l-3.146 1.367c-2.08.941-4.14 1.909-6.158 2.946a142.817 142.817 0 0 0-11.874 6.787c-7.78 4.921-15.417 10.883-23.922 17.27-8.456 6.385-17.926 12.962-28.166 18.554-10.276 5.517-21.131 10.1-32.096 13.483-1.367.46-2.743.814-4.117 1.218l-3.694 1.054a140.063 140.063 0 0 0-6.152 1.962 133.84 133.84 0 0 0-12.095 4.904c-15.782 7.356-29.558 17.678-39.384 31.098-4.967 6.677-9.157 14.058-12.494 22.17a106.683 106.683 0 0 0-4.386 12.664c-1.28 4.379-2.264 8.918-3.111 13.57a157.165 157.165 0 0 0-1.816 14.28c-.203 2.282-.341 5.258-.53 7.948-.23 2.746-.467 5.478-.794 8.2a231.956 231.956 0 0 1-6.06 31.885c-2.652 10.356-5.982 20.379-9.338 30.239-1.69 4.929-3.38 9.825-4.886 14.721-1.469 4.877-2.837 9.859-2.909 14.605.073 10.134 1.799 20.32 5.685 29.542 3.852 9.176 9.952 17.43 17.841 22.549a40.006 40.006 0 0 0 6.085 3.287 35.645 35.645 0 0 0 6.45 1.974c2.292.49 4.607.716 6.909.716 2.07 0 4.131-.182 6.158-.521 8.583-1.492 16.515-5.745 23.523-11.347.42-.349.91-.717 1.273-1.046l.995-.94c.641-.675 1.284-1.315 1.895-2.047a37.01 37.01 0 0 0 3.477-4.649c2.165-3.343 4.126-7.128 5.8-11.188 3.425-8.112 6.084-17.15 8.49-26.443 4.76-18.675 8.548-38.443 13.057-58.519a605.122 605.122 0 0 1 3.584-15.145c1.222-5.083 2.595-10.176 4.035-15.307.392-1.376.791-2.753 1.199-4.133 9.545-7.796 21.348-16.091 35.706-22.5a81.63 81.63 0 0 0-1.204 4.379c-1.084 4.385-1.925 9.121-2.66 13.944-.798 4.82-1.409 9.768-2.093 14.757l-1.973 15.123c-.658 5.086-1.347 10.205-2.13 15.341-1.689 11.025-3.624 22.167-6.21 33.349-14.279 15.178-26.412 32.354-35.331 51.146a171.869 171.869 0 0 0-11.515 31.764l-.209.124-2.24 1.196-.083.042a7.532 7.532 0 0 0-6.968-2.777l-7.723 1.107a7.525 7.525 0 0 0-6.352 8.728 64.077 64.077 0 0 1-11.528 1.07zm196.658-267.121.783-3.693 5.665-1.051a315.312 315.312 0 0 0-6.448 4.744zM224.708 581.6a92.35 92.35 0 0 1-2.688-.04c-8.02-.163-15.623-1.45-22.757-3.127-3.631-.786-7.004-1.841-10.438-2.849-1.688-.528-3.313-1.113-4.969-1.668-1.648-.563-3.284-1.102-4.985-1.814l-5.044-2.026-2.508-1.033-2.491-1.214c-3.319-1.638-6.619-3.201-9.816-5.261-1.609-.976-3.211-1.947-4.789-2.961l-4.611-3.405-2.279-1.721c-.75-.586-1.453-1.273-2.177-1.908l-4.272-3.897c-1.361-1.373-2.627-2.871-3.923-4.307l-1.913-2.177a30.315 30.315 0 0 1-1.048-1.38 86.718 86.718 0 0 0 17.788-12.696l.051.037c10.836 8.076 22.508 14.806 34.601 20.411-11.253-6.901-21.835-14.776-31.321-23.692a87.6 87.6 0 0 0 5.494-6.196c.395.389.752.804 1.171 1.176l1.34 1.08c.9.713 1.723 1.471 2.641 2.159l2.868 1.981c.483.324.915.685 1.431.984l1.56.885 3.068 1.807 3.327 1.589c4.382 2.166 9.249 3.899 14.233 5.498 1.193.437 2.545.788 3.873 1.151 1.324.357 2.658.757 3.968 1.079 2.6.571 5.219 1.263 7.719 1.662 4.691.858 9.187 1.376 13.38 1.376.324 0 .647-.003.967-.01 4.494-.079 8.702-.633 13.048-1.75 8.629-2.194 18.246-6.888 28.693-12.476 5.207-2.755 10.536-5.694 15.995-8.669 5.42-2.982 11.052-5.866 16.669-8.769 22.624-11.569 46.415-21.631 70.545-29.908l4.52-1.577 4.547-1.491c3.032-.98 6.051-2.013 9.093-2.948l17.808-5.419c5.663-1.746 11.271-3.608 16.858-5.515l8.31-3c2.74-1.048 5.495-2.086 8.223-3.168 5.409-2.236 10.853-4.439 16.105-6.948l3.974-1.836 3.906-1.934c2.638-1.256 5.136-2.682 7.715-4.032 10.092-5.628 19.812-11.88 28.48-19.221 4.38-3.637 8.359-7.627 12.14-11.784 3.817-4.141 7.095-8.667 10.023-13.387 5.909-9.43 9.594-20.057 10.91-31.074a76.512 76.512 0 0 0-.082-16.7c-.192-1.383-.327-2.812-.562-4.163l-.83-3.949c-.762-2.548-1.58-5.076-2.782-7.387-2.288-4.679-5.669-8.685-9.97-11.776-4.291-3.104-9.435-5.324-14.931-6.843-5.499-1.548-11.347-2.354-17.272-2.934-5.269-.434-10.633-.623-16.053-.623-.691 0-1.38.004-2.072.009-12.247.067-24.719.832-37.591 1.094-1.74.026-3.489.042-5.249.042-4.758 0-9.586-.116-14.502-.437-6.732-.441-13.657-1.251-20.794-2.961-14.544-3.564-27.076-10.083-38.428-17.311a228.812 228.812 0 0 1-5.31-3.543 105.15 105.15 0 0 0 3.027-13.384h.001c1.596-10.022 1.61-19.185 1.032-26.55l7.548 6.617c2.227 1.96 4.471 3.824 6.682 5.712l3.309 2.779 3.324 2.677c4.461 3.472 8.865 6.831 13.441 9.696 4.518 2.953 9.227 5.469 13.818 7.443 4.764 2.026 10.141 3.598 15.764 4.88 5.628 1.285 11.505 2.325 17.512 3.202 12.045 1.763 24.536 2.888 37.21 4.359l9.544 1.183c3.204.466 6.398.95 9.618 1.54 6.436 1.097 12.897 2.617 19.308 4.772 6.382 2.178 12.76 5.121 18.405 9.39 5.652 4.228 10.356 9.832 13.488 15.988 1.625 3.072 2.728 6.282 3.711 9.494l1.194 4.841c.338 1.597.548 3.153.824 4.735.91 6.317 1.343 12.736 1.086 19.169-.362 6.417-1.222 12.841-2.82 19.113-.434 1.555-.759 3.154-1.26 4.691l-1.492 4.629c-1.155 3.023-2.306 6.07-3.688 9.006-5.408 11.821-12.794 22.732-21.442 32.457-4.301 4.884-8.869 9.551-13.705 13.899-4.781 4.432-9.868 8.482-15.053 12.413-2.631 1.892-5.227 3.877-7.931 5.665l-4.029 2.743-4.102 2.62a269.745 269.745 0 0 1-16.85 9.733c-2.868 1.503-5.762 2.954-8.655 4.419-2.92 1.387-5.851 2.772-8.8 4.099-2.964 1.28-5.909 2.64-8.901 3.85-3.003 1.183-5.984 2.451-9.014 3.559l-17.37 6.487c-2.819 1.049-5.591 2.188-8.388 3.277l-4.186 1.649-4.144 1.728c-22.186 9.095-43.314 19.69-64.084 31.325-10.418 5.885-20.738 11.967-31.946 18.193a222.74 222.74 0 0 1-17.978 9.068c-6.477 2.827-13.572 5.51-21.318 7.276a94.31 94.31 0 0 1-21.275 2.453zm-69.283-177.611a87.694 87.694 0 0 0-6.128-5.773c1.191-2.257 2.408-4.499 3.61-6.743l4.316-7.996 17.478-31.732c5.656-10.406 9.455-21.738 12.196-33.289.802-3.327 1.52-6.673 2.176-10.037l3.443 4.06 2.469-1.606a603.463 603.463 0 0 1-2.908 8.995c-3.789 11.484-8.073 22.88-13.832 33.688-5.706 10.569-11.017 21.337-15.729 32.333l-1.759 4.124-1.66 4.163c-1.138 2.759-2.13 5.575-3.146 8.376-.178.479-.352.957-.526 1.437zm47.395-117.862-8.555-10.09c0-.004 0-.006.002-.009l8.556 10.091a.011.011 0 0 0-.003.008zM409.216 236.121c-1.352 0-2.697-.057-4.069-.069-2.075-.053-4.054-.355-6.111-.584-1.033-.103-2.004-.311-2.979-.505l-2.961-.599-1.481-.32-1.423-.412-2.849-.856c-1.936-.513-3.719-1.241-5.546-1.956-6.426-2.544-12.38-5.817-17.857-9.592 26.375-26.953 48.303-58.625 64.573-87.833 20.37-36.61 31.791-69.316 31.784-83.96-.001-3.208-.552-5.55-1.676-6.875-1.856-2.19-6.729-3.283-13.934-3.283-.587 0-1.191.007-1.81.022.466-.252.932-.508 1.404-.771l7.908-4.439 4.227-2.382 4.491-2.422c3.018-1.658 6.39-3.241 9.86-4.821 3.588-1.51 7.369-3.016 11.566-4.2 4.259-1.165 8.732-2.173 13.678-2.48a64.317 64.317 0 0 1 4.298-.147c3.56 0 7.2.312 10.774 1.062l1.89.357 1.844.496c1.22.345 2.462.672 3.663 1.068 2.307.887 4.72 1.74 6.815 2.88l3.214 1.664 2.947 1.83c2.029 1.215 3.728 2.577 5.503 3.92.473.353.833.626 1.365 1.054.693.58 1.353 1.177 2.009 1.785 1.319 1.152 2.588 2.624 3.778 4.126.288.361.584.74.862 1.126l.815 1.238c.525.833 1.02 1.672 1.512 2.521.875 1.735 1.66 3.567 2.248 5.36.264.903.516 1.8.737 2.701.115.459.23.918.312 1.352l.202 1.303c.125.856.22 1.715.313 2.588.095.86.071 1.61.095 2.432.006.788.005 1.603-.027 2.379l-.187 2.184c-.082.717-.138 1.485-.26 2.146l-.354 1.975c-1.074 5.207-2.73 9.42-4.484 13.25-1.768 3.825-3.71 7.2-5.74 10.377-.995 1.609-2.035 3.105-3.074 4.63-1.057 1.463-2.136 2.946-3.228 4.34-2.15 2.858-4.422 5.491-6.704 8.108-9.138 10.338-19.1 19.21-28.868 28.006l-3.446 3.132-1.528 1.39-1.442 1.519c-.986.993-1.873 2.148-2.809 3.243a117.187 117.187 0 0 0-2.612 3.574c-.844 1.239-1.675 2.48-2.451 3.811a94.345 94.345 0 0 0-2.29 4.004c-1.438 2.741-2.888 5.563-4.156 8.472-5.29 11.649-9.268 24.18-15.471 36.721-3.219 6.226-7.049 12.6-12.635 18.128-2.72 2.838-5.968 5.234-9.372 7.424-1.737 1.014-3.501 2.06-5.341 2.871-.927.425-1.848.879-2.775 1.261l-2.83 1.046c-3.807 1.369-7.675 2.241-11.548 2.916-1.968.346-4.11.454-6.196.65-.727.048-1.446.064-2.163.064zM30.64 524.831a36.408 36.408 0 0 1-6.079-2.11c-3.52-1.56-6.52-3.546-9.12-5.653-2.612-2.12-4.866-4.36-7.053-6.613a27.762 27.762 0 0 1-3.08-4.053c-.853-1.481-1.56-3.041-2.173-4.667-1.133-3.254-1.853-6.72-2.32-10.254-.933-7.065-1.134-14.626-.24-21.866.893-7.24 3.133-13.987 6.653-19.747l.02-.033c-4.423 26.386 3.372 54.425 23.392 74.996zM478.365 267.92c-7.265 0-12.969-2.421-16.185-6.139-7.896-9.132-5.892-32.014 20.561-52.554 22.566-17.523 45.223-19.979 56.15-19.979 4.253 0 6.728.372 6.728.372s.142 31.881-28.468 59.393c-14.314 13.766-28.204 18.907-38.786 18.907zm36.486-55.615c-6.928 0-21.292 1.558-35.599 12.668-16.771 13.02-18.041 27.528-13.035 33.318 2.039 2.356 5.655 3.892 10.26 3.892 6.71 0 15.516-3.26 24.59-11.987 18.138-17.443 18.049-37.655 18.049-37.655s-1.569-.236-4.265-.236z" fill="#F6F6F4"/><path d="M476.477 262.183c-4.605 0-8.221-1.536-10.26-3.892-5.006-5.79-3.736-20.298 13.035-33.318 14.307-11.11 28.671-12.668 35.599-12.668 2.696 0 4.265.236 4.265.236s.089 20.212-18.049 37.655c-9.074 8.727-17.88 11.987-24.59 11.987z" fill="#fff"/><path d="m493.639 233.308-2.372-1.892a1.576 1.576 0 0 1-.25-2.212 1.576 1.576 0 0 1 2.212-.248l2.372 1.893c.68.542.791 1.532.248 2.211a1.57 1.57 0 0 1-2.21.248zM466.887 257.716l-1.656-2.545a1.572 1.572 0 1 1 2.636-1.716l1.656 2.544a1.573 1.573 0 0 1-2.636 1.717zM482.508 228.461l-1.631-.049a1.574 1.574 0 0 1 .095-3.145l1.631.049a1.574 1.574 0 0 1-.095 3.145zM497.609 248.192l.05-1.629a1.573 1.573 0 1 1 3.144.094l-.05 1.631a1.574 1.574 0 0 1-3.144-.096zM462.844 248.672l-.181-1.62a1.573 1.573 0 1 1 3.126-.351l.182 1.62a1.572 1.572 0 1 1-3.127.351zM489.311 262.885l-1.519.595a1.573 1.573 0 0 1-1.148-2.929l1.519-.595a1.572 1.572 0 1 1 1.148 2.929z" fill="#E7E8E5"/><path d="M496.008 256.36c-6.253 7.835-17.673 9.116-25.509 2.863-7.835-6.252-9.118-17.674-2.864-25.508 6.253-7.836 17.674-9.118 25.509-2.864 7.835 6.253 9.117 17.674 2.864 25.509z" fill="#E7E8E5"/><path d="M474.059 235.072c.03.849.388 1.689.941 2.373.552.694 1.323 1.21 2.155 1.512.85.295 1.85.322 2.674-.07a3.752 3.752 0 0 0 1.844-1.778c-.628.558-1.326.987-2.057 1.198a3.247 3.247 0 0 1-1.107.124c-.37-.002-.733-.103-1.089-.219a9.06 9.06 0 0 1-.535-.216c-.168-.091-.345-.169-.505-.275-.341-.184-.633-.437-.927-.693a6.2 6.2 0 0 1-1.394-1.956zM480.659 235.383c.029-.592-.196-1.194-.57-1.683a3.268 3.268 0 0 0-1.496-1.083c-.6-.216-1.322-.213-1.897.076a2.413 2.413 0 0 0-1.221 1.303c.469-.348.95-.605 1.434-.721.484-.126.958-.064 1.419.089.956.336 1.753 1.004 2.331 2.019zM488.16 247.085c-.173.552-.1 1.175.145 1.724a3.027 3.027 0 0 0 1.207 1.344c.536.331 1.231.446 1.831.279a2.425 2.425 0 0 0 1.418-1c-.522.224-1.032.368-1.517.389-.485.023-.921-.112-1.324-.348a3.717 3.717 0 0 1-1.079-.969 4.496 4.496 0 0 1-.681-1.419zM492.123 248.713c.17-.376.145-.822-.011-1.222a2.038 2.038 0 0 0-.844-.972c-.385-.24-.9-.32-1.327-.183-.425.135-.769.412-.95.78.389-.109.737-.175 1.049-.164.311.008.568.099.82.245.533.32.943.778 1.263 1.516zM494.177 242.347c-.284.316-.421.757-.385 1.214.04.463.276.915.655 1.218.386.332.941.41 1.37.305a1.905 1.905 0 0 0 1.075-.671c-.417.043-.793.083-1.131.05-.337-.028-.605-.123-.817-.3a1.855 1.855 0 0 1-.544-.734c-.131-.302-.193-.666-.223-1.082zM496.609 243.847c.243-.199.367-.514.358-.848a1.23 1.23 0 0 0-.462-.907 1.13 1.13 0 0 0-1.022-.207c-.315.091-.57.28-.722.555.308.017.564.021.778.065a.977.977 0 0 1 .469.204c.131.107.255.243.352.422.104.181.179.416.249.716zM468.861 239.779c-.002.425.19.845.522 1.164.336.318.813.5 1.296.474.508-.009.977-.318 1.226-.684a1.88 1.88 0 0 0 .358-1.213c-.283.309-.536.588-.811.787-.272.204-.533.312-.811.32a1.863 1.863 0 0 1-.893-.187c-.299-.139-.587-.369-.887-.661zM471.676 239.284c.051-.311-.065-.627-.296-.872a1.241 1.241 0 0 0-.948-.369 1.126 1.126 0 0 0-.901.522 1.18 1.18 0 0 0-.171.895c.243-.191.436-.359.625-.468a.98.98 0 0 1 .484-.159c.171-.008.354.014.544.082.2.065.411.192.663.369z" fill="#BEBFBD"/><path d="M480.349 250.897c-1.904 1.119-4.36.475-5.485-1.441-1.125-1.915-.493-4.373 1.411-5.493 1.904-1.119 4.36-.474 5.485 1.441 1.127 1.915.495 4.375-1.411 5.493z" fill="#D4D6D3"/><path d="M476.233 245.76a3.62 3.62 0 0 0-1.77 2.776 4.01 4.01 0 0 1 1.813-4.575c1.903-1.12 4.36-.473 5.485 1.44a4.016 4.016 0 0 1-.126 4.284 3.627 3.627 0 0 0-.422-2.62c-1.02-1.734-3.252-2.321-4.98-1.305zM472.875 248.72c.076 1.039.53 2.055 1.216 2.881.684.835 1.624 1.459 2.638 1.828 1.034.359 2.239.395 3.246-.069a4.75 4.75 0 0 0 2.302-2.127c-.745.714-1.6 1.27-2.516 1.546-.228.074-.462.109-.692.153-.233.013-.466.052-.7.021-.468.002-.926-.125-1.373-.27a10.764 10.764 0 0 1-.669-.272c-.212-.115-.434-.215-.634-.348-.422-.235-.789-.554-1.149-.88a7.338 7.338 0 0 1-1.669-2.463z" fill="#BEBFBD"/><path d="M468.679 250.727a1.498 1.498 0 0 1-1.906-.919 1.498 1.498 0 0 1 .908-1.911 1.498 1.498 0 0 1 1.907.919 1.498 1.498 0 0 1-.909 1.911z" fill="#D4D6D3"/><path d="M467.539 248.553a1.349 1.349 0 0 0-.847.89 1.499 1.499 0 0 1 .989-1.547 1.498 1.498 0 0 1 1.907.919c.2.564.043 1.165-.352 1.56a1.358 1.358 0 0 0-1.697-1.822zM466.099 249.397c-.068.387.017.802.205 1.162.188.365.492.668.844.881.361.209.816.309 1.225.2a1.7 1.7 0 0 0 .988-.653c-.337.193-.689.321-1.037.348a1.642 1.642 0 0 1-.975-.236c-.61-.356-1.057-.95-1.25-1.702z" fill="#BEBFBD"/><path d="M479.996 259.232a2.127 2.127 0 0 1-2.443-1.755 2.125 2.125 0 0 1 1.74-2.45 2.124 2.124 0 0 1 2.442 1.753 2.125 2.125 0 0 1-1.739 2.452z" fill="#D4D6D3"/><path d="M478.932 255.908a1.921 1.921 0 0 0-1.403 1.039 2.129 2.129 0 0 1 1.764-1.922 2.128 2.128 0 0 1 2.443 1.754 2.127 2.127 0 0 1-.875 2.097c.258-.392.372-.876.288-1.376a1.931 1.931 0 0 0-2.217-1.592zM476.708 256.736a2.79 2.79 0 0 0 .064 1.653c.183.542.527 1.027.959 1.4.441.372 1.028.618 1.612.582a2.56 2.56 0 0 0 1.542-.607 3.32 3.32 0 0 1-1.538.297c-.508-.029-.976-.248-1.359-.573a3.6 3.6 0 0 1-.929-1.212 3.802 3.802 0 0 1-.351-1.54z" fill="#BEBFBD"/><path d="M487.139 237.74c1.117 1.352 3.262 1.425 4.789.163 1.528-1.263 1.86-3.383.743-4.735-1.118-1.352-3.263-1.424-4.79-.163-1.529 1.263-1.861 3.383-.742 4.735z" fill="#D4D6D3"/><path d="M492.097 234.616c.61.737.747 1.725.455 2.645.971-1.258 1.065-2.95.119-4.094-1.118-1.352-3.264-1.424-4.79-.163-1.101.911-1.584 2.267-1.344 3.459a3.458 3.458 0 0 1 1.214-1.995c1.384-1.145 3.332-1.079 4.346.148z" fill="#BEBFBD"/><path d="M485.705 235.46a3.417 3.417 0 0 0-.178 2.625c.14.451.416.852.73 1.199.316.352.712.605 1.14.832.444.177.912.299 1.383.303.464-.006.927-.05 1.355-.192a5.562 5.562 0 0 0 2.27-1.304c-.801.32-1.605.577-2.405.7-.8.124-1.596.077-2.276-.228-.328-.163-.665-.368-.936-.639a3.098 3.098 0 0 1-.692-.907c-.345-.692-.469-1.529-.391-2.389z" fill="#BEBFBD"/><path d="m30.445 414.812 10.27-10.269a7.528 7.528 0 0 0-10.646-10.646l-10.27 10.27a7.527 7.527 0 1 0 10.646 10.645zM170.685 516.586l6.518-12.978a7.528 7.528 0 0 0-13.455-6.756l-6.517 12.979a7.526 7.526 0 0 0 3.349 10.105 7.525 7.525 0 0 0 10.105-3.35zM80.79 385.821l7.724-1.105a7.527 7.527 0 0 0 6.386-8.517 7.53 7.53 0 0 0-8.519-6.387l-7.723 1.107a7.525 7.525 0 0 0-6.385 8.516 7.526 7.526 0 0 0 8.518 6.386zM19.514 487.704l-1.105-7.723a7.527 7.527 0 0 0-8.518-6.385 7.526 7.526 0 0 0-6.385 8.518l1.104 7.723a7.529 7.529 0 0 0 14.904-2.133zM185.081 476.079V458.98a2.88 2.88 0 0 0-2.88-2.88h-9.296a2.88 2.88 0 0 0-2.88 2.88v17.099a2.88 2.88 0 0 0 2.88 2.878h9.296a2.879 2.879 0 0 0 2.88-2.878zM66.814 553.141l7.537 2.02a7.529 7.529 0 0 0 3.896-14.542L70.71 538.6a7.528 7.528 0 0 0-3.897 14.541z" fill="#E7E8E5"/><path d="M31.486 525.688c33.919 33.917 88.91 33.917 122.829 0 33.918-33.919 33.918-88.911 0-122.829-33.919-33.918-88.91-33.918-122.829 0-33.918 33.918-33.918 88.91 0 122.829z" fill="#E7E8E5"/><path d="M124.496 412.747c.307 4.056-.947 8.241-3.211 11.788-2.254 3.588-5.644 6.452-9.439 8.34-3.886 1.857-8.628 2.513-12.754 1.088-4.117-1.304-7.562-4.043-9.72-7.468 3.284 2.318 6.83 3.988 10.424 4.592 1.794.294 3.589.334 5.329.005 1.757-.203 3.432-.88 5.059-1.623a41.328 41.328 0 0 0 2.429-1.312c.754-.522 1.553-.992 2.258-1.578 1.521-1.054 2.775-2.416 4.036-3.787 2.418-2.839 4.333-6.224 5.589-10.045zM93.278 417.743c-.459-2.799.289-5.775 1.806-8.304 1.518-2.544 3.86-4.643 6.539-5.942 2.736-1.353 6.173-1.726 9.059-.654 2.886.998 5.214 3.032 6.502 5.541-2.414-1.403-4.844-2.367-7.206-2.667-2.368-.334-4.587.21-6.694 1.188-4.37 2.104-7.804 5.708-10.006 10.838zM63.854 477.402c1.114 2.525 1.105 5.526.225 8.274-.898 2.752-2.674 5.281-5.02 7.029-2.366 1.86-5.615 2.779-8.553 2.309-2.927-.434-5.528-1.885-7.28-3.999 2.602.785 5.107 1.192 7.42 1.042 2.322-.152 4.327-1.026 6.111-2.362a17.735 17.735 0 0 0 4.613-5.184c1.178-2.066 2.025-4.431 2.484-7.109zM45.876 487.256c-1.014-1.696-1.125-3.835-.595-5.821a9.741 9.741 0 0 1 3.491-5.076c1.706-1.342 4.11-1.996 6.213-1.573 2.089.41 3.875 1.549 4.933 3.205-1.908-.316-3.597-.444-5.074-.227-1.478.207-2.65.772-3.77 1.607-2.362 1.809-4.07 4.201-5.198 7.885zM32.712 458.075c1.521 1.348 2.402 3.38 2.475 5.574.06 2.218-.823 4.496-2.459 6.137-1.659 1.781-4.258 2.455-6.359 2.181-2.14-.258-4.04-1.164-5.46-2.615 2.004-.021 3.81-.031 5.397-.368 1.59-.316 2.815-.901 3.727-1.864a8.824 8.824 0 0 0 2.198-3.775c.46-1.513.561-3.272.48-5.27zM21.95 466.508c-1.267-.815-2.023-2.24-2.158-3.844-.119-1.625.5-3.335 1.715-4.554 1.25-1.342 3.237-1.815 4.749-1.533 1.546.27 2.853 1.032 3.727 2.255-1.457.249-2.672.403-3.664.727-1 .308-1.615.693-2.116 1.217a6.758 6.758 0 0 0-1.455 2.193c-.4.921-.623 2.074-.799 3.539zM151.719 432.349c.241 2.02-.45 4.124-1.854 5.814-1.429 1.696-3.602 2.812-5.914 2.952-2.423.228-4.814-.994-6.202-2.595-1.429-1.615-2.246-3.555-2.345-5.583 1.512 1.315 2.868 2.508 4.279 3.312 1.4.82 2.704 1.195 4.024 1.083a8.817 8.817 0 0 0 4.15-1.361c1.35-.826 2.595-2.074 3.862-3.622zM138.072 431.504c-.404-1.451-.023-3.02.941-4.308.992-1.292 2.59-2.16 4.308-2.263 1.826-.174 3.626.794 4.568 2.008.976 1.228 1.447 2.668 1.288 4.162-1.256-.782-2.265-1.474-3.221-1.891-.955-.433-1.669-.553-2.392-.496a6.762 6.762 0 0 0-2.543.673c-.91.422-1.845 1.136-2.949 2.115z" fill="#BEBFBD"/><path d="M103.025 491.355c9.654 4.304 20.99-.074 25.318-9.779 4.328-9.708.012-21.065-9.641-25.372-9.654-4.304-20.989.075-25.318 9.78-4.328 9.707-.012 21.064 9.641 25.371z" fill="#D4D6D3"/><path d="M119.861 464.731c5.258 2.346 8.782 6.997 9.894 12.252 1.454-8.455-2.882-17.142-11.056-20.788-9.65-4.303-20.991.077-25.318 9.78a19.213 19.213 0 0 0 2.887 20.304c-1.358-4.003-1.258-8.5.608-12.684 3.923-8.795 14.221-12.774 22.985-8.864zM137.407 477.008c.194 4.98-1.431 10.053-4.244 14.351-2.806 4.336-6.94 7.805-11.57 10.101-4.721 2.257-10.438 3.071-15.47 1.403a22.716 22.716 0 0 1-12.08-8.882c3.921 2.994 8.288 5.18 12.786 6.009 1.121.229 2.253.266 3.372.354 1.121-.064 2.246.001 3.341-.267 2.223-.245 4.339-1.094 6.389-2.025a50.486 50.486 0 0 0 3.037-1.652c.942-.659 1.945-1.245 2.822-1.99 1.888-1.341 3.454-3.054 4.995-4.795 2.968-3.588 5.254-7.862 6.622-12.607z" fill="#BEBFBD"/><path d="M158.428 484.314c3.84.889 7.679-1.522 8.573-5.385.894-3.862-1.496-7.714-5.338-8.602-3.842-.89-7.68 1.522-8.574 5.384-.893 3.864 1.496 7.714 5.339 8.603z" fill="#D4D6D3"/><path d="M162.695 473.365a6.462 6.462 0 0 1 4.496 3.782c-.07-3.199-2.276-6.071-5.53-6.824-3.84-.888-7.681 1.524-8.573 5.384a7.167 7.167 0 0 0 2.503 7.23 6.469 6.469 0 0 1-.682-4.688c.811-3.5 4.298-5.69 7.786-4.884zM169.995 476.61c.525 1.807.344 3.822-.363 5.639-.697 1.834-1.984 3.441-3.541 4.635-1.606 1.189-3.715 1.907-5.718 1.612-1.989-.24-3.789-1.194-5.048-2.579 1.706.732 3.454 1.155 5.119 1.1 1.667-.041 3.195-.662 4.507-1.646 2.712-2.018 4.522-5.074 5.044-8.761z" fill="#BEBFBD"/><path d="M109.163 530.797c5.594.299 10.374-4.017 10.675-9.644.302-5.625-3.99-10.428-9.584-10.728-5.596-.298-10.375 4.019-10.676 9.644-.302 5.626 3.989 10.428 9.585 10.728z" fill="#D4D6D3"/><path d="M112.445 514.425a9.169 9.169 0 0 1 7.221 4.189c-.885-4.462-4.678-7.939-9.415-8.193-5.593-.3-10.376 4.02-10.677 9.644a10.187 10.187 0 0 0 5.28 9.503 9.192 9.192 0 0 1-2.105-6.395c.273-5.097 4.616-9.02 9.696-8.748zM123.458 517.175c.992 2.434 1.178 5.242.578 7.896-.571 2.669-1.957 5.16-3.808 7.168-1.9 2.005-4.559 3.486-7.354 3.622-2.769.22-5.481-.606-7.659-2.058 2.49.782 5.083 1.013 7.474.592 2.404-.411 4.507-1.699 6.154-3.45a17.24 17.24 0 0 0 3.772-6.262c.768-2.348 1.115-4.908.843-7.508z" fill="#BEBFBD"/><path d="M63.721 432.416c-4.592 7.025-14.75 8.515-22.688 3.328-7.936-5.189-10.649-15.091-6.055-22.116 4.592-7.028 14.75-8.517 22.687-3.329 7.938 5.188 10.649 15.089 6.056 22.117z" fill="#D4D6D3"/><path d="M38.47 420.209c-2.5 3.828-2.621 8.6-.745 12.82-5.291-5.465-6.64-13.46-2.75-19.41 4.59-7.024 14.754-8.515 22.688-3.328 5.724 3.741 8.734 9.929 8.232 15.728-1.07-3.423-3.412-6.604-6.833-8.84-7.193-4.703-16.42-3.348-20.591 3.03z" fill="#BEBFBD"/><path d="M69.321 420.807c2.293 3.472 3.202 8.009 2.246 12.392-.42 2.214-1.516 4.27-2.831 6.085-1.32 1.847-3.063 3.261-4.972 4.568-2.02 1.081-4.186 1.905-6.413 2.176-2.216.223-4.436.259-6.548-.192-4.236-.753-8.184-2.467-11.498-4.985 3.988 1.093 7.943 1.888 11.819 2.044 3.865.16 7.62-.482 10.698-2.299 1.473-.948 2.97-2.108 4.109-3.539a14.768 14.768 0 0 0 2.805-4.68c1.27-3.474 1.412-7.524.585-11.57zM457.936 413.743l7.345 1.357 1.64 7.743 1.643-7.743 7.344-1.361-7.313-1.787-1.674-7.313-1.673 7.313-7.312 1.791zM154.889 371.941l7.346 1.359 1.641 7.741 1.641-7.741 7.344-1.363-7.313-1.788-1.672-7.312-1.673 7.312-7.314 1.792zM382.912 289.172l7.345 1.357 1.643 7.743 1.64-7.743 7.345-1.361-7.314-1.787-1.671-7.313-1.673 7.313-7.315 1.791zM527.752 368.165l4.105.759.919 4.327.916-4.327 4.105-.761-4.086-.999-.935-4.087-.935 4.087-4.089 1.001zM216.227 532.832l4.105.759.917 4.328.918-4.328 4.104-.76-4.087-.999-.935-4.088-.934 4.088-4.088 1zM517.709 173.368l4.106.76.918 4.327.916-4.327 4.106-.761-4.087-.999-.935-4.088-.936 4.088-4.088 1zM33.459 266.451l4.105.758.917 4.328.917-4.328 4.106-.761-4.088-.999-.935-4.086-.935 4.086-4.087 1.002zM55.483 486.708l4.106.76.917 4.327.918-4.327 4.105-.763-4.088-.998-.935-4.087-.935 4.087-4.088 1.001zM501.868 282.985l4.105.76.918 4.327.917-4.327 4.105-.762-4.086-.998-.936-4.088-.935 4.088-4.088 1zM328.713 422.844l4.106.759.916 4.326.918-4.326 4.106-.762-4.088-.998-.936-4.088-.935 4.088-4.087 1.001zM179.327 75.347l4.105.758.917 4.327.918-4.327 4.105-.761-4.088-.999-.935-4.088-.934 4.088-4.088 1.002zM340.036 407.123l4.105.758.918 4.327.917-4.327 4.105-.761-4.086-.999-.936-4.088-.936 4.088-4.087 1.002zM206.515 542.192c1.532 0 1.534 2.38 0 2.38-1.531 0-1.534-2.38 0-2.38zM418.789 319.007c1.531 0 1.534 2.378 0 2.378-1.532 0-1.534-2.378 0-2.378zM317.264 419.277c1.532 0 1.533 2.38 0 2.38-1.529 0-1.533-2.38 0-2.38zM140.761 533.264c1.531 0 1.534 2.379 0 2.379-1.53 0-1.534-2.379 0-2.379zM538.015 549.033c1.532 0 1.534 2.381 0 2.381-1.531 0-1.534-2.381 0-2.381zM475.413 334.597c1.532 0 1.535 2.38 0 2.38-1.53 0-1.533-2.38 0-2.38zM236.324 520.79c1.083 0 1.085 1.683 0 1.683-1.084 0-1.085-1.683 0-1.683zM392.887 354.255c1.082 0 1.085 1.684 0 1.684-1.084 0-1.086-1.684 0-1.684zM352.223 427.088c1.081 0 1.084 1.684 0 1.684-1.086 0-1.087-1.684 0-1.684zM285.624 412.899c1.084 0 1.085 1.684 0 1.684-1.083 0-1.085-1.684 0-1.684zM364.352 338.957c2.937 0 2.941 4.563 0 4.563-2.936 0-2.94-4.563 0-4.563zM247.591 108.545l7.345 1.358 1.641 7.742 1.642-7.742 7.344-1.362-7.314-1.786-1.672-7.315-1.673 7.315-7.313 1.79zM275.579 41.517l4.105.759.917 4.328.918-4.328 4.105-.761-4.087-.999-.936-4.088-.934 4.088-4.088 1.001zM26.725 152.595c1.532 0 1.534 2.38 0 2.38-1.53 0-1.534-2.38 0-2.38zM45.42 468.19c1.532 0 1.534 2.379 0 2.379-1.53 0-1.534-2.379 0-2.379zM13.194 527.217c1.531 0 1.534 2.38 0 2.38-1.531 0-1.534-2.38 0-2.38zM74.132 252.352c1.531 0 1.534 2.379 0 2.379-1.532 0-1.534-2.379 0-2.379zM13.194 46.948c1.531 0 1.534 2.38 0 2.38-1.531 0-1.534-2.38 0-2.38zM121.219 411.459c1.084 0 1.085 1.684 0 1.684-1.083 0-1.085-1.684 0-1.684zM298.789 519.363c1.084 0 1.087 1.684 0 1.684-1.082 0-1.084-1.684 0-1.684zM423.811 134.232c1.084 0 1.085 1.684 0 1.684-1.083 0-1.084-1.684 0-1.684zM271.741 82.683c1.084 0 1.086 1.684 0 1.684-1.082 0-1.085-1.684 0-1.684zM221.252 381.547c2.936 0 2.94 4.564 0 4.564-2.936 0-2.941-4.564 0-4.564zM521.725 209.192c2.936 0 2.942 4.563 0 4.563-2.936 0-2.941-4.563 0-4.563zM54.9 409.177c2.936 0 2.94 4.564 0 4.564-2.936 0-2.941-4.564 0-4.564zM246.532 321.387l4.105.758.918 4.328.917-4.328 4.105-.761-4.088-.999-.934-4.086-.935 4.086-4.088 1.002zM333.735 528.409l4.106.759.918 4.327.917-4.327 4.105-.761-4.088-.999-.934-4.088-.935 4.088-4.089 1.001zM351.92 475.095c1.532 0 1.535 2.38 0 2.38-1.531 0-1.533-2.38 0-2.38zM398.297 443.445c1.532 0 1.535 2.38 0 2.38-1.53 0-1.533-2.38 0-2.38zM251.555 498.095l4.105.76.917 4.326.918-4.326 4.104-.763-4.087-.999-.935-4.086-.936 4.086-4.086 1.002zM420.54 114.833c1.531 0 1.533 2.38 0 2.38-1.531 0-1.533-2.38 0-2.38zM449.167 447.197c1.082 0 1.084 1.684 0 1.684s-1.087-1.684 0-1.684zM90.963 304.079l4.104.758.919 4.328.917-4.328 4.104-.76-4.087-1-.934-4.088-.936 4.088-4.087 1.002zM43.504 369.56c1.532 0 1.534 2.379 0 2.379-1.531 0-1.534-2.379 0-2.379zM207.665 281.919c1.531 0 1.534 2.38 0 2.38-1.532 0-1.534-2.38 0-2.38zM68.218 161.699c1.084 0 1.086 1.685 0 1.685-1.083 0-1.085-1.685 0-1.685zM57.438 153.959c2.936 0 2.94 4.562 0 4.562-2.936 0-2.942-4.562 0-4.562zM523.929 53.24c2.936 0 2.942 4.564 0 4.564-2.936 0-2.941-4.564 0-4.564z" fill="#BEBFBD"/><path d="M398.776 502.557c11.549 21.039 37.967 28.731 59.005 17.182 21.039-11.549 28.731-37.968 17.18-59.006-11.549-21.038-37.966-28.73-59.005-17.181-21.039 11.55-28.729 37.968-17.18 59.005z" fill="#33535F"/><path d="M396.432 497.583c1.96-2.046 5.997-5.826 12.836-9.518 8.284-4.477 31.303-10.494 41.669-16.825 14.583-8.895 15.811-17.307 15.383-21.567a43.513 43.513 0 0 0-14.157-8.7c-.728 4.47-3.702 18.459-28.228 29.4-12.659 5.636-25.383 3.576-29.7 2.882a43.2 43.2 0 0 0 2.197 24.328zM416.017 519.78c12.572 6.86 28.272 7.365 41.762-.039a43.309 43.309 0 0 0 12.097-9.813c-1.768-.843-5.345-2.032-8.021-2.455-11.87-1.897-24.243 4.71-28.715 7.715-7.155 4.816-13.639 4.964-17.123 4.592zM399.531 503.876c.198.344.406.675.618 1.01.186.309.386.606.586.906.45.676.912 1.339 1.396 1.979.434.578.881 1.15 1.341 1.698.168.21.347.404.523.611.196.228.393.457.593.676.204.227.408.452.615.667.24.26.49.522.745.773.245.256.5.507.756.748.224.215.445.423.665.631.492.457.99.896 1.502 1.325l.01.004c2.759.608 6.346-.045 11.464-2.553 7.614-3.719 15.5-11.832 30.266-18.518 13.942-6.321 26.102-4.431 28.972-4.221l.006-.004a43.295 43.295 0 0 0-3.222-26.083c-2.776.12-11.584 2.104-29.292 19.306-6.732 6.538-12.752 11.255-18.067 14.618-15.537 9.808-25.117 8.041-29.196 6.388l-.007.004-.274.035z" fill="#273E47"/><path d="M438.929 456.525c.928 1.692 3.678 1.968 6.138.616 2.46-1.349 3.702-3.816 2.774-5.506-.93-1.694-3.677-1.97-6.137-.618-2.461 1.35-3.703 3.816-2.775 5.508zM451.459 458.49c.524.953 2.145 1.069 3.621.259 1.476-.812 2.249-2.241 1.725-3.194-.522-.955-2.144-1.071-3.621-.259-1.476.809-2.248 2.239-1.725 3.194zM422.74 514.696c.793 1.445 3.183 1.66 5.335.477 2.154-1.181 3.256-3.312 2.462-4.756-.794-1.446-3.182-1.661-5.336-.478-2.152 1.182-3.254 3.312-2.461 4.757zM430.845 515.465c.422.77 1.587.942 2.603.384 1.013-.557 1.495-1.633 1.072-2.401-.421-.769-1.587-.941-2.601-.384-1.016.557-1.496 1.632-1.074 2.401zM431.767 511.336c.253.461.981.548 1.629.192.645-.353.963-1.014.709-1.476-.253-.462-.982-.548-1.628-.193-.645.353-.964 1.014-.71 1.477zM458.765 508.763c.708 1.292 2.68 1.572 4.403.627 1.723-.946 2.544-2.759 1.835-4.051-.711-1.292-2.682-1.573-4.403-.628-1.723.946-2.544 2.761-1.835 4.052zM457.177 502.967c.406.737 1.407.966 2.238.511.83-.455 1.174-1.425.769-2.163-.404-.738-1.407-.966-2.236-.51-.831.455-1.176 1.423-.771 2.162zM402.131 507.771c11.657-2.348 25.15-5.927 39.33-10.585 14.584-4.781 27.9-10.057 38.864-15.205 19.472-9.144 31.482-17.904 29.858-22.85-1.587-4.868-16.235-5.008-36.803-1.047a45.314 45.314 0 0 1 2.129 3.683c10.948-1.402 18.202-.763 19.188 2.249 1.003 3.057-4.638 7.975-14.568 13.435-9.717 5.344-23.545 11.21-39.233 16.358-15.719 5.158-30.357 8.626-41.365 10.067-11.19 1.48-18.628.863-19.63-2.193-.98-2.999 4.462-7.799 14.054-13.144a39.856 39.856 0 0 1-.48-4.402c-19.363 9.119-31.551 18.183-29.936 23.115 1.645 5.023 16.956 4.881 38.592.519z" fill="#17282F"/><path d="M404.58 510.744c11.78-2.478 24.849-5.958 38.44-10.344l.011.003c13.52-4.358 26.082-9.148 37.036-13.988 27.04-11.948 44.312-24.23 42.053-31.243-2.24-6.943-23.032-6.865-51.519-.936.42.523.831 1.061 1.23 1.608 23.921-4.587 41.068-4.342 43.004 1.676 1.957 6.075-12.1 16.459-34.591 26.824-10.888 5.009-23.736 10.019-37.715 14.529-14.052 4.536-27.494 7.996-39.301 10.295-24.201 4.693-41.588 4.467-43.536-1.589-1.927-5.988 11.739-16.182 33.717-26.408.01-.68.03-1.357.072-2.038-26.477 11.807-43.308 23.872-41.077 30.803 2.26 6.995 23.363 6.871 52.176.808z" fill="#273E47"/><path d="M272.011 263.529c-5.798 12.923-20.972 18.7-33.895 12.904-12.923-5.796-18.7-20.972-12.903-33.894 5.796-12.923 20.971-18.7 33.894-12.903 12.922 5.796 18.7 20.971 12.904 33.893z" fill="#E7E8E5"/><path d="M273.153 260.492c-1.25-1.109-3.804-3.143-8.002-4.991-5.084-2.24-18.911-4.689-25.308-7.92-8.999-4.541-10.12-9.432-10.071-11.957a25.648 25.648 0 0 1 7.916-5.789c.639 2.594 3.051 10.682 17.997 15.956 7.714 2.714 15.1.901 17.607.286a25.498 25.498 0 0 1-.139 14.415zM262.684 274.477c-7.069 4.632-16.28 5.674-24.565 1.958a25.555 25.555 0 0 1-7.582-5.199c1-.579 3.047-1.449 4.602-1.825 6.892-1.679 14.484 1.621 17.257 3.177 4.436 2.495 8.257 2.273 10.288 1.889zM271.628 264.34c-.1.213-.207.416-.315.625-.094.19-.198.375-.302.56-.232.419-.472.831-.727 1.23-.228.361-.464.718-.709 1.062-.09.131-.184.255-.278.384-.105.144-.209.288-.317.427-.109.143-.219.285-.329.421-.13.164-.264.33-.402.49-.133.162-.27.322-.41.477l-.362.401c-.268.294-.54.574-.82.851l-.006.003c-1.594.488-3.734.274-6.863-.959-4.656-1.825-9.68-6.225-18.681-9.456-8.502-3.057-15.566-1.371-17.243-1.111l-.004-.001a25.554 25.554 0 0 1 .659-15.496c1.638-.06 6.914.689 18.145 9.968 4.271 3.527 8.035 6.016 11.32 7.741 9.605 5.034 15.156 3.54 17.477 2.375l.004.001.163.007z" fill="#D4D6D3"/><path d="M247.256 273.992c.455-1.044 2.055-1.353 3.573-.691 1.519.662 2.38 2.044 1.926 3.09-.455 1.042-2.055 1.353-3.574.69-1.518-.662-2.381-2.045-1.925-3.089zM254.513 272.167c.258-.588 1.204-.743 2.115-.346.911.398 1.441 1.196 1.185 1.784-.256.59-1.202.744-2.114.347-.911-.397-1.442-1.197-1.186-1.785zM234.625 240.672c.388-.892 1.782-1.144 3.11-.565 1.329.578 2.09 1.772 1.701 2.664-.388.892-1.781 1.145-3.109.566-1.33-.58-2.091-1.772-1.702-2.665zM239.347 239.787c.206-.475.882-.638 1.509-.366.627.275.965.88.76 1.355-.208.475-.883.637-1.509.364-.627-.273-.967-.879-.76-1.353zM240.109 242.165c.124-.285.548-.376.947-.201.399.173.621.545.497.829-.124.286-.548.375-.946.202-.399-.174-.622-.546-.498-.83zM256.115 242.229c.346-.796 1.49-1.066 2.553-.604 1.064.464 1.643 1.487 1.295 2.283-.347.797-1.491 1.068-2.554.604-1.062-.463-1.642-1.484-1.294-2.283zM255.492 245.721c.199-.454.775-.642 1.288-.42.512.224.767.775.568 1.23-.199.456-.776.644-1.288.42-.512-.224-.767-.774-.568-1.23z" fill="#BEBFBD"/><path d="m93.145 82.216-.002-.003a25.463 25.463 0 0 0 .919-10.569 25.45 25.45 0 0 1-.917 10.572z" fill="#D7D8D6"/><path d="M49.764 57.35v-.002a25.743 25.743 0 0 1 0 .001z" fill="#E0E1DE"/><path d="M68.59 100.409a25.51 25.51 0 0 1-10.48-2.252 25.615 25.615 0 0 1-.002 0 25.562 25.562 0 0 0 10.48 2.252c5.02 0 9.922-1.481 14.085-4.206h.003a25.746 25.746 0 0 1-14.085 4.206zM86.644 92.993a25.528 25.528 0 0 0 4.683-6.346l-.022.042c-.095.188-.199.374-.301.56a24.737 24.737 0 0 1-1.437 2.292c-.089.131-.185.255-.277.384-.106.144-.21.288-.319.427-.109.143-.217.284-.33.421-.129.164-.263.33-.4.49-.133.162-.27.322-.41.476-.122.137-.243.269-.362.401-.267.293-.54.575-.82.852l-.005.001zm4.742-6.462z" fill="#D7D8D6"/><path d="M253.796 124.369c-.953-1.124-55.805-26.573-105.477 11.338-45.671 34.857-61.528 100.361-55.463 101.929 7.423 1.917 27.772-29.344 66.828-46.517 13.849-6.09 35.899-.004 35.899-.004l58.213-66.746z" fill="#2C4954"/><path d="M179.728 188.568a69.69 69.69 0 0 0-4.185-.151l.001-.004c1.419.008 2.821.064 4.184.155zm55.812-70.555a114.651 114.651 0 0 0 .003-.001l-.003.001z" fill="#E0E1DE"/><path d="M247.451 121.559c-3.046-1.12-7.086-2.407-11.911-3.546l.003-.001c4.825 1.137 8.866 2.424 11.91 3.544l-.002.003z" fill="#D7D8D6"/><path d="M188.647 189.635a87.131 87.131 0 0 0-8.919-1.067 68.741 68.741 0 0 0-4.184-.155 65991.491 65991.491 0 0 1 35.129-73.434c2.756.025 5.428.154 8.003.366a114.651 114.651 0 0 1 16.864 2.668c4.825 1.139 8.865 2.426 11.911 3.546-25.822 21.692-45.172 46.713-58.804 68.076z" fill="#2E2B44"/><path d="M344.156 230.944c.953 1.125 17.085 59.401-28.44 102.203-41.859 39.353-109.073 44.281-109.628 38.044-.679-7.638 33.491-22.6 56.821-58.322 8.274-12.665 5.878-35.412 5.878-35.412l75.369-46.513z" fill="#2C4954"/><path d="m347.353 248.771-.004-.003a103.304 103.304 0 0 0-1.376-10.661l.003-.002a103.317 103.317 0 0 1 1.377 10.666z" fill="#E0E1DE"/><path d="M346.32 275.321c1.595-10.025 1.607-19.189 1.029-26.553l.004.003c.578 7.365.564 16.528-1.032 26.55" fill="#D7D8D6"/><path d="M268.112 298.075c.789-4.758 1.003-9.438 1.001-13.134 23.304-9.93 51.191-24.912 76.86-46.834a103.304 103.304 0 0 1 1.376 10.661c.578 7.364.566 16.528-1.029 26.553-23.381 6.811-59.251 17.247-78.208 22.754z" fill="#2E2B44"/><path d="m216.447 302.189-53.572-63.186s27.936-74.918 94.346-125.244c33.163-25.1 72.064-43.892 106.891-56.324 48.061-17.228 88.283-22.222 94.509-14.875 6.256 7.377-5.276 46.207-30.108 90.835-17.989 32.292-42.892 67.596-73.076 96.205-60.513 57.283-138.99 72.589-138.99 72.589z" fill="#BEBFBD"/><path d="M346.589 202.545c-20.124 17.063-50.269 14.579-67.33-5.545-17.063-20.124-14.58-50.269 5.544-67.331 20.124-17.062 50.269-14.581 67.332 5.544 17.061 20.124 14.58 50.27-5.546 67.332z" fill="#999B9B"/><path d="M349.203 198.104c-20.126 17.063-50.27 14.58-67.332-5.544-17.063-20.124-14.58-50.271 5.544-67.332 20.124-17.063 50.269-14.58 67.332 5.544 17.061 20.124 14.58 50.269-5.544 67.332z" fill="#2C4954"/><path d="M339.753 186.923c-13.949 11.844-34.856 10.137-46.7-3.811-11.844-13.949-10.138-34.859 3.811-46.701 13.948-11.844 34.859-10.138 46.701 3.812 11.843 13.948 10.138 34.857-3.812 46.7z" fill="#fff"/><path d="M339.76 186.924a32.91 32.91 0 0 1-10.601 6.06l-26.615-2.172a32.923 32.923 0 0 1-9.477-7.699 32.766 32.766 0 0 1-4.811-7.545l57.475 4.691a32.801 32.801 0 0 1-5.971 6.665zM346.439 144.165l-53.048-4.329a33.08 33.08 0 0 1 3.466-3.423c13.96-11.852 34.862-10.145 46.714 3.812a32.964 32.964 0 0 1 2.868 3.94zM349.307 173.384l-63.464-5.18a25.738 25.738 0 0 1-.458-2.948l64.85 5.293c-.259.95-.579 1.894-.928 2.835z" fill="#E7E8E5"/><path d="m428.513 133.395-64.401-75.96c48.061-17.228 88.283-22.222 94.509-14.875 6.256 7.377-5.276 46.207-30.108 90.835z" fill="#2E2B44"/><path d="M383.045 63.859a2.79 2.79 0 1 1-3.606-4.257 2.79 2.79 0 0 1 3.606 4.257zM394.501 77.37a2.789 2.789 0 1 1-3.606-4.252 2.789 2.789 0 0 1 3.606 4.253zM405.957 90.883a2.787 2.787 0 1 1-3.606-4.254 2.787 2.787 0 1 1 3.606 4.253zM417.415 104.396a2.788 2.788 0 1 1-3.608-4.251 2.788 2.788 0 0 1 3.608 4.251zM428.872 117.909a2.79 2.79 0 1 1-3.607-4.255 2.79 2.79 0 0 1 3.607 4.255z" fill="#fff"/><path d="M178.331 237.524a2.79 2.79 0 1 1-3.607-4.255 2.79 2.79 0 0 1 3.607 4.255zM189.787 251.037a2.79 2.79 0 0 1-3.607-4.254 2.789 2.789 0 0 1 3.607 4.254zM201.244 264.549a2.787 2.787 0 1 1-3.607-4.253 2.788 2.788 0 1 1 3.607 4.253zM212.701 278.063a2.79 2.79 0 1 1-3.605-4.255 2.79 2.79 0 0 1 3.605 4.255zM224.157 291.576a2.789 2.789 0 1 1-3.604-4.256 2.789 2.789 0 0 1 3.604 4.256z" fill="#999B9B"/><path d="M179.224 258.285 162.872 239s8.047-21.583 25.772-49.361l.005.001c-17.726 27.779-25.774 49.363-25.774 49.363l16.349 19.282zM264.8 108.2l.004-.005c19.981-14.207 41.692-26.226 63.137-36.05-21.444 9.827-43.16 21.851-63.141 36.055z" fill="#fff"/><path d="m247.455 121.557-.002-.001a250.565 250.565 0 0 1 .002.001zm9.981-7.96v-.001a315.312 315.312 0 0 1 6.448-4.744h.003a305.613 305.613 0 0 0-6.451 4.745zm7.203-5.282h-.003l.168-.12-.004.005-.161.115z" fill="#F9F8F7"/><path d="M255.957 114.723c.419-.322.84-.643 1.262-.963l.217-.164v.001l-.215.162c-.421.32-.845.642-1.264.964zm7.927-5.871c.249-.179.501-.359.752-.537h.003c-.251.178-.502.358-.752.537h-.003z" fill="#CACBC9"/><path d="m401.319 46.03.01-.002a.029.029 0 0 0-.01.003zm.037-.009z" fill="#fff"/><path d="m188.649 189.64-.005-.001.003-.004.005.001-.003.004z" fill="#FBC73C"/><path d="M247.452 121.559h-.001l.002-.003.002.001-.003.002z" fill="#DFDFDD"/><path d="m188.652 189.636-.005-.001c13.632-21.363 32.982-46.384 58.804-68.076h.001c-25.82 21.694-45.168 46.713-58.8 68.077z" fill="#F4BB33"/><path d="m183.312 263.108-4.088-4.823-16.349-19.282s8.048-21.584 25.774-49.363l.003-.004c13.632-21.364 32.98-46.383 58.8-68.077l.003-.002a248.3 248.3 0 0 1 8.502-6.834c.419-.322.843-.644 1.264-.964l.215-.162a305.613 305.613 0 0 1 6.451-4.745c.25-.179.501-.359.752-.537l.161-.115c19.981-14.204 41.697-26.228 63.141-36.055a451.875 451.875 0 0 1 36.171-14.705l7.216 8.507c-26.249 12.394-55.124 29.722-84.644 52.868-43.684 34.249-77.037 90.97-96.077 129.142a2.8 2.8 0 0 0-2.624-1.836 2.79 2.79 0 1 0 .836 5.451 594.394 594.394 0 0 0-5.507 11.536zm-6.785-30.5c-.638 0-1.279.217-1.803.663a2.787 2.787 0 0 0 1.805 4.914 2.79 2.79 0 0 0-.002-5.577z" fill="#CACBC9"/><path d="m371.328 65.947-7.212-8.507c13.167-4.724 25.749-8.528 37.203-11.41a.029.029 0 0 1 .01-.002l.027-.007a305.32 305.32 0 0 1 12.836-2.945c12.273-2.528 22.716-3.793 30.468-3.793 4.704 0 8.415.465 10.945 1.397-18.313 1.304-43.24 7.444-71.92 19.707a2.783 2.783 0 0 0-4.246-.783 2.789 2.789 0 0 0-.846 3.007c-2.4 1.07-4.817 2.18-7.265 3.336z" fill="#2C4954"/><path d="M378.593 62.61a2.789 2.789 0 0 1 2.646-3.667 2.782 2.782 0 0 1 2.446 1.444 358.3 358.3 0 0 0-5.092 2.224z" fill="#fff"/><path d="M176.529 238.185a2.787 2.787 0 0 1-1.805-4.914 2.771 2.771 0 0 1 1.803-.663 2.79 2.79 0 0 1 .002 5.577zM187.985 251.699a2.79 2.79 0 0 1-.002-5.578 2.8 2.8 0 0 1 2.624 1.836 564.13 564.13 0 0 0-1.788 3.615 2.8 2.8 0 0 1-.834.127z" fill="#ACAFAD"/><path d="m192.516 312.479-43.563-51.388 16.943-18.515 47.66 56.215-21.04 13.688z" fill="#2C4954"/><path d="m203.299 305.451-43.884-55.792 6.48-7.074 47.656 56.206-10.252 6.66z" fill="#2E2B44"/><path d="m427.829 140.263-19.909-1.328-9.353 18.96.856-21.124-18.116-8.367 20.11.195 9.151-17.828-.491 20.034 17.752 9.458zM422.935 66.739l-11.128-.742-5.228 10.598.478-11.807-10.125-4.677 11.24.11 5.115-9.966-.275 11.198 9.923 5.286zM332.915 292.763l-11.127-.742-5.228 10.598.477-11.808-10.124-4.676 11.24.109 5.115-9.965-.275 11.198 9.922 5.286zM134.883 194.427l-11.128-.742-5.228 10.598.478-11.808-10.124-4.676 11.239.109 5.115-9.965-.275 11.197 9.923 5.287z" fill="#FCFDFC"/><path d="M118.023 381.116a87.059 87.059 0 0 0-23.048-3.671 7.597 7.597 0 0 0-.163-1.744 166.3 166.3 0 0 1 1.07-4.474c1.375-.81 2.764-1.639 4.03-2.567a62.296 62.296 0 0 0 7.545-6.233c2.337-2.204 4.439-4.551 6.37-6.952 1.966-2.395 3.731-4.852 5.419-7.335 6.617-9.991 11.263-20.42 15.07-30.828 3.463-9.663 6.18-19.344 8.411-28.995a229.045 229.045 0 0 1 16.137-15.536l23.981 28.29c-20.154 13.608-37.952 30.966-50.95 51.682-5.602 8.891-10.289 18.415-13.872 28.363z" fill="#FCD461"/><path d="M95.881 371.227a171.869 171.869 0 0 1 11.515-31.764c8.919-18.792 21.052-35.968 35.331-51.146-2.231 9.651-4.948 19.332-8.411 28.995-3.807 10.408-8.453 20.837-15.07 30.828-1.688 2.483-3.453 4.94-5.419 7.335-1.931 2.401-4.033 4.748-6.37 6.952a62.303 62.303 0 0 1-7.544 6.233c-1.267.928-2.656 1.757-4.032 2.567zM186.44 548.564c-12.093-5.605-23.765-12.335-34.601-20.411l-.051-.037a90.034 90.034 0 0 0 3.331-3.244c9.486 8.916 20.068 16.791 31.321 23.692z" fill="#FCD25E"/><path d="M94.975 377.445c-.182-.004-.361-.008-.543-.01.123-.579.25-1.158.38-1.734a7.674 7.674 0 0 1 .163 1.744z" fill="#FCCD58"/><path d="M151.788 528.116c-10.552-7.864-20.299-17.017-28.731-27.431 2.683-1.51 5.158-3.424 7.253-5.676 6.774 10.77 15.091 20.696 24.514 29.586.097.093.196.185.295.277a90.034 90.034 0 0 1-3.331 3.244zm-31.11-30.447a145.015 145.015 0 0 1-4.075-5.57 19.252 19.252 0 0 0 8.693-5.728 137.914 137.914 0 0 0 3.213 5.7c-.847.848-1.74 1.644-2.719 2.339-.877.745-1.88 1.331-2.822 1.99-.748.444-1.518.868-2.29 1.269zm-21.41-39.161c-3.284-9.183-5.874-20.552-7.237-30.316l9.014.667 9.014.666c.438 7.083 1.654 18.19 3.284 25.167a19.017 19.017 0 0 0-2.389-.152c-4.223 0-8.34 1.408-11.685 3.968zm10.791-28.983-9.014-.666-9.014-.667a144.32 144.32 0 0 1-.559-5.139c-1.338-15.188-.246-30.593 2.96-45.618.182.002.36.006.543.01a87.059 87.059 0 0 1 23.048 3.671 137.404 137.404 0 0 0-5.989 22.289c-.858 5.407-1.826 13.499-1.991 19.015-.061 2.365-.056 4.735.016 7.105z" fill="#FCCD58"/><path d="M116.603 492.099a143.654 143.654 0 0 1-14.14-25.458 17.5 17.5 0 0 1 10.361-3.414c.965 0 1.936.081 2.903.246a131.906 131.906 0 0 0 9.569 22.898 19.252 19.252 0 0 1-8.693 5.728z" fill="#FBC952"/><path d="M102.463 466.641a144.61 144.61 0 0 1-3.194-8.133 19.265 19.265 0 0 1 11.685-3.968c.793 0 1.592.051 2.389.152a128.637 128.637 0 0 0 2.384 8.781 17.257 17.257 0 0 0-2.903-.246 17.5 17.5 0 0 0-10.361 3.414zM123.057 500.685l-.623-.775a148.044 148.044 0 0 1-1.756-2.241 46.407 46.407 0 0 0 2.29-1.269c.942-.659 1.945-1.245 2.822-1.99.979-.695 1.872-1.491 2.719-2.339.491.824.992 1.644 1.5 2.46.1.159.2.32.301.478-2.095 2.252-4.57 4.166-7.253 5.676z" fill="#F0C34B"/><path d="m148.399 331.981-7.947 1.471-1.775 8.375-1.777-8.375-7.945-1.475 7.912-1.933 1.81-7.911 1.808 7.911 7.914 1.937zM119.155 488.833l-4.441.822-.993 4.681-.991-4.681-4.442-.824 4.422-1.08 1.011-4.423 1.012 4.423 4.422 1.082zM142.524 305.873l-4.44.822-.993 4.681-.992-4.681-4.442-.824 4.423-1.079 1.011-4.424 1.012 4.424 4.421 1.081zM129.661 498.959c-1.657 0-1.659 2.573 0 2.573 1.656 0 1.659-2.573 0-2.573zM166.408 299.597c-1.657 0-1.66 2.575 0 2.575 1.656 0 1.659-2.575 0-2.575zM97.094 414.408c-1.657 0-1.66 2.575 0 2.575 1.657 0 1.66-2.575 0-2.575zM127.369 492.259c-1.172 0-1.173 1.822 0 1.822s1.174-1.822 0-1.822zM96.626 369.424c-1.173 0-1.174 1.823 0 1.823 1.171 0 1.173-1.823 0-1.823zM105.904 462.577c-3.176 0-3.183 4.938 0 4.938 3.176 0 3.181-4.938 0-4.938zM108.288 361.049c-3.177 0-3.182 4.936 0 4.936 3.177 0 3.182-4.936 0-4.936z" fill="#fff"/></g><defs><clipPath id="a"><path fill="#fff" d="M0 0h551.213v581.6H0z"/></clipPath></defs></svg>