<svg width="450" height="96" fill="none" xmlns="http://www.w3.org/2000/svg"><g clip-path="url(#a)" fill="#fff"><path d="m217.746 32.43-.712-1.352 1.335.761.609-1.477.22 1.495 1.586-.433-1.025 1.182 1.282.942-1.555-.136.027 1.588-.884-1.276-1.111 1.102.354-1.518-1.531-.208 1.405-.67zM221.332 18.527l-.712-1.353 1.335.762.609-1.477.22 1.495 1.586-.433-1.026 1.182 1.283.942-1.555-.136.027 1.588-.884-1.276-1.111 1.101.354-1.517-1.531-.208 1.405-.67zM174.973 12.176l-.712-1.353 1.335.762.609-1.477.219 1.494 1.587-.433-1.025 1.183 1.282.942-1.556-.136.027 1.588-.884-1.276-1.11 1.101.354-1.518-1.531-.207 1.405-.67zM194.231 30.372l-.711-1.352 1.335.762.608-1.477.22 1.494 1.587-.433-1.026 1.183 1.283.942-1.556-.136.027 1.587-.884-1.275-1.11 1.1.354-1.517-1.531-.207 1.404-.67zM188.986 17.593l-.712-1.353 1.335.762.609-1.477.22 1.495 1.586-.433-1.025 1.182 1.282.942-1.555-.136.027 1.588-.884-1.276-1.111 1.101.354-1.517-1.531-.209 1.405-.669zM161.457 3.337l-.711-1.353 1.335.762.608-1.477.22 1.494 1.587-.433-1.025 1.183 1.281.942-1.555-.136.027 1.588-.884-1.276-1.111 1.101.354-1.518-1.53-.207 1.404-.67zM146.949 2.068l-.711-1.353 1.335.762.608-1.477.22 1.494 1.587-.433-1.026 1.183 1.283.942-1.556-.136.027 1.587-.884-1.275-1.11 1.1.354-1.517-1.531-.207 1.404-.67zM309.876 14.311l-.853-.45.958-.085-.223-.994.653.702.655-.802-.097.991.997.028-.845.493.589.821-.914-.347-.17.98-.368-.923-.858.446.476-.86zM306.681 5.734l-.853-.45.958-.086-.223-.994.653.703.655-.802-.097.99.996.028-.844.493.588.822-.914-.347-.169.979-.368-.923-.858.447.476-.86zM280.675 19.229l-.853-.45.958-.085-.223-.994.653.702.655-.802-.097.99.997.029-.845.493.588.82-.913-.346-.17.98-.368-.924-.858.447.476-.86zM297.107 21.765l-.853-.45.958-.085-.223-.994.653.703.655-.803-.097.991.996.028-.844.493.588.821-.914-.347-.169.98-.368-.923-.858.447.476-.86zM289.801 16.98l-.853-.45.958-.085-.223-.994.653.702.655-.802-.097.99.997.028-.845.494.588.82-.913-.346-.17.98-.368-.924-.858.447.476-.86zM270.566 19.506l-.854-.45.959-.085-.223-.994.653.702.655-.802-.097.99.996.029-.844.493.588.821-.914-.347-.169.98-.368-.923-.858.446.476-.86zM262.687 24.105l-.853-.45.959-.085-.224-.994.653.702.655-.802-.097.991.997.028-.845.493.588.821-.913-.347-.17.98-.368-.923-.858.446.476-.86zM344.326 1.35l-.592-.658.844.233.112-.925.344.812.802-.48-.383.82.842.342-.871.154.253.893-.675-.59-.442.787-.034-.91-.868.11.668-.587zM354.024 11.822l-.887-.988 1.266.35.167-1.388.515 1.218 1.205-.72-.576 1.23 1.264.513-1.307.23.379 1.34-1.011-.884-.664 1.18-.05-1.365-1.303.164 1.002-.88zM366.443 14.062l-.739-.823 1.055.29.139-1.155.43 1.014 1.003-.6-.479 1.025 1.052.428-1.088.192.315 1.117-.842-.738-.553.984-.042-1.138-1.085.137.834-.733zM374.157 25.92l-.888-.989 1.266.35.167-1.388.516 1.218 1.204-.72-.575 1.23 1.263.513-1.306.23.379 1.34-1.012-.884-.663 1.18-.051-1.365-1.302.164 1.002-.88zM385.793 17.116l-.591-.659.844.233.111-.925.344.811.803-.48-.384.82.842.343-.871.154.253.893-.674-.59-.443.787-.033-.91-.868.11.667-.587zM96.36 13.152l-.68-.902 1.047.389.244-1.162.347 1.069 1.073-.52-.578.999 1.031.528-1.123.098.221 1.163-.79-.824-.65.95.059-1.16-1.115.043.913-.671zM93.882 27.657l-.453-.601.698.26.163-.775.23.712.716-.346-.385.665.687.353-.748.065.147.775-.527-.55-.433.634.039-.773-.743.029.609-.448zM107.297 9.643l-.566-.752.872.325.204-.969.289.891.894-.433-.482.832.86.44-.937.082.185.97-.659-.688-.541.792.049-.966-.929.035.761-.559zM113.595 3.389l-.566-.752.872.324.204-.968.288.89.895-.432-.482.832.859.44-.936.082.185.969-.659-.687-.541.792.048-.966-.929.035.762-.56zM105.09 23.525l-.566-.752.872.324.204-.968.289.89.894-.432-.482.832.86.44-.937.082.185.969-.659-.687-.541.792.049-.966-.93.035.762-.56zM39.852 41.422l-.525-.843.887.421.303-1 .222.964.98-.374-.583.831.864.543h-.992L41.113 43l-.63-.783-.642.783.14-1.012L39 41.94l.852-.518zM160.852 62.422l-.525-.843.887.421.303-1 .222.964.981-.374-.584.831.864.543h-.992l.105 1.036-.63-.783-.643.783.141-1.012-.981-.048.852-.518zM204.852 79.421l-.525-.842.887.421.303-1 .222.964.981-.374-.584.831.864.543h-.992l.105 1.036-.63-.783-.643.783.141-1.012-.981-.048.852-.519zM124.448 89.216l-.792.6.339-.922-1.023-.212.94-.308-.461-.943.881.506.462-.909.089.988 1.023-.198-.723.698.838.57-1.021-.049.041.981-.593-.802zM170.852 88.772l-.525.843.887-.422.303 1 .222-.963.981.373-.584-.831.864-.542h-.992l.105-1.037-.63.784-.643-.784.141 1.012-.981.049.852.518zM291.852 67.772l-.525.843.887-.422.303 1 .222-.963.981.373-.584-.831.864-.542h-.992l.105-1.037-.63.784-.643-.784.141 1.012-.981.049.852.518zM245.852 50.772l-.525.843.887-.422.303 1 .222-.963.981.373-.584-.831.864-.542h-.992l.105-1.037-.63.784-.643-.784.141 1.012-.981.049.852.518zM255.448 40.977l-.792-.6.339.923-1.023.211.94.308-.461.943.881-.506.462.91.089-.989 1.023.198-.723-.698.838-.569-1.021.048.041-.98-.593.801zM174.986 62.422l.525-.843-.887.421-.303-1-.222.964-.981-.374.584.831-.864.543h.992L173.725 64l.63-.783.642.783-.14-1.012.981-.048-.852-.518zM130.986 79.421l.525-.842-.887.421-.303-1-.222.964-.981-.374.584.831-.864.543h.992L129.725 81l.63-.783.642.783-.14-1.012.981-.048-.852-.519zM338.852 48.578l-.525.843.887-.421.303 1 .222-.964.981.374-.584-.831.864-.543h-.992l.105-1.036-.63.783-.643-.783.141 1.012-.981.048.852.518zM425.852 60.228l-.525-.843.887.422.303-1 .222.963.981-.373-.584.831.864.542h-.992l.105 1.037-.63-.784-.643.784.141-1.012-.981-.049.852-.518zM308.986 65.579l.525.842-.887-.421-.303 1-.222-.964-.981.374.584-.831-.864-.543h.992L307.725 64l.63.783.642-.783-.14 1.012.981.048-.852.519zM264.986 48.578l.525.843-.887-.421-.303 1-.222-.964-.981.374.584-.831-.864-.543h.992L263.725 47l.63.783.642-.783-.14 1.012.981.048-.852.518zM317.852 77.579l-.525.842.887-.421.303 1 .222-.964.981.374-.584-.831.864-.543h-.992l.105-1.036-.63.783-.643-.783.141 1.012-.981.048.852.519zM404.852 89.228l-.525-.843.887.422.303-1 .222.963.981-.373-.584.831.864.542h-.992l.105 1.037-.63-.784-.643.784.141-1.012-.981-.049.852-.518zM287.986 94.579l.525.842-.887-.421-.303 1-.222-.964-.981.374.584-.831-.864-.543h.992L286.725 93l.63.783.642-.783-.14 1.012.981.048-.852.519zM243.986 77.579l.525.842-.887-.421-.303 1-.222-.964-.981.374.584-.831-.864-.543h.992L242.725 76l.63.783.642-.783-.14 1.012.981.048-.852.519zM211.39 89.216l.792.6-.339-.922 1.023-.212-.94-.308.461-.943-.881.506-.462-.909-.089.988-1.023-.198.723.698-.838.57 1.021-.049-.041.981.593-.802zM43.986 67.772l.525.843-.887-.422-.303 1-.222-.963-.98.373.583-.831-.864-.542h.992l-.105-1.037.63.784.642-.784-.14 1.012.98.049-.851.518zM80.39 58.977l.792-.6-.34.923 1.024.211-.94.308.46.943-.88-.506-.462.91-.09-.989-1.022.198.723-.698-.838-.569 1.02.048-.04-.98.593.801zM203.986 54.422l.525-.843-.887.421-.303-1-.222.964-.981-.374.584.831-.864.543h.992L202.725 56l.63-.783.642.783-.14-1.012.981-.048-.852-.518zM159.986 71.421l.525-.842-.887.421-.303-1-.222.964-.981-.374.584.831-.864.543h.992L158.725 73l.63-.783.642.783-.14-1.012.981-.048-.852-.519zM272.986 69.579l.525.842-.887-.421-.303 1-.222-.964-.981.374.584-.831-.864-.543h.992L271.725 68l.63.783.642-.783-.14 1.012.981.048-.852.519zM109.39 50.977l.792-.6-.339.923 1.023.211-.94.308.461.943-.881-.506-.462.91-.089-.989-1.023.198.723-.698-.838-.569 1.021.048-.041-.98.593.801zM384.986 62.422l.525-.843-.887.421-.303-1-.222.964-.981-.374.584.831-.864.543h.992L383.725 64l.63-.783.642.783-.14-1.012.981-.048-.852-.518zM340.986 79.421l.525-.842-.887.421-.303-1-.222.964-.981-.374.584.831-.864.543h.992L339.725 81l.63-.783.642.783-.14-1.012.981-.048-.852-.519zM290.39 58.977l.792-.6-.339.923 1.023.211-.94.308.461.943-.881-.506-.462.91-.089-.989-1.023.198.723-.698-.838-.569 1.021.048-.041-.98.593.801zM173.986 78.421l.525-.842-.887.421-.303-1-.222.964-.981-.374.584.831-.864.543h.992L172.725 80l.63-.783.642.783-.14-1.012.981-.048-.852-.519zM129.986 95.421l.525-.842-.887.421-.303-1-.222.964-.981-.374.584.831-.864.543h.992L128.725 97l.63-.783.642.783-.14-1.012.981-.048-.852-.519zM242.986 93.579l.525.842-.887-.421-.303 1-.222-.964-.981.374.584-.831-.864-.543h.992L241.725 92l.63.783.642-.783-.14 1.012.981.048-.852.519zM79.39 74.977l.792-.6-.34.923 1.024.211-.94.308.46.943-.88-.506-.462.91-.09-.989-1.022.198.723-.698-.838-.569 1.02.048-.04-.98.593.801zM134.593 55.422l-.525-.843.887.421.304-1 .221.964.981-.374-.584.831.864.543h-.992l.105 1.036-.63-.783-.642.783.14-1.012-.981-.048.852-.518zM178.593 72.421l-.525-.842.887.421.304-1 .221.964.981-.374-.584.831.864.543h-.992l.105 1.036-.63-.783-.642.783.14-1.012-.981-.048.852-.519zM65.593 70.579l-.525.842.887-.421.304 1 .221-.964.98.374-.583-.831.864-.543h-.992L66.854 69l-.63.783-.642-.783.14 1.012-.98.048.851.519zM229.189 51.977l-.792-.6.339.923-1.023.211.94.308-.461.943.881-.506.462.91.089-.989 1.023.198-.723-.698.838-.569-1.021.048.041-.98-.593.801zM165.986 87.579l.525.842-.887-.421-.303 1-.222-.964-.981.374.584-.831-.864-.543h.992L164.725 86l.63.783.642-.783-.14 1.012.981.048-.852.519zM121.986 70.579l.525.842-.887-.421-.303 1-.222-.964-.981.374.584-.831-.864-.543h.992L120.725 69l.63.783.642-.783-.14 1.012.981.048-.852.519zM234.986 72.421l.525-.842-.887.421-.303-1-.222.964-.981-.374.584.831-.864.543h.992L233.725 74l.63-.783.642.783-.14-1.012.981-.048-.852-.519zM71.39 91.023l.792.6-.34-.923 1.024-.211-.94-.308.46-.943-.88.506-.462-.91-.09.989-1.022-.198.723.698-.838.569 1.02-.048-.04.98.593-.801zM321.986 55.422l.525-.843-.887.421-.303-1-.222.964-.981-.374.584.831-.864.543h.992L320.725 57l.63-.783.642.783-.14-1.012.981-.048-.852-.518zM277.986 72.421l.525-.842-.887.421-.303-1-.222.964-.981-.374.584.831-.864.543h.992L276.725 74l.63-.783.642.783-.14-1.012.981-.048-.852-.519zM390.986 70.579l.525.842-.887-.421-.303 1-.222-.964-.981.374.584-.831-.864-.543h.992L389.725 69l.63.783.642-.783-.14 1.012.981.048-.852.519z"/><path d="m227.39 51.977.792-.6-.339.923 1.023.211-.94.308.461.943-.881-.506-.462.91-.089-.989-1.023.198.723-.698-.838-.569 1.021.048-.041-.98.593.801zM155.986 54.422l.525-.843-.887.421-.303-1-.222.964-.981-.374.584.831-.864.543h.992L154.725 56l.63-.783.642.783-.14-1.012.981-.048-.852-.518zM111.986 71.421l.525-.842-.887.421-.303-1-.222.964-.981-.374.584.831-.864.543h.992L110.725 73l.63-.783.642.783-.14-1.012.981-.048-.852-.519zM224.986 69.579l.525.842-.887-.421-.303 1-.222-.964-.981.374.584-.831-.864-.543h.992L223.725 68l.63.783.642-.783-.14 1.012.981.048-.852.519zM61.39 50.977l.792-.6-.34.923 1.024.211-.94.308.46.943-.88-.506-.462.91-.09-.989-1.022.198.723-.698-.838-.569 1.02.048-.04-.98.593.801zM175.986 91.579l.525.842-.887-.421-.303 1-.222-.964-.981.374.584-.831-.864-.543h.992L174.725 90l.63.783.642-.783-.14 1.012.981.048-.852.519zM131.986 74.579l.525.842-.887-.421-.303 1-.222-.964-.981.374.584-.831-.864-.543h.992L130.725 73l.63.783.642-.783-.14 1.012.981.048-.852.519zM244.986 76.421l.525-.842-.887.421-.303-1-.222.964-.981-.374.584.831-.864.543h.992L243.725 78l.63-.783.642.783-.14-1.012.981-.048-.852-.519zM81.39 95.023l.792.6-.34-.923 1.024-.211-.94-.308.46-.943-.88.506-.462-.91-.09.989-1.022-.198.723.698-.838.569 1.02-.048-.04.98.593-.801zM354.986 62.422l.525-.843-.887.421-.303-1-.222.964-.981-.374.584.831-.864.543h.992L353.725 64l.63-.783.642.783-.14-1.012.981-.048-.852-.518zM310.986 79.421l.525-.842-.887.421-.303-1-.222.964-.981-.374.584.831-.864.543h.992L309.725 81l.63-.783.642.783-.14-1.012.981-.048-.852-.519zM423.986 77.579l.525.842-.887-.421-.303 1-.222-.964-.981.374.584-.831-.864-.543h.992L422.725 76l.63.783.642-.783-.14 1.012.981.048-.852.519zM260.39 58.977l.792-.6-.339.923 1.023.211-.94.308.461.943-.881-.506-.462.91-.089-.989-1.023.198.723-.698-.838-.569 1.021.048-.041-.98.593.801zM52.56 56.445l-.792.6.34-.922-1.024-.212.94-.308-.46-.943.88.506.462-.91.09.99 1.022-.2-.723.7.838.568-1.02-.048.04.98-.593-.801zM65.513 11.088l-.792.6.34-.922-1.024-.212.94-.308-.46-.942.88.506.462-.91.09.989 1.022-.199-.723.699.838.568-1.02-.048.04.981-.593-.802z"/></g><defs><clipPath id="a"><rect width="450" height="96" rx="20" fill="#fff"/></clipPath></defs></svg>